G04 #@! TF.FileFunction,Soldermask,Bot*
%FSLAX46Y46*%
G04 Gerber Fmt 4.6, Leading zero omitted, Abs format (unit mm)*
G04 Created by KiCad (PCBNEW 4.0.7) date Wed Sep 16 00:54:05 2020*
%MOMM*%
%LPD*%
G01*
G04 APERTURE LIST*
%ADD10C,0.150000*%
%ADD11C,1.543000*%
%ADD12R,2.250000X2.250000*%
%ADD13C,2.250000*%
%ADD14R,2.940000X3.910000*%
G04 APERTURE END LIST*
D10*
D11*
X134366000Y-89281000D03*
X134493000Y-74549000D03*
X134493000Y-72009000D03*
X134366000Y-86741000D03*
D12*
X153543000Y-93599000D03*
D13*
X156043000Y-93599000D03*
D12*
X148590000Y-67437000D03*
D13*
X151090000Y-67437000D03*
X153590000Y-67437000D03*
X156090000Y-67437000D03*
X158590000Y-67437000D03*
X161090000Y-67437000D03*
D12*
X137033000Y-67437000D03*
D13*
X139533000Y-67437000D03*
X142033000Y-67437000D03*
D12*
X139192000Y-93599000D03*
D13*
X141692000Y-93599000D03*
X144192000Y-93599000D03*
X146692000Y-93599000D03*
D14*
X134291000Y-80518000D03*
X163651000Y-80518000D03*
X188266000Y-80264000D03*
X217626000Y-80264000D03*
D12*
X193167000Y-93345000D03*
D13*
X195667000Y-93345000D03*
X198167000Y-93345000D03*
X200667000Y-93345000D03*
D12*
X191008000Y-67183000D03*
D13*
X193508000Y-67183000D03*
X196008000Y-67183000D03*
D12*
X202565000Y-67183000D03*
D13*
X205065000Y-67183000D03*
X207565000Y-67183000D03*
X210065000Y-67183000D03*
X212565000Y-67183000D03*
X215065000Y-67183000D03*
D12*
X207518000Y-93345000D03*
D13*
X210018000Y-93345000D03*
D11*
X188341000Y-86487000D03*
X188468000Y-71755000D03*
X188468000Y-74295000D03*
X188341000Y-89027000D03*
X187960000Y-134366000D03*
X188087000Y-119634000D03*
X188087000Y-117094000D03*
X187960000Y-131826000D03*
D12*
X207137000Y-138684000D03*
D13*
X209637000Y-138684000D03*
D12*
X202184000Y-112522000D03*
D13*
X204684000Y-112522000D03*
X207184000Y-112522000D03*
X209684000Y-112522000D03*
X212184000Y-112522000D03*
X214684000Y-112522000D03*
D12*
X190627000Y-112522000D03*
D13*
X193127000Y-112522000D03*
X195627000Y-112522000D03*
D12*
X192786000Y-138684000D03*
D13*
X195286000Y-138684000D03*
X197786000Y-138684000D03*
X200286000Y-138684000D03*
D14*
X187885000Y-125603000D03*
X217245000Y-125603000D03*
X133910000Y-125857000D03*
X163270000Y-125857000D03*
D12*
X138811000Y-138938000D03*
D13*
X141311000Y-138938000D03*
X143811000Y-138938000D03*
X146311000Y-138938000D03*
D12*
X136652000Y-112776000D03*
D13*
X139152000Y-112776000D03*
X141652000Y-112776000D03*
D12*
X148209000Y-112776000D03*
D13*
X150709000Y-112776000D03*
X153209000Y-112776000D03*
X155709000Y-112776000D03*
X158209000Y-112776000D03*
X160709000Y-112776000D03*
D12*
X153162000Y-138938000D03*
D13*
X155662000Y-138938000D03*
D11*
X133985000Y-132080000D03*
X134112000Y-117348000D03*
X134112000Y-119888000D03*
X133985000Y-134620000D03*
M02*
