G04 #@! TF.FileFunction,Copper,L1,Top,Signal*
%FSLAX46Y46*%
G04 Gerber Fmt 4.6, Leading zero omitted, Abs format (unit mm)*
G04 Created by KiCad (PCBNEW 4.0.7) date Wed Sep 16 00:54:05 2020*
%MOMM*%
%LPD*%
G01*
G04 APERTURE LIST*
%ADD10C,0.150000*%
%ADD11C,1.143000*%
%ADD12R,1.450000X0.450000*%
%ADD13R,1.300000X1.500000*%
%ADD14R,1.850000X1.850000*%
%ADD15C,1.850000*%
%ADD16R,1.250000X1.500000*%
%ADD17R,1.500000X1.250000*%
%ADD18R,1.000000X2.000000*%
%ADD19C,0.600000*%
%ADD20C,0.400000*%
%ADD21C,0.250000*%
%ADD22C,0.500000*%
%ADD23C,0.254000*%
G04 APERTURE END LIST*
D10*
D11*
X134366000Y-89281000D03*
X134493000Y-74549000D03*
X134493000Y-72009000D03*
X134366000Y-86741000D03*
D12*
X160557000Y-83316000D03*
X160557000Y-82666000D03*
X160557000Y-82016000D03*
X160557000Y-81366000D03*
X160557000Y-80716000D03*
X160557000Y-80066000D03*
X160557000Y-79416000D03*
X160557000Y-78766000D03*
X160557000Y-78116000D03*
X160557000Y-77466000D03*
X154657000Y-77466000D03*
X154657000Y-78116000D03*
X154657000Y-78766000D03*
X154657000Y-79416000D03*
X154657000Y-80066000D03*
X154657000Y-80716000D03*
X154657000Y-81366000D03*
X154657000Y-82016000D03*
X154657000Y-82666000D03*
X154657000Y-83316000D03*
D13*
X160401000Y-86153000D03*
X160401000Y-88853000D03*
X157607000Y-72183000D03*
X157607000Y-74883000D03*
D14*
X153543000Y-93599000D03*
D15*
X156043000Y-93599000D03*
D14*
X148590000Y-67437000D03*
D15*
X151090000Y-67437000D03*
X153590000Y-67437000D03*
X156090000Y-67437000D03*
X158590000Y-67437000D03*
X161090000Y-67437000D03*
D14*
X137033000Y-67437000D03*
D15*
X139533000Y-67437000D03*
X142033000Y-67437000D03*
D14*
X139192000Y-93599000D03*
D15*
X141692000Y-93599000D03*
X144192000Y-93599000D03*
X146692000Y-93599000D03*
D13*
X160528000Y-74883000D03*
X160528000Y-72183000D03*
D16*
X154686000Y-74910000D03*
X154686000Y-72410000D03*
D17*
X154706000Y-86106000D03*
X157206000Y-86106000D03*
D18*
X151399000Y-72772000D03*
X149399000Y-72772000D03*
X147399000Y-72772000D03*
X145399000Y-72772000D03*
X143399000Y-72772000D03*
X141399000Y-72772000D03*
X139399000Y-72772000D03*
X137399000Y-72772000D03*
X137399000Y-88772000D03*
X139399000Y-88772000D03*
X141399000Y-88772000D03*
X143399000Y-88772000D03*
X145399000Y-88772000D03*
X147399000Y-88772000D03*
X149399000Y-88772000D03*
X151399000Y-88772000D03*
X205374000Y-72518000D03*
X203374000Y-72518000D03*
X201374000Y-72518000D03*
X199374000Y-72518000D03*
X197374000Y-72518000D03*
X195374000Y-72518000D03*
X193374000Y-72518000D03*
X191374000Y-72518000D03*
X191374000Y-88518000D03*
X193374000Y-88518000D03*
X195374000Y-88518000D03*
X197374000Y-88518000D03*
X199374000Y-88518000D03*
X201374000Y-88518000D03*
X203374000Y-88518000D03*
X205374000Y-88518000D03*
D17*
X208681000Y-85852000D03*
X211181000Y-85852000D03*
D16*
X208661000Y-74656000D03*
X208661000Y-72156000D03*
D13*
X214503000Y-74629000D03*
X214503000Y-71929000D03*
D14*
X193167000Y-93345000D03*
D15*
X195667000Y-93345000D03*
X198167000Y-93345000D03*
X200667000Y-93345000D03*
D14*
X191008000Y-67183000D03*
D15*
X193508000Y-67183000D03*
X196008000Y-67183000D03*
D14*
X202565000Y-67183000D03*
D15*
X205065000Y-67183000D03*
X207565000Y-67183000D03*
X210065000Y-67183000D03*
X212565000Y-67183000D03*
X215065000Y-67183000D03*
D14*
X207518000Y-93345000D03*
D15*
X210018000Y-93345000D03*
D13*
X211582000Y-71929000D03*
X211582000Y-74629000D03*
X214376000Y-85899000D03*
X214376000Y-88599000D03*
D12*
X214532000Y-83062000D03*
X214532000Y-82412000D03*
X214532000Y-81762000D03*
X214532000Y-81112000D03*
X214532000Y-80462000D03*
X214532000Y-79812000D03*
X214532000Y-79162000D03*
X214532000Y-78512000D03*
X214532000Y-77862000D03*
X214532000Y-77212000D03*
X208632000Y-77212000D03*
X208632000Y-77862000D03*
X208632000Y-78512000D03*
X208632000Y-79162000D03*
X208632000Y-79812000D03*
X208632000Y-80462000D03*
X208632000Y-81112000D03*
X208632000Y-81762000D03*
X208632000Y-82412000D03*
X208632000Y-83062000D03*
D11*
X188341000Y-86487000D03*
X188468000Y-71755000D03*
X188468000Y-74295000D03*
X188341000Y-89027000D03*
X187960000Y-134366000D03*
X188087000Y-119634000D03*
X188087000Y-117094000D03*
X187960000Y-131826000D03*
D12*
X214151000Y-128401000D03*
X214151000Y-127751000D03*
X214151000Y-127101000D03*
X214151000Y-126451000D03*
X214151000Y-125801000D03*
X214151000Y-125151000D03*
X214151000Y-124501000D03*
X214151000Y-123851000D03*
X214151000Y-123201000D03*
X214151000Y-122551000D03*
X208251000Y-122551000D03*
X208251000Y-123201000D03*
X208251000Y-123851000D03*
X208251000Y-124501000D03*
X208251000Y-125151000D03*
X208251000Y-125801000D03*
X208251000Y-126451000D03*
X208251000Y-127101000D03*
X208251000Y-127751000D03*
X208251000Y-128401000D03*
D13*
X213995000Y-131238000D03*
X213995000Y-133938000D03*
X211201000Y-117268000D03*
X211201000Y-119968000D03*
D14*
X207137000Y-138684000D03*
D15*
X209637000Y-138684000D03*
D14*
X202184000Y-112522000D03*
D15*
X204684000Y-112522000D03*
X207184000Y-112522000D03*
X209684000Y-112522000D03*
X212184000Y-112522000D03*
X214684000Y-112522000D03*
D14*
X190627000Y-112522000D03*
D15*
X193127000Y-112522000D03*
X195627000Y-112522000D03*
D14*
X192786000Y-138684000D03*
D15*
X195286000Y-138684000D03*
X197786000Y-138684000D03*
X200286000Y-138684000D03*
D13*
X214122000Y-119968000D03*
X214122000Y-117268000D03*
D16*
X208280000Y-119995000D03*
X208280000Y-117495000D03*
D17*
X208300000Y-131191000D03*
X210800000Y-131191000D03*
D18*
X204993000Y-117857000D03*
X202993000Y-117857000D03*
X200993000Y-117857000D03*
X198993000Y-117857000D03*
X196993000Y-117857000D03*
X194993000Y-117857000D03*
X192993000Y-117857000D03*
X190993000Y-117857000D03*
X190993000Y-133857000D03*
X192993000Y-133857000D03*
X194993000Y-133857000D03*
X196993000Y-133857000D03*
X198993000Y-133857000D03*
X200993000Y-133857000D03*
X202993000Y-133857000D03*
X204993000Y-133857000D03*
X151018000Y-118111000D03*
X149018000Y-118111000D03*
X147018000Y-118111000D03*
X145018000Y-118111000D03*
X143018000Y-118111000D03*
X141018000Y-118111000D03*
X139018000Y-118111000D03*
X137018000Y-118111000D03*
X137018000Y-134111000D03*
X139018000Y-134111000D03*
X141018000Y-134111000D03*
X143018000Y-134111000D03*
X145018000Y-134111000D03*
X147018000Y-134111000D03*
X149018000Y-134111000D03*
X151018000Y-134111000D03*
D17*
X154325000Y-131445000D03*
X156825000Y-131445000D03*
D16*
X154305000Y-120249000D03*
X154305000Y-117749000D03*
D13*
X160147000Y-120222000D03*
X160147000Y-117522000D03*
D14*
X138811000Y-138938000D03*
D15*
X141311000Y-138938000D03*
X143811000Y-138938000D03*
X146311000Y-138938000D03*
D14*
X136652000Y-112776000D03*
D15*
X139152000Y-112776000D03*
X141652000Y-112776000D03*
D14*
X148209000Y-112776000D03*
D15*
X150709000Y-112776000D03*
X153209000Y-112776000D03*
X155709000Y-112776000D03*
X158209000Y-112776000D03*
X160709000Y-112776000D03*
D14*
X153162000Y-138938000D03*
D15*
X155662000Y-138938000D03*
D13*
X157226000Y-117522000D03*
X157226000Y-120222000D03*
X160020000Y-131492000D03*
X160020000Y-134192000D03*
D12*
X160176000Y-128655000D03*
X160176000Y-128005000D03*
X160176000Y-127355000D03*
X160176000Y-126705000D03*
X160176000Y-126055000D03*
X160176000Y-125405000D03*
X160176000Y-124755000D03*
X160176000Y-124105000D03*
X160176000Y-123455000D03*
X160176000Y-122805000D03*
X154276000Y-122805000D03*
X154276000Y-123455000D03*
X154276000Y-124105000D03*
X154276000Y-124755000D03*
X154276000Y-125405000D03*
X154276000Y-126055000D03*
X154276000Y-126705000D03*
X154276000Y-127355000D03*
X154276000Y-128005000D03*
X154276000Y-128655000D03*
D11*
X133985000Y-132080000D03*
X134112000Y-117348000D03*
X134112000Y-119888000D03*
X133985000Y-134620000D03*
D19*
X139192000Y-85217000D03*
X137033000Y-84074000D03*
X191008000Y-83820000D03*
X193167000Y-84963000D03*
X192786000Y-130302000D03*
X190627000Y-129159000D03*
X136652000Y-129413000D03*
X138811000Y-130556000D03*
X156337000Y-72390000D03*
X159131000Y-74803000D03*
X157099000Y-88900000D03*
X161544000Y-88392000D03*
X149352000Y-86614000D03*
X156718000Y-80010000D03*
X210693000Y-79756000D03*
X203327000Y-86360000D03*
X215519000Y-88138000D03*
X211074000Y-88646000D03*
X213106000Y-74549000D03*
X210312000Y-72136000D03*
X209931000Y-117475000D03*
X212725000Y-119888000D03*
X210693000Y-133985000D03*
X215138000Y-133477000D03*
X202946000Y-131699000D03*
X210312000Y-125095000D03*
X156337000Y-125349000D03*
X148971000Y-131953000D03*
X161163000Y-133731000D03*
X156718000Y-134239000D03*
X158750000Y-120142000D03*
X155956000Y-117729000D03*
X137541000Y-86487000D03*
X191516000Y-86233000D03*
X191135000Y-131572000D03*
X137160000Y-131826000D03*
X136779000Y-91313000D03*
X136906000Y-85344000D03*
X190881000Y-85090000D03*
X190754000Y-91059000D03*
X190373000Y-136398000D03*
X190500000Y-130429000D03*
X136525000Y-130683000D03*
X136398000Y-136652000D03*
X153162000Y-70866000D03*
X146558000Y-69850000D03*
X200533000Y-69596000D03*
X207137000Y-70612000D03*
X206756000Y-115951000D03*
X200152000Y-114935000D03*
X146177000Y-115189000D03*
X152781000Y-116205000D03*
X161417000Y-69342000D03*
X215392000Y-69088000D03*
X215011000Y-114427000D03*
X161036000Y-114681000D03*
X165989000Y-70866000D03*
X131953000Y-70231000D03*
X149479000Y-96139000D03*
X203454000Y-95885000D03*
X185928000Y-69977000D03*
X219964000Y-70612000D03*
X219583000Y-115951000D03*
X185547000Y-115316000D03*
X203073000Y-141224000D03*
X149098000Y-141478000D03*
X131572000Y-115570000D03*
X165608000Y-116205000D03*
X159385000Y-91440000D03*
X142240000Y-91313000D03*
X196215000Y-91059000D03*
X213360000Y-91186000D03*
X212979000Y-136525000D03*
X195834000Y-136398000D03*
X141859000Y-136652000D03*
X159004000Y-136779000D03*
X159512000Y-70358000D03*
X154813000Y-68961000D03*
X208788000Y-68707000D03*
X213487000Y-70104000D03*
X213106000Y-115443000D03*
X208407000Y-114046000D03*
X154432000Y-114300000D03*
X159131000Y-115697000D03*
X136906000Y-75692000D03*
X190881000Y-75438000D03*
X190500000Y-120777000D03*
X136525000Y-121031000D03*
X137668000Y-75057000D03*
X191643000Y-74803000D03*
X191262000Y-120142000D03*
X137287000Y-120396000D03*
D20*
X154686000Y-74910000D02*
X154686000Y-75565000D01*
X154706000Y-86106000D02*
X154432000Y-86106000D01*
X154686000Y-74910000D02*
X154686000Y-75184000D01*
X154706000Y-86106000D02*
X154706000Y-85832000D01*
X154706000Y-86106000D02*
X154706000Y-85959000D01*
X154686000Y-74910000D02*
X154686000Y-74930000D01*
X137033000Y-68580000D02*
X137668000Y-69215000D01*
X137668000Y-69215000D02*
X143129000Y-69215000D01*
X143129000Y-69215000D02*
X144907000Y-67437000D01*
X144907000Y-67437000D02*
X148590000Y-67437000D01*
X137033000Y-67437000D02*
X137033000Y-68580000D01*
X144272000Y-85217000D02*
X145288000Y-85217000D01*
X145542000Y-85217000D02*
X145288000Y-85217000D01*
X146177000Y-85217000D02*
X145542000Y-85217000D01*
X154432000Y-86106000D02*
X153543000Y-85217000D01*
X153543000Y-85217000D02*
X146177000Y-85217000D01*
X144272000Y-85217000D02*
X143399000Y-86090000D01*
X144272000Y-85217000D02*
X145542000Y-85217000D01*
X142526000Y-85217000D02*
X141478000Y-85217000D01*
X139192000Y-85217000D02*
X141478000Y-85217000D01*
X143399000Y-86090000D02*
X142526000Y-85217000D01*
X143399000Y-88772000D02*
X143399000Y-86090000D01*
X143399000Y-86090000D02*
X144272000Y-85217000D01*
X157861000Y-80137000D02*
X158440000Y-80716000D01*
X156718000Y-81280000D02*
X156718000Y-83947000D01*
X154706000Y-85959000D02*
X156718000Y-83947000D01*
X157861000Y-80137000D02*
X156718000Y-81280000D01*
X158440000Y-80716000D02*
X157861000Y-80137000D01*
X160557000Y-80716000D02*
X158440000Y-80716000D01*
X157099000Y-78232000D02*
X157861000Y-78994000D01*
X157099000Y-77343000D02*
X157099000Y-78232000D01*
X154686000Y-74930000D02*
X157099000Y-77343000D01*
X158440000Y-80716000D02*
X160557000Y-80716000D01*
X157861000Y-80137000D02*
X158440000Y-80716000D01*
X157861000Y-78994000D02*
X157861000Y-80137000D01*
X156154000Y-80716000D02*
X156718000Y-81280000D01*
X154657000Y-80716000D02*
X156154000Y-80716000D01*
X153233000Y-80716000D02*
X152908000Y-80391000D01*
X154657000Y-80716000D02*
X153233000Y-80716000D01*
X208632000Y-80462000D02*
X207208000Y-80462000D01*
X207208000Y-80462000D02*
X206883000Y-80137000D01*
X208632000Y-80462000D02*
X210129000Y-80462000D01*
X210129000Y-80462000D02*
X210693000Y-81026000D01*
X211836000Y-78740000D02*
X211836000Y-79883000D01*
X211836000Y-79883000D02*
X212415000Y-80462000D01*
X212415000Y-80462000D02*
X214532000Y-80462000D01*
X208661000Y-74676000D02*
X211074000Y-77089000D01*
X211074000Y-77089000D02*
X211074000Y-77978000D01*
X211074000Y-77978000D02*
X211836000Y-78740000D01*
X214532000Y-80462000D02*
X212415000Y-80462000D01*
X212415000Y-80462000D02*
X211836000Y-79883000D01*
X211836000Y-79883000D02*
X210693000Y-81026000D01*
X208681000Y-85705000D02*
X210693000Y-83693000D01*
X210693000Y-81026000D02*
X210693000Y-83693000D01*
X211836000Y-79883000D02*
X212415000Y-80462000D01*
X197374000Y-85836000D02*
X198247000Y-84963000D01*
X197374000Y-88518000D02*
X197374000Y-85836000D01*
X197374000Y-85836000D02*
X196501000Y-84963000D01*
X193167000Y-84963000D02*
X195453000Y-84963000D01*
X196501000Y-84963000D02*
X195453000Y-84963000D01*
X198247000Y-84963000D02*
X199517000Y-84963000D01*
X198247000Y-84963000D02*
X197374000Y-85836000D01*
X207518000Y-84963000D02*
X200152000Y-84963000D01*
X208407000Y-85852000D02*
X207518000Y-84963000D01*
X200152000Y-84963000D02*
X199517000Y-84963000D01*
X199517000Y-84963000D02*
X199263000Y-84963000D01*
X198247000Y-84963000D02*
X199263000Y-84963000D01*
X191008000Y-67183000D02*
X191008000Y-68326000D01*
X198882000Y-67183000D02*
X202565000Y-67183000D01*
X197104000Y-68961000D02*
X198882000Y-67183000D01*
X191643000Y-68961000D02*
X197104000Y-68961000D01*
X191008000Y-68326000D02*
X191643000Y-68961000D01*
X208661000Y-74656000D02*
X208661000Y-74676000D01*
X208681000Y-85852000D02*
X208681000Y-85705000D01*
X208681000Y-85852000D02*
X208681000Y-85578000D01*
X208661000Y-74656000D02*
X208661000Y-74930000D01*
X208681000Y-85852000D02*
X208407000Y-85852000D01*
X208661000Y-74656000D02*
X208661000Y-75311000D01*
X208280000Y-119995000D02*
X208280000Y-120650000D01*
X208300000Y-131191000D02*
X208026000Y-131191000D01*
X208280000Y-119995000D02*
X208280000Y-120269000D01*
X208300000Y-131191000D02*
X208300000Y-130917000D01*
X208300000Y-131191000D02*
X208300000Y-131044000D01*
X208280000Y-119995000D02*
X208280000Y-120015000D01*
X190627000Y-113665000D02*
X191262000Y-114300000D01*
X191262000Y-114300000D02*
X196723000Y-114300000D01*
X196723000Y-114300000D02*
X198501000Y-112522000D01*
X198501000Y-112522000D02*
X202184000Y-112522000D01*
X190627000Y-112522000D02*
X190627000Y-113665000D01*
X197866000Y-130302000D02*
X198882000Y-130302000D01*
X199136000Y-130302000D02*
X198882000Y-130302000D01*
X199771000Y-130302000D02*
X199136000Y-130302000D01*
X208026000Y-131191000D02*
X207137000Y-130302000D01*
X207137000Y-130302000D02*
X199771000Y-130302000D01*
X197866000Y-130302000D02*
X196993000Y-131175000D01*
X197866000Y-130302000D02*
X199136000Y-130302000D01*
X196120000Y-130302000D02*
X195072000Y-130302000D01*
X192786000Y-130302000D02*
X195072000Y-130302000D01*
X196993000Y-131175000D02*
X196120000Y-130302000D01*
X196993000Y-133857000D02*
X196993000Y-131175000D01*
X196993000Y-131175000D02*
X197866000Y-130302000D01*
X211455000Y-125222000D02*
X212034000Y-125801000D01*
X210312000Y-126365000D02*
X210312000Y-129032000D01*
X208300000Y-131044000D02*
X210312000Y-129032000D01*
X211455000Y-125222000D02*
X210312000Y-126365000D01*
X212034000Y-125801000D02*
X211455000Y-125222000D01*
X214151000Y-125801000D02*
X212034000Y-125801000D01*
X210693000Y-123317000D02*
X211455000Y-124079000D01*
X210693000Y-122428000D02*
X210693000Y-123317000D01*
X208280000Y-120015000D02*
X210693000Y-122428000D01*
X212034000Y-125801000D02*
X214151000Y-125801000D01*
X211455000Y-125222000D02*
X212034000Y-125801000D01*
X211455000Y-124079000D02*
X211455000Y-125222000D01*
X209748000Y-125801000D02*
X210312000Y-126365000D01*
X208251000Y-125801000D02*
X209748000Y-125801000D01*
X206827000Y-125801000D02*
X206502000Y-125476000D01*
X208251000Y-125801000D02*
X206827000Y-125801000D01*
X154276000Y-126055000D02*
X152852000Y-126055000D01*
X152852000Y-126055000D02*
X152527000Y-125730000D01*
X154276000Y-126055000D02*
X155773000Y-126055000D01*
X155773000Y-126055000D02*
X156337000Y-126619000D01*
X157480000Y-124333000D02*
X157480000Y-125476000D01*
X157480000Y-125476000D02*
X158059000Y-126055000D01*
X158059000Y-126055000D02*
X160176000Y-126055000D01*
X154305000Y-120269000D02*
X156718000Y-122682000D01*
X156718000Y-122682000D02*
X156718000Y-123571000D01*
X156718000Y-123571000D02*
X157480000Y-124333000D01*
X160176000Y-126055000D02*
X158059000Y-126055000D01*
X158059000Y-126055000D02*
X157480000Y-125476000D01*
X157480000Y-125476000D02*
X156337000Y-126619000D01*
X154325000Y-131298000D02*
X156337000Y-129286000D01*
X156337000Y-126619000D02*
X156337000Y-129286000D01*
X157480000Y-125476000D02*
X158059000Y-126055000D01*
X143018000Y-131429000D02*
X143891000Y-130556000D01*
X143018000Y-134111000D02*
X143018000Y-131429000D01*
X143018000Y-131429000D02*
X142145000Y-130556000D01*
X138811000Y-130556000D02*
X141097000Y-130556000D01*
X142145000Y-130556000D02*
X141097000Y-130556000D01*
X143891000Y-130556000D02*
X145161000Y-130556000D01*
X143891000Y-130556000D02*
X143018000Y-131429000D01*
X153162000Y-130556000D02*
X145796000Y-130556000D01*
X154051000Y-131445000D02*
X153162000Y-130556000D01*
X145796000Y-130556000D02*
X145161000Y-130556000D01*
X145161000Y-130556000D02*
X144907000Y-130556000D01*
X143891000Y-130556000D02*
X144907000Y-130556000D01*
X136652000Y-112776000D02*
X136652000Y-113919000D01*
X144526000Y-112776000D02*
X148209000Y-112776000D01*
X142748000Y-114554000D02*
X144526000Y-112776000D01*
X137287000Y-114554000D02*
X142748000Y-114554000D01*
X136652000Y-113919000D02*
X137287000Y-114554000D01*
X154305000Y-120249000D02*
X154305000Y-120269000D01*
X154325000Y-131445000D02*
X154325000Y-131298000D01*
X154325000Y-131445000D02*
X154325000Y-131171000D01*
X154305000Y-120249000D02*
X154305000Y-120523000D01*
X154325000Y-131445000D02*
X154051000Y-131445000D01*
X154305000Y-120249000D02*
X154305000Y-120904000D01*
X157206000Y-92436000D02*
X156043000Y-93599000D01*
X157206000Y-89027000D02*
X157206000Y-92436000D01*
X157206000Y-86106000D02*
X157206000Y-89027000D01*
X149399000Y-87964000D02*
X149399000Y-88772000D01*
X160528000Y-74883000D02*
X161243000Y-74883000D01*
X161243000Y-74883000D02*
X160528000Y-74883000D01*
X160528000Y-74883000D02*
X161243000Y-74883000D01*
X154686000Y-72410000D02*
X154686000Y-72517000D01*
X156317000Y-72410000D02*
X154686000Y-72410000D01*
X156337000Y-72390000D02*
X156317000Y-72410000D01*
X159211000Y-74883000D02*
X159131000Y-74803000D01*
X160528000Y-74883000D02*
X159211000Y-74883000D01*
X157099000Y-88900000D02*
X157206000Y-88793000D01*
X157206000Y-88793000D02*
X157206000Y-86106000D01*
X161544000Y-88392000D02*
X161083000Y-88853000D01*
X161083000Y-88853000D02*
X160401000Y-88853000D01*
X149399000Y-86661000D02*
X149352000Y-86614000D01*
X149399000Y-88772000D02*
X149399000Y-86661000D01*
X156662000Y-80066000D02*
X156718000Y-80010000D01*
X154657000Y-80066000D02*
X156662000Y-80066000D01*
X208632000Y-79812000D02*
X210637000Y-79812000D01*
X210637000Y-79812000D02*
X210693000Y-79756000D01*
X203374000Y-88518000D02*
X203374000Y-86407000D01*
X203374000Y-86407000D02*
X203327000Y-86360000D01*
X215058000Y-88599000D02*
X214376000Y-88599000D01*
X215519000Y-88138000D02*
X215058000Y-88599000D01*
X211181000Y-88539000D02*
X211181000Y-85852000D01*
X211074000Y-88646000D02*
X211181000Y-88539000D01*
X214503000Y-74629000D02*
X213186000Y-74629000D01*
X213186000Y-74629000D02*
X213106000Y-74549000D01*
X210312000Y-72136000D02*
X210292000Y-72156000D01*
X210292000Y-72156000D02*
X208661000Y-72156000D01*
X208661000Y-72156000D02*
X208661000Y-72263000D01*
X214503000Y-74629000D02*
X215218000Y-74629000D01*
X215218000Y-74629000D02*
X214503000Y-74629000D01*
X214503000Y-74629000D02*
X215218000Y-74629000D01*
X203374000Y-87710000D02*
X203374000Y-88518000D01*
X211181000Y-85852000D02*
X211181000Y-88773000D01*
X211181000Y-88773000D02*
X211181000Y-92182000D01*
X211181000Y-92182000D02*
X210018000Y-93345000D01*
X210800000Y-137521000D02*
X209637000Y-138684000D01*
X210800000Y-134112000D02*
X210800000Y-137521000D01*
X210800000Y-131191000D02*
X210800000Y-134112000D01*
X202993000Y-133049000D02*
X202993000Y-133857000D01*
X214122000Y-119968000D02*
X214837000Y-119968000D01*
X214837000Y-119968000D02*
X214122000Y-119968000D01*
X214122000Y-119968000D02*
X214837000Y-119968000D01*
X208280000Y-117495000D02*
X208280000Y-117602000D01*
X209911000Y-117495000D02*
X208280000Y-117495000D01*
X209931000Y-117475000D02*
X209911000Y-117495000D01*
X212805000Y-119968000D02*
X212725000Y-119888000D01*
X214122000Y-119968000D02*
X212805000Y-119968000D01*
X210693000Y-133985000D02*
X210800000Y-133878000D01*
X210800000Y-133878000D02*
X210800000Y-131191000D01*
X215138000Y-133477000D02*
X214677000Y-133938000D01*
X214677000Y-133938000D02*
X213995000Y-133938000D01*
X202993000Y-131746000D02*
X202946000Y-131699000D01*
X202993000Y-133857000D02*
X202993000Y-131746000D01*
X210256000Y-125151000D02*
X210312000Y-125095000D01*
X208251000Y-125151000D02*
X210256000Y-125151000D01*
X154276000Y-125405000D02*
X156281000Y-125405000D01*
X156281000Y-125405000D02*
X156337000Y-125349000D01*
X149018000Y-134111000D02*
X149018000Y-132000000D01*
X149018000Y-132000000D02*
X148971000Y-131953000D01*
X160702000Y-134192000D02*
X160020000Y-134192000D01*
X161163000Y-133731000D02*
X160702000Y-134192000D01*
X156825000Y-134132000D02*
X156825000Y-131445000D01*
X156718000Y-134239000D02*
X156825000Y-134132000D01*
X160147000Y-120222000D02*
X158830000Y-120222000D01*
X158830000Y-120222000D02*
X158750000Y-120142000D01*
X155956000Y-117729000D02*
X155936000Y-117749000D01*
X155936000Y-117749000D02*
X154305000Y-117749000D01*
X154305000Y-117749000D02*
X154305000Y-117856000D01*
X160147000Y-120222000D02*
X160862000Y-120222000D01*
X160862000Y-120222000D02*
X160147000Y-120222000D01*
X160147000Y-120222000D02*
X160862000Y-120222000D01*
X149018000Y-133303000D02*
X149018000Y-134111000D01*
X156825000Y-131445000D02*
X156825000Y-134366000D01*
X156825000Y-134366000D02*
X156825000Y-137775000D01*
X156825000Y-137775000D02*
X155662000Y-138938000D01*
D21*
X157607000Y-72183000D02*
X160528000Y-72183000D01*
X211582000Y-71929000D02*
X214503000Y-71929000D01*
X211201000Y-117268000D02*
X214122000Y-117268000D01*
X157226000Y-117522000D02*
X160147000Y-117522000D01*
X154657000Y-83316000D02*
X140077000Y-83316000D01*
X140077000Y-83316000D02*
X137541000Y-85852000D01*
X137541000Y-85852000D02*
X137541000Y-86487000D01*
X191516000Y-85598000D02*
X191516000Y-86233000D01*
X194052000Y-83062000D02*
X191516000Y-85598000D01*
X208632000Y-83062000D02*
X194052000Y-83062000D01*
X208251000Y-128401000D02*
X193671000Y-128401000D01*
X193671000Y-128401000D02*
X191135000Y-130937000D01*
X191135000Y-130937000D02*
X191135000Y-131572000D01*
X137160000Y-131191000D02*
X137160000Y-131826000D01*
X139696000Y-128655000D02*
X137160000Y-131191000D01*
X154276000Y-128655000D02*
X139696000Y-128655000D01*
X141605000Y-92075000D02*
X140843000Y-91313000D01*
X140843000Y-91313000D02*
X137668000Y-91313000D01*
X136779000Y-91313000D02*
X137668000Y-91313000D01*
X154657000Y-82666000D02*
X140462000Y-82666000D01*
X143477000Y-92075000D02*
X141605000Y-92075000D01*
X144192000Y-92790000D02*
X143477000Y-92075000D01*
X144192000Y-93599000D02*
X144192000Y-92790000D01*
X140208000Y-82666000D02*
X140451000Y-82666000D01*
X140451000Y-82666000D02*
X140462000Y-82677000D01*
X140462000Y-82677000D02*
X140462000Y-82666000D01*
X136906000Y-85344000D02*
X139584000Y-82666000D01*
X139584000Y-82666000D02*
X140197000Y-82666000D01*
X140197000Y-82666000D02*
X140208000Y-82677000D01*
X140208000Y-82677000D02*
X140208000Y-82666000D01*
X194183000Y-82423000D02*
X194183000Y-82412000D01*
X194172000Y-82412000D02*
X194183000Y-82423000D01*
X193559000Y-82412000D02*
X194172000Y-82412000D01*
X190881000Y-85090000D02*
X193559000Y-82412000D01*
X194437000Y-82423000D02*
X194437000Y-82412000D01*
X194426000Y-82412000D02*
X194437000Y-82423000D01*
X194183000Y-82412000D02*
X194426000Y-82412000D01*
X198167000Y-93345000D02*
X198167000Y-92536000D01*
X198167000Y-92536000D02*
X197452000Y-91821000D01*
X197452000Y-91821000D02*
X195580000Y-91821000D01*
X208632000Y-82412000D02*
X194437000Y-82412000D01*
X190754000Y-91059000D02*
X191643000Y-91059000D01*
X194818000Y-91059000D02*
X191643000Y-91059000D01*
X195580000Y-91821000D02*
X194818000Y-91059000D01*
X195199000Y-137160000D02*
X194437000Y-136398000D01*
X194437000Y-136398000D02*
X191262000Y-136398000D01*
X190373000Y-136398000D02*
X191262000Y-136398000D01*
X208251000Y-127751000D02*
X194056000Y-127751000D01*
X197071000Y-137160000D02*
X195199000Y-137160000D01*
X197786000Y-137875000D02*
X197071000Y-137160000D01*
X197786000Y-138684000D02*
X197786000Y-137875000D01*
X193802000Y-127751000D02*
X194045000Y-127751000D01*
X194045000Y-127751000D02*
X194056000Y-127762000D01*
X194056000Y-127762000D02*
X194056000Y-127751000D01*
X190500000Y-130429000D02*
X193178000Y-127751000D01*
X193178000Y-127751000D02*
X193791000Y-127751000D01*
X193791000Y-127751000D02*
X193802000Y-127762000D01*
X193802000Y-127762000D02*
X193802000Y-127751000D01*
X139827000Y-128016000D02*
X139827000Y-128005000D01*
X139816000Y-128005000D02*
X139827000Y-128016000D01*
X139203000Y-128005000D02*
X139816000Y-128005000D01*
X136525000Y-130683000D02*
X139203000Y-128005000D01*
X140081000Y-128016000D02*
X140081000Y-128005000D01*
X140070000Y-128005000D02*
X140081000Y-128016000D01*
X139827000Y-128005000D02*
X140070000Y-128005000D01*
X143811000Y-138938000D02*
X143811000Y-138129000D01*
X143811000Y-138129000D02*
X143096000Y-137414000D01*
X143096000Y-137414000D02*
X141224000Y-137414000D01*
X154276000Y-128005000D02*
X140081000Y-128005000D01*
X136398000Y-136652000D02*
X137287000Y-136652000D01*
X140462000Y-136652000D02*
X137287000Y-136652000D01*
X141224000Y-137414000D02*
X140462000Y-136652000D01*
X146692000Y-93987000D02*
X146692000Y-93599000D01*
X158496000Y-93599000D02*
X157797500Y-94297500D01*
X141399000Y-72772000D02*
X141399000Y-71803000D01*
X156972000Y-95123000D02*
X149352000Y-95123000D01*
X157797500Y-94297500D02*
X156972000Y-95123000D01*
X145796000Y-95123000D02*
X137160000Y-95123000D01*
X149352000Y-95123000D02*
X147574000Y-95123000D01*
X159172000Y-81366000D02*
X158496000Y-82042000D01*
X160557000Y-81366000D02*
X159172000Y-81366000D01*
X146692000Y-94227000D02*
X145796000Y-95123000D01*
X146692000Y-93599000D02*
X146692000Y-94227000D01*
X146692000Y-94241000D02*
X147574000Y-95123000D01*
X146692000Y-93599000D02*
X146692000Y-94241000D01*
X141399000Y-70533000D02*
X141399000Y-72772000D01*
X141399000Y-70533000D02*
X141399000Y-72772000D01*
X158496000Y-82931000D02*
X158496000Y-93599000D01*
X158496000Y-82042000D02*
X158496000Y-82931000D01*
X137160000Y-95123000D02*
X136398000Y-94361000D01*
X135890000Y-78232000D02*
X135890000Y-77851000D01*
X135890000Y-93853000D02*
X135890000Y-78232000D01*
X136398000Y-94361000D02*
X135890000Y-93853000D01*
X135890000Y-78232000D02*
X135890000Y-71882000D01*
X136525000Y-70104000D02*
X140970000Y-70104000D01*
X140970000Y-70104000D02*
X141399000Y-70533000D01*
X135890000Y-70739000D02*
X136525000Y-70104000D01*
X135890000Y-71882000D02*
X135890000Y-70739000D01*
X189865000Y-71628000D02*
X189865000Y-70485000D01*
X189865000Y-70485000D02*
X190500000Y-69850000D01*
X194945000Y-69850000D02*
X195374000Y-70279000D01*
X190500000Y-69850000D02*
X194945000Y-69850000D01*
X189865000Y-77978000D02*
X189865000Y-71628000D01*
X190373000Y-94107000D02*
X189865000Y-93599000D01*
X189865000Y-93599000D02*
X189865000Y-77978000D01*
X189865000Y-77978000D02*
X189865000Y-77597000D01*
X191135000Y-94869000D02*
X190373000Y-94107000D01*
X212471000Y-81788000D02*
X212471000Y-82677000D01*
X212471000Y-82677000D02*
X212471000Y-93345000D01*
X195374000Y-70279000D02*
X195374000Y-72518000D01*
X195374000Y-70279000D02*
X195374000Y-72518000D01*
X200667000Y-93345000D02*
X200667000Y-93987000D01*
X200667000Y-93987000D02*
X201549000Y-94869000D01*
X200667000Y-93345000D02*
X200667000Y-93973000D01*
X200667000Y-93973000D02*
X199771000Y-94869000D01*
X214532000Y-81112000D02*
X213147000Y-81112000D01*
X213147000Y-81112000D02*
X212471000Y-81788000D01*
X203327000Y-94869000D02*
X201549000Y-94869000D01*
X199771000Y-94869000D02*
X191135000Y-94869000D01*
X211772500Y-94043500D02*
X210947000Y-94869000D01*
X210947000Y-94869000D02*
X203327000Y-94869000D01*
X195374000Y-72518000D02*
X195374000Y-71549000D01*
X212471000Y-93345000D02*
X211772500Y-94043500D01*
X200667000Y-93733000D02*
X200667000Y-93345000D01*
X200286000Y-139072000D02*
X200286000Y-138684000D01*
X212090000Y-138684000D02*
X211391500Y-139382500D01*
X194993000Y-117857000D02*
X194993000Y-116888000D01*
X210566000Y-140208000D02*
X202946000Y-140208000D01*
X211391500Y-139382500D02*
X210566000Y-140208000D01*
X199390000Y-140208000D02*
X190754000Y-140208000D01*
X202946000Y-140208000D02*
X201168000Y-140208000D01*
X212766000Y-126451000D02*
X212090000Y-127127000D01*
X214151000Y-126451000D02*
X212766000Y-126451000D01*
X200286000Y-139312000D02*
X199390000Y-140208000D01*
X200286000Y-138684000D02*
X200286000Y-139312000D01*
X200286000Y-139326000D02*
X201168000Y-140208000D01*
X200286000Y-138684000D02*
X200286000Y-139326000D01*
X194993000Y-115618000D02*
X194993000Y-117857000D01*
X194993000Y-115618000D02*
X194993000Y-117857000D01*
X212090000Y-128016000D02*
X212090000Y-138684000D01*
X212090000Y-127127000D02*
X212090000Y-128016000D01*
X190754000Y-140208000D02*
X189992000Y-139446000D01*
X189484000Y-123317000D02*
X189484000Y-122936000D01*
X189484000Y-138938000D02*
X189484000Y-123317000D01*
X189992000Y-139446000D02*
X189484000Y-138938000D01*
X189484000Y-123317000D02*
X189484000Y-116967000D01*
X190119000Y-115189000D02*
X194564000Y-115189000D01*
X194564000Y-115189000D02*
X194993000Y-115618000D01*
X189484000Y-115824000D02*
X190119000Y-115189000D01*
X189484000Y-116967000D02*
X189484000Y-115824000D01*
X135509000Y-117221000D02*
X135509000Y-116078000D01*
X135509000Y-116078000D02*
X136144000Y-115443000D01*
X140589000Y-115443000D02*
X141018000Y-115872000D01*
X136144000Y-115443000D02*
X140589000Y-115443000D01*
X135509000Y-123571000D02*
X135509000Y-117221000D01*
X136017000Y-139700000D02*
X135509000Y-139192000D01*
X135509000Y-139192000D02*
X135509000Y-123571000D01*
X135509000Y-123571000D02*
X135509000Y-123190000D01*
X136779000Y-140462000D02*
X136017000Y-139700000D01*
X158115000Y-127381000D02*
X158115000Y-128270000D01*
X158115000Y-128270000D02*
X158115000Y-138938000D01*
X141018000Y-115872000D02*
X141018000Y-118111000D01*
X141018000Y-115872000D02*
X141018000Y-118111000D01*
X146311000Y-138938000D02*
X146311000Y-139580000D01*
X146311000Y-139580000D02*
X147193000Y-140462000D01*
X146311000Y-138938000D02*
X146311000Y-139566000D01*
X146311000Y-139566000D02*
X145415000Y-140462000D01*
X160176000Y-126705000D02*
X158791000Y-126705000D01*
X158791000Y-126705000D02*
X158115000Y-127381000D01*
X148971000Y-140462000D02*
X147193000Y-140462000D01*
X145415000Y-140462000D02*
X136779000Y-140462000D01*
X157416500Y-139636500D02*
X156591000Y-140462000D01*
X156591000Y-140462000D02*
X148971000Y-140462000D01*
X141018000Y-118111000D02*
X141018000Y-117142000D01*
X158115000Y-138938000D02*
X157416500Y-139636500D01*
X146311000Y-139326000D02*
X146311000Y-138938000D01*
X163449000Y-67056000D02*
X162179000Y-65786000D01*
X162179000Y-65786000D02*
X143684000Y-65786000D01*
X143684000Y-65786000D02*
X142033000Y-67437000D01*
X160557000Y-79416000D02*
X161757000Y-79416000D01*
X161757000Y-79416000D02*
X163449000Y-77724000D01*
X163449000Y-77724000D02*
X163449000Y-67056000D01*
X217424000Y-77470000D02*
X217424000Y-66802000D01*
X215732000Y-79162000D02*
X217424000Y-77470000D01*
X214532000Y-79162000D02*
X215732000Y-79162000D01*
X197659000Y-65532000D02*
X196008000Y-67183000D01*
X216154000Y-65532000D02*
X197659000Y-65532000D01*
X217424000Y-66802000D02*
X216154000Y-65532000D01*
X217043000Y-112141000D02*
X215773000Y-110871000D01*
X215773000Y-110871000D02*
X197278000Y-110871000D01*
X197278000Y-110871000D02*
X195627000Y-112522000D01*
X214151000Y-124501000D02*
X215351000Y-124501000D01*
X215351000Y-124501000D02*
X217043000Y-122809000D01*
X217043000Y-122809000D02*
X217043000Y-112141000D01*
X163068000Y-123063000D02*
X163068000Y-112395000D01*
X161376000Y-124755000D02*
X163068000Y-123063000D01*
X160176000Y-124755000D02*
X161376000Y-124755000D01*
X143303000Y-111125000D02*
X141652000Y-112776000D01*
X161798000Y-111125000D02*
X143303000Y-111125000D01*
X163068000Y-112395000D02*
X161798000Y-111125000D01*
X153162000Y-76200000D02*
X153162000Y-70866000D01*
X154428000Y-77466000D02*
X153162000Y-76200000D01*
X154657000Y-77466000D02*
X154428000Y-77466000D01*
X145399000Y-71009000D02*
X145399000Y-72772000D01*
X146558000Y-69850000D02*
X145399000Y-71009000D01*
X200533000Y-69596000D02*
X199374000Y-70755000D01*
X199374000Y-70755000D02*
X199374000Y-72518000D01*
X208632000Y-77212000D02*
X208403000Y-77212000D01*
X208403000Y-77212000D02*
X207137000Y-75946000D01*
X207137000Y-75946000D02*
X207137000Y-70612000D01*
X206756000Y-121285000D02*
X206756000Y-115951000D01*
X208022000Y-122551000D02*
X206756000Y-121285000D01*
X208251000Y-122551000D02*
X208022000Y-122551000D01*
X198993000Y-116094000D02*
X198993000Y-117857000D01*
X200152000Y-114935000D02*
X198993000Y-116094000D01*
X146177000Y-115189000D02*
X145018000Y-116348000D01*
X145018000Y-116348000D02*
X145018000Y-118111000D01*
X154276000Y-122805000D02*
X154047000Y-122805000D01*
X154047000Y-122805000D02*
X152781000Y-121539000D01*
X152781000Y-121539000D02*
X152781000Y-116205000D01*
X147399000Y-70533000D02*
X148336000Y-69596000D01*
X148336000Y-69596000D02*
X148844000Y-69596000D01*
X147399000Y-72772000D02*
X147399000Y-70533000D01*
X156090000Y-68573000D02*
X155067000Y-69596000D01*
X155067000Y-69596000D02*
X148844000Y-69596000D01*
X156090000Y-67437000D02*
X156090000Y-68573000D01*
X147399000Y-75136000D02*
X151029000Y-78766000D01*
X151029000Y-78766000D02*
X154657000Y-78766000D01*
X147399000Y-72772000D02*
X147399000Y-75136000D01*
X201374000Y-72518000D02*
X201374000Y-74882000D01*
X205004000Y-78512000D02*
X208632000Y-78512000D01*
X201374000Y-74882000D02*
X205004000Y-78512000D01*
X210065000Y-67183000D02*
X210065000Y-68319000D01*
X209042000Y-69342000D02*
X202819000Y-69342000D01*
X210065000Y-68319000D02*
X209042000Y-69342000D01*
X201374000Y-72518000D02*
X201374000Y-70279000D01*
X202311000Y-69342000D02*
X202819000Y-69342000D01*
X201374000Y-70279000D02*
X202311000Y-69342000D01*
X200993000Y-115618000D02*
X201930000Y-114681000D01*
X201930000Y-114681000D02*
X202438000Y-114681000D01*
X200993000Y-117857000D02*
X200993000Y-115618000D01*
X209684000Y-113658000D02*
X208661000Y-114681000D01*
X208661000Y-114681000D02*
X202438000Y-114681000D01*
X209684000Y-112522000D02*
X209684000Y-113658000D01*
X200993000Y-120221000D02*
X204623000Y-123851000D01*
X204623000Y-123851000D02*
X208251000Y-123851000D01*
X200993000Y-117857000D02*
X200993000Y-120221000D01*
X147018000Y-118111000D02*
X147018000Y-120475000D01*
X150648000Y-124105000D02*
X154276000Y-124105000D01*
X147018000Y-120475000D02*
X150648000Y-124105000D01*
X155709000Y-112776000D02*
X155709000Y-113912000D01*
X154686000Y-114935000D02*
X148463000Y-114935000D01*
X155709000Y-113912000D02*
X154686000Y-114935000D01*
X147018000Y-118111000D02*
X147018000Y-115872000D01*
X147955000Y-114935000D02*
X148463000Y-114935000D01*
X147018000Y-115872000D02*
X147955000Y-114935000D01*
X160568000Y-78105000D02*
X160557000Y-78116000D01*
X162814000Y-71755000D02*
X162814000Y-70739000D01*
X162814000Y-70739000D02*
X161417000Y-69342000D01*
X162814000Y-71755000D02*
X162814000Y-76708000D01*
X161914000Y-78116000D02*
X162814000Y-77216000D01*
X162814000Y-77216000D02*
X162814000Y-76708000D01*
X160557000Y-78116000D02*
X161914000Y-78116000D01*
X214532000Y-77862000D02*
X215889000Y-77862000D01*
X216789000Y-76962000D02*
X216789000Y-76454000D01*
X215889000Y-77862000D02*
X216789000Y-76962000D01*
X216789000Y-71501000D02*
X216789000Y-76454000D01*
X216789000Y-70485000D02*
X215392000Y-69088000D01*
X216789000Y-71501000D02*
X216789000Y-70485000D01*
X214543000Y-77851000D02*
X214532000Y-77862000D01*
X214162000Y-123190000D02*
X214151000Y-123201000D01*
X216408000Y-116840000D02*
X216408000Y-115824000D01*
X216408000Y-115824000D02*
X215011000Y-114427000D01*
X216408000Y-116840000D02*
X216408000Y-121793000D01*
X215508000Y-123201000D02*
X216408000Y-122301000D01*
X216408000Y-122301000D02*
X216408000Y-121793000D01*
X214151000Y-123201000D02*
X215508000Y-123201000D01*
X160176000Y-123455000D02*
X161533000Y-123455000D01*
X162433000Y-122555000D02*
X162433000Y-122047000D01*
X161533000Y-123455000D02*
X162433000Y-122555000D01*
X162433000Y-117094000D02*
X162433000Y-122047000D01*
X162433000Y-116078000D02*
X161036000Y-114681000D01*
X162433000Y-117094000D02*
X162433000Y-116078000D01*
X160187000Y-123444000D02*
X160176000Y-123455000D01*
X158296000Y-70231000D02*
X161090000Y-67437000D01*
X149098000Y-72471000D02*
X149399000Y-72772000D01*
X149399000Y-75104000D02*
X152411000Y-78116000D01*
X152411000Y-78116000D02*
X154657000Y-78116000D01*
X149399000Y-72772000D02*
X149399000Y-75104000D01*
X149399000Y-70946000D02*
X150114000Y-70231000D01*
X149399000Y-72772000D02*
X149399000Y-70946000D01*
X152527000Y-70231000D02*
X158296000Y-70231000D01*
X152273000Y-70231000D02*
X152527000Y-70231000D01*
X150114000Y-70231000D02*
X152273000Y-70231000D01*
X204089000Y-69977000D02*
X206248000Y-69977000D01*
X206248000Y-69977000D02*
X206502000Y-69977000D01*
X206502000Y-69977000D02*
X212271000Y-69977000D01*
X203374000Y-72518000D02*
X203374000Y-70692000D01*
X203374000Y-70692000D02*
X204089000Y-69977000D01*
X203374000Y-72518000D02*
X203374000Y-74850000D01*
X206386000Y-77862000D02*
X208632000Y-77862000D01*
X203374000Y-74850000D02*
X206386000Y-77862000D01*
X203073000Y-72217000D02*
X203374000Y-72518000D01*
X212271000Y-69977000D02*
X215065000Y-67183000D01*
X211890000Y-115316000D02*
X214684000Y-112522000D01*
X202692000Y-117556000D02*
X202993000Y-117857000D01*
X202993000Y-120189000D02*
X206005000Y-123201000D01*
X206005000Y-123201000D02*
X208251000Y-123201000D01*
X202993000Y-117857000D02*
X202993000Y-120189000D01*
X202993000Y-116031000D02*
X203708000Y-115316000D01*
X202993000Y-117857000D02*
X202993000Y-116031000D01*
X206121000Y-115316000D02*
X211890000Y-115316000D01*
X205867000Y-115316000D02*
X206121000Y-115316000D01*
X203708000Y-115316000D02*
X205867000Y-115316000D01*
X149733000Y-115570000D02*
X151892000Y-115570000D01*
X151892000Y-115570000D02*
X152146000Y-115570000D01*
X152146000Y-115570000D02*
X157915000Y-115570000D01*
X149018000Y-118111000D02*
X149018000Y-116285000D01*
X149018000Y-116285000D02*
X149733000Y-115570000D01*
X149018000Y-118111000D02*
X149018000Y-120443000D01*
X152030000Y-123455000D02*
X154276000Y-123455000D01*
X149018000Y-120443000D02*
X152030000Y-123455000D01*
X148717000Y-117810000D02*
X149018000Y-118111000D01*
X157915000Y-115570000D02*
X160709000Y-112776000D01*
D22*
X151399000Y-91455000D02*
X153543000Y-93599000D01*
X151399000Y-88772000D02*
X151399000Y-91455000D01*
X165989000Y-93853000D02*
X165989000Y-70866000D01*
X163703000Y-96139000D02*
X165989000Y-93853000D01*
X149479000Y-96139000D02*
X163703000Y-96139000D01*
X131953000Y-93599000D02*
X131953000Y-70231000D01*
X134493000Y-96139000D02*
X131953000Y-93599000D01*
X149479000Y-96139000D02*
X134493000Y-96139000D01*
X203454000Y-95885000D02*
X188468000Y-95885000D01*
X188468000Y-95885000D02*
X185928000Y-93345000D01*
X185928000Y-93345000D02*
X185928000Y-69977000D01*
X203454000Y-95885000D02*
X217678000Y-95885000D01*
X217678000Y-95885000D02*
X219964000Y-93599000D01*
X219964000Y-93599000D02*
X219964000Y-70612000D01*
X205374000Y-88518000D02*
X205374000Y-91201000D01*
X205374000Y-91201000D02*
X207518000Y-93345000D01*
X204993000Y-136540000D02*
X207137000Y-138684000D01*
X204993000Y-133857000D02*
X204993000Y-136540000D01*
X219583000Y-138938000D02*
X219583000Y-115951000D01*
X217297000Y-141224000D02*
X219583000Y-138938000D01*
X203073000Y-141224000D02*
X217297000Y-141224000D01*
X185547000Y-138684000D02*
X185547000Y-115316000D01*
X188087000Y-141224000D02*
X185547000Y-138684000D01*
X203073000Y-141224000D02*
X188087000Y-141224000D01*
X149098000Y-141478000D02*
X134112000Y-141478000D01*
X134112000Y-141478000D02*
X131572000Y-138938000D01*
X131572000Y-138938000D02*
X131572000Y-115570000D01*
X149098000Y-141478000D02*
X163322000Y-141478000D01*
X163322000Y-141478000D02*
X165608000Y-139192000D01*
X165608000Y-139192000D02*
X165608000Y-116205000D01*
X151018000Y-134111000D02*
X151018000Y-136794000D01*
X151018000Y-136794000D02*
X153162000Y-138938000D01*
D21*
X160531000Y-78740000D02*
X160557000Y-78766000D01*
X159157000Y-78766000D02*
X160557000Y-78766000D01*
X157607000Y-75057000D02*
X157607000Y-74883000D01*
X158496000Y-75946000D02*
X157607000Y-75057000D01*
X158496000Y-77724000D02*
X158496000Y-75946000D01*
X158496000Y-77724000D02*
X158496000Y-78105000D01*
X158496000Y-78105000D02*
X159157000Y-78766000D01*
X212471000Y-77851000D02*
X213132000Y-78512000D01*
X212471000Y-77470000D02*
X212471000Y-77851000D01*
X212471000Y-77470000D02*
X212471000Y-75692000D01*
X212471000Y-75692000D02*
X211582000Y-74803000D01*
X211582000Y-74803000D02*
X211582000Y-74629000D01*
X213132000Y-78512000D02*
X214532000Y-78512000D01*
X214506000Y-78486000D02*
X214532000Y-78512000D01*
X214125000Y-123825000D02*
X214151000Y-123851000D01*
X212751000Y-123851000D02*
X214151000Y-123851000D01*
X211201000Y-120142000D02*
X211201000Y-119968000D01*
X212090000Y-121031000D02*
X211201000Y-120142000D01*
X212090000Y-122809000D02*
X212090000Y-121031000D01*
X212090000Y-122809000D02*
X212090000Y-123190000D01*
X212090000Y-123190000D02*
X212751000Y-123851000D01*
X158115000Y-123444000D02*
X158776000Y-124105000D01*
X158115000Y-123063000D02*
X158115000Y-123444000D01*
X158115000Y-123063000D02*
X158115000Y-121285000D01*
X158115000Y-121285000D02*
X157226000Y-120396000D01*
X157226000Y-120396000D02*
X157226000Y-120222000D01*
X158776000Y-124105000D02*
X160176000Y-124105000D01*
X160150000Y-124079000D02*
X160176000Y-124105000D01*
X160401000Y-83472000D02*
X160557000Y-83316000D01*
X160401000Y-86153000D02*
X160401000Y-83472000D01*
X214376000Y-85899000D02*
X214376000Y-83218000D01*
X214376000Y-83218000D02*
X214532000Y-83062000D01*
X213995000Y-128557000D02*
X214151000Y-128401000D01*
X213995000Y-131238000D02*
X213995000Y-128557000D01*
X160020000Y-131492000D02*
X160020000Y-128811000D01*
X160020000Y-128811000D02*
X160176000Y-128655000D01*
X141399000Y-90297000D02*
X141399000Y-88772000D01*
X162179000Y-81026000D02*
X162179000Y-88900000D01*
X159385000Y-91440000D02*
X160655000Y-91440000D01*
X160655000Y-91440000D02*
X162179000Y-89916000D01*
X162179000Y-89916000D02*
X162179000Y-88900000D01*
X141399000Y-90472000D02*
X142240000Y-91313000D01*
X141399000Y-90297000D02*
X141399000Y-90472000D01*
X161742000Y-80066000D02*
X162179000Y-80503000D01*
X162179000Y-80503000D02*
X162179000Y-81026000D01*
X160557000Y-80066000D02*
X161742000Y-80066000D01*
X214532000Y-79812000D02*
X215717000Y-79812000D01*
X216154000Y-80249000D02*
X216154000Y-80772000D01*
X215717000Y-79812000D02*
X216154000Y-80249000D01*
X195374000Y-90043000D02*
X195374000Y-90218000D01*
X195374000Y-90218000D02*
X196215000Y-91059000D01*
X216154000Y-89662000D02*
X216154000Y-88646000D01*
X214630000Y-91186000D02*
X216154000Y-89662000D01*
X213360000Y-91186000D02*
X214630000Y-91186000D01*
X216154000Y-80772000D02*
X216154000Y-88646000D01*
X195374000Y-90043000D02*
X195374000Y-88518000D01*
X194993000Y-135382000D02*
X194993000Y-133857000D01*
X215773000Y-126111000D02*
X215773000Y-133985000D01*
X212979000Y-136525000D02*
X214249000Y-136525000D01*
X214249000Y-136525000D02*
X215773000Y-135001000D01*
X215773000Y-135001000D02*
X215773000Y-133985000D01*
X194993000Y-135557000D02*
X195834000Y-136398000D01*
X194993000Y-135382000D02*
X194993000Y-135557000D01*
X215336000Y-125151000D02*
X215773000Y-125588000D01*
X215773000Y-125588000D02*
X215773000Y-126111000D01*
X214151000Y-125151000D02*
X215336000Y-125151000D01*
X160176000Y-125405000D02*
X161361000Y-125405000D01*
X161798000Y-125842000D02*
X161798000Y-126365000D01*
X161361000Y-125405000D02*
X161798000Y-125842000D01*
X141018000Y-135636000D02*
X141018000Y-135811000D01*
X141018000Y-135811000D02*
X141859000Y-136652000D01*
X161798000Y-135255000D02*
X161798000Y-134239000D01*
X160274000Y-136779000D02*
X161798000Y-135255000D01*
X159004000Y-136779000D02*
X160274000Y-136779000D01*
X161798000Y-126365000D02*
X161798000Y-134239000D01*
X141018000Y-135636000D02*
X141018000Y-134111000D01*
X160557000Y-77466000D02*
X160913000Y-77466000D01*
X160557000Y-77466000D02*
X161167000Y-77466000D01*
X161167000Y-77466000D02*
X160557000Y-77466000D01*
X162052000Y-76581000D02*
X161167000Y-77466000D01*
X143399000Y-72772000D02*
X143399000Y-71866000D01*
X162052000Y-70993000D02*
X162052000Y-76581000D01*
X161671000Y-70612000D02*
X162052000Y-70993000D01*
X161671000Y-70612000D02*
X161417000Y-70358000D01*
X161417000Y-70358000D02*
X159512000Y-70358000D01*
X146685000Y-68961000D02*
X154813000Y-68961000D01*
X145288000Y-68961000D02*
X143399000Y-70850000D01*
X143399000Y-70850000D02*
X143399000Y-72772000D01*
X146685000Y-68961000D02*
X145288000Y-68961000D01*
X200660000Y-68707000D02*
X199263000Y-68707000D01*
X197374000Y-70596000D02*
X197374000Y-72518000D01*
X199263000Y-68707000D02*
X197374000Y-70596000D01*
X200660000Y-68707000D02*
X208788000Y-68707000D01*
X215392000Y-70104000D02*
X213487000Y-70104000D01*
X215646000Y-70358000D02*
X215392000Y-70104000D01*
X215646000Y-70358000D02*
X216027000Y-70739000D01*
X216027000Y-70739000D02*
X216027000Y-76327000D01*
X197374000Y-72518000D02*
X197374000Y-71612000D01*
X216027000Y-76327000D02*
X215142000Y-77212000D01*
X215142000Y-77212000D02*
X214532000Y-77212000D01*
X214532000Y-77212000D02*
X215142000Y-77212000D01*
X214532000Y-77212000D02*
X214888000Y-77212000D01*
X214151000Y-122551000D02*
X214507000Y-122551000D01*
X214151000Y-122551000D02*
X214761000Y-122551000D01*
X214761000Y-122551000D02*
X214151000Y-122551000D01*
X215646000Y-121666000D02*
X214761000Y-122551000D01*
X196993000Y-117857000D02*
X196993000Y-116951000D01*
X215646000Y-116078000D02*
X215646000Y-121666000D01*
X215265000Y-115697000D02*
X215646000Y-116078000D01*
X215265000Y-115697000D02*
X215011000Y-115443000D01*
X215011000Y-115443000D02*
X213106000Y-115443000D01*
X200279000Y-114046000D02*
X208407000Y-114046000D01*
X198882000Y-114046000D02*
X196993000Y-115935000D01*
X196993000Y-115935000D02*
X196993000Y-117857000D01*
X200279000Y-114046000D02*
X198882000Y-114046000D01*
X146304000Y-114300000D02*
X144907000Y-114300000D01*
X143018000Y-116189000D02*
X143018000Y-118111000D01*
X144907000Y-114300000D02*
X143018000Y-116189000D01*
X146304000Y-114300000D02*
X154432000Y-114300000D01*
X161036000Y-115697000D02*
X159131000Y-115697000D01*
X161290000Y-115951000D02*
X161036000Y-115697000D01*
X161290000Y-115951000D02*
X161671000Y-116332000D01*
X161671000Y-116332000D02*
X161671000Y-121920000D01*
X143018000Y-118111000D02*
X143018000Y-117205000D01*
X161671000Y-121920000D02*
X160786000Y-122805000D01*
X160786000Y-122805000D02*
X160176000Y-122805000D01*
X160176000Y-122805000D02*
X160786000Y-122805000D01*
X160176000Y-122805000D02*
X160532000Y-122805000D01*
X139399000Y-74629000D02*
X139399000Y-72772000D01*
X139827000Y-75057000D02*
X139399000Y-74629000D01*
X154657000Y-79416000D02*
X151384000Y-79416000D01*
X139827000Y-74930000D02*
X139827000Y-75057000D01*
X139827000Y-75057000D02*
X139827000Y-74930000D01*
X149647000Y-79416000D02*
X145415000Y-75184000D01*
X145415000Y-75184000D02*
X139954000Y-75184000D01*
X139954000Y-75184000D02*
X139827000Y-75057000D01*
X151384000Y-79416000D02*
X149647000Y-79416000D01*
X205359000Y-79162000D02*
X203622000Y-79162000D01*
X193929000Y-74930000D02*
X193802000Y-74803000D01*
X199390000Y-74930000D02*
X193929000Y-74930000D01*
X203622000Y-79162000D02*
X199390000Y-74930000D01*
X193802000Y-74803000D02*
X193802000Y-74676000D01*
X193802000Y-74676000D02*
X193802000Y-74803000D01*
X208632000Y-79162000D02*
X205359000Y-79162000D01*
X193802000Y-74803000D02*
X193374000Y-74375000D01*
X193374000Y-74375000D02*
X193374000Y-72518000D01*
X192993000Y-119714000D02*
X192993000Y-117857000D01*
X193421000Y-120142000D02*
X192993000Y-119714000D01*
X208251000Y-124501000D02*
X204978000Y-124501000D01*
X193421000Y-120015000D02*
X193421000Y-120142000D01*
X193421000Y-120142000D02*
X193421000Y-120015000D01*
X203241000Y-124501000D02*
X199009000Y-120269000D01*
X199009000Y-120269000D02*
X193548000Y-120269000D01*
X193548000Y-120269000D02*
X193421000Y-120142000D01*
X204978000Y-124501000D02*
X203241000Y-124501000D01*
X151003000Y-124755000D02*
X149266000Y-124755000D01*
X139573000Y-120523000D02*
X139446000Y-120396000D01*
X145034000Y-120523000D02*
X139573000Y-120523000D01*
X149266000Y-124755000D02*
X145034000Y-120523000D01*
X139446000Y-120396000D02*
X139446000Y-120269000D01*
X139446000Y-120269000D02*
X139446000Y-120396000D01*
X154276000Y-124755000D02*
X151003000Y-124755000D01*
X139446000Y-120396000D02*
X139018000Y-119968000D01*
X139018000Y-119968000D02*
X139018000Y-118111000D01*
X139065000Y-77851000D02*
X143230000Y-82016000D01*
X143230000Y-82016000D02*
X143383000Y-82016000D01*
X143383000Y-82016000D02*
X154657000Y-82016000D01*
X136906000Y-75692000D02*
X139001500Y-77787500D01*
X139001500Y-77787500D02*
X139065000Y-77724000D01*
X139065000Y-77724000D02*
X139065000Y-77851000D01*
X193040000Y-77470000D02*
X193040000Y-77597000D01*
X192976500Y-77533500D02*
X193040000Y-77470000D01*
X190881000Y-75438000D02*
X192976500Y-77533500D01*
X197358000Y-81762000D02*
X208632000Y-81762000D01*
X197205000Y-81762000D02*
X197358000Y-81762000D01*
X193040000Y-77597000D02*
X197205000Y-81762000D01*
X192659000Y-122936000D02*
X196824000Y-127101000D01*
X196824000Y-127101000D02*
X196977000Y-127101000D01*
X196977000Y-127101000D02*
X208251000Y-127101000D01*
X190500000Y-120777000D02*
X192595500Y-122872500D01*
X192595500Y-122872500D02*
X192659000Y-122809000D01*
X192659000Y-122809000D02*
X192659000Y-122936000D01*
X138684000Y-123063000D02*
X138684000Y-123190000D01*
X138620500Y-123126500D02*
X138684000Y-123063000D01*
X136525000Y-121031000D02*
X138620500Y-123126500D01*
X143002000Y-127355000D02*
X154276000Y-127355000D01*
X142849000Y-127355000D02*
X143002000Y-127355000D01*
X138684000Y-123190000D02*
X142849000Y-127355000D01*
X139382500Y-76771500D02*
X143977000Y-81366000D01*
X143977000Y-81366000D02*
X145415000Y-81366000D01*
X145415000Y-81366000D02*
X154657000Y-81366000D01*
X139382500Y-76771500D02*
X137668000Y-75057000D01*
X193357500Y-76517500D02*
X191643000Y-74803000D01*
X199390000Y-81112000D02*
X208632000Y-81112000D01*
X197952000Y-81112000D02*
X199390000Y-81112000D01*
X193357500Y-76517500D02*
X197952000Y-81112000D01*
X192976500Y-121856500D02*
X197571000Y-126451000D01*
X197571000Y-126451000D02*
X199009000Y-126451000D01*
X199009000Y-126451000D02*
X208251000Y-126451000D01*
X192976500Y-121856500D02*
X191262000Y-120142000D01*
X139001500Y-122110500D02*
X137287000Y-120396000D01*
X145034000Y-126705000D02*
X154276000Y-126705000D01*
X143596000Y-126705000D02*
X145034000Y-126705000D01*
X139001500Y-122110500D02*
X143596000Y-126705000D01*
D23*
G36*
X155769201Y-118663838D02*
X156073727Y-118664103D01*
X156111910Y-118723441D01*
X156324110Y-118868431D01*
X156337197Y-118871081D01*
X156124559Y-119007910D01*
X155979569Y-119220110D01*
X155928560Y-119472000D01*
X155928560Y-120972000D01*
X155972838Y-121207317D01*
X156111910Y-121423441D01*
X156324110Y-121568431D01*
X156576000Y-121619440D01*
X157355000Y-121619440D01*
X157355000Y-123444000D01*
X157412852Y-123734839D01*
X157577599Y-123981401D01*
X158238599Y-124642401D01*
X158485161Y-124807148D01*
X158776000Y-124865000D01*
X158803560Y-124865000D01*
X158803560Y-124980000D01*
X158823067Y-125083671D01*
X158803560Y-125180000D01*
X158803560Y-125630000D01*
X158816980Y-125701323D01*
X158816000Y-125703690D01*
X158816000Y-125783750D01*
X158836312Y-125804062D01*
X158847838Y-125865317D01*
X158888172Y-125927998D01*
X158816000Y-125927998D01*
X158816000Y-125945000D01*
X158791000Y-125945000D01*
X158500160Y-126002852D01*
X158253599Y-126167599D01*
X157577599Y-126843599D01*
X157412852Y-127090161D01*
X157355000Y-127381000D01*
X157355000Y-130172560D01*
X156075000Y-130172560D01*
X155839683Y-130216838D01*
X155623559Y-130355910D01*
X155577031Y-130424006D01*
X155434698Y-130281673D01*
X155201309Y-130185000D01*
X154610750Y-130185000D01*
X154452000Y-130343750D01*
X154452000Y-131318000D01*
X154472000Y-131318000D01*
X154472000Y-131572000D01*
X154452000Y-131572000D01*
X154452000Y-132546250D01*
X154610750Y-132705000D01*
X155201309Y-132705000D01*
X155434698Y-132608327D01*
X155575936Y-132467090D01*
X155610910Y-132521441D01*
X155823110Y-132666431D01*
X155990000Y-132700227D01*
X155990000Y-133644593D01*
X155925808Y-133708673D01*
X155783162Y-134052201D01*
X155782838Y-134424167D01*
X155924883Y-134767943D01*
X155990000Y-134833174D01*
X155990000Y-137385055D01*
X155973664Y-137378272D01*
X155353058Y-137377730D01*
X154779486Y-137614725D01*
X154661251Y-137732754D01*
X154551090Y-137561559D01*
X154338890Y-137416569D01*
X154087000Y-137365560D01*
X152841139Y-137365560D01*
X151903000Y-136427420D01*
X151903000Y-135617844D01*
X151969441Y-135575090D01*
X152114431Y-135362890D01*
X152165440Y-135111000D01*
X152165440Y-133111000D01*
X152121162Y-132875683D01*
X151982090Y-132659559D01*
X151769890Y-132514569D01*
X151518000Y-132463560D01*
X150518000Y-132463560D01*
X150282683Y-132507838D01*
X150066559Y-132646910D01*
X150018866Y-132716711D01*
X149982090Y-132659559D01*
X149853000Y-132571356D01*
X149853000Y-132267046D01*
X149905838Y-132139799D01*
X149906162Y-131767833D01*
X149890840Y-131730750D01*
X152940000Y-131730750D01*
X152940000Y-132196310D01*
X153036673Y-132429699D01*
X153215302Y-132608327D01*
X153448691Y-132705000D01*
X154039250Y-132705000D01*
X154198000Y-132546250D01*
X154198000Y-131572000D01*
X153098750Y-131572000D01*
X152940000Y-131730750D01*
X149890840Y-131730750D01*
X149764117Y-131424057D01*
X149501327Y-131160808D01*
X149157799Y-131018162D01*
X148785833Y-131017838D01*
X148442057Y-131159883D01*
X148178808Y-131422673D01*
X148036162Y-131766201D01*
X148035838Y-132138167D01*
X148177883Y-132481943D01*
X148183000Y-132487069D01*
X148183000Y-132571982D01*
X148066559Y-132646910D01*
X148018866Y-132716711D01*
X147982090Y-132659559D01*
X147769890Y-132514569D01*
X147518000Y-132463560D01*
X146518000Y-132463560D01*
X146282683Y-132507838D01*
X146066559Y-132646910D01*
X146018866Y-132716711D01*
X145982090Y-132659559D01*
X145769890Y-132514569D01*
X145518000Y-132463560D01*
X144518000Y-132463560D01*
X144282683Y-132507838D01*
X144066559Y-132646910D01*
X144020031Y-132715006D01*
X143877699Y-132572673D01*
X143644310Y-132476000D01*
X143303750Y-132476000D01*
X143145000Y-132634750D01*
X143145000Y-133984000D01*
X143165000Y-133984000D01*
X143165000Y-134238000D01*
X143145000Y-134238000D01*
X143145000Y-135587250D01*
X143303750Y-135746000D01*
X143644310Y-135746000D01*
X143877699Y-135649327D01*
X144018936Y-135508089D01*
X144053910Y-135562441D01*
X144266110Y-135707431D01*
X144518000Y-135758440D01*
X145518000Y-135758440D01*
X145753317Y-135714162D01*
X145969441Y-135575090D01*
X146017134Y-135505289D01*
X146053910Y-135562441D01*
X146266110Y-135707431D01*
X146518000Y-135758440D01*
X147518000Y-135758440D01*
X147753317Y-135714162D01*
X147969441Y-135575090D01*
X148017134Y-135505289D01*
X148053910Y-135562441D01*
X148266110Y-135707431D01*
X148518000Y-135758440D01*
X149518000Y-135758440D01*
X149753317Y-135714162D01*
X149969441Y-135575090D01*
X150017134Y-135505289D01*
X150053910Y-135562441D01*
X150133000Y-135616481D01*
X150133000Y-136793995D01*
X150132999Y-136794000D01*
X150162041Y-136940000D01*
X150200367Y-137132675D01*
X150364107Y-137377730D01*
X150392210Y-137419790D01*
X151589560Y-138617139D01*
X151589560Y-139702000D01*
X147682902Y-139702000D01*
X147870728Y-139249664D01*
X147871270Y-138629058D01*
X147634275Y-138055486D01*
X147195823Y-137616268D01*
X146622664Y-137378272D01*
X146002058Y-137377730D01*
X145428486Y-137614725D01*
X145060744Y-137981826D01*
X144695823Y-137616268D01*
X144143886Y-137387084D01*
X143633401Y-136876599D01*
X143386839Y-136711852D01*
X143096000Y-136654000D01*
X142793999Y-136654000D01*
X142794162Y-136466833D01*
X142652117Y-136123057D01*
X142389327Y-135859808D01*
X142045799Y-135717162D01*
X141998923Y-135717121D01*
X141900959Y-135619157D01*
X141969441Y-135575090D01*
X142015969Y-135506994D01*
X142158301Y-135649327D01*
X142391690Y-135746000D01*
X142732250Y-135746000D01*
X142891000Y-135587250D01*
X142891000Y-134238000D01*
X142871000Y-134238000D01*
X142871000Y-133984000D01*
X142891000Y-133984000D01*
X142891000Y-132634750D01*
X142732250Y-132476000D01*
X142391690Y-132476000D01*
X142158301Y-132572673D01*
X142017064Y-132713911D01*
X141982090Y-132659559D01*
X141769890Y-132514569D01*
X141518000Y-132463560D01*
X140518000Y-132463560D01*
X140282683Y-132507838D01*
X140066559Y-132646910D01*
X140018866Y-132716711D01*
X139982090Y-132659559D01*
X139769890Y-132514569D01*
X139518000Y-132463560D01*
X138518000Y-132463560D01*
X138282683Y-132507838D01*
X138066559Y-132646910D01*
X138018866Y-132716711D01*
X137982090Y-132659559D01*
X137784009Y-132524216D01*
X137952192Y-132356327D01*
X138094838Y-132012799D01*
X138095162Y-131640833D01*
X138004467Y-131421335D01*
X138732112Y-130693690D01*
X152940000Y-130693690D01*
X152940000Y-131159250D01*
X153098750Y-131318000D01*
X154198000Y-131318000D01*
X154198000Y-130343750D01*
X154039250Y-130185000D01*
X153448691Y-130185000D01*
X153215302Y-130281673D01*
X153036673Y-130460301D01*
X152940000Y-130693690D01*
X138732112Y-130693690D01*
X140010802Y-129415000D01*
X153209203Y-129415000D01*
X153299110Y-129476431D01*
X153551000Y-129527440D01*
X155001000Y-129527440D01*
X155236317Y-129483162D01*
X155452441Y-129344090D01*
X155597431Y-129131890D01*
X155648440Y-128880000D01*
X155648440Y-128430000D01*
X155628933Y-128326329D01*
X155648440Y-128230000D01*
X155648440Y-127780000D01*
X155628933Y-127676329D01*
X155648440Y-127580000D01*
X155648440Y-127130000D01*
X155628933Y-127026329D01*
X155648440Y-126930000D01*
X155648440Y-126480000D01*
X155635020Y-126408677D01*
X155636000Y-126406310D01*
X155636000Y-126326250D01*
X155615688Y-126305938D01*
X155604162Y-126244683D01*
X155601149Y-126240000D01*
X156044628Y-126240000D01*
X156150201Y-126283838D01*
X156522167Y-126284162D01*
X156865943Y-126142117D01*
X157129192Y-125879327D01*
X157271838Y-125535799D01*
X157272162Y-125163833D01*
X157130117Y-124820057D01*
X156867327Y-124556808D01*
X156523799Y-124414162D01*
X156151833Y-124413838D01*
X155808057Y-124555883D01*
X155793915Y-124570000D01*
X155648440Y-124570000D01*
X155648440Y-124530000D01*
X155628933Y-124426329D01*
X155648440Y-124330000D01*
X155648440Y-123880000D01*
X155628933Y-123776329D01*
X155648440Y-123680000D01*
X155648440Y-123230000D01*
X155628933Y-123126329D01*
X155648440Y-123030000D01*
X155648440Y-122580000D01*
X155604162Y-122344683D01*
X155465090Y-122128559D01*
X155252890Y-121983569D01*
X155001000Y-121932560D01*
X154249362Y-121932560D01*
X153950802Y-121634000D01*
X154019250Y-121634000D01*
X154178000Y-121475250D01*
X154178000Y-120376000D01*
X154432000Y-120376000D01*
X154432000Y-121475250D01*
X154590750Y-121634000D01*
X155056310Y-121634000D01*
X155289699Y-121537327D01*
X155468327Y-121358698D01*
X155565000Y-121125309D01*
X155565000Y-120534750D01*
X155406250Y-120376000D01*
X154432000Y-120376000D01*
X154178000Y-120376000D01*
X154158000Y-120376000D01*
X154158000Y-120122000D01*
X154178000Y-120122000D01*
X154178000Y-120102000D01*
X154432000Y-120102000D01*
X154432000Y-120122000D01*
X155406250Y-120122000D01*
X155565000Y-119963250D01*
X155565000Y-119372691D01*
X155468327Y-119139302D01*
X155327090Y-118998064D01*
X155381441Y-118963090D01*
X155526431Y-118750890D01*
X155560227Y-118584000D01*
X155576931Y-118584000D01*
X155769201Y-118663838D01*
X155769201Y-118663838D01*
G37*
X155769201Y-118663838D02*
X156073727Y-118664103D01*
X156111910Y-118723441D01*
X156324110Y-118868431D01*
X156337197Y-118871081D01*
X156124559Y-119007910D01*
X155979569Y-119220110D01*
X155928560Y-119472000D01*
X155928560Y-120972000D01*
X155972838Y-121207317D01*
X156111910Y-121423441D01*
X156324110Y-121568431D01*
X156576000Y-121619440D01*
X157355000Y-121619440D01*
X157355000Y-123444000D01*
X157412852Y-123734839D01*
X157577599Y-123981401D01*
X158238599Y-124642401D01*
X158485161Y-124807148D01*
X158776000Y-124865000D01*
X158803560Y-124865000D01*
X158803560Y-124980000D01*
X158823067Y-125083671D01*
X158803560Y-125180000D01*
X158803560Y-125630000D01*
X158816980Y-125701323D01*
X158816000Y-125703690D01*
X158816000Y-125783750D01*
X158836312Y-125804062D01*
X158847838Y-125865317D01*
X158888172Y-125927998D01*
X158816000Y-125927998D01*
X158816000Y-125945000D01*
X158791000Y-125945000D01*
X158500160Y-126002852D01*
X158253599Y-126167599D01*
X157577599Y-126843599D01*
X157412852Y-127090161D01*
X157355000Y-127381000D01*
X157355000Y-130172560D01*
X156075000Y-130172560D01*
X155839683Y-130216838D01*
X155623559Y-130355910D01*
X155577031Y-130424006D01*
X155434698Y-130281673D01*
X155201309Y-130185000D01*
X154610750Y-130185000D01*
X154452000Y-130343750D01*
X154452000Y-131318000D01*
X154472000Y-131318000D01*
X154472000Y-131572000D01*
X154452000Y-131572000D01*
X154452000Y-132546250D01*
X154610750Y-132705000D01*
X155201309Y-132705000D01*
X155434698Y-132608327D01*
X155575936Y-132467090D01*
X155610910Y-132521441D01*
X155823110Y-132666431D01*
X155990000Y-132700227D01*
X155990000Y-133644593D01*
X155925808Y-133708673D01*
X155783162Y-134052201D01*
X155782838Y-134424167D01*
X155924883Y-134767943D01*
X155990000Y-134833174D01*
X155990000Y-137385055D01*
X155973664Y-137378272D01*
X155353058Y-137377730D01*
X154779486Y-137614725D01*
X154661251Y-137732754D01*
X154551090Y-137561559D01*
X154338890Y-137416569D01*
X154087000Y-137365560D01*
X152841139Y-137365560D01*
X151903000Y-136427420D01*
X151903000Y-135617844D01*
X151969441Y-135575090D01*
X152114431Y-135362890D01*
X152165440Y-135111000D01*
X152165440Y-133111000D01*
X152121162Y-132875683D01*
X151982090Y-132659559D01*
X151769890Y-132514569D01*
X151518000Y-132463560D01*
X150518000Y-132463560D01*
X150282683Y-132507838D01*
X150066559Y-132646910D01*
X150018866Y-132716711D01*
X149982090Y-132659559D01*
X149853000Y-132571356D01*
X149853000Y-132267046D01*
X149905838Y-132139799D01*
X149906162Y-131767833D01*
X149890840Y-131730750D01*
X152940000Y-131730750D01*
X152940000Y-132196310D01*
X153036673Y-132429699D01*
X153215302Y-132608327D01*
X153448691Y-132705000D01*
X154039250Y-132705000D01*
X154198000Y-132546250D01*
X154198000Y-131572000D01*
X153098750Y-131572000D01*
X152940000Y-131730750D01*
X149890840Y-131730750D01*
X149764117Y-131424057D01*
X149501327Y-131160808D01*
X149157799Y-131018162D01*
X148785833Y-131017838D01*
X148442057Y-131159883D01*
X148178808Y-131422673D01*
X148036162Y-131766201D01*
X148035838Y-132138167D01*
X148177883Y-132481943D01*
X148183000Y-132487069D01*
X148183000Y-132571982D01*
X148066559Y-132646910D01*
X148018866Y-132716711D01*
X147982090Y-132659559D01*
X147769890Y-132514569D01*
X147518000Y-132463560D01*
X146518000Y-132463560D01*
X146282683Y-132507838D01*
X146066559Y-132646910D01*
X146018866Y-132716711D01*
X145982090Y-132659559D01*
X145769890Y-132514569D01*
X145518000Y-132463560D01*
X144518000Y-132463560D01*
X144282683Y-132507838D01*
X144066559Y-132646910D01*
X144020031Y-132715006D01*
X143877699Y-132572673D01*
X143644310Y-132476000D01*
X143303750Y-132476000D01*
X143145000Y-132634750D01*
X143145000Y-133984000D01*
X143165000Y-133984000D01*
X143165000Y-134238000D01*
X143145000Y-134238000D01*
X143145000Y-135587250D01*
X143303750Y-135746000D01*
X143644310Y-135746000D01*
X143877699Y-135649327D01*
X144018936Y-135508089D01*
X144053910Y-135562441D01*
X144266110Y-135707431D01*
X144518000Y-135758440D01*
X145518000Y-135758440D01*
X145753317Y-135714162D01*
X145969441Y-135575090D01*
X146017134Y-135505289D01*
X146053910Y-135562441D01*
X146266110Y-135707431D01*
X146518000Y-135758440D01*
X147518000Y-135758440D01*
X147753317Y-135714162D01*
X147969441Y-135575090D01*
X148017134Y-135505289D01*
X148053910Y-135562441D01*
X148266110Y-135707431D01*
X148518000Y-135758440D01*
X149518000Y-135758440D01*
X149753317Y-135714162D01*
X149969441Y-135575090D01*
X150017134Y-135505289D01*
X150053910Y-135562441D01*
X150133000Y-135616481D01*
X150133000Y-136793995D01*
X150132999Y-136794000D01*
X150162041Y-136940000D01*
X150200367Y-137132675D01*
X150364107Y-137377730D01*
X150392210Y-137419790D01*
X151589560Y-138617139D01*
X151589560Y-139702000D01*
X147682902Y-139702000D01*
X147870728Y-139249664D01*
X147871270Y-138629058D01*
X147634275Y-138055486D01*
X147195823Y-137616268D01*
X146622664Y-137378272D01*
X146002058Y-137377730D01*
X145428486Y-137614725D01*
X145060744Y-137981826D01*
X144695823Y-137616268D01*
X144143886Y-137387084D01*
X143633401Y-136876599D01*
X143386839Y-136711852D01*
X143096000Y-136654000D01*
X142793999Y-136654000D01*
X142794162Y-136466833D01*
X142652117Y-136123057D01*
X142389327Y-135859808D01*
X142045799Y-135717162D01*
X141998923Y-135717121D01*
X141900959Y-135619157D01*
X141969441Y-135575090D01*
X142015969Y-135506994D01*
X142158301Y-135649327D01*
X142391690Y-135746000D01*
X142732250Y-135746000D01*
X142891000Y-135587250D01*
X142891000Y-134238000D01*
X142871000Y-134238000D01*
X142871000Y-133984000D01*
X142891000Y-133984000D01*
X142891000Y-132634750D01*
X142732250Y-132476000D01*
X142391690Y-132476000D01*
X142158301Y-132572673D01*
X142017064Y-132713911D01*
X141982090Y-132659559D01*
X141769890Y-132514569D01*
X141518000Y-132463560D01*
X140518000Y-132463560D01*
X140282683Y-132507838D01*
X140066559Y-132646910D01*
X140018866Y-132716711D01*
X139982090Y-132659559D01*
X139769890Y-132514569D01*
X139518000Y-132463560D01*
X138518000Y-132463560D01*
X138282683Y-132507838D01*
X138066559Y-132646910D01*
X138018866Y-132716711D01*
X137982090Y-132659559D01*
X137784009Y-132524216D01*
X137952192Y-132356327D01*
X138094838Y-132012799D01*
X138095162Y-131640833D01*
X138004467Y-131421335D01*
X138732112Y-130693690D01*
X152940000Y-130693690D01*
X152940000Y-131159250D01*
X153098750Y-131318000D01*
X154198000Y-131318000D01*
X154198000Y-130343750D01*
X154039250Y-130185000D01*
X153448691Y-130185000D01*
X153215302Y-130281673D01*
X153036673Y-130460301D01*
X152940000Y-130693690D01*
X138732112Y-130693690D01*
X140010802Y-129415000D01*
X153209203Y-129415000D01*
X153299110Y-129476431D01*
X153551000Y-129527440D01*
X155001000Y-129527440D01*
X155236317Y-129483162D01*
X155452441Y-129344090D01*
X155597431Y-129131890D01*
X155648440Y-128880000D01*
X155648440Y-128430000D01*
X155628933Y-128326329D01*
X155648440Y-128230000D01*
X155648440Y-127780000D01*
X155628933Y-127676329D01*
X155648440Y-127580000D01*
X155648440Y-127130000D01*
X155628933Y-127026329D01*
X155648440Y-126930000D01*
X155648440Y-126480000D01*
X155635020Y-126408677D01*
X155636000Y-126406310D01*
X155636000Y-126326250D01*
X155615688Y-126305938D01*
X155604162Y-126244683D01*
X155601149Y-126240000D01*
X156044628Y-126240000D01*
X156150201Y-126283838D01*
X156522167Y-126284162D01*
X156865943Y-126142117D01*
X157129192Y-125879327D01*
X157271838Y-125535799D01*
X157272162Y-125163833D01*
X157130117Y-124820057D01*
X156867327Y-124556808D01*
X156523799Y-124414162D01*
X156151833Y-124413838D01*
X155808057Y-124555883D01*
X155793915Y-124570000D01*
X155648440Y-124570000D01*
X155648440Y-124530000D01*
X155628933Y-124426329D01*
X155648440Y-124330000D01*
X155648440Y-123880000D01*
X155628933Y-123776329D01*
X155648440Y-123680000D01*
X155648440Y-123230000D01*
X155628933Y-123126329D01*
X155648440Y-123030000D01*
X155648440Y-122580000D01*
X155604162Y-122344683D01*
X155465090Y-122128559D01*
X155252890Y-121983569D01*
X155001000Y-121932560D01*
X154249362Y-121932560D01*
X153950802Y-121634000D01*
X154019250Y-121634000D01*
X154178000Y-121475250D01*
X154178000Y-120376000D01*
X154432000Y-120376000D01*
X154432000Y-121475250D01*
X154590750Y-121634000D01*
X155056310Y-121634000D01*
X155289699Y-121537327D01*
X155468327Y-121358698D01*
X155565000Y-121125309D01*
X155565000Y-120534750D01*
X155406250Y-120376000D01*
X154432000Y-120376000D01*
X154178000Y-120376000D01*
X154158000Y-120376000D01*
X154158000Y-120122000D01*
X154178000Y-120122000D01*
X154178000Y-120102000D01*
X154432000Y-120102000D01*
X154432000Y-120122000D01*
X155406250Y-120122000D01*
X155565000Y-119963250D01*
X155565000Y-119372691D01*
X155468327Y-119139302D01*
X155327090Y-118998064D01*
X155381441Y-118963090D01*
X155526431Y-118750890D01*
X155560227Y-118584000D01*
X155576931Y-118584000D01*
X155769201Y-118663838D01*
G36*
X142086090Y-111267108D02*
X141963664Y-111216272D01*
X141343058Y-111215730D01*
X140769486Y-111452725D01*
X140401744Y-111819826D01*
X140036823Y-111454268D01*
X139463664Y-111216272D01*
X138843058Y-111215730D01*
X138269486Y-111452725D01*
X138149119Y-111572882D01*
X138115327Y-111491301D01*
X137936698Y-111312673D01*
X137703309Y-111216000D01*
X136937750Y-111216000D01*
X136779000Y-111374750D01*
X136779000Y-112649000D01*
X136799000Y-112649000D01*
X136799000Y-112903000D01*
X136779000Y-112903000D01*
X136779000Y-114177250D01*
X136937750Y-114336000D01*
X137703309Y-114336000D01*
X137936698Y-114239327D01*
X138115327Y-114060699D01*
X138149017Y-113979365D01*
X138267177Y-114097732D01*
X138840336Y-114335728D01*
X139460942Y-114336270D01*
X140034514Y-114099275D01*
X140402256Y-113732174D01*
X140767177Y-114097732D01*
X141340336Y-114335728D01*
X141960942Y-114336270D01*
X142534514Y-114099275D01*
X142973732Y-113660823D01*
X143211728Y-113087664D01*
X143212270Y-112467058D01*
X143160657Y-112342145D01*
X143617802Y-111885000D01*
X146649000Y-111885000D01*
X146649000Y-112490250D01*
X146807750Y-112649000D01*
X148082000Y-112649000D01*
X148082000Y-112629000D01*
X148336000Y-112629000D01*
X148336000Y-112649000D01*
X148356000Y-112649000D01*
X148356000Y-112903000D01*
X148336000Y-112903000D01*
X148336000Y-112923000D01*
X148082000Y-112923000D01*
X148082000Y-112903000D01*
X146807750Y-112903000D01*
X146649000Y-113061750D01*
X146649000Y-113540000D01*
X144907000Y-113540000D01*
X144664414Y-113588254D01*
X144616160Y-113597852D01*
X144369599Y-113762599D01*
X142480599Y-115651599D01*
X142315852Y-115898161D01*
X142258000Y-116189000D01*
X142258000Y-116523721D01*
X142066559Y-116646910D01*
X142018866Y-116716711D01*
X141982090Y-116659559D01*
X141778000Y-116520110D01*
X141778000Y-115872000D01*
X141720148Y-115581161D01*
X141555401Y-115334599D01*
X141126401Y-114905599D01*
X140879839Y-114740852D01*
X140589000Y-114683000D01*
X136144000Y-114683000D01*
X135853161Y-114740852D01*
X135606599Y-114905599D01*
X134971599Y-115540599D01*
X134806852Y-115787161D01*
X134749000Y-116078000D01*
X134749000Y-116306126D01*
X134353041Y-116141710D01*
X133873065Y-116141291D01*
X133429465Y-116324582D01*
X133089775Y-116663680D01*
X132905710Y-117106959D01*
X132905291Y-117586935D01*
X133088582Y-118030535D01*
X133427680Y-118370225D01*
X133870959Y-118554290D01*
X134350935Y-118554709D01*
X134749000Y-118390233D01*
X134749000Y-118846126D01*
X134353041Y-118681710D01*
X133873065Y-118681291D01*
X133429465Y-118864582D01*
X133089775Y-119203680D01*
X132905710Y-119646959D01*
X132905291Y-120126935D01*
X133088582Y-120570535D01*
X133427680Y-120910225D01*
X133870959Y-121094290D01*
X134350935Y-121094709D01*
X134749000Y-120930233D01*
X134749000Y-131136392D01*
X134647440Y-131237952D01*
X134601448Y-131015467D01*
X134147145Y-130860595D01*
X133668156Y-130891367D01*
X133368552Y-131015467D01*
X133322559Y-131237954D01*
X133985000Y-131900395D01*
X133999143Y-131886253D01*
X134178748Y-132065858D01*
X134164605Y-132080000D01*
X134178748Y-132094143D01*
X133999143Y-132273748D01*
X133985000Y-132259605D01*
X133322559Y-132922046D01*
X133368552Y-133144533D01*
X133822855Y-133299405D01*
X134301844Y-133268633D01*
X134601448Y-133144533D01*
X134647440Y-132922048D01*
X134749000Y-133023608D01*
X134749000Y-133677594D01*
X134669320Y-133597775D01*
X134226041Y-133413710D01*
X133746065Y-133413291D01*
X133302465Y-133596582D01*
X132962775Y-133935680D01*
X132842000Y-134226539D01*
X132842000Y-132507012D01*
X132920467Y-132696448D01*
X133142954Y-132742441D01*
X133805395Y-132080000D01*
X133142954Y-131417559D01*
X132920467Y-131463552D01*
X132842000Y-131693728D01*
X132842000Y-115207820D01*
X133492324Y-113061750D01*
X135092000Y-113061750D01*
X135092000Y-113827310D01*
X135188673Y-114060699D01*
X135367302Y-114239327D01*
X135600691Y-114336000D01*
X136366250Y-114336000D01*
X136525000Y-114177250D01*
X136525000Y-112903000D01*
X135250750Y-112903000D01*
X135092000Y-113061750D01*
X133492324Y-113061750D01*
X133897493Y-111724690D01*
X135092000Y-111724690D01*
X135092000Y-112490250D01*
X135250750Y-112649000D01*
X136525000Y-112649000D01*
X136525000Y-111374750D01*
X136366250Y-111216000D01*
X135600691Y-111216000D01*
X135367302Y-111312673D01*
X135188673Y-111491301D01*
X135092000Y-111724690D01*
X133897493Y-111724690D01*
X134079218Y-111125000D01*
X142228198Y-111125000D01*
X142086090Y-111267108D01*
X142086090Y-111267108D01*
G37*
X142086090Y-111267108D02*
X141963664Y-111216272D01*
X141343058Y-111215730D01*
X140769486Y-111452725D01*
X140401744Y-111819826D01*
X140036823Y-111454268D01*
X139463664Y-111216272D01*
X138843058Y-111215730D01*
X138269486Y-111452725D01*
X138149119Y-111572882D01*
X138115327Y-111491301D01*
X137936698Y-111312673D01*
X137703309Y-111216000D01*
X136937750Y-111216000D01*
X136779000Y-111374750D01*
X136779000Y-112649000D01*
X136799000Y-112649000D01*
X136799000Y-112903000D01*
X136779000Y-112903000D01*
X136779000Y-114177250D01*
X136937750Y-114336000D01*
X137703309Y-114336000D01*
X137936698Y-114239327D01*
X138115327Y-114060699D01*
X138149017Y-113979365D01*
X138267177Y-114097732D01*
X138840336Y-114335728D01*
X139460942Y-114336270D01*
X140034514Y-114099275D01*
X140402256Y-113732174D01*
X140767177Y-114097732D01*
X141340336Y-114335728D01*
X141960942Y-114336270D01*
X142534514Y-114099275D01*
X142973732Y-113660823D01*
X143211728Y-113087664D01*
X143212270Y-112467058D01*
X143160657Y-112342145D01*
X143617802Y-111885000D01*
X146649000Y-111885000D01*
X146649000Y-112490250D01*
X146807750Y-112649000D01*
X148082000Y-112649000D01*
X148082000Y-112629000D01*
X148336000Y-112629000D01*
X148336000Y-112649000D01*
X148356000Y-112649000D01*
X148356000Y-112903000D01*
X148336000Y-112903000D01*
X148336000Y-112923000D01*
X148082000Y-112923000D01*
X148082000Y-112903000D01*
X146807750Y-112903000D01*
X146649000Y-113061750D01*
X146649000Y-113540000D01*
X144907000Y-113540000D01*
X144664414Y-113588254D01*
X144616160Y-113597852D01*
X144369599Y-113762599D01*
X142480599Y-115651599D01*
X142315852Y-115898161D01*
X142258000Y-116189000D01*
X142258000Y-116523721D01*
X142066559Y-116646910D01*
X142018866Y-116716711D01*
X141982090Y-116659559D01*
X141778000Y-116520110D01*
X141778000Y-115872000D01*
X141720148Y-115581161D01*
X141555401Y-115334599D01*
X141126401Y-114905599D01*
X140879839Y-114740852D01*
X140589000Y-114683000D01*
X136144000Y-114683000D01*
X135853161Y-114740852D01*
X135606599Y-114905599D01*
X134971599Y-115540599D01*
X134806852Y-115787161D01*
X134749000Y-116078000D01*
X134749000Y-116306126D01*
X134353041Y-116141710D01*
X133873065Y-116141291D01*
X133429465Y-116324582D01*
X133089775Y-116663680D01*
X132905710Y-117106959D01*
X132905291Y-117586935D01*
X133088582Y-118030535D01*
X133427680Y-118370225D01*
X133870959Y-118554290D01*
X134350935Y-118554709D01*
X134749000Y-118390233D01*
X134749000Y-118846126D01*
X134353041Y-118681710D01*
X133873065Y-118681291D01*
X133429465Y-118864582D01*
X133089775Y-119203680D01*
X132905710Y-119646959D01*
X132905291Y-120126935D01*
X133088582Y-120570535D01*
X133427680Y-120910225D01*
X133870959Y-121094290D01*
X134350935Y-121094709D01*
X134749000Y-120930233D01*
X134749000Y-131136392D01*
X134647440Y-131237952D01*
X134601448Y-131015467D01*
X134147145Y-130860595D01*
X133668156Y-130891367D01*
X133368552Y-131015467D01*
X133322559Y-131237954D01*
X133985000Y-131900395D01*
X133999143Y-131886253D01*
X134178748Y-132065858D01*
X134164605Y-132080000D01*
X134178748Y-132094143D01*
X133999143Y-132273748D01*
X133985000Y-132259605D01*
X133322559Y-132922046D01*
X133368552Y-133144533D01*
X133822855Y-133299405D01*
X134301844Y-133268633D01*
X134601448Y-133144533D01*
X134647440Y-132922048D01*
X134749000Y-133023608D01*
X134749000Y-133677594D01*
X134669320Y-133597775D01*
X134226041Y-133413710D01*
X133746065Y-133413291D01*
X133302465Y-133596582D01*
X132962775Y-133935680D01*
X132842000Y-134226539D01*
X132842000Y-132507012D01*
X132920467Y-132696448D01*
X133142954Y-132742441D01*
X133805395Y-132080000D01*
X133142954Y-131417559D01*
X132920467Y-131463552D01*
X132842000Y-131693728D01*
X132842000Y-115207820D01*
X133492324Y-113061750D01*
X135092000Y-113061750D01*
X135092000Y-113827310D01*
X135188673Y-114060699D01*
X135367302Y-114239327D01*
X135600691Y-114336000D01*
X136366250Y-114336000D01*
X136525000Y-114177250D01*
X136525000Y-112903000D01*
X135250750Y-112903000D01*
X135092000Y-113061750D01*
X133492324Y-113061750D01*
X133897493Y-111724690D01*
X135092000Y-111724690D01*
X135092000Y-112490250D01*
X135250750Y-112649000D01*
X136525000Y-112649000D01*
X136525000Y-111374750D01*
X136366250Y-111216000D01*
X135600691Y-111216000D01*
X135367302Y-111312673D01*
X135188673Y-111491301D01*
X135092000Y-111724690D01*
X133897493Y-111724690D01*
X134079218Y-111125000D01*
X142228198Y-111125000D01*
X142086090Y-111267108D01*
G36*
X136338201Y-121965838D02*
X136385077Y-121965879D01*
X138083099Y-123663901D01*
X138121165Y-123689335D01*
X138146599Y-123727401D01*
X141664198Y-127245000D01*
X140081000Y-127245000D01*
X140075500Y-127246094D01*
X140070000Y-127245000D01*
X139827000Y-127245000D01*
X139821500Y-127246094D01*
X139816000Y-127245000D01*
X139203000Y-127245000D01*
X138912161Y-127302852D01*
X138665599Y-127467599D01*
X136385320Y-129747878D01*
X136339833Y-129747838D01*
X136269000Y-129777106D01*
X136269000Y-121937103D01*
X136338201Y-121965838D01*
X136338201Y-121965838D01*
G37*
X136338201Y-121965838D02*
X136385077Y-121965879D01*
X138083099Y-123663901D01*
X138121165Y-123689335D01*
X138146599Y-123727401D01*
X141664198Y-127245000D01*
X140081000Y-127245000D01*
X140075500Y-127246094D01*
X140070000Y-127245000D01*
X139827000Y-127245000D01*
X139821500Y-127246094D01*
X139816000Y-127245000D01*
X139203000Y-127245000D01*
X138912161Y-127302852D01*
X138665599Y-127467599D01*
X136385320Y-129747878D01*
X136339833Y-129747838D01*
X136269000Y-129777106D01*
X136269000Y-121937103D01*
X136338201Y-121965838D01*
G36*
X138053910Y-119562441D02*
X138258000Y-119701890D01*
X138258000Y-119968000D01*
X138315852Y-120258839D01*
X138480599Y-120505401D01*
X139035599Y-121060401D01*
X139282161Y-121225148D01*
X139573000Y-121283000D01*
X144719198Y-121283000D01*
X148728599Y-125292401D01*
X148975161Y-125457148D01*
X149266000Y-125515000D01*
X152903560Y-125515000D01*
X152903560Y-125630000D01*
X152916980Y-125701323D01*
X152916000Y-125703690D01*
X152916000Y-125783750D01*
X152936312Y-125804062D01*
X152947838Y-125865317D01*
X152988172Y-125927998D01*
X152916000Y-125927998D01*
X152916000Y-125945000D01*
X143910802Y-125945000D01*
X138222122Y-120256320D01*
X138222162Y-120210833D01*
X138080117Y-119867057D01*
X137859367Y-119645921D01*
X137969441Y-119575090D01*
X138017134Y-119505289D01*
X138053910Y-119562441D01*
X138053910Y-119562441D01*
G37*
X138053910Y-119562441D02*
X138258000Y-119701890D01*
X138258000Y-119968000D01*
X138315852Y-120258839D01*
X138480599Y-120505401D01*
X139035599Y-121060401D01*
X139282161Y-121225148D01*
X139573000Y-121283000D01*
X144719198Y-121283000D01*
X148728599Y-125292401D01*
X148975161Y-125457148D01*
X149266000Y-125515000D01*
X152903560Y-125515000D01*
X152903560Y-125630000D01*
X152916980Y-125701323D01*
X152916000Y-125703690D01*
X152916000Y-125783750D01*
X152936312Y-125804062D01*
X152947838Y-125865317D01*
X152988172Y-125927998D01*
X152916000Y-125927998D01*
X152916000Y-125945000D01*
X143910802Y-125945000D01*
X138222122Y-120256320D01*
X138222162Y-120210833D01*
X138080117Y-119867057D01*
X137859367Y-119645921D01*
X137969441Y-119575090D01*
X138017134Y-119505289D01*
X138053910Y-119562441D01*
G36*
X209744201Y-118409838D02*
X210048727Y-118410103D01*
X210086910Y-118469441D01*
X210299110Y-118614431D01*
X210312197Y-118617081D01*
X210099559Y-118753910D01*
X209954569Y-118966110D01*
X209903560Y-119218000D01*
X209903560Y-120718000D01*
X209947838Y-120953317D01*
X210086910Y-121169441D01*
X210299110Y-121314431D01*
X210551000Y-121365440D01*
X211330000Y-121365440D01*
X211330000Y-123190000D01*
X211387852Y-123480839D01*
X211552599Y-123727401D01*
X212213599Y-124388401D01*
X212460161Y-124553148D01*
X212751000Y-124611000D01*
X212778560Y-124611000D01*
X212778560Y-124726000D01*
X212798067Y-124829671D01*
X212778560Y-124926000D01*
X212778560Y-125376000D01*
X212791980Y-125447323D01*
X212791000Y-125449690D01*
X212791000Y-125529750D01*
X212811312Y-125550062D01*
X212822838Y-125611317D01*
X212863172Y-125673998D01*
X212791000Y-125673998D01*
X212791000Y-125691000D01*
X212766000Y-125691000D01*
X212475160Y-125748852D01*
X212228599Y-125913599D01*
X211552599Y-126589599D01*
X211387852Y-126836161D01*
X211330000Y-127127000D01*
X211330000Y-129918560D01*
X210050000Y-129918560D01*
X209814683Y-129962838D01*
X209598559Y-130101910D01*
X209552031Y-130170006D01*
X209409698Y-130027673D01*
X209176309Y-129931000D01*
X208585750Y-129931000D01*
X208427000Y-130089750D01*
X208427000Y-131064000D01*
X208447000Y-131064000D01*
X208447000Y-131318000D01*
X208427000Y-131318000D01*
X208427000Y-132292250D01*
X208585750Y-132451000D01*
X209176309Y-132451000D01*
X209409698Y-132354327D01*
X209550936Y-132213090D01*
X209585910Y-132267441D01*
X209798110Y-132412431D01*
X209965000Y-132446227D01*
X209965000Y-133390593D01*
X209900808Y-133454673D01*
X209758162Y-133798201D01*
X209757838Y-134170167D01*
X209899883Y-134513943D01*
X209965000Y-134579174D01*
X209965000Y-137131055D01*
X209948664Y-137124272D01*
X209328058Y-137123730D01*
X208754486Y-137360725D01*
X208636251Y-137478754D01*
X208526090Y-137307559D01*
X208313890Y-137162569D01*
X208062000Y-137111560D01*
X206816139Y-137111560D01*
X205878000Y-136173420D01*
X205878000Y-135363844D01*
X205944441Y-135321090D01*
X206089431Y-135108890D01*
X206140440Y-134857000D01*
X206140440Y-132857000D01*
X206096162Y-132621683D01*
X205957090Y-132405559D01*
X205744890Y-132260569D01*
X205493000Y-132209560D01*
X204493000Y-132209560D01*
X204257683Y-132253838D01*
X204041559Y-132392910D01*
X203993866Y-132462711D01*
X203957090Y-132405559D01*
X203828000Y-132317356D01*
X203828000Y-132013046D01*
X203880838Y-131885799D01*
X203881162Y-131513833D01*
X203865840Y-131476750D01*
X206915000Y-131476750D01*
X206915000Y-131942310D01*
X207011673Y-132175699D01*
X207190302Y-132354327D01*
X207423691Y-132451000D01*
X208014250Y-132451000D01*
X208173000Y-132292250D01*
X208173000Y-131318000D01*
X207073750Y-131318000D01*
X206915000Y-131476750D01*
X203865840Y-131476750D01*
X203739117Y-131170057D01*
X203476327Y-130906808D01*
X203132799Y-130764162D01*
X202760833Y-130763838D01*
X202417057Y-130905883D01*
X202153808Y-131168673D01*
X202011162Y-131512201D01*
X202010838Y-131884167D01*
X202152883Y-132227943D01*
X202158000Y-132233069D01*
X202158000Y-132317982D01*
X202041559Y-132392910D01*
X201993866Y-132462711D01*
X201957090Y-132405559D01*
X201744890Y-132260569D01*
X201493000Y-132209560D01*
X200493000Y-132209560D01*
X200257683Y-132253838D01*
X200041559Y-132392910D01*
X199993866Y-132462711D01*
X199957090Y-132405559D01*
X199744890Y-132260569D01*
X199493000Y-132209560D01*
X198493000Y-132209560D01*
X198257683Y-132253838D01*
X198041559Y-132392910D01*
X197995031Y-132461006D01*
X197852699Y-132318673D01*
X197619310Y-132222000D01*
X197278750Y-132222000D01*
X197120000Y-132380750D01*
X197120000Y-133730000D01*
X197140000Y-133730000D01*
X197140000Y-133984000D01*
X197120000Y-133984000D01*
X197120000Y-135333250D01*
X197278750Y-135492000D01*
X197619310Y-135492000D01*
X197852699Y-135395327D01*
X197993936Y-135254089D01*
X198028910Y-135308441D01*
X198241110Y-135453431D01*
X198493000Y-135504440D01*
X199493000Y-135504440D01*
X199728317Y-135460162D01*
X199944441Y-135321090D01*
X199992134Y-135251289D01*
X200028910Y-135308441D01*
X200241110Y-135453431D01*
X200493000Y-135504440D01*
X201493000Y-135504440D01*
X201728317Y-135460162D01*
X201944441Y-135321090D01*
X201992134Y-135251289D01*
X202028910Y-135308441D01*
X202241110Y-135453431D01*
X202493000Y-135504440D01*
X203493000Y-135504440D01*
X203728317Y-135460162D01*
X203944441Y-135321090D01*
X203992134Y-135251289D01*
X204028910Y-135308441D01*
X204108000Y-135362481D01*
X204108000Y-136539995D01*
X204107999Y-136540000D01*
X204137041Y-136686000D01*
X204175367Y-136878675D01*
X204339107Y-137123730D01*
X204367210Y-137165790D01*
X205564560Y-138363139D01*
X205564560Y-139448000D01*
X201657902Y-139448000D01*
X201845728Y-138995664D01*
X201846270Y-138375058D01*
X201609275Y-137801486D01*
X201170823Y-137362268D01*
X200597664Y-137124272D01*
X199977058Y-137123730D01*
X199403486Y-137360725D01*
X199035744Y-137727826D01*
X198670823Y-137362268D01*
X198118886Y-137133084D01*
X197608401Y-136622599D01*
X197361839Y-136457852D01*
X197071000Y-136400000D01*
X196768999Y-136400000D01*
X196769162Y-136212833D01*
X196627117Y-135869057D01*
X196364327Y-135605808D01*
X196020799Y-135463162D01*
X195973923Y-135463121D01*
X195875959Y-135365157D01*
X195944441Y-135321090D01*
X195990969Y-135252994D01*
X196133301Y-135395327D01*
X196366690Y-135492000D01*
X196707250Y-135492000D01*
X196866000Y-135333250D01*
X196866000Y-133984000D01*
X196846000Y-133984000D01*
X196846000Y-133730000D01*
X196866000Y-133730000D01*
X196866000Y-132380750D01*
X196707250Y-132222000D01*
X196366690Y-132222000D01*
X196133301Y-132318673D01*
X195992064Y-132459911D01*
X195957090Y-132405559D01*
X195744890Y-132260569D01*
X195493000Y-132209560D01*
X194493000Y-132209560D01*
X194257683Y-132253838D01*
X194041559Y-132392910D01*
X193993866Y-132462711D01*
X193957090Y-132405559D01*
X193744890Y-132260569D01*
X193493000Y-132209560D01*
X192493000Y-132209560D01*
X192257683Y-132253838D01*
X192041559Y-132392910D01*
X191993866Y-132462711D01*
X191957090Y-132405559D01*
X191759009Y-132270216D01*
X191927192Y-132102327D01*
X192069838Y-131758799D01*
X192070162Y-131386833D01*
X191979467Y-131167335D01*
X192707112Y-130439690D01*
X206915000Y-130439690D01*
X206915000Y-130905250D01*
X207073750Y-131064000D01*
X208173000Y-131064000D01*
X208173000Y-130089750D01*
X208014250Y-129931000D01*
X207423691Y-129931000D01*
X207190302Y-130027673D01*
X207011673Y-130206301D01*
X206915000Y-130439690D01*
X192707112Y-130439690D01*
X193985802Y-129161000D01*
X207184203Y-129161000D01*
X207274110Y-129222431D01*
X207526000Y-129273440D01*
X208976000Y-129273440D01*
X209211317Y-129229162D01*
X209427441Y-129090090D01*
X209572431Y-128877890D01*
X209623440Y-128626000D01*
X209623440Y-128176000D01*
X209603933Y-128072329D01*
X209623440Y-127976000D01*
X209623440Y-127526000D01*
X209603933Y-127422329D01*
X209623440Y-127326000D01*
X209623440Y-126876000D01*
X209603933Y-126772329D01*
X209623440Y-126676000D01*
X209623440Y-126226000D01*
X209610020Y-126154677D01*
X209611000Y-126152310D01*
X209611000Y-126072250D01*
X209590688Y-126051938D01*
X209579162Y-125990683D01*
X209576149Y-125986000D01*
X210019628Y-125986000D01*
X210125201Y-126029838D01*
X210497167Y-126030162D01*
X210840943Y-125888117D01*
X211104192Y-125625327D01*
X211246838Y-125281799D01*
X211247162Y-124909833D01*
X211105117Y-124566057D01*
X210842327Y-124302808D01*
X210498799Y-124160162D01*
X210126833Y-124159838D01*
X209783057Y-124301883D01*
X209768915Y-124316000D01*
X209623440Y-124316000D01*
X209623440Y-124276000D01*
X209603933Y-124172329D01*
X209623440Y-124076000D01*
X209623440Y-123626000D01*
X209603933Y-123522329D01*
X209623440Y-123426000D01*
X209623440Y-122976000D01*
X209603933Y-122872329D01*
X209623440Y-122776000D01*
X209623440Y-122326000D01*
X209579162Y-122090683D01*
X209440090Y-121874559D01*
X209227890Y-121729569D01*
X208976000Y-121678560D01*
X208224362Y-121678560D01*
X207925802Y-121380000D01*
X207994250Y-121380000D01*
X208153000Y-121221250D01*
X208153000Y-120122000D01*
X208407000Y-120122000D01*
X208407000Y-121221250D01*
X208565750Y-121380000D01*
X209031310Y-121380000D01*
X209264699Y-121283327D01*
X209443327Y-121104698D01*
X209540000Y-120871309D01*
X209540000Y-120280750D01*
X209381250Y-120122000D01*
X208407000Y-120122000D01*
X208153000Y-120122000D01*
X208133000Y-120122000D01*
X208133000Y-119868000D01*
X208153000Y-119868000D01*
X208153000Y-119848000D01*
X208407000Y-119848000D01*
X208407000Y-119868000D01*
X209381250Y-119868000D01*
X209540000Y-119709250D01*
X209540000Y-119118691D01*
X209443327Y-118885302D01*
X209302090Y-118744064D01*
X209356441Y-118709090D01*
X209501431Y-118496890D01*
X209535227Y-118330000D01*
X209551931Y-118330000D01*
X209744201Y-118409838D01*
X209744201Y-118409838D01*
G37*
X209744201Y-118409838D02*
X210048727Y-118410103D01*
X210086910Y-118469441D01*
X210299110Y-118614431D01*
X210312197Y-118617081D01*
X210099559Y-118753910D01*
X209954569Y-118966110D01*
X209903560Y-119218000D01*
X209903560Y-120718000D01*
X209947838Y-120953317D01*
X210086910Y-121169441D01*
X210299110Y-121314431D01*
X210551000Y-121365440D01*
X211330000Y-121365440D01*
X211330000Y-123190000D01*
X211387852Y-123480839D01*
X211552599Y-123727401D01*
X212213599Y-124388401D01*
X212460161Y-124553148D01*
X212751000Y-124611000D01*
X212778560Y-124611000D01*
X212778560Y-124726000D01*
X212798067Y-124829671D01*
X212778560Y-124926000D01*
X212778560Y-125376000D01*
X212791980Y-125447323D01*
X212791000Y-125449690D01*
X212791000Y-125529750D01*
X212811312Y-125550062D01*
X212822838Y-125611317D01*
X212863172Y-125673998D01*
X212791000Y-125673998D01*
X212791000Y-125691000D01*
X212766000Y-125691000D01*
X212475160Y-125748852D01*
X212228599Y-125913599D01*
X211552599Y-126589599D01*
X211387852Y-126836161D01*
X211330000Y-127127000D01*
X211330000Y-129918560D01*
X210050000Y-129918560D01*
X209814683Y-129962838D01*
X209598559Y-130101910D01*
X209552031Y-130170006D01*
X209409698Y-130027673D01*
X209176309Y-129931000D01*
X208585750Y-129931000D01*
X208427000Y-130089750D01*
X208427000Y-131064000D01*
X208447000Y-131064000D01*
X208447000Y-131318000D01*
X208427000Y-131318000D01*
X208427000Y-132292250D01*
X208585750Y-132451000D01*
X209176309Y-132451000D01*
X209409698Y-132354327D01*
X209550936Y-132213090D01*
X209585910Y-132267441D01*
X209798110Y-132412431D01*
X209965000Y-132446227D01*
X209965000Y-133390593D01*
X209900808Y-133454673D01*
X209758162Y-133798201D01*
X209757838Y-134170167D01*
X209899883Y-134513943D01*
X209965000Y-134579174D01*
X209965000Y-137131055D01*
X209948664Y-137124272D01*
X209328058Y-137123730D01*
X208754486Y-137360725D01*
X208636251Y-137478754D01*
X208526090Y-137307559D01*
X208313890Y-137162569D01*
X208062000Y-137111560D01*
X206816139Y-137111560D01*
X205878000Y-136173420D01*
X205878000Y-135363844D01*
X205944441Y-135321090D01*
X206089431Y-135108890D01*
X206140440Y-134857000D01*
X206140440Y-132857000D01*
X206096162Y-132621683D01*
X205957090Y-132405559D01*
X205744890Y-132260569D01*
X205493000Y-132209560D01*
X204493000Y-132209560D01*
X204257683Y-132253838D01*
X204041559Y-132392910D01*
X203993866Y-132462711D01*
X203957090Y-132405559D01*
X203828000Y-132317356D01*
X203828000Y-132013046D01*
X203880838Y-131885799D01*
X203881162Y-131513833D01*
X203865840Y-131476750D01*
X206915000Y-131476750D01*
X206915000Y-131942310D01*
X207011673Y-132175699D01*
X207190302Y-132354327D01*
X207423691Y-132451000D01*
X208014250Y-132451000D01*
X208173000Y-132292250D01*
X208173000Y-131318000D01*
X207073750Y-131318000D01*
X206915000Y-131476750D01*
X203865840Y-131476750D01*
X203739117Y-131170057D01*
X203476327Y-130906808D01*
X203132799Y-130764162D01*
X202760833Y-130763838D01*
X202417057Y-130905883D01*
X202153808Y-131168673D01*
X202011162Y-131512201D01*
X202010838Y-131884167D01*
X202152883Y-132227943D01*
X202158000Y-132233069D01*
X202158000Y-132317982D01*
X202041559Y-132392910D01*
X201993866Y-132462711D01*
X201957090Y-132405559D01*
X201744890Y-132260569D01*
X201493000Y-132209560D01*
X200493000Y-132209560D01*
X200257683Y-132253838D01*
X200041559Y-132392910D01*
X199993866Y-132462711D01*
X199957090Y-132405559D01*
X199744890Y-132260569D01*
X199493000Y-132209560D01*
X198493000Y-132209560D01*
X198257683Y-132253838D01*
X198041559Y-132392910D01*
X197995031Y-132461006D01*
X197852699Y-132318673D01*
X197619310Y-132222000D01*
X197278750Y-132222000D01*
X197120000Y-132380750D01*
X197120000Y-133730000D01*
X197140000Y-133730000D01*
X197140000Y-133984000D01*
X197120000Y-133984000D01*
X197120000Y-135333250D01*
X197278750Y-135492000D01*
X197619310Y-135492000D01*
X197852699Y-135395327D01*
X197993936Y-135254089D01*
X198028910Y-135308441D01*
X198241110Y-135453431D01*
X198493000Y-135504440D01*
X199493000Y-135504440D01*
X199728317Y-135460162D01*
X199944441Y-135321090D01*
X199992134Y-135251289D01*
X200028910Y-135308441D01*
X200241110Y-135453431D01*
X200493000Y-135504440D01*
X201493000Y-135504440D01*
X201728317Y-135460162D01*
X201944441Y-135321090D01*
X201992134Y-135251289D01*
X202028910Y-135308441D01*
X202241110Y-135453431D01*
X202493000Y-135504440D01*
X203493000Y-135504440D01*
X203728317Y-135460162D01*
X203944441Y-135321090D01*
X203992134Y-135251289D01*
X204028910Y-135308441D01*
X204108000Y-135362481D01*
X204108000Y-136539995D01*
X204107999Y-136540000D01*
X204137041Y-136686000D01*
X204175367Y-136878675D01*
X204339107Y-137123730D01*
X204367210Y-137165790D01*
X205564560Y-138363139D01*
X205564560Y-139448000D01*
X201657902Y-139448000D01*
X201845728Y-138995664D01*
X201846270Y-138375058D01*
X201609275Y-137801486D01*
X201170823Y-137362268D01*
X200597664Y-137124272D01*
X199977058Y-137123730D01*
X199403486Y-137360725D01*
X199035744Y-137727826D01*
X198670823Y-137362268D01*
X198118886Y-137133084D01*
X197608401Y-136622599D01*
X197361839Y-136457852D01*
X197071000Y-136400000D01*
X196768999Y-136400000D01*
X196769162Y-136212833D01*
X196627117Y-135869057D01*
X196364327Y-135605808D01*
X196020799Y-135463162D01*
X195973923Y-135463121D01*
X195875959Y-135365157D01*
X195944441Y-135321090D01*
X195990969Y-135252994D01*
X196133301Y-135395327D01*
X196366690Y-135492000D01*
X196707250Y-135492000D01*
X196866000Y-135333250D01*
X196866000Y-133984000D01*
X196846000Y-133984000D01*
X196846000Y-133730000D01*
X196866000Y-133730000D01*
X196866000Y-132380750D01*
X196707250Y-132222000D01*
X196366690Y-132222000D01*
X196133301Y-132318673D01*
X195992064Y-132459911D01*
X195957090Y-132405559D01*
X195744890Y-132260569D01*
X195493000Y-132209560D01*
X194493000Y-132209560D01*
X194257683Y-132253838D01*
X194041559Y-132392910D01*
X193993866Y-132462711D01*
X193957090Y-132405559D01*
X193744890Y-132260569D01*
X193493000Y-132209560D01*
X192493000Y-132209560D01*
X192257683Y-132253838D01*
X192041559Y-132392910D01*
X191993866Y-132462711D01*
X191957090Y-132405559D01*
X191759009Y-132270216D01*
X191927192Y-132102327D01*
X192069838Y-131758799D01*
X192070162Y-131386833D01*
X191979467Y-131167335D01*
X192707112Y-130439690D01*
X206915000Y-130439690D01*
X206915000Y-130905250D01*
X207073750Y-131064000D01*
X208173000Y-131064000D01*
X208173000Y-130089750D01*
X208014250Y-129931000D01*
X207423691Y-129931000D01*
X207190302Y-130027673D01*
X207011673Y-130206301D01*
X206915000Y-130439690D01*
X192707112Y-130439690D01*
X193985802Y-129161000D01*
X207184203Y-129161000D01*
X207274110Y-129222431D01*
X207526000Y-129273440D01*
X208976000Y-129273440D01*
X209211317Y-129229162D01*
X209427441Y-129090090D01*
X209572431Y-128877890D01*
X209623440Y-128626000D01*
X209623440Y-128176000D01*
X209603933Y-128072329D01*
X209623440Y-127976000D01*
X209623440Y-127526000D01*
X209603933Y-127422329D01*
X209623440Y-127326000D01*
X209623440Y-126876000D01*
X209603933Y-126772329D01*
X209623440Y-126676000D01*
X209623440Y-126226000D01*
X209610020Y-126154677D01*
X209611000Y-126152310D01*
X209611000Y-126072250D01*
X209590688Y-126051938D01*
X209579162Y-125990683D01*
X209576149Y-125986000D01*
X210019628Y-125986000D01*
X210125201Y-126029838D01*
X210497167Y-126030162D01*
X210840943Y-125888117D01*
X211104192Y-125625327D01*
X211246838Y-125281799D01*
X211247162Y-124909833D01*
X211105117Y-124566057D01*
X210842327Y-124302808D01*
X210498799Y-124160162D01*
X210126833Y-124159838D01*
X209783057Y-124301883D01*
X209768915Y-124316000D01*
X209623440Y-124316000D01*
X209623440Y-124276000D01*
X209603933Y-124172329D01*
X209623440Y-124076000D01*
X209623440Y-123626000D01*
X209603933Y-123522329D01*
X209623440Y-123426000D01*
X209623440Y-122976000D01*
X209603933Y-122872329D01*
X209623440Y-122776000D01*
X209623440Y-122326000D01*
X209579162Y-122090683D01*
X209440090Y-121874559D01*
X209227890Y-121729569D01*
X208976000Y-121678560D01*
X208224362Y-121678560D01*
X207925802Y-121380000D01*
X207994250Y-121380000D01*
X208153000Y-121221250D01*
X208153000Y-120122000D01*
X208407000Y-120122000D01*
X208407000Y-121221250D01*
X208565750Y-121380000D01*
X209031310Y-121380000D01*
X209264699Y-121283327D01*
X209443327Y-121104698D01*
X209540000Y-120871309D01*
X209540000Y-120280750D01*
X209381250Y-120122000D01*
X208407000Y-120122000D01*
X208153000Y-120122000D01*
X208133000Y-120122000D01*
X208133000Y-119868000D01*
X208153000Y-119868000D01*
X208153000Y-119848000D01*
X208407000Y-119848000D01*
X208407000Y-119868000D01*
X209381250Y-119868000D01*
X209540000Y-119709250D01*
X209540000Y-119118691D01*
X209443327Y-118885302D01*
X209302090Y-118744064D01*
X209356441Y-118709090D01*
X209501431Y-118496890D01*
X209535227Y-118330000D01*
X209551931Y-118330000D01*
X209744201Y-118409838D01*
G36*
X196061090Y-111013108D02*
X195938664Y-110962272D01*
X195318058Y-110961730D01*
X194744486Y-111198725D01*
X194376744Y-111565826D01*
X194011823Y-111200268D01*
X193438664Y-110962272D01*
X192818058Y-110961730D01*
X192244486Y-111198725D01*
X192124119Y-111318882D01*
X192090327Y-111237301D01*
X191911698Y-111058673D01*
X191678309Y-110962000D01*
X190912750Y-110962000D01*
X190754000Y-111120750D01*
X190754000Y-112395000D01*
X190774000Y-112395000D01*
X190774000Y-112649000D01*
X190754000Y-112649000D01*
X190754000Y-113923250D01*
X190912750Y-114082000D01*
X191678309Y-114082000D01*
X191911698Y-113985327D01*
X192090327Y-113806699D01*
X192124017Y-113725365D01*
X192242177Y-113843732D01*
X192815336Y-114081728D01*
X193435942Y-114082270D01*
X194009514Y-113845275D01*
X194377256Y-113478174D01*
X194742177Y-113843732D01*
X195315336Y-114081728D01*
X195935942Y-114082270D01*
X196509514Y-113845275D01*
X196948732Y-113406823D01*
X197186728Y-112833664D01*
X197187270Y-112213058D01*
X197135657Y-112088145D01*
X197592802Y-111631000D01*
X200624000Y-111631000D01*
X200624000Y-112236250D01*
X200782750Y-112395000D01*
X202057000Y-112395000D01*
X202057000Y-112375000D01*
X202311000Y-112375000D01*
X202311000Y-112395000D01*
X202331000Y-112395000D01*
X202331000Y-112649000D01*
X202311000Y-112649000D01*
X202311000Y-112669000D01*
X202057000Y-112669000D01*
X202057000Y-112649000D01*
X200782750Y-112649000D01*
X200624000Y-112807750D01*
X200624000Y-113286000D01*
X198882000Y-113286000D01*
X198639414Y-113334254D01*
X198591160Y-113343852D01*
X198344599Y-113508599D01*
X196455599Y-115397599D01*
X196290852Y-115644161D01*
X196233000Y-115935000D01*
X196233000Y-116269721D01*
X196041559Y-116392910D01*
X195993866Y-116462711D01*
X195957090Y-116405559D01*
X195753000Y-116266110D01*
X195753000Y-115618000D01*
X195695148Y-115327161D01*
X195530401Y-115080599D01*
X195101401Y-114651599D01*
X194854839Y-114486852D01*
X194564000Y-114429000D01*
X190119000Y-114429000D01*
X189828161Y-114486852D01*
X189581599Y-114651599D01*
X188946599Y-115286599D01*
X188781852Y-115533161D01*
X188724000Y-115824000D01*
X188724000Y-116052126D01*
X188328041Y-115887710D01*
X187848065Y-115887291D01*
X187404465Y-116070582D01*
X187064775Y-116409680D01*
X186880710Y-116852959D01*
X186880291Y-117332935D01*
X187063582Y-117776535D01*
X187402680Y-118116225D01*
X187845959Y-118300290D01*
X188325935Y-118300709D01*
X188724000Y-118136233D01*
X188724000Y-118592126D01*
X188328041Y-118427710D01*
X187848065Y-118427291D01*
X187404465Y-118610582D01*
X187064775Y-118949680D01*
X186880710Y-119392959D01*
X186880291Y-119872935D01*
X187063582Y-120316535D01*
X187402680Y-120656225D01*
X187845959Y-120840290D01*
X188325935Y-120840709D01*
X188724000Y-120676233D01*
X188724000Y-130882392D01*
X188622440Y-130983952D01*
X188576448Y-130761467D01*
X188122145Y-130606595D01*
X187643156Y-130637367D01*
X187343552Y-130761467D01*
X187297559Y-130983954D01*
X187960000Y-131646395D01*
X187974143Y-131632253D01*
X188153748Y-131811858D01*
X188139605Y-131826000D01*
X188153748Y-131840143D01*
X187974143Y-132019748D01*
X187960000Y-132005605D01*
X187297559Y-132668046D01*
X187343552Y-132890533D01*
X187797855Y-133045405D01*
X188276844Y-133014633D01*
X188576448Y-132890533D01*
X188622440Y-132668048D01*
X188724000Y-132769608D01*
X188724000Y-133423594D01*
X188644320Y-133343775D01*
X188201041Y-133159710D01*
X187721065Y-133159291D01*
X187277465Y-133342582D01*
X186937775Y-133681680D01*
X186817000Y-133972539D01*
X186817000Y-132253012D01*
X186895467Y-132442448D01*
X187117954Y-132488441D01*
X187780395Y-131826000D01*
X187117954Y-131163559D01*
X186895467Y-131209552D01*
X186817000Y-131439728D01*
X186817000Y-114953820D01*
X187467324Y-112807750D01*
X189067000Y-112807750D01*
X189067000Y-113573310D01*
X189163673Y-113806699D01*
X189342302Y-113985327D01*
X189575691Y-114082000D01*
X190341250Y-114082000D01*
X190500000Y-113923250D01*
X190500000Y-112649000D01*
X189225750Y-112649000D01*
X189067000Y-112807750D01*
X187467324Y-112807750D01*
X187872493Y-111470690D01*
X189067000Y-111470690D01*
X189067000Y-112236250D01*
X189225750Y-112395000D01*
X190500000Y-112395000D01*
X190500000Y-111120750D01*
X190341250Y-110962000D01*
X189575691Y-110962000D01*
X189342302Y-111058673D01*
X189163673Y-111237301D01*
X189067000Y-111470690D01*
X187872493Y-111470690D01*
X188054218Y-110871000D01*
X196203198Y-110871000D01*
X196061090Y-111013108D01*
X196061090Y-111013108D01*
G37*
X196061090Y-111013108D02*
X195938664Y-110962272D01*
X195318058Y-110961730D01*
X194744486Y-111198725D01*
X194376744Y-111565826D01*
X194011823Y-111200268D01*
X193438664Y-110962272D01*
X192818058Y-110961730D01*
X192244486Y-111198725D01*
X192124119Y-111318882D01*
X192090327Y-111237301D01*
X191911698Y-111058673D01*
X191678309Y-110962000D01*
X190912750Y-110962000D01*
X190754000Y-111120750D01*
X190754000Y-112395000D01*
X190774000Y-112395000D01*
X190774000Y-112649000D01*
X190754000Y-112649000D01*
X190754000Y-113923250D01*
X190912750Y-114082000D01*
X191678309Y-114082000D01*
X191911698Y-113985327D01*
X192090327Y-113806699D01*
X192124017Y-113725365D01*
X192242177Y-113843732D01*
X192815336Y-114081728D01*
X193435942Y-114082270D01*
X194009514Y-113845275D01*
X194377256Y-113478174D01*
X194742177Y-113843732D01*
X195315336Y-114081728D01*
X195935942Y-114082270D01*
X196509514Y-113845275D01*
X196948732Y-113406823D01*
X197186728Y-112833664D01*
X197187270Y-112213058D01*
X197135657Y-112088145D01*
X197592802Y-111631000D01*
X200624000Y-111631000D01*
X200624000Y-112236250D01*
X200782750Y-112395000D01*
X202057000Y-112395000D01*
X202057000Y-112375000D01*
X202311000Y-112375000D01*
X202311000Y-112395000D01*
X202331000Y-112395000D01*
X202331000Y-112649000D01*
X202311000Y-112649000D01*
X202311000Y-112669000D01*
X202057000Y-112669000D01*
X202057000Y-112649000D01*
X200782750Y-112649000D01*
X200624000Y-112807750D01*
X200624000Y-113286000D01*
X198882000Y-113286000D01*
X198639414Y-113334254D01*
X198591160Y-113343852D01*
X198344599Y-113508599D01*
X196455599Y-115397599D01*
X196290852Y-115644161D01*
X196233000Y-115935000D01*
X196233000Y-116269721D01*
X196041559Y-116392910D01*
X195993866Y-116462711D01*
X195957090Y-116405559D01*
X195753000Y-116266110D01*
X195753000Y-115618000D01*
X195695148Y-115327161D01*
X195530401Y-115080599D01*
X195101401Y-114651599D01*
X194854839Y-114486852D01*
X194564000Y-114429000D01*
X190119000Y-114429000D01*
X189828161Y-114486852D01*
X189581599Y-114651599D01*
X188946599Y-115286599D01*
X188781852Y-115533161D01*
X188724000Y-115824000D01*
X188724000Y-116052126D01*
X188328041Y-115887710D01*
X187848065Y-115887291D01*
X187404465Y-116070582D01*
X187064775Y-116409680D01*
X186880710Y-116852959D01*
X186880291Y-117332935D01*
X187063582Y-117776535D01*
X187402680Y-118116225D01*
X187845959Y-118300290D01*
X188325935Y-118300709D01*
X188724000Y-118136233D01*
X188724000Y-118592126D01*
X188328041Y-118427710D01*
X187848065Y-118427291D01*
X187404465Y-118610582D01*
X187064775Y-118949680D01*
X186880710Y-119392959D01*
X186880291Y-119872935D01*
X187063582Y-120316535D01*
X187402680Y-120656225D01*
X187845959Y-120840290D01*
X188325935Y-120840709D01*
X188724000Y-120676233D01*
X188724000Y-130882392D01*
X188622440Y-130983952D01*
X188576448Y-130761467D01*
X188122145Y-130606595D01*
X187643156Y-130637367D01*
X187343552Y-130761467D01*
X187297559Y-130983954D01*
X187960000Y-131646395D01*
X187974143Y-131632253D01*
X188153748Y-131811858D01*
X188139605Y-131826000D01*
X188153748Y-131840143D01*
X187974143Y-132019748D01*
X187960000Y-132005605D01*
X187297559Y-132668046D01*
X187343552Y-132890533D01*
X187797855Y-133045405D01*
X188276844Y-133014633D01*
X188576448Y-132890533D01*
X188622440Y-132668048D01*
X188724000Y-132769608D01*
X188724000Y-133423594D01*
X188644320Y-133343775D01*
X188201041Y-133159710D01*
X187721065Y-133159291D01*
X187277465Y-133342582D01*
X186937775Y-133681680D01*
X186817000Y-133972539D01*
X186817000Y-132253012D01*
X186895467Y-132442448D01*
X187117954Y-132488441D01*
X187780395Y-131826000D01*
X187117954Y-131163559D01*
X186895467Y-131209552D01*
X186817000Y-131439728D01*
X186817000Y-114953820D01*
X187467324Y-112807750D01*
X189067000Y-112807750D01*
X189067000Y-113573310D01*
X189163673Y-113806699D01*
X189342302Y-113985327D01*
X189575691Y-114082000D01*
X190341250Y-114082000D01*
X190500000Y-113923250D01*
X190500000Y-112649000D01*
X189225750Y-112649000D01*
X189067000Y-112807750D01*
X187467324Y-112807750D01*
X187872493Y-111470690D01*
X189067000Y-111470690D01*
X189067000Y-112236250D01*
X189225750Y-112395000D01*
X190500000Y-112395000D01*
X190500000Y-111120750D01*
X190341250Y-110962000D01*
X189575691Y-110962000D01*
X189342302Y-111058673D01*
X189163673Y-111237301D01*
X189067000Y-111470690D01*
X187872493Y-111470690D01*
X188054218Y-110871000D01*
X196203198Y-110871000D01*
X196061090Y-111013108D01*
G36*
X190313201Y-121711838D02*
X190360077Y-121711879D01*
X192058099Y-123409901D01*
X192096165Y-123435335D01*
X192121599Y-123473401D01*
X195639198Y-126991000D01*
X194056000Y-126991000D01*
X194050500Y-126992094D01*
X194045000Y-126991000D01*
X193802000Y-126991000D01*
X193796500Y-126992094D01*
X193791000Y-126991000D01*
X193178000Y-126991000D01*
X192887161Y-127048852D01*
X192640599Y-127213599D01*
X190360320Y-129493878D01*
X190314833Y-129493838D01*
X190244000Y-129523106D01*
X190244000Y-121683103D01*
X190313201Y-121711838D01*
X190313201Y-121711838D01*
G37*
X190313201Y-121711838D02*
X190360077Y-121711879D01*
X192058099Y-123409901D01*
X192096165Y-123435335D01*
X192121599Y-123473401D01*
X195639198Y-126991000D01*
X194056000Y-126991000D01*
X194050500Y-126992094D01*
X194045000Y-126991000D01*
X193802000Y-126991000D01*
X193796500Y-126992094D01*
X193791000Y-126991000D01*
X193178000Y-126991000D01*
X192887161Y-127048852D01*
X192640599Y-127213599D01*
X190360320Y-129493878D01*
X190314833Y-129493838D01*
X190244000Y-129523106D01*
X190244000Y-121683103D01*
X190313201Y-121711838D01*
G36*
X192028910Y-119308441D02*
X192233000Y-119447890D01*
X192233000Y-119714000D01*
X192290852Y-120004839D01*
X192455599Y-120251401D01*
X193010599Y-120806401D01*
X193257161Y-120971148D01*
X193548000Y-121029000D01*
X198694198Y-121029000D01*
X202703599Y-125038401D01*
X202950161Y-125203148D01*
X203241000Y-125261000D01*
X206878560Y-125261000D01*
X206878560Y-125376000D01*
X206891980Y-125447323D01*
X206891000Y-125449690D01*
X206891000Y-125529750D01*
X206911312Y-125550062D01*
X206922838Y-125611317D01*
X206963172Y-125673998D01*
X206891000Y-125673998D01*
X206891000Y-125691000D01*
X197885802Y-125691000D01*
X192197122Y-120002320D01*
X192197162Y-119956833D01*
X192055117Y-119613057D01*
X191834367Y-119391921D01*
X191944441Y-119321090D01*
X191992134Y-119251289D01*
X192028910Y-119308441D01*
X192028910Y-119308441D01*
G37*
X192028910Y-119308441D02*
X192233000Y-119447890D01*
X192233000Y-119714000D01*
X192290852Y-120004839D01*
X192455599Y-120251401D01*
X193010599Y-120806401D01*
X193257161Y-120971148D01*
X193548000Y-121029000D01*
X198694198Y-121029000D01*
X202703599Y-125038401D01*
X202950161Y-125203148D01*
X203241000Y-125261000D01*
X206878560Y-125261000D01*
X206878560Y-125376000D01*
X206891980Y-125447323D01*
X206891000Y-125449690D01*
X206891000Y-125529750D01*
X206911312Y-125550062D01*
X206922838Y-125611317D01*
X206963172Y-125673998D01*
X206891000Y-125673998D01*
X206891000Y-125691000D01*
X197885802Y-125691000D01*
X192197122Y-120002320D01*
X192197162Y-119956833D01*
X192055117Y-119613057D01*
X191834367Y-119391921D01*
X191944441Y-119321090D01*
X191992134Y-119251289D01*
X192028910Y-119308441D01*
G36*
X156150201Y-73324838D02*
X156454727Y-73325103D01*
X156492910Y-73384441D01*
X156705110Y-73529431D01*
X156718197Y-73532081D01*
X156505559Y-73668910D01*
X156360569Y-73881110D01*
X156309560Y-74133000D01*
X156309560Y-75633000D01*
X156353838Y-75868317D01*
X156492910Y-76084441D01*
X156705110Y-76229431D01*
X156957000Y-76280440D01*
X157736000Y-76280440D01*
X157736000Y-78105000D01*
X157793852Y-78395839D01*
X157958599Y-78642401D01*
X158619599Y-79303401D01*
X158866161Y-79468148D01*
X159157000Y-79526000D01*
X159184560Y-79526000D01*
X159184560Y-79641000D01*
X159204067Y-79744671D01*
X159184560Y-79841000D01*
X159184560Y-80291000D01*
X159197980Y-80362323D01*
X159197000Y-80364690D01*
X159197000Y-80444750D01*
X159217312Y-80465062D01*
X159228838Y-80526317D01*
X159269172Y-80588998D01*
X159197000Y-80588998D01*
X159197000Y-80606000D01*
X159172000Y-80606000D01*
X158881160Y-80663852D01*
X158634599Y-80828599D01*
X157958599Y-81504599D01*
X157793852Y-81751161D01*
X157736000Y-82042000D01*
X157736000Y-84833560D01*
X156456000Y-84833560D01*
X156220683Y-84877838D01*
X156004559Y-85016910D01*
X155958031Y-85085006D01*
X155815698Y-84942673D01*
X155582309Y-84846000D01*
X154991750Y-84846000D01*
X154833000Y-85004750D01*
X154833000Y-85979000D01*
X154853000Y-85979000D01*
X154853000Y-86233000D01*
X154833000Y-86233000D01*
X154833000Y-87207250D01*
X154991750Y-87366000D01*
X155582309Y-87366000D01*
X155815698Y-87269327D01*
X155956936Y-87128090D01*
X155991910Y-87182441D01*
X156204110Y-87327431D01*
X156371000Y-87361227D01*
X156371000Y-88305593D01*
X156306808Y-88369673D01*
X156164162Y-88713201D01*
X156163838Y-89085167D01*
X156305883Y-89428943D01*
X156371000Y-89494174D01*
X156371000Y-92046055D01*
X156354664Y-92039272D01*
X155734058Y-92038730D01*
X155160486Y-92275725D01*
X155042251Y-92393754D01*
X154932090Y-92222559D01*
X154719890Y-92077569D01*
X154468000Y-92026560D01*
X153222139Y-92026560D01*
X152284000Y-91088420D01*
X152284000Y-90278844D01*
X152350441Y-90236090D01*
X152495431Y-90023890D01*
X152546440Y-89772000D01*
X152546440Y-87772000D01*
X152502162Y-87536683D01*
X152363090Y-87320559D01*
X152150890Y-87175569D01*
X151899000Y-87124560D01*
X150899000Y-87124560D01*
X150663683Y-87168838D01*
X150447559Y-87307910D01*
X150399866Y-87377711D01*
X150363090Y-87320559D01*
X150234000Y-87232356D01*
X150234000Y-86928046D01*
X150286838Y-86800799D01*
X150287162Y-86428833D01*
X150271840Y-86391750D01*
X153321000Y-86391750D01*
X153321000Y-86857310D01*
X153417673Y-87090699D01*
X153596302Y-87269327D01*
X153829691Y-87366000D01*
X154420250Y-87366000D01*
X154579000Y-87207250D01*
X154579000Y-86233000D01*
X153479750Y-86233000D01*
X153321000Y-86391750D01*
X150271840Y-86391750D01*
X150145117Y-86085057D01*
X149882327Y-85821808D01*
X149538799Y-85679162D01*
X149166833Y-85678838D01*
X148823057Y-85820883D01*
X148559808Y-86083673D01*
X148417162Y-86427201D01*
X148416838Y-86799167D01*
X148558883Y-87142943D01*
X148564000Y-87148069D01*
X148564000Y-87232982D01*
X148447559Y-87307910D01*
X148399866Y-87377711D01*
X148363090Y-87320559D01*
X148150890Y-87175569D01*
X147899000Y-87124560D01*
X146899000Y-87124560D01*
X146663683Y-87168838D01*
X146447559Y-87307910D01*
X146399866Y-87377711D01*
X146363090Y-87320559D01*
X146150890Y-87175569D01*
X145899000Y-87124560D01*
X144899000Y-87124560D01*
X144663683Y-87168838D01*
X144447559Y-87307910D01*
X144401031Y-87376006D01*
X144258699Y-87233673D01*
X144025310Y-87137000D01*
X143684750Y-87137000D01*
X143526000Y-87295750D01*
X143526000Y-88645000D01*
X143546000Y-88645000D01*
X143546000Y-88899000D01*
X143526000Y-88899000D01*
X143526000Y-90248250D01*
X143684750Y-90407000D01*
X144025310Y-90407000D01*
X144258699Y-90310327D01*
X144399936Y-90169089D01*
X144434910Y-90223441D01*
X144647110Y-90368431D01*
X144899000Y-90419440D01*
X145899000Y-90419440D01*
X146134317Y-90375162D01*
X146350441Y-90236090D01*
X146398134Y-90166289D01*
X146434910Y-90223441D01*
X146647110Y-90368431D01*
X146899000Y-90419440D01*
X147899000Y-90419440D01*
X148134317Y-90375162D01*
X148350441Y-90236090D01*
X148398134Y-90166289D01*
X148434910Y-90223441D01*
X148647110Y-90368431D01*
X148899000Y-90419440D01*
X149899000Y-90419440D01*
X150134317Y-90375162D01*
X150350441Y-90236090D01*
X150398134Y-90166289D01*
X150434910Y-90223441D01*
X150514000Y-90277481D01*
X150514000Y-91454995D01*
X150513999Y-91455000D01*
X150543041Y-91601000D01*
X150581367Y-91793675D01*
X150745107Y-92038730D01*
X150773210Y-92080790D01*
X151970560Y-93278139D01*
X151970560Y-94363000D01*
X148063902Y-94363000D01*
X148251728Y-93910664D01*
X148252270Y-93290058D01*
X148015275Y-92716486D01*
X147576823Y-92277268D01*
X147003664Y-92039272D01*
X146383058Y-92038730D01*
X145809486Y-92275725D01*
X145441744Y-92642826D01*
X145076823Y-92277268D01*
X144524886Y-92048084D01*
X144014401Y-91537599D01*
X143767839Y-91372852D01*
X143477000Y-91315000D01*
X143174999Y-91315000D01*
X143175162Y-91127833D01*
X143033117Y-90784057D01*
X142770327Y-90520808D01*
X142426799Y-90378162D01*
X142379923Y-90378121D01*
X142281959Y-90280157D01*
X142350441Y-90236090D01*
X142396969Y-90167994D01*
X142539301Y-90310327D01*
X142772690Y-90407000D01*
X143113250Y-90407000D01*
X143272000Y-90248250D01*
X143272000Y-88899000D01*
X143252000Y-88899000D01*
X143252000Y-88645000D01*
X143272000Y-88645000D01*
X143272000Y-87295750D01*
X143113250Y-87137000D01*
X142772690Y-87137000D01*
X142539301Y-87233673D01*
X142398064Y-87374911D01*
X142363090Y-87320559D01*
X142150890Y-87175569D01*
X141899000Y-87124560D01*
X140899000Y-87124560D01*
X140663683Y-87168838D01*
X140447559Y-87307910D01*
X140399866Y-87377711D01*
X140363090Y-87320559D01*
X140150890Y-87175569D01*
X139899000Y-87124560D01*
X138899000Y-87124560D01*
X138663683Y-87168838D01*
X138447559Y-87307910D01*
X138399866Y-87377711D01*
X138363090Y-87320559D01*
X138165009Y-87185216D01*
X138333192Y-87017327D01*
X138475838Y-86673799D01*
X138476162Y-86301833D01*
X138385467Y-86082335D01*
X139113112Y-85354690D01*
X153321000Y-85354690D01*
X153321000Y-85820250D01*
X153479750Y-85979000D01*
X154579000Y-85979000D01*
X154579000Y-85004750D01*
X154420250Y-84846000D01*
X153829691Y-84846000D01*
X153596302Y-84942673D01*
X153417673Y-85121301D01*
X153321000Y-85354690D01*
X139113112Y-85354690D01*
X140391802Y-84076000D01*
X153590203Y-84076000D01*
X153680110Y-84137431D01*
X153932000Y-84188440D01*
X155382000Y-84188440D01*
X155617317Y-84144162D01*
X155833441Y-84005090D01*
X155978431Y-83792890D01*
X156029440Y-83541000D01*
X156029440Y-83091000D01*
X156009933Y-82987329D01*
X156029440Y-82891000D01*
X156029440Y-82441000D01*
X156009933Y-82337329D01*
X156029440Y-82241000D01*
X156029440Y-81791000D01*
X156009933Y-81687329D01*
X156029440Y-81591000D01*
X156029440Y-81141000D01*
X156016020Y-81069677D01*
X156017000Y-81067310D01*
X156017000Y-80987250D01*
X155996688Y-80966938D01*
X155985162Y-80905683D01*
X155982149Y-80901000D01*
X156425628Y-80901000D01*
X156531201Y-80944838D01*
X156903167Y-80945162D01*
X157246943Y-80803117D01*
X157510192Y-80540327D01*
X157652838Y-80196799D01*
X157653162Y-79824833D01*
X157511117Y-79481057D01*
X157248327Y-79217808D01*
X156904799Y-79075162D01*
X156532833Y-79074838D01*
X156189057Y-79216883D01*
X156174915Y-79231000D01*
X156029440Y-79231000D01*
X156029440Y-79191000D01*
X156009933Y-79087329D01*
X156029440Y-78991000D01*
X156029440Y-78541000D01*
X156009933Y-78437329D01*
X156029440Y-78341000D01*
X156029440Y-77891000D01*
X156009933Y-77787329D01*
X156029440Y-77691000D01*
X156029440Y-77241000D01*
X155985162Y-77005683D01*
X155846090Y-76789559D01*
X155633890Y-76644569D01*
X155382000Y-76593560D01*
X154630362Y-76593560D01*
X154331802Y-76295000D01*
X154400250Y-76295000D01*
X154559000Y-76136250D01*
X154559000Y-75037000D01*
X154813000Y-75037000D01*
X154813000Y-76136250D01*
X154971750Y-76295000D01*
X155437310Y-76295000D01*
X155670699Y-76198327D01*
X155849327Y-76019698D01*
X155946000Y-75786309D01*
X155946000Y-75195750D01*
X155787250Y-75037000D01*
X154813000Y-75037000D01*
X154559000Y-75037000D01*
X154539000Y-75037000D01*
X154539000Y-74783000D01*
X154559000Y-74783000D01*
X154559000Y-74763000D01*
X154813000Y-74763000D01*
X154813000Y-74783000D01*
X155787250Y-74783000D01*
X155946000Y-74624250D01*
X155946000Y-74033691D01*
X155849327Y-73800302D01*
X155708090Y-73659064D01*
X155762441Y-73624090D01*
X155907431Y-73411890D01*
X155941227Y-73245000D01*
X155957931Y-73245000D01*
X156150201Y-73324838D01*
X156150201Y-73324838D01*
G37*
X156150201Y-73324838D02*
X156454727Y-73325103D01*
X156492910Y-73384441D01*
X156705110Y-73529431D01*
X156718197Y-73532081D01*
X156505559Y-73668910D01*
X156360569Y-73881110D01*
X156309560Y-74133000D01*
X156309560Y-75633000D01*
X156353838Y-75868317D01*
X156492910Y-76084441D01*
X156705110Y-76229431D01*
X156957000Y-76280440D01*
X157736000Y-76280440D01*
X157736000Y-78105000D01*
X157793852Y-78395839D01*
X157958599Y-78642401D01*
X158619599Y-79303401D01*
X158866161Y-79468148D01*
X159157000Y-79526000D01*
X159184560Y-79526000D01*
X159184560Y-79641000D01*
X159204067Y-79744671D01*
X159184560Y-79841000D01*
X159184560Y-80291000D01*
X159197980Y-80362323D01*
X159197000Y-80364690D01*
X159197000Y-80444750D01*
X159217312Y-80465062D01*
X159228838Y-80526317D01*
X159269172Y-80588998D01*
X159197000Y-80588998D01*
X159197000Y-80606000D01*
X159172000Y-80606000D01*
X158881160Y-80663852D01*
X158634599Y-80828599D01*
X157958599Y-81504599D01*
X157793852Y-81751161D01*
X157736000Y-82042000D01*
X157736000Y-84833560D01*
X156456000Y-84833560D01*
X156220683Y-84877838D01*
X156004559Y-85016910D01*
X155958031Y-85085006D01*
X155815698Y-84942673D01*
X155582309Y-84846000D01*
X154991750Y-84846000D01*
X154833000Y-85004750D01*
X154833000Y-85979000D01*
X154853000Y-85979000D01*
X154853000Y-86233000D01*
X154833000Y-86233000D01*
X154833000Y-87207250D01*
X154991750Y-87366000D01*
X155582309Y-87366000D01*
X155815698Y-87269327D01*
X155956936Y-87128090D01*
X155991910Y-87182441D01*
X156204110Y-87327431D01*
X156371000Y-87361227D01*
X156371000Y-88305593D01*
X156306808Y-88369673D01*
X156164162Y-88713201D01*
X156163838Y-89085167D01*
X156305883Y-89428943D01*
X156371000Y-89494174D01*
X156371000Y-92046055D01*
X156354664Y-92039272D01*
X155734058Y-92038730D01*
X155160486Y-92275725D01*
X155042251Y-92393754D01*
X154932090Y-92222559D01*
X154719890Y-92077569D01*
X154468000Y-92026560D01*
X153222139Y-92026560D01*
X152284000Y-91088420D01*
X152284000Y-90278844D01*
X152350441Y-90236090D01*
X152495431Y-90023890D01*
X152546440Y-89772000D01*
X152546440Y-87772000D01*
X152502162Y-87536683D01*
X152363090Y-87320559D01*
X152150890Y-87175569D01*
X151899000Y-87124560D01*
X150899000Y-87124560D01*
X150663683Y-87168838D01*
X150447559Y-87307910D01*
X150399866Y-87377711D01*
X150363090Y-87320559D01*
X150234000Y-87232356D01*
X150234000Y-86928046D01*
X150286838Y-86800799D01*
X150287162Y-86428833D01*
X150271840Y-86391750D01*
X153321000Y-86391750D01*
X153321000Y-86857310D01*
X153417673Y-87090699D01*
X153596302Y-87269327D01*
X153829691Y-87366000D01*
X154420250Y-87366000D01*
X154579000Y-87207250D01*
X154579000Y-86233000D01*
X153479750Y-86233000D01*
X153321000Y-86391750D01*
X150271840Y-86391750D01*
X150145117Y-86085057D01*
X149882327Y-85821808D01*
X149538799Y-85679162D01*
X149166833Y-85678838D01*
X148823057Y-85820883D01*
X148559808Y-86083673D01*
X148417162Y-86427201D01*
X148416838Y-86799167D01*
X148558883Y-87142943D01*
X148564000Y-87148069D01*
X148564000Y-87232982D01*
X148447559Y-87307910D01*
X148399866Y-87377711D01*
X148363090Y-87320559D01*
X148150890Y-87175569D01*
X147899000Y-87124560D01*
X146899000Y-87124560D01*
X146663683Y-87168838D01*
X146447559Y-87307910D01*
X146399866Y-87377711D01*
X146363090Y-87320559D01*
X146150890Y-87175569D01*
X145899000Y-87124560D01*
X144899000Y-87124560D01*
X144663683Y-87168838D01*
X144447559Y-87307910D01*
X144401031Y-87376006D01*
X144258699Y-87233673D01*
X144025310Y-87137000D01*
X143684750Y-87137000D01*
X143526000Y-87295750D01*
X143526000Y-88645000D01*
X143546000Y-88645000D01*
X143546000Y-88899000D01*
X143526000Y-88899000D01*
X143526000Y-90248250D01*
X143684750Y-90407000D01*
X144025310Y-90407000D01*
X144258699Y-90310327D01*
X144399936Y-90169089D01*
X144434910Y-90223441D01*
X144647110Y-90368431D01*
X144899000Y-90419440D01*
X145899000Y-90419440D01*
X146134317Y-90375162D01*
X146350441Y-90236090D01*
X146398134Y-90166289D01*
X146434910Y-90223441D01*
X146647110Y-90368431D01*
X146899000Y-90419440D01*
X147899000Y-90419440D01*
X148134317Y-90375162D01*
X148350441Y-90236090D01*
X148398134Y-90166289D01*
X148434910Y-90223441D01*
X148647110Y-90368431D01*
X148899000Y-90419440D01*
X149899000Y-90419440D01*
X150134317Y-90375162D01*
X150350441Y-90236090D01*
X150398134Y-90166289D01*
X150434910Y-90223441D01*
X150514000Y-90277481D01*
X150514000Y-91454995D01*
X150513999Y-91455000D01*
X150543041Y-91601000D01*
X150581367Y-91793675D01*
X150745107Y-92038730D01*
X150773210Y-92080790D01*
X151970560Y-93278139D01*
X151970560Y-94363000D01*
X148063902Y-94363000D01*
X148251728Y-93910664D01*
X148252270Y-93290058D01*
X148015275Y-92716486D01*
X147576823Y-92277268D01*
X147003664Y-92039272D01*
X146383058Y-92038730D01*
X145809486Y-92275725D01*
X145441744Y-92642826D01*
X145076823Y-92277268D01*
X144524886Y-92048084D01*
X144014401Y-91537599D01*
X143767839Y-91372852D01*
X143477000Y-91315000D01*
X143174999Y-91315000D01*
X143175162Y-91127833D01*
X143033117Y-90784057D01*
X142770327Y-90520808D01*
X142426799Y-90378162D01*
X142379923Y-90378121D01*
X142281959Y-90280157D01*
X142350441Y-90236090D01*
X142396969Y-90167994D01*
X142539301Y-90310327D01*
X142772690Y-90407000D01*
X143113250Y-90407000D01*
X143272000Y-90248250D01*
X143272000Y-88899000D01*
X143252000Y-88899000D01*
X143252000Y-88645000D01*
X143272000Y-88645000D01*
X143272000Y-87295750D01*
X143113250Y-87137000D01*
X142772690Y-87137000D01*
X142539301Y-87233673D01*
X142398064Y-87374911D01*
X142363090Y-87320559D01*
X142150890Y-87175569D01*
X141899000Y-87124560D01*
X140899000Y-87124560D01*
X140663683Y-87168838D01*
X140447559Y-87307910D01*
X140399866Y-87377711D01*
X140363090Y-87320559D01*
X140150890Y-87175569D01*
X139899000Y-87124560D01*
X138899000Y-87124560D01*
X138663683Y-87168838D01*
X138447559Y-87307910D01*
X138399866Y-87377711D01*
X138363090Y-87320559D01*
X138165009Y-87185216D01*
X138333192Y-87017327D01*
X138475838Y-86673799D01*
X138476162Y-86301833D01*
X138385467Y-86082335D01*
X139113112Y-85354690D01*
X153321000Y-85354690D01*
X153321000Y-85820250D01*
X153479750Y-85979000D01*
X154579000Y-85979000D01*
X154579000Y-85004750D01*
X154420250Y-84846000D01*
X153829691Y-84846000D01*
X153596302Y-84942673D01*
X153417673Y-85121301D01*
X153321000Y-85354690D01*
X139113112Y-85354690D01*
X140391802Y-84076000D01*
X153590203Y-84076000D01*
X153680110Y-84137431D01*
X153932000Y-84188440D01*
X155382000Y-84188440D01*
X155617317Y-84144162D01*
X155833441Y-84005090D01*
X155978431Y-83792890D01*
X156029440Y-83541000D01*
X156029440Y-83091000D01*
X156009933Y-82987329D01*
X156029440Y-82891000D01*
X156029440Y-82441000D01*
X156009933Y-82337329D01*
X156029440Y-82241000D01*
X156029440Y-81791000D01*
X156009933Y-81687329D01*
X156029440Y-81591000D01*
X156029440Y-81141000D01*
X156016020Y-81069677D01*
X156017000Y-81067310D01*
X156017000Y-80987250D01*
X155996688Y-80966938D01*
X155985162Y-80905683D01*
X155982149Y-80901000D01*
X156425628Y-80901000D01*
X156531201Y-80944838D01*
X156903167Y-80945162D01*
X157246943Y-80803117D01*
X157510192Y-80540327D01*
X157652838Y-80196799D01*
X157653162Y-79824833D01*
X157511117Y-79481057D01*
X157248327Y-79217808D01*
X156904799Y-79075162D01*
X156532833Y-79074838D01*
X156189057Y-79216883D01*
X156174915Y-79231000D01*
X156029440Y-79231000D01*
X156029440Y-79191000D01*
X156009933Y-79087329D01*
X156029440Y-78991000D01*
X156029440Y-78541000D01*
X156009933Y-78437329D01*
X156029440Y-78341000D01*
X156029440Y-77891000D01*
X156009933Y-77787329D01*
X156029440Y-77691000D01*
X156029440Y-77241000D01*
X155985162Y-77005683D01*
X155846090Y-76789559D01*
X155633890Y-76644569D01*
X155382000Y-76593560D01*
X154630362Y-76593560D01*
X154331802Y-76295000D01*
X154400250Y-76295000D01*
X154559000Y-76136250D01*
X154559000Y-75037000D01*
X154813000Y-75037000D01*
X154813000Y-76136250D01*
X154971750Y-76295000D01*
X155437310Y-76295000D01*
X155670699Y-76198327D01*
X155849327Y-76019698D01*
X155946000Y-75786309D01*
X155946000Y-75195750D01*
X155787250Y-75037000D01*
X154813000Y-75037000D01*
X154559000Y-75037000D01*
X154539000Y-75037000D01*
X154539000Y-74783000D01*
X154559000Y-74783000D01*
X154559000Y-74763000D01*
X154813000Y-74763000D01*
X154813000Y-74783000D01*
X155787250Y-74783000D01*
X155946000Y-74624250D01*
X155946000Y-74033691D01*
X155849327Y-73800302D01*
X155708090Y-73659064D01*
X155762441Y-73624090D01*
X155907431Y-73411890D01*
X155941227Y-73245000D01*
X155957931Y-73245000D01*
X156150201Y-73324838D01*
G36*
X142467090Y-65928108D02*
X142344664Y-65877272D01*
X141724058Y-65876730D01*
X141150486Y-66113725D01*
X140782744Y-66480826D01*
X140417823Y-66115268D01*
X139844664Y-65877272D01*
X139224058Y-65876730D01*
X138650486Y-66113725D01*
X138530119Y-66233882D01*
X138496327Y-66152301D01*
X138317698Y-65973673D01*
X138084309Y-65877000D01*
X137318750Y-65877000D01*
X137160000Y-66035750D01*
X137160000Y-67310000D01*
X137180000Y-67310000D01*
X137180000Y-67564000D01*
X137160000Y-67564000D01*
X137160000Y-68838250D01*
X137318750Y-68997000D01*
X138084309Y-68997000D01*
X138317698Y-68900327D01*
X138496327Y-68721699D01*
X138530017Y-68640365D01*
X138648177Y-68758732D01*
X139221336Y-68996728D01*
X139841942Y-68997270D01*
X140415514Y-68760275D01*
X140783256Y-68393174D01*
X141148177Y-68758732D01*
X141721336Y-68996728D01*
X142341942Y-68997270D01*
X142915514Y-68760275D01*
X143354732Y-68321823D01*
X143592728Y-67748664D01*
X143593270Y-67128058D01*
X143541657Y-67003145D01*
X143998802Y-66546000D01*
X147030000Y-66546000D01*
X147030000Y-67151250D01*
X147188750Y-67310000D01*
X148463000Y-67310000D01*
X148463000Y-67290000D01*
X148717000Y-67290000D01*
X148717000Y-67310000D01*
X148737000Y-67310000D01*
X148737000Y-67564000D01*
X148717000Y-67564000D01*
X148717000Y-67584000D01*
X148463000Y-67584000D01*
X148463000Y-67564000D01*
X147188750Y-67564000D01*
X147030000Y-67722750D01*
X147030000Y-68201000D01*
X145288000Y-68201000D01*
X145045414Y-68249254D01*
X144997160Y-68258852D01*
X144750599Y-68423599D01*
X142861599Y-70312599D01*
X142696852Y-70559161D01*
X142639000Y-70850000D01*
X142639000Y-71184721D01*
X142447559Y-71307910D01*
X142399866Y-71377711D01*
X142363090Y-71320559D01*
X142159000Y-71181110D01*
X142159000Y-70533000D01*
X142101148Y-70242161D01*
X141936401Y-69995599D01*
X141507401Y-69566599D01*
X141260839Y-69401852D01*
X140970000Y-69344000D01*
X136525000Y-69344000D01*
X136234161Y-69401852D01*
X135987599Y-69566599D01*
X135352599Y-70201599D01*
X135187852Y-70448161D01*
X135130000Y-70739000D01*
X135130000Y-70967126D01*
X134734041Y-70802710D01*
X134254065Y-70802291D01*
X133810465Y-70985582D01*
X133470775Y-71324680D01*
X133286710Y-71767959D01*
X133286291Y-72247935D01*
X133469582Y-72691535D01*
X133808680Y-73031225D01*
X134251959Y-73215290D01*
X134731935Y-73215709D01*
X135130000Y-73051233D01*
X135130000Y-73507126D01*
X134734041Y-73342710D01*
X134254065Y-73342291D01*
X133810465Y-73525582D01*
X133470775Y-73864680D01*
X133286710Y-74307959D01*
X133286291Y-74787935D01*
X133469582Y-75231535D01*
X133808680Y-75571225D01*
X134251959Y-75755290D01*
X134731935Y-75755709D01*
X135130000Y-75591233D01*
X135130000Y-85797392D01*
X135028440Y-85898952D01*
X134982448Y-85676467D01*
X134528145Y-85521595D01*
X134049156Y-85552367D01*
X133749552Y-85676467D01*
X133703559Y-85898954D01*
X134366000Y-86561395D01*
X134380143Y-86547253D01*
X134559748Y-86726858D01*
X134545605Y-86741000D01*
X134559748Y-86755143D01*
X134380143Y-86934748D01*
X134366000Y-86920605D01*
X133703559Y-87583046D01*
X133749552Y-87805533D01*
X134203855Y-87960405D01*
X134682844Y-87929633D01*
X134982448Y-87805533D01*
X135028440Y-87583048D01*
X135130000Y-87684608D01*
X135130000Y-88338594D01*
X135050320Y-88258775D01*
X134607041Y-88074710D01*
X134127065Y-88074291D01*
X133683465Y-88257582D01*
X133343775Y-88596680D01*
X133223000Y-88887539D01*
X133223000Y-87168012D01*
X133301467Y-87357448D01*
X133523954Y-87403441D01*
X134186395Y-86741000D01*
X133523954Y-86078559D01*
X133301467Y-86124552D01*
X133223000Y-86354728D01*
X133223000Y-69868820D01*
X133873324Y-67722750D01*
X135473000Y-67722750D01*
X135473000Y-68488310D01*
X135569673Y-68721699D01*
X135748302Y-68900327D01*
X135981691Y-68997000D01*
X136747250Y-68997000D01*
X136906000Y-68838250D01*
X136906000Y-67564000D01*
X135631750Y-67564000D01*
X135473000Y-67722750D01*
X133873324Y-67722750D01*
X134278493Y-66385690D01*
X135473000Y-66385690D01*
X135473000Y-67151250D01*
X135631750Y-67310000D01*
X136906000Y-67310000D01*
X136906000Y-66035750D01*
X136747250Y-65877000D01*
X135981691Y-65877000D01*
X135748302Y-65973673D01*
X135569673Y-66152301D01*
X135473000Y-66385690D01*
X134278493Y-66385690D01*
X134460218Y-65786000D01*
X142609198Y-65786000D01*
X142467090Y-65928108D01*
X142467090Y-65928108D01*
G37*
X142467090Y-65928108D02*
X142344664Y-65877272D01*
X141724058Y-65876730D01*
X141150486Y-66113725D01*
X140782744Y-66480826D01*
X140417823Y-66115268D01*
X139844664Y-65877272D01*
X139224058Y-65876730D01*
X138650486Y-66113725D01*
X138530119Y-66233882D01*
X138496327Y-66152301D01*
X138317698Y-65973673D01*
X138084309Y-65877000D01*
X137318750Y-65877000D01*
X137160000Y-66035750D01*
X137160000Y-67310000D01*
X137180000Y-67310000D01*
X137180000Y-67564000D01*
X137160000Y-67564000D01*
X137160000Y-68838250D01*
X137318750Y-68997000D01*
X138084309Y-68997000D01*
X138317698Y-68900327D01*
X138496327Y-68721699D01*
X138530017Y-68640365D01*
X138648177Y-68758732D01*
X139221336Y-68996728D01*
X139841942Y-68997270D01*
X140415514Y-68760275D01*
X140783256Y-68393174D01*
X141148177Y-68758732D01*
X141721336Y-68996728D01*
X142341942Y-68997270D01*
X142915514Y-68760275D01*
X143354732Y-68321823D01*
X143592728Y-67748664D01*
X143593270Y-67128058D01*
X143541657Y-67003145D01*
X143998802Y-66546000D01*
X147030000Y-66546000D01*
X147030000Y-67151250D01*
X147188750Y-67310000D01*
X148463000Y-67310000D01*
X148463000Y-67290000D01*
X148717000Y-67290000D01*
X148717000Y-67310000D01*
X148737000Y-67310000D01*
X148737000Y-67564000D01*
X148717000Y-67564000D01*
X148717000Y-67584000D01*
X148463000Y-67584000D01*
X148463000Y-67564000D01*
X147188750Y-67564000D01*
X147030000Y-67722750D01*
X147030000Y-68201000D01*
X145288000Y-68201000D01*
X145045414Y-68249254D01*
X144997160Y-68258852D01*
X144750599Y-68423599D01*
X142861599Y-70312599D01*
X142696852Y-70559161D01*
X142639000Y-70850000D01*
X142639000Y-71184721D01*
X142447559Y-71307910D01*
X142399866Y-71377711D01*
X142363090Y-71320559D01*
X142159000Y-71181110D01*
X142159000Y-70533000D01*
X142101148Y-70242161D01*
X141936401Y-69995599D01*
X141507401Y-69566599D01*
X141260839Y-69401852D01*
X140970000Y-69344000D01*
X136525000Y-69344000D01*
X136234161Y-69401852D01*
X135987599Y-69566599D01*
X135352599Y-70201599D01*
X135187852Y-70448161D01*
X135130000Y-70739000D01*
X135130000Y-70967126D01*
X134734041Y-70802710D01*
X134254065Y-70802291D01*
X133810465Y-70985582D01*
X133470775Y-71324680D01*
X133286710Y-71767959D01*
X133286291Y-72247935D01*
X133469582Y-72691535D01*
X133808680Y-73031225D01*
X134251959Y-73215290D01*
X134731935Y-73215709D01*
X135130000Y-73051233D01*
X135130000Y-73507126D01*
X134734041Y-73342710D01*
X134254065Y-73342291D01*
X133810465Y-73525582D01*
X133470775Y-73864680D01*
X133286710Y-74307959D01*
X133286291Y-74787935D01*
X133469582Y-75231535D01*
X133808680Y-75571225D01*
X134251959Y-75755290D01*
X134731935Y-75755709D01*
X135130000Y-75591233D01*
X135130000Y-85797392D01*
X135028440Y-85898952D01*
X134982448Y-85676467D01*
X134528145Y-85521595D01*
X134049156Y-85552367D01*
X133749552Y-85676467D01*
X133703559Y-85898954D01*
X134366000Y-86561395D01*
X134380143Y-86547253D01*
X134559748Y-86726858D01*
X134545605Y-86741000D01*
X134559748Y-86755143D01*
X134380143Y-86934748D01*
X134366000Y-86920605D01*
X133703559Y-87583046D01*
X133749552Y-87805533D01*
X134203855Y-87960405D01*
X134682844Y-87929633D01*
X134982448Y-87805533D01*
X135028440Y-87583048D01*
X135130000Y-87684608D01*
X135130000Y-88338594D01*
X135050320Y-88258775D01*
X134607041Y-88074710D01*
X134127065Y-88074291D01*
X133683465Y-88257582D01*
X133343775Y-88596680D01*
X133223000Y-88887539D01*
X133223000Y-87168012D01*
X133301467Y-87357448D01*
X133523954Y-87403441D01*
X134186395Y-86741000D01*
X133523954Y-86078559D01*
X133301467Y-86124552D01*
X133223000Y-86354728D01*
X133223000Y-69868820D01*
X133873324Y-67722750D01*
X135473000Y-67722750D01*
X135473000Y-68488310D01*
X135569673Y-68721699D01*
X135748302Y-68900327D01*
X135981691Y-68997000D01*
X136747250Y-68997000D01*
X136906000Y-68838250D01*
X136906000Y-67564000D01*
X135631750Y-67564000D01*
X135473000Y-67722750D01*
X133873324Y-67722750D01*
X134278493Y-66385690D01*
X135473000Y-66385690D01*
X135473000Y-67151250D01*
X135631750Y-67310000D01*
X136906000Y-67310000D01*
X136906000Y-66035750D01*
X136747250Y-65877000D01*
X135981691Y-65877000D01*
X135748302Y-65973673D01*
X135569673Y-66152301D01*
X135473000Y-66385690D01*
X134278493Y-66385690D01*
X134460218Y-65786000D01*
X142609198Y-65786000D01*
X142467090Y-65928108D01*
G36*
X136719201Y-76626838D02*
X136766077Y-76626879D01*
X138464099Y-78324901D01*
X138502165Y-78350335D01*
X138527599Y-78388401D01*
X142045198Y-81906000D01*
X140462000Y-81906000D01*
X140456500Y-81907094D01*
X140451000Y-81906000D01*
X140208000Y-81906000D01*
X140202500Y-81907094D01*
X140197000Y-81906000D01*
X139584000Y-81906000D01*
X139293161Y-81963852D01*
X139046599Y-82128599D01*
X136766320Y-84408878D01*
X136720833Y-84408838D01*
X136650000Y-84438106D01*
X136650000Y-76598103D01*
X136719201Y-76626838D01*
X136719201Y-76626838D01*
G37*
X136719201Y-76626838D02*
X136766077Y-76626879D01*
X138464099Y-78324901D01*
X138502165Y-78350335D01*
X138527599Y-78388401D01*
X142045198Y-81906000D01*
X140462000Y-81906000D01*
X140456500Y-81907094D01*
X140451000Y-81906000D01*
X140208000Y-81906000D01*
X140202500Y-81907094D01*
X140197000Y-81906000D01*
X139584000Y-81906000D01*
X139293161Y-81963852D01*
X139046599Y-82128599D01*
X136766320Y-84408878D01*
X136720833Y-84408838D01*
X136650000Y-84438106D01*
X136650000Y-76598103D01*
X136719201Y-76626838D01*
G36*
X138434910Y-74223441D02*
X138639000Y-74362890D01*
X138639000Y-74629000D01*
X138696852Y-74919839D01*
X138861599Y-75166401D01*
X139416599Y-75721401D01*
X139663161Y-75886148D01*
X139954000Y-75944000D01*
X145100198Y-75944000D01*
X149109599Y-79953401D01*
X149356161Y-80118148D01*
X149647000Y-80176000D01*
X153284560Y-80176000D01*
X153284560Y-80291000D01*
X153297980Y-80362323D01*
X153297000Y-80364690D01*
X153297000Y-80444750D01*
X153317312Y-80465062D01*
X153328838Y-80526317D01*
X153369172Y-80588998D01*
X153297000Y-80588998D01*
X153297000Y-80606000D01*
X144291802Y-80606000D01*
X138603122Y-74917320D01*
X138603162Y-74871833D01*
X138461117Y-74528057D01*
X138240367Y-74306921D01*
X138350441Y-74236090D01*
X138398134Y-74166289D01*
X138434910Y-74223441D01*
X138434910Y-74223441D01*
G37*
X138434910Y-74223441D02*
X138639000Y-74362890D01*
X138639000Y-74629000D01*
X138696852Y-74919839D01*
X138861599Y-75166401D01*
X139416599Y-75721401D01*
X139663161Y-75886148D01*
X139954000Y-75944000D01*
X145100198Y-75944000D01*
X149109599Y-79953401D01*
X149356161Y-80118148D01*
X149647000Y-80176000D01*
X153284560Y-80176000D01*
X153284560Y-80291000D01*
X153297980Y-80362323D01*
X153297000Y-80364690D01*
X153297000Y-80444750D01*
X153317312Y-80465062D01*
X153328838Y-80526317D01*
X153369172Y-80588998D01*
X153297000Y-80588998D01*
X153297000Y-80606000D01*
X144291802Y-80606000D01*
X138603122Y-74917320D01*
X138603162Y-74871833D01*
X138461117Y-74528057D01*
X138240367Y-74306921D01*
X138350441Y-74236090D01*
X138398134Y-74166289D01*
X138434910Y-74223441D01*
G36*
X210125201Y-73070838D02*
X210429727Y-73071103D01*
X210467910Y-73130441D01*
X210680110Y-73275431D01*
X210693197Y-73278081D01*
X210480559Y-73414910D01*
X210335569Y-73627110D01*
X210284560Y-73879000D01*
X210284560Y-75379000D01*
X210328838Y-75614317D01*
X210467910Y-75830441D01*
X210680110Y-75975431D01*
X210932000Y-76026440D01*
X211711000Y-76026440D01*
X211711000Y-77851000D01*
X211768852Y-78141839D01*
X211933599Y-78388401D01*
X212594599Y-79049401D01*
X212841161Y-79214148D01*
X213132000Y-79272000D01*
X213159560Y-79272000D01*
X213159560Y-79387000D01*
X213179067Y-79490671D01*
X213159560Y-79587000D01*
X213159560Y-80037000D01*
X213172980Y-80108323D01*
X213172000Y-80110690D01*
X213172000Y-80190750D01*
X213192312Y-80211062D01*
X213203838Y-80272317D01*
X213244172Y-80334998D01*
X213172000Y-80334998D01*
X213172000Y-80352000D01*
X213147000Y-80352000D01*
X212856160Y-80409852D01*
X212609599Y-80574599D01*
X211933599Y-81250599D01*
X211768852Y-81497161D01*
X211711000Y-81788000D01*
X211711000Y-84579560D01*
X210431000Y-84579560D01*
X210195683Y-84623838D01*
X209979559Y-84762910D01*
X209933031Y-84831006D01*
X209790698Y-84688673D01*
X209557309Y-84592000D01*
X208966750Y-84592000D01*
X208808000Y-84750750D01*
X208808000Y-85725000D01*
X208828000Y-85725000D01*
X208828000Y-85979000D01*
X208808000Y-85979000D01*
X208808000Y-86953250D01*
X208966750Y-87112000D01*
X209557309Y-87112000D01*
X209790698Y-87015327D01*
X209931936Y-86874090D01*
X209966910Y-86928441D01*
X210179110Y-87073431D01*
X210346000Y-87107227D01*
X210346000Y-88051593D01*
X210281808Y-88115673D01*
X210139162Y-88459201D01*
X210138838Y-88831167D01*
X210280883Y-89174943D01*
X210346000Y-89240174D01*
X210346000Y-91792055D01*
X210329664Y-91785272D01*
X209709058Y-91784730D01*
X209135486Y-92021725D01*
X209017251Y-92139754D01*
X208907090Y-91968559D01*
X208694890Y-91823569D01*
X208443000Y-91772560D01*
X207197139Y-91772560D01*
X206259000Y-90834420D01*
X206259000Y-90024844D01*
X206325441Y-89982090D01*
X206470431Y-89769890D01*
X206521440Y-89518000D01*
X206521440Y-87518000D01*
X206477162Y-87282683D01*
X206338090Y-87066559D01*
X206125890Y-86921569D01*
X205874000Y-86870560D01*
X204874000Y-86870560D01*
X204638683Y-86914838D01*
X204422559Y-87053910D01*
X204374866Y-87123711D01*
X204338090Y-87066559D01*
X204209000Y-86978356D01*
X204209000Y-86674046D01*
X204261838Y-86546799D01*
X204262162Y-86174833D01*
X204246840Y-86137750D01*
X207296000Y-86137750D01*
X207296000Y-86603310D01*
X207392673Y-86836699D01*
X207571302Y-87015327D01*
X207804691Y-87112000D01*
X208395250Y-87112000D01*
X208554000Y-86953250D01*
X208554000Y-85979000D01*
X207454750Y-85979000D01*
X207296000Y-86137750D01*
X204246840Y-86137750D01*
X204120117Y-85831057D01*
X203857327Y-85567808D01*
X203513799Y-85425162D01*
X203141833Y-85424838D01*
X202798057Y-85566883D01*
X202534808Y-85829673D01*
X202392162Y-86173201D01*
X202391838Y-86545167D01*
X202533883Y-86888943D01*
X202539000Y-86894069D01*
X202539000Y-86978982D01*
X202422559Y-87053910D01*
X202374866Y-87123711D01*
X202338090Y-87066559D01*
X202125890Y-86921569D01*
X201874000Y-86870560D01*
X200874000Y-86870560D01*
X200638683Y-86914838D01*
X200422559Y-87053910D01*
X200374866Y-87123711D01*
X200338090Y-87066559D01*
X200125890Y-86921569D01*
X199874000Y-86870560D01*
X198874000Y-86870560D01*
X198638683Y-86914838D01*
X198422559Y-87053910D01*
X198376031Y-87122006D01*
X198233699Y-86979673D01*
X198000310Y-86883000D01*
X197659750Y-86883000D01*
X197501000Y-87041750D01*
X197501000Y-88391000D01*
X197521000Y-88391000D01*
X197521000Y-88645000D01*
X197501000Y-88645000D01*
X197501000Y-89994250D01*
X197659750Y-90153000D01*
X198000310Y-90153000D01*
X198233699Y-90056327D01*
X198374936Y-89915089D01*
X198409910Y-89969441D01*
X198622110Y-90114431D01*
X198874000Y-90165440D01*
X199874000Y-90165440D01*
X200109317Y-90121162D01*
X200325441Y-89982090D01*
X200373134Y-89912289D01*
X200409910Y-89969441D01*
X200622110Y-90114431D01*
X200874000Y-90165440D01*
X201874000Y-90165440D01*
X202109317Y-90121162D01*
X202325441Y-89982090D01*
X202373134Y-89912289D01*
X202409910Y-89969441D01*
X202622110Y-90114431D01*
X202874000Y-90165440D01*
X203874000Y-90165440D01*
X204109317Y-90121162D01*
X204325441Y-89982090D01*
X204373134Y-89912289D01*
X204409910Y-89969441D01*
X204489000Y-90023481D01*
X204489000Y-91200995D01*
X204488999Y-91201000D01*
X204518041Y-91347000D01*
X204556367Y-91539675D01*
X204720107Y-91784730D01*
X204748210Y-91826790D01*
X205945560Y-93024139D01*
X205945560Y-94109000D01*
X202038902Y-94109000D01*
X202226728Y-93656664D01*
X202227270Y-93036058D01*
X201990275Y-92462486D01*
X201551823Y-92023268D01*
X200978664Y-91785272D01*
X200358058Y-91784730D01*
X199784486Y-92021725D01*
X199416744Y-92388826D01*
X199051823Y-92023268D01*
X198499886Y-91794084D01*
X197989401Y-91283599D01*
X197742839Y-91118852D01*
X197452000Y-91061000D01*
X197149999Y-91061000D01*
X197150162Y-90873833D01*
X197008117Y-90530057D01*
X196745327Y-90266808D01*
X196401799Y-90124162D01*
X196354923Y-90124121D01*
X196256959Y-90026157D01*
X196325441Y-89982090D01*
X196371969Y-89913994D01*
X196514301Y-90056327D01*
X196747690Y-90153000D01*
X197088250Y-90153000D01*
X197247000Y-89994250D01*
X197247000Y-88645000D01*
X197227000Y-88645000D01*
X197227000Y-88391000D01*
X197247000Y-88391000D01*
X197247000Y-87041750D01*
X197088250Y-86883000D01*
X196747690Y-86883000D01*
X196514301Y-86979673D01*
X196373064Y-87120911D01*
X196338090Y-87066559D01*
X196125890Y-86921569D01*
X195874000Y-86870560D01*
X194874000Y-86870560D01*
X194638683Y-86914838D01*
X194422559Y-87053910D01*
X194374866Y-87123711D01*
X194338090Y-87066559D01*
X194125890Y-86921569D01*
X193874000Y-86870560D01*
X192874000Y-86870560D01*
X192638683Y-86914838D01*
X192422559Y-87053910D01*
X192374866Y-87123711D01*
X192338090Y-87066559D01*
X192140009Y-86931216D01*
X192308192Y-86763327D01*
X192450838Y-86419799D01*
X192451162Y-86047833D01*
X192360467Y-85828335D01*
X193088112Y-85100690D01*
X207296000Y-85100690D01*
X207296000Y-85566250D01*
X207454750Y-85725000D01*
X208554000Y-85725000D01*
X208554000Y-84750750D01*
X208395250Y-84592000D01*
X207804691Y-84592000D01*
X207571302Y-84688673D01*
X207392673Y-84867301D01*
X207296000Y-85100690D01*
X193088112Y-85100690D01*
X194366802Y-83822000D01*
X207565203Y-83822000D01*
X207655110Y-83883431D01*
X207907000Y-83934440D01*
X209357000Y-83934440D01*
X209592317Y-83890162D01*
X209808441Y-83751090D01*
X209953431Y-83538890D01*
X210004440Y-83287000D01*
X210004440Y-82837000D01*
X209984933Y-82733329D01*
X210004440Y-82637000D01*
X210004440Y-82187000D01*
X209984933Y-82083329D01*
X210004440Y-81987000D01*
X210004440Y-81537000D01*
X209984933Y-81433329D01*
X210004440Y-81337000D01*
X210004440Y-80887000D01*
X209991020Y-80815677D01*
X209992000Y-80813310D01*
X209992000Y-80733250D01*
X209971688Y-80712938D01*
X209960162Y-80651683D01*
X209957149Y-80647000D01*
X210400628Y-80647000D01*
X210506201Y-80690838D01*
X210878167Y-80691162D01*
X211221943Y-80549117D01*
X211485192Y-80286327D01*
X211627838Y-79942799D01*
X211628162Y-79570833D01*
X211486117Y-79227057D01*
X211223327Y-78963808D01*
X210879799Y-78821162D01*
X210507833Y-78820838D01*
X210164057Y-78962883D01*
X210149915Y-78977000D01*
X210004440Y-78977000D01*
X210004440Y-78937000D01*
X209984933Y-78833329D01*
X210004440Y-78737000D01*
X210004440Y-78287000D01*
X209984933Y-78183329D01*
X210004440Y-78087000D01*
X210004440Y-77637000D01*
X209984933Y-77533329D01*
X210004440Y-77437000D01*
X210004440Y-76987000D01*
X209960162Y-76751683D01*
X209821090Y-76535559D01*
X209608890Y-76390569D01*
X209357000Y-76339560D01*
X208605362Y-76339560D01*
X208306802Y-76041000D01*
X208375250Y-76041000D01*
X208534000Y-75882250D01*
X208534000Y-74783000D01*
X208788000Y-74783000D01*
X208788000Y-75882250D01*
X208946750Y-76041000D01*
X209412310Y-76041000D01*
X209645699Y-75944327D01*
X209824327Y-75765698D01*
X209921000Y-75532309D01*
X209921000Y-74941750D01*
X209762250Y-74783000D01*
X208788000Y-74783000D01*
X208534000Y-74783000D01*
X208514000Y-74783000D01*
X208514000Y-74529000D01*
X208534000Y-74529000D01*
X208534000Y-74509000D01*
X208788000Y-74509000D01*
X208788000Y-74529000D01*
X209762250Y-74529000D01*
X209921000Y-74370250D01*
X209921000Y-73779691D01*
X209824327Y-73546302D01*
X209683090Y-73405064D01*
X209737441Y-73370090D01*
X209882431Y-73157890D01*
X209916227Y-72991000D01*
X209932931Y-72991000D01*
X210125201Y-73070838D01*
X210125201Y-73070838D01*
G37*
X210125201Y-73070838D02*
X210429727Y-73071103D01*
X210467910Y-73130441D01*
X210680110Y-73275431D01*
X210693197Y-73278081D01*
X210480559Y-73414910D01*
X210335569Y-73627110D01*
X210284560Y-73879000D01*
X210284560Y-75379000D01*
X210328838Y-75614317D01*
X210467910Y-75830441D01*
X210680110Y-75975431D01*
X210932000Y-76026440D01*
X211711000Y-76026440D01*
X211711000Y-77851000D01*
X211768852Y-78141839D01*
X211933599Y-78388401D01*
X212594599Y-79049401D01*
X212841161Y-79214148D01*
X213132000Y-79272000D01*
X213159560Y-79272000D01*
X213159560Y-79387000D01*
X213179067Y-79490671D01*
X213159560Y-79587000D01*
X213159560Y-80037000D01*
X213172980Y-80108323D01*
X213172000Y-80110690D01*
X213172000Y-80190750D01*
X213192312Y-80211062D01*
X213203838Y-80272317D01*
X213244172Y-80334998D01*
X213172000Y-80334998D01*
X213172000Y-80352000D01*
X213147000Y-80352000D01*
X212856160Y-80409852D01*
X212609599Y-80574599D01*
X211933599Y-81250599D01*
X211768852Y-81497161D01*
X211711000Y-81788000D01*
X211711000Y-84579560D01*
X210431000Y-84579560D01*
X210195683Y-84623838D01*
X209979559Y-84762910D01*
X209933031Y-84831006D01*
X209790698Y-84688673D01*
X209557309Y-84592000D01*
X208966750Y-84592000D01*
X208808000Y-84750750D01*
X208808000Y-85725000D01*
X208828000Y-85725000D01*
X208828000Y-85979000D01*
X208808000Y-85979000D01*
X208808000Y-86953250D01*
X208966750Y-87112000D01*
X209557309Y-87112000D01*
X209790698Y-87015327D01*
X209931936Y-86874090D01*
X209966910Y-86928441D01*
X210179110Y-87073431D01*
X210346000Y-87107227D01*
X210346000Y-88051593D01*
X210281808Y-88115673D01*
X210139162Y-88459201D01*
X210138838Y-88831167D01*
X210280883Y-89174943D01*
X210346000Y-89240174D01*
X210346000Y-91792055D01*
X210329664Y-91785272D01*
X209709058Y-91784730D01*
X209135486Y-92021725D01*
X209017251Y-92139754D01*
X208907090Y-91968559D01*
X208694890Y-91823569D01*
X208443000Y-91772560D01*
X207197139Y-91772560D01*
X206259000Y-90834420D01*
X206259000Y-90024844D01*
X206325441Y-89982090D01*
X206470431Y-89769890D01*
X206521440Y-89518000D01*
X206521440Y-87518000D01*
X206477162Y-87282683D01*
X206338090Y-87066559D01*
X206125890Y-86921569D01*
X205874000Y-86870560D01*
X204874000Y-86870560D01*
X204638683Y-86914838D01*
X204422559Y-87053910D01*
X204374866Y-87123711D01*
X204338090Y-87066559D01*
X204209000Y-86978356D01*
X204209000Y-86674046D01*
X204261838Y-86546799D01*
X204262162Y-86174833D01*
X204246840Y-86137750D01*
X207296000Y-86137750D01*
X207296000Y-86603310D01*
X207392673Y-86836699D01*
X207571302Y-87015327D01*
X207804691Y-87112000D01*
X208395250Y-87112000D01*
X208554000Y-86953250D01*
X208554000Y-85979000D01*
X207454750Y-85979000D01*
X207296000Y-86137750D01*
X204246840Y-86137750D01*
X204120117Y-85831057D01*
X203857327Y-85567808D01*
X203513799Y-85425162D01*
X203141833Y-85424838D01*
X202798057Y-85566883D01*
X202534808Y-85829673D01*
X202392162Y-86173201D01*
X202391838Y-86545167D01*
X202533883Y-86888943D01*
X202539000Y-86894069D01*
X202539000Y-86978982D01*
X202422559Y-87053910D01*
X202374866Y-87123711D01*
X202338090Y-87066559D01*
X202125890Y-86921569D01*
X201874000Y-86870560D01*
X200874000Y-86870560D01*
X200638683Y-86914838D01*
X200422559Y-87053910D01*
X200374866Y-87123711D01*
X200338090Y-87066559D01*
X200125890Y-86921569D01*
X199874000Y-86870560D01*
X198874000Y-86870560D01*
X198638683Y-86914838D01*
X198422559Y-87053910D01*
X198376031Y-87122006D01*
X198233699Y-86979673D01*
X198000310Y-86883000D01*
X197659750Y-86883000D01*
X197501000Y-87041750D01*
X197501000Y-88391000D01*
X197521000Y-88391000D01*
X197521000Y-88645000D01*
X197501000Y-88645000D01*
X197501000Y-89994250D01*
X197659750Y-90153000D01*
X198000310Y-90153000D01*
X198233699Y-90056327D01*
X198374936Y-89915089D01*
X198409910Y-89969441D01*
X198622110Y-90114431D01*
X198874000Y-90165440D01*
X199874000Y-90165440D01*
X200109317Y-90121162D01*
X200325441Y-89982090D01*
X200373134Y-89912289D01*
X200409910Y-89969441D01*
X200622110Y-90114431D01*
X200874000Y-90165440D01*
X201874000Y-90165440D01*
X202109317Y-90121162D01*
X202325441Y-89982090D01*
X202373134Y-89912289D01*
X202409910Y-89969441D01*
X202622110Y-90114431D01*
X202874000Y-90165440D01*
X203874000Y-90165440D01*
X204109317Y-90121162D01*
X204325441Y-89982090D01*
X204373134Y-89912289D01*
X204409910Y-89969441D01*
X204489000Y-90023481D01*
X204489000Y-91200995D01*
X204488999Y-91201000D01*
X204518041Y-91347000D01*
X204556367Y-91539675D01*
X204720107Y-91784730D01*
X204748210Y-91826790D01*
X205945560Y-93024139D01*
X205945560Y-94109000D01*
X202038902Y-94109000D01*
X202226728Y-93656664D01*
X202227270Y-93036058D01*
X201990275Y-92462486D01*
X201551823Y-92023268D01*
X200978664Y-91785272D01*
X200358058Y-91784730D01*
X199784486Y-92021725D01*
X199416744Y-92388826D01*
X199051823Y-92023268D01*
X198499886Y-91794084D01*
X197989401Y-91283599D01*
X197742839Y-91118852D01*
X197452000Y-91061000D01*
X197149999Y-91061000D01*
X197150162Y-90873833D01*
X197008117Y-90530057D01*
X196745327Y-90266808D01*
X196401799Y-90124162D01*
X196354923Y-90124121D01*
X196256959Y-90026157D01*
X196325441Y-89982090D01*
X196371969Y-89913994D01*
X196514301Y-90056327D01*
X196747690Y-90153000D01*
X197088250Y-90153000D01*
X197247000Y-89994250D01*
X197247000Y-88645000D01*
X197227000Y-88645000D01*
X197227000Y-88391000D01*
X197247000Y-88391000D01*
X197247000Y-87041750D01*
X197088250Y-86883000D01*
X196747690Y-86883000D01*
X196514301Y-86979673D01*
X196373064Y-87120911D01*
X196338090Y-87066559D01*
X196125890Y-86921569D01*
X195874000Y-86870560D01*
X194874000Y-86870560D01*
X194638683Y-86914838D01*
X194422559Y-87053910D01*
X194374866Y-87123711D01*
X194338090Y-87066559D01*
X194125890Y-86921569D01*
X193874000Y-86870560D01*
X192874000Y-86870560D01*
X192638683Y-86914838D01*
X192422559Y-87053910D01*
X192374866Y-87123711D01*
X192338090Y-87066559D01*
X192140009Y-86931216D01*
X192308192Y-86763327D01*
X192450838Y-86419799D01*
X192451162Y-86047833D01*
X192360467Y-85828335D01*
X193088112Y-85100690D01*
X207296000Y-85100690D01*
X207296000Y-85566250D01*
X207454750Y-85725000D01*
X208554000Y-85725000D01*
X208554000Y-84750750D01*
X208395250Y-84592000D01*
X207804691Y-84592000D01*
X207571302Y-84688673D01*
X207392673Y-84867301D01*
X207296000Y-85100690D01*
X193088112Y-85100690D01*
X194366802Y-83822000D01*
X207565203Y-83822000D01*
X207655110Y-83883431D01*
X207907000Y-83934440D01*
X209357000Y-83934440D01*
X209592317Y-83890162D01*
X209808441Y-83751090D01*
X209953431Y-83538890D01*
X210004440Y-83287000D01*
X210004440Y-82837000D01*
X209984933Y-82733329D01*
X210004440Y-82637000D01*
X210004440Y-82187000D01*
X209984933Y-82083329D01*
X210004440Y-81987000D01*
X210004440Y-81537000D01*
X209984933Y-81433329D01*
X210004440Y-81337000D01*
X210004440Y-80887000D01*
X209991020Y-80815677D01*
X209992000Y-80813310D01*
X209992000Y-80733250D01*
X209971688Y-80712938D01*
X209960162Y-80651683D01*
X209957149Y-80647000D01*
X210400628Y-80647000D01*
X210506201Y-80690838D01*
X210878167Y-80691162D01*
X211221943Y-80549117D01*
X211485192Y-80286327D01*
X211627838Y-79942799D01*
X211628162Y-79570833D01*
X211486117Y-79227057D01*
X211223327Y-78963808D01*
X210879799Y-78821162D01*
X210507833Y-78820838D01*
X210164057Y-78962883D01*
X210149915Y-78977000D01*
X210004440Y-78977000D01*
X210004440Y-78937000D01*
X209984933Y-78833329D01*
X210004440Y-78737000D01*
X210004440Y-78287000D01*
X209984933Y-78183329D01*
X210004440Y-78087000D01*
X210004440Y-77637000D01*
X209984933Y-77533329D01*
X210004440Y-77437000D01*
X210004440Y-76987000D01*
X209960162Y-76751683D01*
X209821090Y-76535559D01*
X209608890Y-76390569D01*
X209357000Y-76339560D01*
X208605362Y-76339560D01*
X208306802Y-76041000D01*
X208375250Y-76041000D01*
X208534000Y-75882250D01*
X208534000Y-74783000D01*
X208788000Y-74783000D01*
X208788000Y-75882250D01*
X208946750Y-76041000D01*
X209412310Y-76041000D01*
X209645699Y-75944327D01*
X209824327Y-75765698D01*
X209921000Y-75532309D01*
X209921000Y-74941750D01*
X209762250Y-74783000D01*
X208788000Y-74783000D01*
X208534000Y-74783000D01*
X208514000Y-74783000D01*
X208514000Y-74529000D01*
X208534000Y-74529000D01*
X208534000Y-74509000D01*
X208788000Y-74509000D01*
X208788000Y-74529000D01*
X209762250Y-74529000D01*
X209921000Y-74370250D01*
X209921000Y-73779691D01*
X209824327Y-73546302D01*
X209683090Y-73405064D01*
X209737441Y-73370090D01*
X209882431Y-73157890D01*
X209916227Y-72991000D01*
X209932931Y-72991000D01*
X210125201Y-73070838D01*
G36*
X196442090Y-65674108D02*
X196319664Y-65623272D01*
X195699058Y-65622730D01*
X195125486Y-65859725D01*
X194757744Y-66226826D01*
X194392823Y-65861268D01*
X193819664Y-65623272D01*
X193199058Y-65622730D01*
X192625486Y-65859725D01*
X192505119Y-65979882D01*
X192471327Y-65898301D01*
X192292698Y-65719673D01*
X192059309Y-65623000D01*
X191293750Y-65623000D01*
X191135000Y-65781750D01*
X191135000Y-67056000D01*
X191155000Y-67056000D01*
X191155000Y-67310000D01*
X191135000Y-67310000D01*
X191135000Y-68584250D01*
X191293750Y-68743000D01*
X192059309Y-68743000D01*
X192292698Y-68646327D01*
X192471327Y-68467699D01*
X192505017Y-68386365D01*
X192623177Y-68504732D01*
X193196336Y-68742728D01*
X193816942Y-68743270D01*
X194390514Y-68506275D01*
X194758256Y-68139174D01*
X195123177Y-68504732D01*
X195696336Y-68742728D01*
X196316942Y-68743270D01*
X196890514Y-68506275D01*
X197329732Y-68067823D01*
X197567728Y-67494664D01*
X197568270Y-66874058D01*
X197516657Y-66749145D01*
X197973802Y-66292000D01*
X201005000Y-66292000D01*
X201005000Y-66897250D01*
X201163750Y-67056000D01*
X202438000Y-67056000D01*
X202438000Y-67036000D01*
X202692000Y-67036000D01*
X202692000Y-67056000D01*
X202712000Y-67056000D01*
X202712000Y-67310000D01*
X202692000Y-67310000D01*
X202692000Y-67330000D01*
X202438000Y-67330000D01*
X202438000Y-67310000D01*
X201163750Y-67310000D01*
X201005000Y-67468750D01*
X201005000Y-67947000D01*
X199263000Y-67947000D01*
X199020414Y-67995254D01*
X198972160Y-68004852D01*
X198725599Y-68169599D01*
X196836599Y-70058599D01*
X196671852Y-70305161D01*
X196614000Y-70596000D01*
X196614000Y-70930721D01*
X196422559Y-71053910D01*
X196374866Y-71123711D01*
X196338090Y-71066559D01*
X196134000Y-70927110D01*
X196134000Y-70279000D01*
X196076148Y-69988161D01*
X195911401Y-69741599D01*
X195482401Y-69312599D01*
X195235839Y-69147852D01*
X194945000Y-69090000D01*
X190500000Y-69090000D01*
X190209161Y-69147852D01*
X189962599Y-69312599D01*
X189327599Y-69947599D01*
X189162852Y-70194161D01*
X189105000Y-70485000D01*
X189105000Y-70713126D01*
X188709041Y-70548710D01*
X188229065Y-70548291D01*
X187785465Y-70731582D01*
X187445775Y-71070680D01*
X187261710Y-71513959D01*
X187261291Y-71993935D01*
X187444582Y-72437535D01*
X187783680Y-72777225D01*
X188226959Y-72961290D01*
X188706935Y-72961709D01*
X189105000Y-72797233D01*
X189105000Y-73253126D01*
X188709041Y-73088710D01*
X188229065Y-73088291D01*
X187785465Y-73271582D01*
X187445775Y-73610680D01*
X187261710Y-74053959D01*
X187261291Y-74533935D01*
X187444582Y-74977535D01*
X187783680Y-75317225D01*
X188226959Y-75501290D01*
X188706935Y-75501709D01*
X189105000Y-75337233D01*
X189105000Y-85543392D01*
X189003440Y-85644952D01*
X188957448Y-85422467D01*
X188503145Y-85267595D01*
X188024156Y-85298367D01*
X187724552Y-85422467D01*
X187678559Y-85644954D01*
X188341000Y-86307395D01*
X188355143Y-86293253D01*
X188534748Y-86472858D01*
X188520605Y-86487000D01*
X188534748Y-86501143D01*
X188355143Y-86680748D01*
X188341000Y-86666605D01*
X187678559Y-87329046D01*
X187724552Y-87551533D01*
X188178855Y-87706405D01*
X188657844Y-87675633D01*
X188957448Y-87551533D01*
X189003440Y-87329048D01*
X189105000Y-87430608D01*
X189105000Y-88084594D01*
X189025320Y-88004775D01*
X188582041Y-87820710D01*
X188102065Y-87820291D01*
X187658465Y-88003582D01*
X187318775Y-88342680D01*
X187198000Y-88633539D01*
X187198000Y-86914012D01*
X187276467Y-87103448D01*
X187498954Y-87149441D01*
X188161395Y-86487000D01*
X187498954Y-85824559D01*
X187276467Y-85870552D01*
X187198000Y-86100728D01*
X187198000Y-69614820D01*
X187848324Y-67468750D01*
X189448000Y-67468750D01*
X189448000Y-68234310D01*
X189544673Y-68467699D01*
X189723302Y-68646327D01*
X189956691Y-68743000D01*
X190722250Y-68743000D01*
X190881000Y-68584250D01*
X190881000Y-67310000D01*
X189606750Y-67310000D01*
X189448000Y-67468750D01*
X187848324Y-67468750D01*
X188253493Y-66131690D01*
X189448000Y-66131690D01*
X189448000Y-66897250D01*
X189606750Y-67056000D01*
X190881000Y-67056000D01*
X190881000Y-65781750D01*
X190722250Y-65623000D01*
X189956691Y-65623000D01*
X189723302Y-65719673D01*
X189544673Y-65898301D01*
X189448000Y-66131690D01*
X188253493Y-66131690D01*
X188435218Y-65532000D01*
X196584198Y-65532000D01*
X196442090Y-65674108D01*
X196442090Y-65674108D01*
G37*
X196442090Y-65674108D02*
X196319664Y-65623272D01*
X195699058Y-65622730D01*
X195125486Y-65859725D01*
X194757744Y-66226826D01*
X194392823Y-65861268D01*
X193819664Y-65623272D01*
X193199058Y-65622730D01*
X192625486Y-65859725D01*
X192505119Y-65979882D01*
X192471327Y-65898301D01*
X192292698Y-65719673D01*
X192059309Y-65623000D01*
X191293750Y-65623000D01*
X191135000Y-65781750D01*
X191135000Y-67056000D01*
X191155000Y-67056000D01*
X191155000Y-67310000D01*
X191135000Y-67310000D01*
X191135000Y-68584250D01*
X191293750Y-68743000D01*
X192059309Y-68743000D01*
X192292698Y-68646327D01*
X192471327Y-68467699D01*
X192505017Y-68386365D01*
X192623177Y-68504732D01*
X193196336Y-68742728D01*
X193816942Y-68743270D01*
X194390514Y-68506275D01*
X194758256Y-68139174D01*
X195123177Y-68504732D01*
X195696336Y-68742728D01*
X196316942Y-68743270D01*
X196890514Y-68506275D01*
X197329732Y-68067823D01*
X197567728Y-67494664D01*
X197568270Y-66874058D01*
X197516657Y-66749145D01*
X197973802Y-66292000D01*
X201005000Y-66292000D01*
X201005000Y-66897250D01*
X201163750Y-67056000D01*
X202438000Y-67056000D01*
X202438000Y-67036000D01*
X202692000Y-67036000D01*
X202692000Y-67056000D01*
X202712000Y-67056000D01*
X202712000Y-67310000D01*
X202692000Y-67310000D01*
X202692000Y-67330000D01*
X202438000Y-67330000D01*
X202438000Y-67310000D01*
X201163750Y-67310000D01*
X201005000Y-67468750D01*
X201005000Y-67947000D01*
X199263000Y-67947000D01*
X199020414Y-67995254D01*
X198972160Y-68004852D01*
X198725599Y-68169599D01*
X196836599Y-70058599D01*
X196671852Y-70305161D01*
X196614000Y-70596000D01*
X196614000Y-70930721D01*
X196422559Y-71053910D01*
X196374866Y-71123711D01*
X196338090Y-71066559D01*
X196134000Y-70927110D01*
X196134000Y-70279000D01*
X196076148Y-69988161D01*
X195911401Y-69741599D01*
X195482401Y-69312599D01*
X195235839Y-69147852D01*
X194945000Y-69090000D01*
X190500000Y-69090000D01*
X190209161Y-69147852D01*
X189962599Y-69312599D01*
X189327599Y-69947599D01*
X189162852Y-70194161D01*
X189105000Y-70485000D01*
X189105000Y-70713126D01*
X188709041Y-70548710D01*
X188229065Y-70548291D01*
X187785465Y-70731582D01*
X187445775Y-71070680D01*
X187261710Y-71513959D01*
X187261291Y-71993935D01*
X187444582Y-72437535D01*
X187783680Y-72777225D01*
X188226959Y-72961290D01*
X188706935Y-72961709D01*
X189105000Y-72797233D01*
X189105000Y-73253126D01*
X188709041Y-73088710D01*
X188229065Y-73088291D01*
X187785465Y-73271582D01*
X187445775Y-73610680D01*
X187261710Y-74053959D01*
X187261291Y-74533935D01*
X187444582Y-74977535D01*
X187783680Y-75317225D01*
X188226959Y-75501290D01*
X188706935Y-75501709D01*
X189105000Y-75337233D01*
X189105000Y-85543392D01*
X189003440Y-85644952D01*
X188957448Y-85422467D01*
X188503145Y-85267595D01*
X188024156Y-85298367D01*
X187724552Y-85422467D01*
X187678559Y-85644954D01*
X188341000Y-86307395D01*
X188355143Y-86293253D01*
X188534748Y-86472858D01*
X188520605Y-86487000D01*
X188534748Y-86501143D01*
X188355143Y-86680748D01*
X188341000Y-86666605D01*
X187678559Y-87329046D01*
X187724552Y-87551533D01*
X188178855Y-87706405D01*
X188657844Y-87675633D01*
X188957448Y-87551533D01*
X189003440Y-87329048D01*
X189105000Y-87430608D01*
X189105000Y-88084594D01*
X189025320Y-88004775D01*
X188582041Y-87820710D01*
X188102065Y-87820291D01*
X187658465Y-88003582D01*
X187318775Y-88342680D01*
X187198000Y-88633539D01*
X187198000Y-86914012D01*
X187276467Y-87103448D01*
X187498954Y-87149441D01*
X188161395Y-86487000D01*
X187498954Y-85824559D01*
X187276467Y-85870552D01*
X187198000Y-86100728D01*
X187198000Y-69614820D01*
X187848324Y-67468750D01*
X189448000Y-67468750D01*
X189448000Y-68234310D01*
X189544673Y-68467699D01*
X189723302Y-68646327D01*
X189956691Y-68743000D01*
X190722250Y-68743000D01*
X190881000Y-68584250D01*
X190881000Y-67310000D01*
X189606750Y-67310000D01*
X189448000Y-67468750D01*
X187848324Y-67468750D01*
X188253493Y-66131690D01*
X189448000Y-66131690D01*
X189448000Y-66897250D01*
X189606750Y-67056000D01*
X190881000Y-67056000D01*
X190881000Y-65781750D01*
X190722250Y-65623000D01*
X189956691Y-65623000D01*
X189723302Y-65719673D01*
X189544673Y-65898301D01*
X189448000Y-66131690D01*
X188253493Y-66131690D01*
X188435218Y-65532000D01*
X196584198Y-65532000D01*
X196442090Y-65674108D01*
G36*
X190694201Y-76372838D02*
X190741077Y-76372879D01*
X192439099Y-78070901D01*
X192477165Y-78096335D01*
X192502599Y-78134401D01*
X196020198Y-81652000D01*
X194437000Y-81652000D01*
X194431500Y-81653094D01*
X194426000Y-81652000D01*
X194183000Y-81652000D01*
X194177500Y-81653094D01*
X194172000Y-81652000D01*
X193559000Y-81652000D01*
X193268161Y-81709852D01*
X193021599Y-81874599D01*
X190741320Y-84154878D01*
X190695833Y-84154838D01*
X190625000Y-84184106D01*
X190625000Y-76344103D01*
X190694201Y-76372838D01*
X190694201Y-76372838D01*
G37*
X190694201Y-76372838D02*
X190741077Y-76372879D01*
X192439099Y-78070901D01*
X192477165Y-78096335D01*
X192502599Y-78134401D01*
X196020198Y-81652000D01*
X194437000Y-81652000D01*
X194431500Y-81653094D01*
X194426000Y-81652000D01*
X194183000Y-81652000D01*
X194177500Y-81653094D01*
X194172000Y-81652000D01*
X193559000Y-81652000D01*
X193268161Y-81709852D01*
X193021599Y-81874599D01*
X190741320Y-84154878D01*
X190695833Y-84154838D01*
X190625000Y-84184106D01*
X190625000Y-76344103D01*
X190694201Y-76372838D01*
G36*
X192409910Y-73969441D02*
X192614000Y-74108890D01*
X192614000Y-74375000D01*
X192671852Y-74665839D01*
X192836599Y-74912401D01*
X193391599Y-75467401D01*
X193638161Y-75632148D01*
X193929000Y-75690000D01*
X199075198Y-75690000D01*
X203084599Y-79699401D01*
X203331161Y-79864148D01*
X203622000Y-79922000D01*
X207259560Y-79922000D01*
X207259560Y-80037000D01*
X207272980Y-80108323D01*
X207272000Y-80110690D01*
X207272000Y-80190750D01*
X207292312Y-80211062D01*
X207303838Y-80272317D01*
X207344172Y-80334998D01*
X207272000Y-80334998D01*
X207272000Y-80352000D01*
X198266802Y-80352000D01*
X192578122Y-74663320D01*
X192578162Y-74617833D01*
X192436117Y-74274057D01*
X192215367Y-74052921D01*
X192325441Y-73982090D01*
X192373134Y-73912289D01*
X192409910Y-73969441D01*
X192409910Y-73969441D01*
G37*
X192409910Y-73969441D02*
X192614000Y-74108890D01*
X192614000Y-74375000D01*
X192671852Y-74665839D01*
X192836599Y-74912401D01*
X193391599Y-75467401D01*
X193638161Y-75632148D01*
X193929000Y-75690000D01*
X199075198Y-75690000D01*
X203084599Y-79699401D01*
X203331161Y-79864148D01*
X203622000Y-79922000D01*
X207259560Y-79922000D01*
X207259560Y-80037000D01*
X207272980Y-80108323D01*
X207272000Y-80110690D01*
X207272000Y-80190750D01*
X207292312Y-80211062D01*
X207303838Y-80272317D01*
X207344172Y-80334998D01*
X207272000Y-80334998D01*
X207272000Y-80352000D01*
X198266802Y-80352000D01*
X192578122Y-74663320D01*
X192578162Y-74617833D01*
X192436117Y-74274057D01*
X192215367Y-74052921D01*
X192325441Y-73982090D01*
X192373134Y-73912289D01*
X192409910Y-73969441D01*
M02*
