M48
INCH,TZ
T1C0.016
T2C0.025
T3C0.035
%
G90
G05
T1
X51800Y-45500
X51950Y-27650
X53700Y-53800
X53750Y-47650
X53750Y-51450
X53800Y-50950
X53850Y-35950
X53900Y-29800
X53900Y-33600
X53950Y-33100
X54000Y-51900
X54050Y-47400
X54150Y-34050
X54200Y-29550
X54650Y-51400
X54800Y-33550
X55850Y-53800
X56000Y-35950
X57550Y-45350
X57700Y-27500
X58650Y-51950
X58700Y-55700
X58800Y-34100
X58850Y-37850
X60150Y-45750
X60300Y-27900
X60800Y-45000
X60950Y-27150
X61400Y-46350
X61550Y-28500
X61550Y-49350
X61700Y-31500
X61700Y-52850
X61850Y-35000
X62500Y-47300
X62600Y-53850
X62650Y-29450
X62650Y-45550
X62750Y-36000
X62800Y-27700
X63400Y-45150
X63450Y-52650
X63550Y-27300
X63600Y-34800
X65200Y-45750
X65350Y-27900
X73050Y-45400
X73200Y-27550
X74950Y-53700
X75000Y-47550
X75000Y-51350
X75050Y-50850
X75100Y-35850
X75150Y-29700
X75150Y-33500
X75200Y-33000
X75250Y-51800
X75300Y-47300
X75400Y-33950
X75450Y-29450
X75900Y-51300
X76050Y-33450
X77100Y-53700
X77250Y-35850
X78800Y-45250
X78950Y-27400
X79900Y-51850
X79950Y-55600
X80050Y-34000
X80100Y-37750
X81400Y-45650
X81550Y-27800
X82050Y-44900
X82200Y-27050
X82650Y-46250
X82800Y-28400
X82800Y-49250
X82950Y-31400
X82950Y-52750
X83100Y-34900
X83750Y-47200
X83850Y-53750
X83900Y-29350
X83900Y-45450
X84000Y-35900
X84050Y-27600
X84650Y-45050
X84700Y-52550
X84800Y-27200
X84850Y-34700
X86450Y-45650
X86600Y-27800
T2
X52750Y-52000
X52750Y-53000
X52800Y-46200
X52800Y-47200
X52900Y-34150
X52900Y-35150
X52950Y-28350
X52950Y-29350
X74000Y-51900
X74000Y-52900
X74050Y-46100
X74050Y-47100
X74150Y-34050
X74150Y-35050
X74200Y-28250
X74200Y-29250
T3
X53800Y-44400
X53950Y-26550
X54650Y-54700
X54784Y-44400
X54800Y-36850
X54934Y-26550
X55634Y-54700
X55769Y-44400
X55784Y-36850
X55919Y-26550
X56619Y-54700
X56769Y-36850
X57603Y-54700
X57753Y-36850
X58350Y-44400
X58500Y-26550
X59334Y-44400
X59484Y-26550
X60300Y-54700
X60319Y-44400
X60450Y-36850
X60469Y-26550
X61284Y-54700
X61303Y-44400
X61434Y-36850
X61453Y-26550
X62287Y-44400
X62437Y-26550
X63271Y-44400
X63421Y-26550
X75050Y-44300
X75200Y-26450
X75900Y-54600
X76034Y-44300
X76050Y-36750
X76184Y-26450
X76884Y-54600
X77019Y-44300
X77034Y-36750
X77169Y-26450
X77869Y-54600
X78019Y-36750
X78853Y-54600
X79003Y-36750
X79600Y-44300
X79750Y-26450
X80584Y-44300
X80734Y-26450
X81550Y-54600
X81569Y-44300
X81700Y-36750
X81719Y-26450
X82534Y-54600
X82553Y-44300
X82684Y-36750
X82703Y-26450
X83537Y-44300
X83687Y-26450
X84521Y-44300
X84671Y-26450
T0
M30
