G04 #@! TF.FileFunction,Copper,L2,Bot,Signal*
%FSLAX46Y46*%
G04 Gerber Fmt 4.6, Leading zero omitted, Abs format (unit mm)*
G04 Created by KiCad (PCBNEW 4.0.7) date Wed Sep 16 00:54:05 2020*
%MOMM*%
%LPD*%
G01*
G04 APERTURE LIST*
%ADD10C,0.150000*%
%ADD11C,0.300000*%
%ADD12C,1.143000*%
%ADD13R,1.850000X1.850000*%
%ADD14C,1.850000*%
%ADD15R,2.540000X3.510000*%
%ADD16C,0.600000*%
%ADD17C,0.400000*%
%ADD18C,0.250000*%
%ADD19C,0.500000*%
%ADD20C,0.254000*%
G04 APERTURE END LIST*
D10*
D11*
X159828571Y-89928143D02*
X160900000Y-89928143D01*
X161114286Y-89856715D01*
X161257143Y-89713858D01*
X161328571Y-89499572D01*
X161328571Y-89356715D01*
X161328571Y-90856715D02*
X161257143Y-90713857D01*
X161185714Y-90642429D01*
X161042857Y-90571000D01*
X160614286Y-90571000D01*
X160471429Y-90642429D01*
X160400000Y-90713857D01*
X160328571Y-90856715D01*
X160328571Y-91071000D01*
X160400000Y-91213857D01*
X160471429Y-91285286D01*
X160614286Y-91356715D01*
X161042857Y-91356715D01*
X161185714Y-91285286D01*
X161257143Y-91213857D01*
X161328571Y-91071000D01*
X161328571Y-90856715D01*
X160542857Y-92499572D02*
X160614286Y-92713858D01*
X160685714Y-92785286D01*
X160828571Y-92856715D01*
X161042857Y-92856715D01*
X161185714Y-92785286D01*
X161257143Y-92713858D01*
X161328571Y-92571000D01*
X161328571Y-91999572D01*
X159828571Y-91999572D01*
X159828571Y-92499572D01*
X159900000Y-92642429D01*
X159971429Y-92713858D01*
X160114286Y-92785286D01*
X160257143Y-92785286D01*
X160400000Y-92713858D01*
X160471429Y-92642429D01*
X160542857Y-92499572D01*
X160542857Y-91999572D01*
X161328571Y-94142429D02*
X160542857Y-94142429D01*
X160400000Y-94071000D01*
X160328571Y-93928143D01*
X160328571Y-93642429D01*
X160400000Y-93499572D01*
X161257143Y-94142429D02*
X161328571Y-93999572D01*
X161328571Y-93642429D01*
X161257143Y-93499572D01*
X161114286Y-93428143D01*
X160971429Y-93428143D01*
X160828571Y-93499572D01*
X160757143Y-93642429D01*
X160757143Y-93999572D01*
X160685714Y-94142429D01*
X162521429Y-89249572D02*
X162450000Y-89321001D01*
X162378571Y-89463858D01*
X162378571Y-89821001D01*
X162450000Y-89963858D01*
X162521429Y-90035287D01*
X162664286Y-90106715D01*
X162807143Y-90106715D01*
X163021429Y-90035287D01*
X163878571Y-89178144D01*
X163878571Y-90106715D01*
X162378571Y-91035286D02*
X162378571Y-91178143D01*
X162450000Y-91321000D01*
X162521429Y-91392429D01*
X162664286Y-91463858D01*
X162950000Y-91535286D01*
X163307143Y-91535286D01*
X163592857Y-91463858D01*
X163735714Y-91392429D01*
X163807143Y-91321000D01*
X163878571Y-91178143D01*
X163878571Y-91035286D01*
X163807143Y-90892429D01*
X163735714Y-90821000D01*
X163592857Y-90749572D01*
X163307143Y-90678143D01*
X162950000Y-90678143D01*
X162664286Y-90749572D01*
X162521429Y-90821000D01*
X162450000Y-90892429D01*
X162378571Y-91035286D01*
X162521429Y-92106714D02*
X162450000Y-92178143D01*
X162378571Y-92321000D01*
X162378571Y-92678143D01*
X162450000Y-92821000D01*
X162521429Y-92892429D01*
X162664286Y-92963857D01*
X162807143Y-92963857D01*
X163021429Y-92892429D01*
X163878571Y-92035286D01*
X163878571Y-92963857D01*
X162378571Y-93892428D02*
X162378571Y-94035285D01*
X162450000Y-94178142D01*
X162521429Y-94249571D01*
X162664286Y-94321000D01*
X162950000Y-94392428D01*
X163307143Y-94392428D01*
X163592857Y-94321000D01*
X163735714Y-94249571D01*
X163807143Y-94178142D01*
X163878571Y-94035285D01*
X163878571Y-93892428D01*
X163807143Y-93749571D01*
X163735714Y-93678142D01*
X163592857Y-93606714D01*
X163307143Y-93535285D01*
X162950000Y-93535285D01*
X162664286Y-93606714D01*
X162521429Y-93678142D01*
X162450000Y-93749571D01*
X162378571Y-93892428D01*
X213803571Y-89674143D02*
X214875000Y-89674143D01*
X215089286Y-89602715D01*
X215232143Y-89459858D01*
X215303571Y-89245572D01*
X215303571Y-89102715D01*
X215303571Y-90602715D02*
X215232143Y-90459857D01*
X215160714Y-90388429D01*
X215017857Y-90317000D01*
X214589286Y-90317000D01*
X214446429Y-90388429D01*
X214375000Y-90459857D01*
X214303571Y-90602715D01*
X214303571Y-90817000D01*
X214375000Y-90959857D01*
X214446429Y-91031286D01*
X214589286Y-91102715D01*
X215017857Y-91102715D01*
X215160714Y-91031286D01*
X215232143Y-90959857D01*
X215303571Y-90817000D01*
X215303571Y-90602715D01*
X214517857Y-92245572D02*
X214589286Y-92459858D01*
X214660714Y-92531286D01*
X214803571Y-92602715D01*
X215017857Y-92602715D01*
X215160714Y-92531286D01*
X215232143Y-92459858D01*
X215303571Y-92317000D01*
X215303571Y-91745572D01*
X213803571Y-91745572D01*
X213803571Y-92245572D01*
X213875000Y-92388429D01*
X213946429Y-92459858D01*
X214089286Y-92531286D01*
X214232143Y-92531286D01*
X214375000Y-92459858D01*
X214446429Y-92388429D01*
X214517857Y-92245572D01*
X214517857Y-91745572D01*
X215303571Y-93888429D02*
X214517857Y-93888429D01*
X214375000Y-93817000D01*
X214303571Y-93674143D01*
X214303571Y-93388429D01*
X214375000Y-93245572D01*
X215232143Y-93888429D02*
X215303571Y-93745572D01*
X215303571Y-93388429D01*
X215232143Y-93245572D01*
X215089286Y-93174143D01*
X214946429Y-93174143D01*
X214803571Y-93245572D01*
X214732143Y-93388429D01*
X214732143Y-93745572D01*
X214660714Y-93888429D01*
X216496429Y-88995572D02*
X216425000Y-89067001D01*
X216353571Y-89209858D01*
X216353571Y-89567001D01*
X216425000Y-89709858D01*
X216496429Y-89781287D01*
X216639286Y-89852715D01*
X216782143Y-89852715D01*
X216996429Y-89781287D01*
X217853571Y-88924144D01*
X217853571Y-89852715D01*
X216353571Y-90781286D02*
X216353571Y-90924143D01*
X216425000Y-91067000D01*
X216496429Y-91138429D01*
X216639286Y-91209858D01*
X216925000Y-91281286D01*
X217282143Y-91281286D01*
X217567857Y-91209858D01*
X217710714Y-91138429D01*
X217782143Y-91067000D01*
X217853571Y-90924143D01*
X217853571Y-90781286D01*
X217782143Y-90638429D01*
X217710714Y-90567000D01*
X217567857Y-90495572D01*
X217282143Y-90424143D01*
X216925000Y-90424143D01*
X216639286Y-90495572D01*
X216496429Y-90567000D01*
X216425000Y-90638429D01*
X216353571Y-90781286D01*
X216496429Y-91852714D02*
X216425000Y-91924143D01*
X216353571Y-92067000D01*
X216353571Y-92424143D01*
X216425000Y-92567000D01*
X216496429Y-92638429D01*
X216639286Y-92709857D01*
X216782143Y-92709857D01*
X216996429Y-92638429D01*
X217853571Y-91781286D01*
X217853571Y-92709857D01*
X216353571Y-93638428D02*
X216353571Y-93781285D01*
X216425000Y-93924142D01*
X216496429Y-93995571D01*
X216639286Y-94067000D01*
X216925000Y-94138428D01*
X217282143Y-94138428D01*
X217567857Y-94067000D01*
X217710714Y-93995571D01*
X217782143Y-93924142D01*
X217853571Y-93781285D01*
X217853571Y-93638428D01*
X217782143Y-93495571D01*
X217710714Y-93424142D01*
X217567857Y-93352714D01*
X217282143Y-93281285D01*
X216925000Y-93281285D01*
X216639286Y-93352714D01*
X216496429Y-93424142D01*
X216425000Y-93495571D01*
X216353571Y-93638428D01*
X213422571Y-135013143D02*
X214494000Y-135013143D01*
X214708286Y-134941715D01*
X214851143Y-134798858D01*
X214922571Y-134584572D01*
X214922571Y-134441715D01*
X214922571Y-135941715D02*
X214851143Y-135798857D01*
X214779714Y-135727429D01*
X214636857Y-135656000D01*
X214208286Y-135656000D01*
X214065429Y-135727429D01*
X213994000Y-135798857D01*
X213922571Y-135941715D01*
X213922571Y-136156000D01*
X213994000Y-136298857D01*
X214065429Y-136370286D01*
X214208286Y-136441715D01*
X214636857Y-136441715D01*
X214779714Y-136370286D01*
X214851143Y-136298857D01*
X214922571Y-136156000D01*
X214922571Y-135941715D01*
X214136857Y-137584572D02*
X214208286Y-137798858D01*
X214279714Y-137870286D01*
X214422571Y-137941715D01*
X214636857Y-137941715D01*
X214779714Y-137870286D01*
X214851143Y-137798858D01*
X214922571Y-137656000D01*
X214922571Y-137084572D01*
X213422571Y-137084572D01*
X213422571Y-137584572D01*
X213494000Y-137727429D01*
X213565429Y-137798858D01*
X213708286Y-137870286D01*
X213851143Y-137870286D01*
X213994000Y-137798858D01*
X214065429Y-137727429D01*
X214136857Y-137584572D01*
X214136857Y-137084572D01*
X214922571Y-139227429D02*
X214136857Y-139227429D01*
X213994000Y-139156000D01*
X213922571Y-139013143D01*
X213922571Y-138727429D01*
X213994000Y-138584572D01*
X214851143Y-139227429D02*
X214922571Y-139084572D01*
X214922571Y-138727429D01*
X214851143Y-138584572D01*
X214708286Y-138513143D01*
X214565429Y-138513143D01*
X214422571Y-138584572D01*
X214351143Y-138727429D01*
X214351143Y-139084572D01*
X214279714Y-139227429D01*
X216115429Y-134334572D02*
X216044000Y-134406001D01*
X215972571Y-134548858D01*
X215972571Y-134906001D01*
X216044000Y-135048858D01*
X216115429Y-135120287D01*
X216258286Y-135191715D01*
X216401143Y-135191715D01*
X216615429Y-135120287D01*
X217472571Y-134263144D01*
X217472571Y-135191715D01*
X215972571Y-136120286D02*
X215972571Y-136263143D01*
X216044000Y-136406000D01*
X216115429Y-136477429D01*
X216258286Y-136548858D01*
X216544000Y-136620286D01*
X216901143Y-136620286D01*
X217186857Y-136548858D01*
X217329714Y-136477429D01*
X217401143Y-136406000D01*
X217472571Y-136263143D01*
X217472571Y-136120286D01*
X217401143Y-135977429D01*
X217329714Y-135906000D01*
X217186857Y-135834572D01*
X216901143Y-135763143D01*
X216544000Y-135763143D01*
X216258286Y-135834572D01*
X216115429Y-135906000D01*
X216044000Y-135977429D01*
X215972571Y-136120286D01*
X216115429Y-137191714D02*
X216044000Y-137263143D01*
X215972571Y-137406000D01*
X215972571Y-137763143D01*
X216044000Y-137906000D01*
X216115429Y-137977429D01*
X216258286Y-138048857D01*
X216401143Y-138048857D01*
X216615429Y-137977429D01*
X217472571Y-137120286D01*
X217472571Y-138048857D01*
X215972571Y-138977428D02*
X215972571Y-139120285D01*
X216044000Y-139263142D01*
X216115429Y-139334571D01*
X216258286Y-139406000D01*
X216544000Y-139477428D01*
X216901143Y-139477428D01*
X217186857Y-139406000D01*
X217329714Y-139334571D01*
X217401143Y-139263142D01*
X217472571Y-139120285D01*
X217472571Y-138977428D01*
X217401143Y-138834571D01*
X217329714Y-138763142D01*
X217186857Y-138691714D01*
X216901143Y-138620285D01*
X216544000Y-138620285D01*
X216258286Y-138691714D01*
X216115429Y-138763142D01*
X216044000Y-138834571D01*
X215972571Y-138977428D01*
X159447571Y-135267143D02*
X160519000Y-135267143D01*
X160733286Y-135195715D01*
X160876143Y-135052858D01*
X160947571Y-134838572D01*
X160947571Y-134695715D01*
X160947571Y-136195715D02*
X160876143Y-136052857D01*
X160804714Y-135981429D01*
X160661857Y-135910000D01*
X160233286Y-135910000D01*
X160090429Y-135981429D01*
X160019000Y-136052857D01*
X159947571Y-136195715D01*
X159947571Y-136410000D01*
X160019000Y-136552857D01*
X160090429Y-136624286D01*
X160233286Y-136695715D01*
X160661857Y-136695715D01*
X160804714Y-136624286D01*
X160876143Y-136552857D01*
X160947571Y-136410000D01*
X160947571Y-136195715D01*
X160161857Y-137838572D02*
X160233286Y-138052858D01*
X160304714Y-138124286D01*
X160447571Y-138195715D01*
X160661857Y-138195715D01*
X160804714Y-138124286D01*
X160876143Y-138052858D01*
X160947571Y-137910000D01*
X160947571Y-137338572D01*
X159447571Y-137338572D01*
X159447571Y-137838572D01*
X159519000Y-137981429D01*
X159590429Y-138052858D01*
X159733286Y-138124286D01*
X159876143Y-138124286D01*
X160019000Y-138052858D01*
X160090429Y-137981429D01*
X160161857Y-137838572D01*
X160161857Y-137338572D01*
X160947571Y-139481429D02*
X160161857Y-139481429D01*
X160019000Y-139410000D01*
X159947571Y-139267143D01*
X159947571Y-138981429D01*
X160019000Y-138838572D01*
X160876143Y-139481429D02*
X160947571Y-139338572D01*
X160947571Y-138981429D01*
X160876143Y-138838572D01*
X160733286Y-138767143D01*
X160590429Y-138767143D01*
X160447571Y-138838572D01*
X160376143Y-138981429D01*
X160376143Y-139338572D01*
X160304714Y-139481429D01*
X162140429Y-134588572D02*
X162069000Y-134660001D01*
X161997571Y-134802858D01*
X161997571Y-135160001D01*
X162069000Y-135302858D01*
X162140429Y-135374287D01*
X162283286Y-135445715D01*
X162426143Y-135445715D01*
X162640429Y-135374287D01*
X163497571Y-134517144D01*
X163497571Y-135445715D01*
X161997571Y-136374286D02*
X161997571Y-136517143D01*
X162069000Y-136660000D01*
X162140429Y-136731429D01*
X162283286Y-136802858D01*
X162569000Y-136874286D01*
X162926143Y-136874286D01*
X163211857Y-136802858D01*
X163354714Y-136731429D01*
X163426143Y-136660000D01*
X163497571Y-136517143D01*
X163497571Y-136374286D01*
X163426143Y-136231429D01*
X163354714Y-136160000D01*
X163211857Y-136088572D01*
X162926143Y-136017143D01*
X162569000Y-136017143D01*
X162283286Y-136088572D01*
X162140429Y-136160000D01*
X162069000Y-136231429D01*
X161997571Y-136374286D01*
X162140429Y-137445714D02*
X162069000Y-137517143D01*
X161997571Y-137660000D01*
X161997571Y-138017143D01*
X162069000Y-138160000D01*
X162140429Y-138231429D01*
X162283286Y-138302857D01*
X162426143Y-138302857D01*
X162640429Y-138231429D01*
X163497571Y-137374286D01*
X163497571Y-138302857D01*
X161997571Y-139231428D02*
X161997571Y-139374285D01*
X162069000Y-139517142D01*
X162140429Y-139588571D01*
X162283286Y-139660000D01*
X162569000Y-139731428D01*
X162926143Y-139731428D01*
X163211857Y-139660000D01*
X163354714Y-139588571D01*
X163426143Y-139517142D01*
X163497571Y-139374285D01*
X163497571Y-139231428D01*
X163426143Y-139088571D01*
X163354714Y-139017142D01*
X163211857Y-138945714D01*
X162926143Y-138874285D01*
X162569000Y-138874285D01*
X162283286Y-138945714D01*
X162140429Y-139017142D01*
X162069000Y-139088571D01*
X161997571Y-139231428D01*
D12*
X134366000Y-89281000D03*
X134493000Y-74549000D03*
X134493000Y-72009000D03*
X134366000Y-86741000D03*
D13*
X153543000Y-93599000D03*
D14*
X156043000Y-93599000D03*
D13*
X148590000Y-67437000D03*
D14*
X151090000Y-67437000D03*
X153590000Y-67437000D03*
X156090000Y-67437000D03*
X158590000Y-67437000D03*
X161090000Y-67437000D03*
D13*
X137033000Y-67437000D03*
D14*
X139533000Y-67437000D03*
X142033000Y-67437000D03*
D13*
X139192000Y-93599000D03*
D14*
X141692000Y-93599000D03*
X144192000Y-93599000D03*
X146692000Y-93599000D03*
D15*
X134291000Y-80518000D03*
X163651000Y-80518000D03*
X188266000Y-80264000D03*
X217626000Y-80264000D03*
D13*
X193167000Y-93345000D03*
D14*
X195667000Y-93345000D03*
X198167000Y-93345000D03*
X200667000Y-93345000D03*
D13*
X191008000Y-67183000D03*
D14*
X193508000Y-67183000D03*
X196008000Y-67183000D03*
D13*
X202565000Y-67183000D03*
D14*
X205065000Y-67183000D03*
X207565000Y-67183000D03*
X210065000Y-67183000D03*
X212565000Y-67183000D03*
X215065000Y-67183000D03*
D13*
X207518000Y-93345000D03*
D14*
X210018000Y-93345000D03*
D12*
X188341000Y-86487000D03*
X188468000Y-71755000D03*
X188468000Y-74295000D03*
X188341000Y-89027000D03*
X187960000Y-134366000D03*
X188087000Y-119634000D03*
X188087000Y-117094000D03*
X187960000Y-131826000D03*
D13*
X207137000Y-138684000D03*
D14*
X209637000Y-138684000D03*
D13*
X202184000Y-112522000D03*
D14*
X204684000Y-112522000D03*
X207184000Y-112522000D03*
X209684000Y-112522000D03*
X212184000Y-112522000D03*
X214684000Y-112522000D03*
D13*
X190627000Y-112522000D03*
D14*
X193127000Y-112522000D03*
X195627000Y-112522000D03*
D13*
X192786000Y-138684000D03*
D14*
X195286000Y-138684000D03*
X197786000Y-138684000D03*
X200286000Y-138684000D03*
D15*
X187885000Y-125603000D03*
X217245000Y-125603000D03*
X133910000Y-125857000D03*
X163270000Y-125857000D03*
D13*
X138811000Y-138938000D03*
D14*
X141311000Y-138938000D03*
X143811000Y-138938000D03*
X146311000Y-138938000D03*
D13*
X136652000Y-112776000D03*
D14*
X139152000Y-112776000D03*
X141652000Y-112776000D03*
D13*
X148209000Y-112776000D03*
D14*
X150709000Y-112776000D03*
X153209000Y-112776000D03*
X155709000Y-112776000D03*
X158209000Y-112776000D03*
X160709000Y-112776000D03*
D13*
X153162000Y-138938000D03*
D14*
X155662000Y-138938000D03*
D12*
X133985000Y-132080000D03*
X134112000Y-117348000D03*
X134112000Y-119888000D03*
X133985000Y-134620000D03*
D16*
X139192000Y-85217000D03*
X137033000Y-84074000D03*
X191008000Y-83820000D03*
X193167000Y-84963000D03*
X192786000Y-130302000D03*
X190627000Y-129159000D03*
X136652000Y-129413000D03*
X138811000Y-130556000D03*
X156337000Y-72390000D03*
X159131000Y-74803000D03*
X157099000Y-88900000D03*
X161544000Y-88392000D03*
X149352000Y-86614000D03*
X156718000Y-80010000D03*
X210693000Y-79756000D03*
X203327000Y-86360000D03*
X215519000Y-88138000D03*
X211074000Y-88646000D03*
X213106000Y-74549000D03*
X210312000Y-72136000D03*
X209931000Y-117475000D03*
X212725000Y-119888000D03*
X210693000Y-133985000D03*
X215138000Y-133477000D03*
X202946000Y-131699000D03*
X210312000Y-125095000D03*
X156337000Y-125349000D03*
X148971000Y-131953000D03*
X161163000Y-133731000D03*
X156718000Y-134239000D03*
X158750000Y-120142000D03*
X155956000Y-117729000D03*
X137541000Y-86487000D03*
X191516000Y-86233000D03*
X191135000Y-131572000D03*
X137160000Y-131826000D03*
X136779000Y-91313000D03*
X136906000Y-85344000D03*
X190881000Y-85090000D03*
X190754000Y-91059000D03*
X190373000Y-136398000D03*
X190500000Y-130429000D03*
X136525000Y-130683000D03*
X136398000Y-136652000D03*
X153162000Y-70866000D03*
X146558000Y-69850000D03*
X200533000Y-69596000D03*
X207137000Y-70612000D03*
X206756000Y-115951000D03*
X200152000Y-114935000D03*
X146177000Y-115189000D03*
X152781000Y-116205000D03*
X161417000Y-69342000D03*
X215392000Y-69088000D03*
X215011000Y-114427000D03*
X161036000Y-114681000D03*
X165989000Y-70866000D03*
X131953000Y-70231000D03*
X149479000Y-96139000D03*
X203454000Y-95885000D03*
X185928000Y-69977000D03*
X219964000Y-70612000D03*
X219583000Y-115951000D03*
X185547000Y-115316000D03*
X203073000Y-141224000D03*
X149098000Y-141478000D03*
X131572000Y-115570000D03*
X165608000Y-116205000D03*
X159385000Y-91440000D03*
X142240000Y-91313000D03*
X196215000Y-91059000D03*
X213360000Y-91186000D03*
X212979000Y-136525000D03*
X195834000Y-136398000D03*
X141859000Y-136652000D03*
X159004000Y-136779000D03*
X159512000Y-70358000D03*
X154813000Y-68961000D03*
X208788000Y-68707000D03*
X213487000Y-70104000D03*
X213106000Y-115443000D03*
X208407000Y-114046000D03*
X154432000Y-114300000D03*
X159131000Y-115697000D03*
X136906000Y-75692000D03*
X190881000Y-75438000D03*
X190500000Y-120777000D03*
X136525000Y-121031000D03*
X137668000Y-75057000D03*
X191643000Y-74803000D03*
X191262000Y-120142000D03*
X137287000Y-120396000D03*
D17*
X134239000Y-80570000D02*
X134291000Y-80518000D01*
X134291000Y-78030000D02*
X134291000Y-80518000D01*
X135636000Y-67437000D02*
X132969000Y-70104000D01*
X132969000Y-70104000D02*
X132969000Y-76708000D01*
X132969000Y-76708000D02*
X134291000Y-78030000D01*
X137033000Y-67437000D02*
X135636000Y-67437000D01*
X134291000Y-84074000D02*
X134291000Y-80518000D01*
X134291000Y-85217000D02*
X134291000Y-84074000D01*
X134291000Y-86158000D02*
X134291000Y-85217000D01*
X134239000Y-85217000D02*
X134291000Y-85217000D01*
X134291000Y-85217000D02*
X134239000Y-85217000D01*
X138049000Y-84074000D02*
X139192000Y-85217000D01*
X137033000Y-84074000D02*
X138049000Y-84074000D01*
X134291000Y-84074000D02*
X137033000Y-84074000D01*
X188266000Y-83820000D02*
X191008000Y-83820000D01*
X191008000Y-83820000D02*
X192024000Y-83820000D01*
X192024000Y-83820000D02*
X193167000Y-84963000D01*
X188266000Y-84963000D02*
X188214000Y-84963000D01*
X188214000Y-84963000D02*
X188266000Y-84963000D01*
X188266000Y-85904000D02*
X188266000Y-84963000D01*
X188266000Y-84963000D02*
X188266000Y-83820000D01*
X188266000Y-83820000D02*
X188266000Y-80264000D01*
X191008000Y-67183000D02*
X189611000Y-67183000D01*
X186944000Y-76454000D02*
X188266000Y-77776000D01*
X186944000Y-69850000D02*
X186944000Y-76454000D01*
X189611000Y-67183000D02*
X186944000Y-69850000D01*
X188266000Y-77776000D02*
X188266000Y-80264000D01*
X188214000Y-80316000D02*
X188266000Y-80264000D01*
X187833000Y-125655000D02*
X187885000Y-125603000D01*
X187885000Y-123115000D02*
X187885000Y-125603000D01*
X189230000Y-112522000D02*
X186563000Y-115189000D01*
X186563000Y-115189000D02*
X186563000Y-121793000D01*
X186563000Y-121793000D02*
X187885000Y-123115000D01*
X190627000Y-112522000D02*
X189230000Y-112522000D01*
X187885000Y-129159000D02*
X187885000Y-125603000D01*
X187885000Y-130302000D02*
X187885000Y-129159000D01*
X187885000Y-131243000D02*
X187885000Y-130302000D01*
X187833000Y-130302000D02*
X187885000Y-130302000D01*
X187885000Y-130302000D02*
X187833000Y-130302000D01*
X191643000Y-129159000D02*
X192786000Y-130302000D01*
X190627000Y-129159000D02*
X191643000Y-129159000D01*
X187885000Y-129159000D02*
X190627000Y-129159000D01*
X133910000Y-129413000D02*
X136652000Y-129413000D01*
X136652000Y-129413000D02*
X137668000Y-129413000D01*
X137668000Y-129413000D02*
X138811000Y-130556000D01*
X133910000Y-130556000D02*
X133858000Y-130556000D01*
X133858000Y-130556000D02*
X133910000Y-130556000D01*
X133910000Y-131497000D02*
X133910000Y-130556000D01*
X133910000Y-130556000D02*
X133910000Y-129413000D01*
X133910000Y-129413000D02*
X133910000Y-125857000D01*
X136652000Y-112776000D02*
X135255000Y-112776000D01*
X132588000Y-122047000D02*
X133910000Y-123369000D01*
X132588000Y-115443000D02*
X132588000Y-122047000D01*
X135255000Y-112776000D02*
X132588000Y-115443000D01*
X133910000Y-123369000D02*
X133910000Y-125857000D01*
X133858000Y-125909000D02*
X133910000Y-125857000D01*
X156718000Y-72390000D02*
X156337000Y-72390000D01*
X159131000Y-74803000D02*
X156718000Y-72390000D01*
X162306000Y-87630000D02*
X163651000Y-86285000D01*
X161036000Y-88900000D02*
X162306000Y-87630000D01*
X163651000Y-86285000D02*
X163651000Y-80518000D01*
X159639000Y-88900000D02*
X161036000Y-88900000D01*
X159131000Y-88900000D02*
X159639000Y-88900000D01*
X163576000Y-80443000D02*
X163651000Y-80518000D01*
X163576000Y-76073000D02*
X163576000Y-80443000D01*
X162306000Y-74803000D02*
X163576000Y-76073000D01*
X159131000Y-74803000D02*
X162306000Y-74803000D01*
X151090000Y-67437000D02*
X151090000Y-67604000D01*
X151090000Y-67437000D02*
X151090000Y-67524000D01*
X139533000Y-66461000D02*
X139533000Y-67437000D01*
X150368000Y-86614000D02*
X152400000Y-86614000D01*
X152400000Y-86614000D02*
X154686000Y-88900000D01*
X154686000Y-88900000D02*
X156210000Y-88900000D01*
X157099000Y-88900000D02*
X159639000Y-88900000D01*
X156210000Y-88900000D02*
X157099000Y-88900000D01*
X162306000Y-87630000D02*
X161544000Y-88392000D01*
X162814000Y-66548000D02*
X163651000Y-67385000D01*
X163651000Y-67385000D02*
X163651000Y-80518000D01*
X151090000Y-67437000D02*
X151090000Y-66842000D01*
X150368000Y-86614000D02*
X149352000Y-86614000D01*
X143637000Y-86614000D02*
X142367000Y-87884000D01*
X149352000Y-86614000D02*
X144907000Y-86614000D01*
X144907000Y-86614000D02*
X143637000Y-86614000D01*
X141692000Y-94274000D02*
X141692000Y-93599000D01*
X141351000Y-94615000D02*
X141692000Y-94274000D01*
X141692000Y-92416000D02*
X141097000Y-91821000D01*
X141097000Y-91821000D02*
X141097000Y-89154000D01*
X141097000Y-89154000D02*
X142367000Y-87884000D01*
X141692000Y-93599000D02*
X141692000Y-92416000D01*
X138938000Y-95250000D02*
X140716000Y-95250000D01*
X140716000Y-95250000D02*
X141351000Y-94615000D01*
X134366000Y-89535000D02*
X134366000Y-91567000D01*
X151090000Y-66842000D02*
X151090000Y-67437000D01*
X162052000Y-65786000D02*
X152146000Y-65786000D01*
X152146000Y-65786000D02*
X151090000Y-66842000D01*
X162814000Y-66548000D02*
X162052000Y-65786000D01*
X139533000Y-66461000D02*
X139533000Y-67437000D01*
X150241000Y-65786000D02*
X140208000Y-65786000D01*
X140208000Y-65786000D02*
X139533000Y-66461000D01*
X151090000Y-66635000D02*
X150241000Y-65786000D01*
X151090000Y-67437000D02*
X151090000Y-66635000D01*
X162814000Y-80518000D02*
X163651000Y-80518000D01*
X156718000Y-80010000D02*
X162306000Y-80010000D01*
X162306000Y-80010000D02*
X162814000Y-80518000D01*
X134366000Y-91948000D02*
X137668000Y-95250000D01*
X137668000Y-95250000D02*
X138938000Y-95250000D01*
X134366000Y-91567000D02*
X134366000Y-91948000D01*
X188341000Y-91313000D02*
X188341000Y-91694000D01*
X191643000Y-94996000D02*
X192913000Y-94996000D01*
X188341000Y-91694000D02*
X191643000Y-94996000D01*
X216281000Y-79756000D02*
X216789000Y-80264000D01*
X210693000Y-79756000D02*
X216281000Y-79756000D01*
X216789000Y-80264000D02*
X217626000Y-80264000D01*
X205065000Y-67183000D02*
X205065000Y-66381000D01*
X205065000Y-66381000D02*
X204216000Y-65532000D01*
X194183000Y-65532000D02*
X193508000Y-66207000D01*
X204216000Y-65532000D02*
X194183000Y-65532000D01*
X193508000Y-66207000D02*
X193508000Y-67183000D01*
X216789000Y-66294000D02*
X216027000Y-65532000D01*
X206121000Y-65532000D02*
X205065000Y-66588000D01*
X216027000Y-65532000D02*
X206121000Y-65532000D01*
X205065000Y-66588000D02*
X205065000Y-67183000D01*
X188341000Y-89281000D02*
X188341000Y-91313000D01*
X194691000Y-94996000D02*
X195326000Y-94361000D01*
X192913000Y-94996000D02*
X194691000Y-94996000D01*
X195667000Y-93345000D02*
X195667000Y-92162000D01*
X195072000Y-88900000D02*
X196342000Y-87630000D01*
X195072000Y-91567000D02*
X195072000Y-88900000D01*
X195667000Y-92162000D02*
X195072000Y-91567000D01*
X195326000Y-94361000D02*
X195667000Y-94020000D01*
X195667000Y-94020000D02*
X195667000Y-93345000D01*
X198882000Y-86360000D02*
X197612000Y-86360000D01*
X203327000Y-86360000D02*
X198882000Y-86360000D01*
X197612000Y-86360000D02*
X196342000Y-87630000D01*
X204343000Y-86360000D02*
X203327000Y-86360000D01*
X205065000Y-67183000D02*
X205065000Y-66588000D01*
X217626000Y-67131000D02*
X217626000Y-80264000D01*
X216789000Y-66294000D02*
X217626000Y-67131000D01*
X216281000Y-87376000D02*
X215519000Y-88138000D01*
X210185000Y-88646000D02*
X211074000Y-88646000D01*
X211074000Y-88646000D02*
X213614000Y-88646000D01*
X208661000Y-88646000D02*
X210185000Y-88646000D01*
X206375000Y-86360000D02*
X208661000Y-88646000D01*
X204343000Y-86360000D02*
X206375000Y-86360000D01*
X193508000Y-66207000D02*
X193508000Y-67183000D01*
X205065000Y-67183000D02*
X205065000Y-67270000D01*
X205065000Y-67183000D02*
X205065000Y-67350000D01*
X213106000Y-74549000D02*
X216281000Y-74549000D01*
X216281000Y-74549000D02*
X217551000Y-75819000D01*
X217551000Y-75819000D02*
X217551000Y-80189000D01*
X217551000Y-80189000D02*
X217626000Y-80264000D01*
X213106000Y-88646000D02*
X213614000Y-88646000D01*
X213614000Y-88646000D02*
X215011000Y-88646000D01*
X217626000Y-86031000D02*
X217626000Y-80264000D01*
X215011000Y-88646000D02*
X216281000Y-87376000D01*
X216281000Y-87376000D02*
X217626000Y-86031000D01*
X213106000Y-74549000D02*
X210693000Y-72136000D01*
X210693000Y-72136000D02*
X210312000Y-72136000D01*
X210312000Y-117475000D02*
X209931000Y-117475000D01*
X212725000Y-119888000D02*
X210312000Y-117475000D01*
X215900000Y-132715000D02*
X217245000Y-131370000D01*
X214630000Y-133985000D02*
X215900000Y-132715000D01*
X217245000Y-131370000D02*
X217245000Y-125603000D01*
X213233000Y-133985000D02*
X214630000Y-133985000D01*
X212725000Y-133985000D02*
X213233000Y-133985000D01*
X217170000Y-125528000D02*
X217245000Y-125603000D01*
X217170000Y-121158000D02*
X217170000Y-125528000D01*
X215900000Y-119888000D02*
X217170000Y-121158000D01*
X212725000Y-119888000D02*
X215900000Y-119888000D01*
X204684000Y-112522000D02*
X204684000Y-112689000D01*
X204684000Y-112522000D02*
X204684000Y-112609000D01*
X193127000Y-111546000D02*
X193127000Y-112522000D01*
X203962000Y-131699000D02*
X205994000Y-131699000D01*
X205994000Y-131699000D02*
X208280000Y-133985000D01*
X208280000Y-133985000D02*
X209804000Y-133985000D01*
X210693000Y-133985000D02*
X213233000Y-133985000D01*
X209804000Y-133985000D02*
X210693000Y-133985000D01*
X215900000Y-132715000D02*
X215138000Y-133477000D01*
X216408000Y-111633000D02*
X217245000Y-112470000D01*
X217245000Y-112470000D02*
X217245000Y-125603000D01*
X204684000Y-112522000D02*
X204684000Y-111927000D01*
X203962000Y-131699000D02*
X202946000Y-131699000D01*
X197231000Y-131699000D02*
X195961000Y-132969000D01*
X202946000Y-131699000D02*
X198501000Y-131699000D01*
X198501000Y-131699000D02*
X197231000Y-131699000D01*
X195286000Y-139359000D02*
X195286000Y-138684000D01*
X194945000Y-139700000D02*
X195286000Y-139359000D01*
X195286000Y-137501000D02*
X194691000Y-136906000D01*
X194691000Y-136906000D02*
X194691000Y-134239000D01*
X194691000Y-134239000D02*
X195961000Y-132969000D01*
X195286000Y-138684000D02*
X195286000Y-137501000D01*
X192532000Y-140335000D02*
X194310000Y-140335000D01*
X194310000Y-140335000D02*
X194945000Y-139700000D01*
X187960000Y-134620000D02*
X187960000Y-136652000D01*
X204684000Y-111927000D02*
X204684000Y-112522000D01*
X215646000Y-110871000D02*
X205740000Y-110871000D01*
X205740000Y-110871000D02*
X204684000Y-111927000D01*
X216408000Y-111633000D02*
X215646000Y-110871000D01*
X193127000Y-111546000D02*
X193127000Y-112522000D01*
X203835000Y-110871000D02*
X193802000Y-110871000D01*
X193802000Y-110871000D02*
X193127000Y-111546000D01*
X204684000Y-111720000D02*
X203835000Y-110871000D01*
X204684000Y-112522000D02*
X204684000Y-111720000D01*
X216408000Y-125603000D02*
X217245000Y-125603000D01*
X210312000Y-125095000D02*
X215900000Y-125095000D01*
X215900000Y-125095000D02*
X216408000Y-125603000D01*
X187960000Y-137033000D02*
X191262000Y-140335000D01*
X191262000Y-140335000D02*
X192532000Y-140335000D01*
X187960000Y-136652000D02*
X187960000Y-137033000D01*
X133985000Y-136906000D02*
X133985000Y-137287000D01*
X137287000Y-140589000D02*
X138557000Y-140589000D01*
X133985000Y-137287000D02*
X137287000Y-140589000D01*
X161925000Y-125349000D02*
X162433000Y-125857000D01*
X156337000Y-125349000D02*
X161925000Y-125349000D01*
X162433000Y-125857000D02*
X163270000Y-125857000D01*
X150709000Y-112776000D02*
X150709000Y-111974000D01*
X150709000Y-111974000D02*
X149860000Y-111125000D01*
X139827000Y-111125000D02*
X139152000Y-111800000D01*
X149860000Y-111125000D02*
X139827000Y-111125000D01*
X139152000Y-111800000D02*
X139152000Y-112776000D01*
X162433000Y-111887000D02*
X161671000Y-111125000D01*
X151765000Y-111125000D02*
X150709000Y-112181000D01*
X161671000Y-111125000D02*
X151765000Y-111125000D01*
X150709000Y-112181000D02*
X150709000Y-112776000D01*
X133985000Y-134874000D02*
X133985000Y-136906000D01*
X140335000Y-140589000D02*
X140970000Y-139954000D01*
X138557000Y-140589000D02*
X140335000Y-140589000D01*
X141311000Y-138938000D02*
X141311000Y-137755000D01*
X140716000Y-134493000D02*
X141986000Y-133223000D01*
X140716000Y-137160000D02*
X140716000Y-134493000D01*
X141311000Y-137755000D02*
X140716000Y-137160000D01*
X140970000Y-139954000D02*
X141311000Y-139613000D01*
X141311000Y-139613000D02*
X141311000Y-138938000D01*
X144526000Y-131953000D02*
X143256000Y-131953000D01*
X148971000Y-131953000D02*
X144526000Y-131953000D01*
X143256000Y-131953000D02*
X141986000Y-133223000D01*
X149987000Y-131953000D02*
X148971000Y-131953000D01*
X150709000Y-112776000D02*
X150709000Y-112181000D01*
X163270000Y-112724000D02*
X163270000Y-125857000D01*
X162433000Y-111887000D02*
X163270000Y-112724000D01*
X161925000Y-132969000D02*
X161163000Y-133731000D01*
X155829000Y-134239000D02*
X156718000Y-134239000D01*
X156718000Y-134239000D02*
X159258000Y-134239000D01*
X154305000Y-134239000D02*
X155829000Y-134239000D01*
X152019000Y-131953000D02*
X154305000Y-134239000D01*
X149987000Y-131953000D02*
X152019000Y-131953000D01*
X139152000Y-111800000D02*
X139152000Y-112776000D01*
X150709000Y-112776000D02*
X150709000Y-112863000D01*
X150709000Y-112776000D02*
X150709000Y-112943000D01*
X158750000Y-120142000D02*
X161925000Y-120142000D01*
X161925000Y-120142000D02*
X163195000Y-121412000D01*
X163195000Y-121412000D02*
X163195000Y-125782000D01*
X163195000Y-125782000D02*
X163270000Y-125857000D01*
X158750000Y-134239000D02*
X159258000Y-134239000D01*
X159258000Y-134239000D02*
X160655000Y-134239000D01*
X163270000Y-131624000D02*
X163270000Y-125857000D01*
X160655000Y-134239000D02*
X161925000Y-132969000D01*
X161925000Y-132969000D02*
X163270000Y-131624000D01*
X158750000Y-120142000D02*
X156337000Y-117729000D01*
X156337000Y-117729000D02*
X155956000Y-117729000D01*
D18*
X137541000Y-91948000D02*
X139192000Y-93599000D01*
X137541000Y-86487000D02*
X137541000Y-91948000D01*
X191516000Y-86233000D02*
X191516000Y-91694000D01*
X191516000Y-91694000D02*
X193167000Y-93345000D01*
X191135000Y-137033000D02*
X192786000Y-138684000D01*
X191135000Y-131572000D02*
X191135000Y-137033000D01*
X137160000Y-131826000D02*
X137160000Y-137287000D01*
X137160000Y-137287000D02*
X138811000Y-138938000D01*
X136525000Y-91059000D02*
X136779000Y-91313000D01*
X136525000Y-90043000D02*
X136525000Y-91059000D01*
X144145000Y-93599000D02*
X144192000Y-93599000D01*
X136525000Y-87376000D02*
X136525000Y-90043000D01*
X136525000Y-87376000D02*
X136525000Y-86233000D01*
X136525000Y-85725000D02*
X136906000Y-85344000D01*
X136525000Y-86233000D02*
X136525000Y-85725000D01*
X190500000Y-85979000D02*
X190500000Y-85471000D01*
X190500000Y-85471000D02*
X190881000Y-85090000D01*
X190500000Y-87122000D02*
X190500000Y-85979000D01*
X190500000Y-87122000D02*
X190500000Y-89789000D01*
X198120000Y-93345000D02*
X198167000Y-93345000D01*
X190500000Y-89789000D02*
X190500000Y-90805000D01*
X190500000Y-90805000D02*
X190754000Y-91059000D01*
X190119000Y-136144000D02*
X190373000Y-136398000D01*
X190119000Y-135128000D02*
X190119000Y-136144000D01*
X197739000Y-138684000D02*
X197786000Y-138684000D01*
X190119000Y-132461000D02*
X190119000Y-135128000D01*
X190119000Y-132461000D02*
X190119000Y-131318000D01*
X190119000Y-130810000D02*
X190500000Y-130429000D01*
X190119000Y-131318000D02*
X190119000Y-130810000D01*
X136144000Y-131572000D02*
X136144000Y-131064000D01*
X136144000Y-131064000D02*
X136525000Y-130683000D01*
X136144000Y-132715000D02*
X136144000Y-131572000D01*
X136144000Y-132715000D02*
X136144000Y-135382000D01*
X143764000Y-138938000D02*
X143811000Y-138938000D01*
X136144000Y-135382000D02*
X136144000Y-136398000D01*
X136144000Y-136398000D02*
X136398000Y-136652000D01*
X146692000Y-93599000D02*
X146692000Y-94100000D01*
X200667000Y-93345000D02*
X200667000Y-93846000D01*
X200286000Y-138684000D02*
X200286000Y-139185000D01*
X146311000Y-138938000D02*
X146311000Y-139439000D01*
X153162000Y-68961000D02*
X153162000Y-68580000D01*
X153162000Y-69215000D02*
X153162000Y-68961000D01*
X153162000Y-70866000D02*
X153162000Y-69215000D01*
X153543000Y-67437000D02*
X153590000Y-67437000D01*
X153590000Y-68152000D02*
X153590000Y-67437000D01*
X153162000Y-68580000D02*
X153590000Y-68152000D01*
X147193000Y-69215000D02*
X146558000Y-69850000D01*
X153162000Y-69215000D02*
X147193000Y-69215000D01*
X207137000Y-68961000D02*
X201168000Y-68961000D01*
X201168000Y-68961000D02*
X200533000Y-69596000D01*
X207137000Y-68326000D02*
X207565000Y-67898000D01*
X207565000Y-67898000D02*
X207565000Y-67183000D01*
X207518000Y-67183000D02*
X207565000Y-67183000D01*
X207137000Y-70612000D02*
X207137000Y-68961000D01*
X207137000Y-68961000D02*
X207137000Y-68707000D01*
X207137000Y-68707000D02*
X207137000Y-68326000D01*
X206756000Y-114046000D02*
X206756000Y-113665000D01*
X206756000Y-114300000D02*
X206756000Y-114046000D01*
X206756000Y-115951000D02*
X206756000Y-114300000D01*
X207137000Y-112522000D02*
X207184000Y-112522000D01*
X207184000Y-113237000D02*
X207184000Y-112522000D01*
X206756000Y-113665000D02*
X207184000Y-113237000D01*
X200787000Y-114300000D02*
X200152000Y-114935000D01*
X206756000Y-114300000D02*
X200787000Y-114300000D01*
X152781000Y-114554000D02*
X146812000Y-114554000D01*
X146812000Y-114554000D02*
X146177000Y-115189000D01*
X152781000Y-113919000D02*
X153209000Y-113491000D01*
X153209000Y-113491000D02*
X153209000Y-112776000D01*
X153162000Y-112776000D02*
X153209000Y-112776000D01*
X152781000Y-116205000D02*
X152781000Y-114554000D01*
X152781000Y-114554000D02*
X152781000Y-114300000D01*
X152781000Y-114300000D02*
X152781000Y-113919000D01*
X158590000Y-67437000D02*
X158623000Y-67437000D01*
X158590000Y-67437000D02*
X158590000Y-67531000D01*
X158590000Y-67531000D02*
X158590000Y-67437000D01*
X160020000Y-69342000D02*
X161417000Y-69342000D01*
X158590000Y-67912000D02*
X160020000Y-69342000D01*
X158590000Y-67437000D02*
X158590000Y-67912000D01*
X212565000Y-67183000D02*
X212565000Y-67658000D01*
X212565000Y-67658000D02*
X213995000Y-69088000D01*
X213995000Y-69088000D02*
X215392000Y-69088000D01*
X212565000Y-67277000D02*
X212565000Y-67183000D01*
X212565000Y-67183000D02*
X212565000Y-67277000D01*
X212565000Y-67183000D02*
X212598000Y-67183000D01*
X212184000Y-112522000D02*
X212217000Y-112522000D01*
X212184000Y-112522000D02*
X212184000Y-112616000D01*
X212184000Y-112616000D02*
X212184000Y-112522000D01*
X213614000Y-114427000D02*
X215011000Y-114427000D01*
X212184000Y-112997000D02*
X213614000Y-114427000D01*
X212184000Y-112522000D02*
X212184000Y-112997000D01*
X158209000Y-112776000D02*
X158209000Y-113251000D01*
X158209000Y-113251000D02*
X159639000Y-114681000D01*
X159639000Y-114681000D02*
X161036000Y-114681000D01*
X158209000Y-112870000D02*
X158209000Y-112776000D01*
X158209000Y-112776000D02*
X158209000Y-112870000D01*
X158209000Y-112776000D02*
X158242000Y-112776000D01*
D19*
X152019000Y-94996000D02*
X150622000Y-94996000D01*
X153416000Y-93599000D02*
X152019000Y-94996000D01*
X153543000Y-93599000D02*
X153416000Y-93599000D01*
X131953000Y-93599000D02*
X131953000Y-70231000D01*
X134493000Y-96139000D02*
X131953000Y-93599000D01*
X153670000Y-96139000D02*
X163703000Y-96139000D01*
X163703000Y-96139000D02*
X165989000Y-93853000D01*
X165989000Y-93853000D02*
X165989000Y-70866000D01*
X163703000Y-96139000D02*
X153670000Y-96139000D01*
X163957000Y-95885000D02*
X163703000Y-96139000D01*
X165989000Y-93853000D02*
X163957000Y-95885000D01*
X165989000Y-70866000D02*
X165989000Y-93853000D01*
X149479000Y-96139000D02*
X153670000Y-96139000D01*
X134493000Y-96139000D02*
X149479000Y-96139000D01*
X131953000Y-93599000D02*
X134493000Y-96139000D01*
X131953000Y-70231000D02*
X131953000Y-93599000D01*
X150622000Y-94996000D02*
X149479000Y-96139000D01*
X204597000Y-94742000D02*
X203454000Y-95885000D01*
X185928000Y-69977000D02*
X185928000Y-93345000D01*
X185928000Y-93345000D02*
X188468000Y-95885000D01*
X188468000Y-95885000D02*
X203454000Y-95885000D01*
X203454000Y-95885000D02*
X207645000Y-95885000D01*
X219964000Y-70612000D02*
X219964000Y-93599000D01*
X219964000Y-93599000D02*
X217932000Y-95631000D01*
X217932000Y-95631000D02*
X217678000Y-95885000D01*
X217678000Y-95885000D02*
X207645000Y-95885000D01*
X219964000Y-93599000D02*
X219964000Y-70612000D01*
X217678000Y-95885000D02*
X219964000Y-93599000D01*
X207645000Y-95885000D02*
X217678000Y-95885000D01*
X188468000Y-95885000D02*
X185928000Y-93345000D01*
X185928000Y-93345000D02*
X185928000Y-69977000D01*
X207518000Y-93345000D02*
X207391000Y-93345000D01*
X207391000Y-93345000D02*
X205994000Y-94742000D01*
X205994000Y-94742000D02*
X204597000Y-94742000D01*
X205613000Y-140081000D02*
X204216000Y-140081000D01*
X207010000Y-138684000D02*
X205613000Y-140081000D01*
X207137000Y-138684000D02*
X207010000Y-138684000D01*
X185547000Y-138684000D02*
X185547000Y-115316000D01*
X188087000Y-141224000D02*
X185547000Y-138684000D01*
X207264000Y-141224000D02*
X217297000Y-141224000D01*
X217297000Y-141224000D02*
X219583000Y-138938000D01*
X219583000Y-138938000D02*
X219583000Y-115951000D01*
X217297000Y-141224000D02*
X207264000Y-141224000D01*
X217551000Y-140970000D02*
X217297000Y-141224000D01*
X219583000Y-138938000D02*
X217551000Y-140970000D01*
X219583000Y-115951000D02*
X219583000Y-138938000D01*
X203073000Y-141224000D02*
X207264000Y-141224000D01*
X188087000Y-141224000D02*
X203073000Y-141224000D01*
X185547000Y-138684000D02*
X188087000Y-141224000D01*
X185547000Y-115316000D02*
X185547000Y-138684000D01*
X204216000Y-140081000D02*
X203073000Y-141224000D01*
X150241000Y-140335000D02*
X149098000Y-141478000D01*
X131572000Y-115570000D02*
X131572000Y-138938000D01*
X131572000Y-138938000D02*
X134112000Y-141478000D01*
X134112000Y-141478000D02*
X149098000Y-141478000D01*
X149098000Y-141478000D02*
X153289000Y-141478000D01*
X165608000Y-116205000D02*
X165608000Y-139192000D01*
X165608000Y-139192000D02*
X163576000Y-141224000D01*
X163576000Y-141224000D02*
X163322000Y-141478000D01*
X163322000Y-141478000D02*
X153289000Y-141478000D01*
X165608000Y-139192000D02*
X165608000Y-116205000D01*
X163322000Y-141478000D02*
X165608000Y-139192000D01*
X153289000Y-141478000D02*
X163322000Y-141478000D01*
X134112000Y-141478000D02*
X131572000Y-138938000D01*
X131572000Y-138938000D02*
X131572000Y-115570000D01*
X153162000Y-138938000D02*
X153035000Y-138938000D01*
X153035000Y-138938000D02*
X151638000Y-140335000D01*
X151638000Y-140335000D02*
X150241000Y-140335000D01*
D18*
X143510000Y-91440000D02*
X159385000Y-91440000D01*
X142240000Y-91313000D02*
X142367000Y-91440000D01*
X142367000Y-91440000D02*
X143510000Y-91440000D01*
X196342000Y-91186000D02*
X197485000Y-91186000D01*
X196215000Y-91059000D02*
X196342000Y-91186000D01*
X197485000Y-91186000D02*
X213360000Y-91186000D01*
X197104000Y-136525000D02*
X212979000Y-136525000D01*
X195834000Y-136398000D02*
X195961000Y-136525000D01*
X195961000Y-136525000D02*
X197104000Y-136525000D01*
X141986000Y-136779000D02*
X143129000Y-136779000D01*
X141859000Y-136652000D02*
X141986000Y-136779000D01*
X143129000Y-136779000D02*
X159004000Y-136779000D01*
X154813000Y-69215000D02*
X155956000Y-70358000D01*
X155956000Y-70358000D02*
X157734000Y-70358000D01*
X154813000Y-68961000D02*
X154813000Y-69215000D01*
X159512000Y-70358000D02*
X157734000Y-70358000D01*
X213487000Y-70104000D02*
X211709000Y-70104000D01*
X208788000Y-68707000D02*
X208788000Y-68961000D01*
X209931000Y-70104000D02*
X211709000Y-70104000D01*
X208788000Y-68961000D02*
X209931000Y-70104000D01*
X208407000Y-114300000D02*
X209550000Y-115443000D01*
X209550000Y-115443000D02*
X211328000Y-115443000D01*
X208407000Y-114046000D02*
X208407000Y-114300000D01*
X213106000Y-115443000D02*
X211328000Y-115443000D01*
X159131000Y-115697000D02*
X157353000Y-115697000D01*
X154432000Y-114300000D02*
X154432000Y-114554000D01*
X155575000Y-115697000D02*
X157353000Y-115697000D01*
X154432000Y-114554000D02*
X155575000Y-115697000D01*
X135890000Y-74676000D02*
X136334500Y-75120500D01*
X134493000Y-74676000D02*
X135890000Y-74676000D01*
X136334500Y-75120500D02*
X136906000Y-75692000D01*
X190309500Y-74866500D02*
X190881000Y-75438000D01*
X188468000Y-74422000D02*
X189865000Y-74422000D01*
X189865000Y-74422000D02*
X190309500Y-74866500D01*
X189484000Y-119761000D02*
X189928500Y-120205500D01*
X188087000Y-119761000D02*
X189484000Y-119761000D01*
X189928500Y-120205500D02*
X190500000Y-120777000D01*
X135953500Y-120459500D02*
X136525000Y-121031000D01*
X134112000Y-120015000D02*
X135509000Y-120015000D01*
X135509000Y-120015000D02*
X135953500Y-120459500D01*
X134493000Y-71882000D02*
X136842500Y-74231500D01*
X137668000Y-75057000D02*
X136842500Y-74231500D01*
X191643000Y-74803000D02*
X190817500Y-73977500D01*
X188468000Y-71628000D02*
X190817500Y-73977500D01*
X188087000Y-116967000D02*
X190436500Y-119316500D01*
X191262000Y-120142000D02*
X190436500Y-119316500D01*
X137287000Y-120396000D02*
X136461500Y-119570500D01*
X134112000Y-117221000D02*
X136461500Y-119570500D01*
D20*
G36*
X135590162Y-130496201D02*
X135590114Y-130551271D01*
X135441852Y-130773161D01*
X135384000Y-131064000D01*
X135384000Y-136398000D01*
X135441852Y-136688839D01*
X135462940Y-136720399D01*
X135462838Y-136837167D01*
X135604883Y-137180943D01*
X135867673Y-137444192D01*
X136211201Y-137586838D01*
X136464012Y-137587058D01*
X136622599Y-137824401D01*
X137238560Y-138440362D01*
X137238560Y-139863000D01*
X137282838Y-140098317D01*
X137421910Y-140314441D01*
X137634110Y-140459431D01*
X137646796Y-140462000D01*
X136069606Y-140462000D01*
X133858491Y-138250885D01*
X133880958Y-135835672D01*
X134301844Y-135808633D01*
X134601448Y-135684533D01*
X134647441Y-135462046D01*
X133985000Y-134799605D01*
X133970858Y-134813748D01*
X133891206Y-134734096D01*
X133892267Y-134620000D01*
X134164605Y-134620000D01*
X134827046Y-135282441D01*
X135049533Y-135236448D01*
X135204405Y-134782145D01*
X135173633Y-134303156D01*
X135049533Y-134003552D01*
X134827046Y-133957559D01*
X134164605Y-134620000D01*
X133892267Y-134620000D01*
X133893348Y-134503762D01*
X133970858Y-134426253D01*
X133985000Y-134440395D01*
X134647441Y-133777954D01*
X134601448Y-133555467D01*
X134147145Y-133400595D01*
X133903464Y-133416250D01*
X133904672Y-133286430D01*
X134223935Y-133286709D01*
X134667535Y-133103418D01*
X135007225Y-132764320D01*
X135191290Y-132321041D01*
X135191709Y-131841065D01*
X135008418Y-131397465D01*
X134745000Y-131133587D01*
X134745000Y-130248000D01*
X135693225Y-130248000D01*
X135590162Y-130496201D01*
X135590162Y-130496201D01*
G37*
X135590162Y-130496201D02*
X135590114Y-130551271D01*
X135441852Y-130773161D01*
X135384000Y-131064000D01*
X135384000Y-136398000D01*
X135441852Y-136688839D01*
X135462940Y-136720399D01*
X135462838Y-136837167D01*
X135604883Y-137180943D01*
X135867673Y-137444192D01*
X136211201Y-137586838D01*
X136464012Y-137587058D01*
X136622599Y-137824401D01*
X137238560Y-138440362D01*
X137238560Y-139863000D01*
X137282838Y-140098317D01*
X137421910Y-140314441D01*
X137634110Y-140459431D01*
X137646796Y-140462000D01*
X136069606Y-140462000D01*
X133858491Y-138250885D01*
X133880958Y-135835672D01*
X134301844Y-135808633D01*
X134601448Y-135684533D01*
X134647441Y-135462046D01*
X133985000Y-134799605D01*
X133970858Y-134813748D01*
X133891206Y-134734096D01*
X133892267Y-134620000D01*
X134164605Y-134620000D01*
X134827046Y-135282441D01*
X135049533Y-135236448D01*
X135204405Y-134782145D01*
X135173633Y-134303156D01*
X135049533Y-134003552D01*
X134827046Y-133957559D01*
X134164605Y-134620000D01*
X133892267Y-134620000D01*
X133893348Y-134503762D01*
X133970858Y-134426253D01*
X133985000Y-134440395D01*
X134647441Y-133777954D01*
X134601448Y-133555467D01*
X134147145Y-133400595D01*
X133903464Y-133416250D01*
X133904672Y-133286430D01*
X134223935Y-133286709D01*
X134667535Y-133103418D01*
X135007225Y-132764320D01*
X135191290Y-132321041D01*
X135191709Y-131841065D01*
X135008418Y-131397465D01*
X134745000Y-131133587D01*
X134745000Y-130248000D01*
X135693225Y-130248000D01*
X135590162Y-130496201D01*
G36*
X142928486Y-137614725D02*
X142493879Y-138048574D01*
X142409256Y-138019349D01*
X141490605Y-138938000D01*
X142409256Y-139856651D01*
X142494434Y-139827235D01*
X142926177Y-140259732D01*
X143413293Y-140462000D01*
X141737808Y-140462000D01*
X142140179Y-140295332D01*
X142229651Y-140036256D01*
X141311000Y-139117605D01*
X141296858Y-139131748D01*
X141117253Y-138952143D01*
X141131395Y-138938000D01*
X141117253Y-138923858D01*
X141296858Y-138744253D01*
X141311000Y-138758395D01*
X142229651Y-137839744D01*
X142140179Y-137580668D01*
X142097673Y-137565054D01*
X142160728Y-137539000D01*
X143111755Y-137539000D01*
X142928486Y-137614725D01*
X142928486Y-137614725D01*
G37*
X142928486Y-137614725D02*
X142493879Y-138048574D01*
X142409256Y-138019349D01*
X141490605Y-138938000D01*
X142409256Y-139856651D01*
X142494434Y-139827235D01*
X142926177Y-140259732D01*
X143413293Y-140462000D01*
X141737808Y-140462000D01*
X142140179Y-140295332D01*
X142229651Y-140036256D01*
X141311000Y-139117605D01*
X141296858Y-139131748D01*
X141117253Y-138952143D01*
X141131395Y-138938000D01*
X141117253Y-138923858D01*
X141296858Y-138744253D01*
X141311000Y-138758395D01*
X142229651Y-137839744D01*
X142140179Y-137580668D01*
X142097673Y-137565054D01*
X142160728Y-137539000D01*
X143111755Y-137539000D01*
X142928486Y-137614725D01*
G36*
X158434000Y-138947394D02*
X156919394Y-140462000D01*
X156088808Y-140462000D01*
X156491179Y-140295332D01*
X156580651Y-140036256D01*
X155662000Y-139117605D01*
X155647858Y-139131748D01*
X155468253Y-138952143D01*
X155482395Y-138938000D01*
X155841605Y-138938000D01*
X156760256Y-139856651D01*
X157019332Y-139767179D01*
X157233325Y-139184632D01*
X157208097Y-138564539D01*
X157019332Y-138108821D01*
X156760256Y-138019349D01*
X155841605Y-138938000D01*
X155482395Y-138938000D01*
X155468253Y-138923858D01*
X155647858Y-138744253D01*
X155662000Y-138758395D01*
X156580651Y-137839744D01*
X156491179Y-137580668D01*
X156377747Y-137539000D01*
X158434000Y-137539000D01*
X158434000Y-138947394D01*
X158434000Y-138947394D01*
G37*
X158434000Y-138947394D02*
X156919394Y-140462000D01*
X156088808Y-140462000D01*
X156491179Y-140295332D01*
X156580651Y-140036256D01*
X155662000Y-139117605D01*
X155647858Y-139131748D01*
X155468253Y-138952143D01*
X155482395Y-138938000D01*
X155841605Y-138938000D01*
X156760256Y-139856651D01*
X157019332Y-139767179D01*
X157233325Y-139184632D01*
X157208097Y-138564539D01*
X157019332Y-138108821D01*
X156760256Y-138019349D01*
X155841605Y-138938000D01*
X155482395Y-138938000D01*
X155468253Y-138923858D01*
X155647858Y-138744253D01*
X155662000Y-138758395D01*
X156580651Y-137839744D01*
X156491179Y-137580668D01*
X156377747Y-137539000D01*
X158434000Y-137539000D01*
X158434000Y-138947394D01*
G36*
X163322000Y-133667858D02*
X158434000Y-133667858D01*
X158434000Y-136019000D01*
X142548241Y-136019000D01*
X142389327Y-135859808D01*
X142045799Y-135717162D01*
X141673833Y-135716838D01*
X141330057Y-135858883D01*
X141066808Y-136121673D01*
X140924162Y-136465201D01*
X140923838Y-136837167D01*
X141065883Y-137180943D01*
X141263247Y-137378652D01*
X140937539Y-137391903D01*
X140481821Y-137580668D01*
X140392350Y-137839742D01*
X140341218Y-137788610D01*
X140339162Y-137777683D01*
X140200090Y-137561559D01*
X139987890Y-137416569D01*
X139736000Y-137365560D01*
X138313362Y-137365560D01*
X137920000Y-136972198D01*
X137920000Y-132388463D01*
X137952192Y-132356327D01*
X138094838Y-132012799D01*
X138095162Y-131640833D01*
X137953117Y-131297057D01*
X137690327Y-131033808D01*
X137435648Y-130928055D01*
X137459838Y-130869799D01*
X137460162Y-130497833D01*
X137381438Y-130307306D01*
X137918465Y-130844333D01*
X138017883Y-131084943D01*
X138280673Y-131348192D01*
X138624201Y-131490838D01*
X138996167Y-131491162D01*
X139339943Y-131349117D01*
X139603192Y-131086327D01*
X139745838Y-130742799D01*
X139746162Y-130370833D01*
X139604117Y-130027057D01*
X139341327Y-129763808D01*
X139099090Y-129663222D01*
X138258434Y-128822566D01*
X137987541Y-128641561D01*
X137668000Y-128578000D01*
X137079234Y-128578000D01*
X136838799Y-128478162D01*
X136466833Y-128477838D01*
X136224422Y-128578000D01*
X134745000Y-128578000D01*
X134745000Y-128259440D01*
X135180000Y-128259440D01*
X135415317Y-128215162D01*
X135631441Y-128076090D01*
X135776431Y-127863890D01*
X135827440Y-127612000D01*
X135827440Y-126142750D01*
X161365000Y-126142750D01*
X161365000Y-127738310D01*
X161461673Y-127971699D01*
X161640302Y-128150327D01*
X161873691Y-128247000D01*
X162984250Y-128247000D01*
X163143000Y-128088250D01*
X163143000Y-125984000D01*
X161523750Y-125984000D01*
X161365000Y-126142750D01*
X135827440Y-126142750D01*
X135827440Y-124102000D01*
X135803674Y-123975690D01*
X161365000Y-123975690D01*
X161365000Y-125571250D01*
X161523750Y-125730000D01*
X163143000Y-125730000D01*
X163143000Y-123625750D01*
X162984250Y-123467000D01*
X161873691Y-123467000D01*
X161640302Y-123563673D01*
X161461673Y-123742301D01*
X161365000Y-123975690D01*
X135803674Y-123975690D01*
X135783162Y-123866683D01*
X135644090Y-123650559D01*
X135431890Y-123505569D01*
X135180000Y-123454560D01*
X134745000Y-123454560D01*
X134745000Y-123369000D01*
X134681439Y-123049459D01*
X134500434Y-122778566D01*
X134007010Y-122285142D01*
X134018086Y-121094418D01*
X134350935Y-121094709D01*
X134794535Y-120911418D01*
X134931191Y-120775000D01*
X135194198Y-120775000D01*
X135589878Y-121170680D01*
X135589838Y-121216167D01*
X135731883Y-121559943D01*
X135994673Y-121823192D01*
X136338201Y-121965838D01*
X136710167Y-121966162D01*
X137053943Y-121824117D01*
X137317192Y-121561327D01*
X137412787Y-121331110D01*
X137472167Y-121331162D01*
X137815943Y-121189117D01*
X138079192Y-120926327D01*
X138221838Y-120582799D01*
X138222162Y-120210833D01*
X138080117Y-119867057D01*
X137817327Y-119603808D01*
X137473799Y-119461162D01*
X137426923Y-119461121D01*
X135318496Y-117352694D01*
X135318709Y-117109065D01*
X135135418Y-116665465D01*
X134796320Y-116325775D01*
X134353041Y-116141710D01*
X134064160Y-116141458D01*
X134071297Y-115374167D01*
X145241838Y-115374167D01*
X145383883Y-115717943D01*
X145646673Y-115981192D01*
X145990201Y-116123838D01*
X146362167Y-116124162D01*
X146705943Y-115982117D01*
X146969192Y-115719327D01*
X147111838Y-115375799D01*
X147111879Y-115328923D01*
X147126802Y-115314000D01*
X152021000Y-115314000D01*
X152021000Y-115642537D01*
X151988808Y-115674673D01*
X151846162Y-116018201D01*
X151845838Y-116390167D01*
X151987883Y-116733943D01*
X152250673Y-116997192D01*
X152594201Y-117139838D01*
X152966167Y-117140162D01*
X153309943Y-116998117D01*
X153573192Y-116735327D01*
X153715838Y-116391799D01*
X153716162Y-116019833D01*
X153574117Y-115676057D01*
X153541000Y-115642882D01*
X153541000Y-114592047D01*
X153638883Y-114828943D01*
X153881878Y-115072362D01*
X153894599Y-115091401D01*
X155037599Y-116234401D01*
X155284161Y-116399148D01*
X155575000Y-116457000D01*
X158568537Y-116457000D01*
X158600673Y-116489192D01*
X158944201Y-116631838D01*
X159316167Y-116632162D01*
X159659943Y-116490117D01*
X159923192Y-116227327D01*
X160065838Y-115883799D01*
X160066162Y-115511833D01*
X160036894Y-115441000D01*
X160473537Y-115441000D01*
X160505673Y-115473192D01*
X160849201Y-115615838D01*
X161221167Y-115616162D01*
X161564943Y-115474117D01*
X161828192Y-115211327D01*
X161970838Y-114867799D01*
X161971162Y-114495833D01*
X161829117Y-114152057D01*
X161684132Y-114006819D01*
X162030732Y-113660823D01*
X162268728Y-113087664D01*
X162269270Y-112467058D01*
X162032275Y-111893486D01*
X161593823Y-111454268D01*
X161020664Y-111216272D01*
X160400058Y-111215730D01*
X159826486Y-111452725D01*
X159458744Y-111819826D01*
X159093823Y-111454268D01*
X158520664Y-111216272D01*
X157900058Y-111215730D01*
X157326486Y-111452725D01*
X156958744Y-111819826D01*
X156593823Y-111454268D01*
X156020664Y-111216272D01*
X155400058Y-111215730D01*
X154826486Y-111452725D01*
X154458744Y-111819826D01*
X154093823Y-111454268D01*
X153520664Y-111216272D01*
X152900058Y-111215730D01*
X152326486Y-111452725D01*
X151891879Y-111886574D01*
X151807256Y-111857349D01*
X150888605Y-112776000D01*
X150902748Y-112790143D01*
X150723143Y-112969748D01*
X150709000Y-112955605D01*
X150694858Y-112969748D01*
X150515253Y-112790143D01*
X150529395Y-112776000D01*
X150515253Y-112761858D01*
X150694858Y-112582253D01*
X150709000Y-112596395D01*
X151627651Y-111677744D01*
X151538179Y-111418668D01*
X150955632Y-111204675D01*
X150335539Y-111229903D01*
X149879821Y-111418668D01*
X149790350Y-111677742D01*
X149739218Y-111626610D01*
X149737162Y-111615683D01*
X149598090Y-111399559D01*
X149385890Y-111254569D01*
X149134000Y-111203560D01*
X147284000Y-111203560D01*
X147048683Y-111247838D01*
X146832559Y-111386910D01*
X146687569Y-111599110D01*
X146636560Y-111851000D01*
X146636560Y-113701000D01*
X146659757Y-113824283D01*
X146521161Y-113851852D01*
X146274599Y-114016599D01*
X146037320Y-114253878D01*
X145991833Y-114253838D01*
X145648057Y-114395883D01*
X145384808Y-114658673D01*
X145242162Y-115002201D01*
X145241838Y-115374167D01*
X134071297Y-115374167D01*
X134073491Y-115138377D01*
X135183239Y-114028629D01*
X135262910Y-114152441D01*
X135475110Y-114297431D01*
X135727000Y-114348440D01*
X137577000Y-114348440D01*
X137812317Y-114304162D01*
X138028441Y-114165090D01*
X138173431Y-113952890D01*
X138178183Y-113929425D01*
X138233350Y-113874258D01*
X138322821Y-114133332D01*
X138905368Y-114347325D01*
X139525461Y-114322097D01*
X139981179Y-114133332D01*
X140070651Y-113874256D01*
X139152000Y-112955605D01*
X139137858Y-112969748D01*
X138958253Y-112790143D01*
X138972395Y-112776000D01*
X139331605Y-112776000D01*
X140250256Y-113694651D01*
X140335434Y-113665235D01*
X140767177Y-114097732D01*
X141340336Y-114335728D01*
X141960942Y-114336270D01*
X142534514Y-114099275D01*
X142973732Y-113660823D01*
X143211728Y-113087664D01*
X143212270Y-112467058D01*
X142975275Y-111893486D01*
X142536823Y-111454268D01*
X141963664Y-111216272D01*
X141343058Y-111215730D01*
X140769486Y-111452725D01*
X140334879Y-111886574D01*
X140250256Y-111857349D01*
X139331605Y-112776000D01*
X138972395Y-112776000D01*
X138958253Y-112761858D01*
X139137858Y-112582253D01*
X139152000Y-112596395D01*
X140070651Y-111677744D01*
X139981179Y-111418668D01*
X139398632Y-111204675D01*
X138778539Y-111229903D01*
X138322821Y-111418668D01*
X138233350Y-111677742D01*
X138182218Y-111626610D01*
X138180162Y-111615683D01*
X138041090Y-111399559D01*
X137828890Y-111254569D01*
X137577000Y-111203560D01*
X135727000Y-111203560D01*
X135491683Y-111247838D01*
X135275559Y-111386910D01*
X135130569Y-111599110D01*
X135079560Y-111851000D01*
X135079560Y-111975897D01*
X134935460Y-112004560D01*
X134664566Y-112185566D01*
X134095667Y-112754465D01*
X134110825Y-111125000D01*
X163322000Y-111125000D01*
X163322000Y-133667858D01*
X163322000Y-133667858D01*
G37*
X163322000Y-133667858D02*
X158434000Y-133667858D01*
X158434000Y-136019000D01*
X142548241Y-136019000D01*
X142389327Y-135859808D01*
X142045799Y-135717162D01*
X141673833Y-135716838D01*
X141330057Y-135858883D01*
X141066808Y-136121673D01*
X140924162Y-136465201D01*
X140923838Y-136837167D01*
X141065883Y-137180943D01*
X141263247Y-137378652D01*
X140937539Y-137391903D01*
X140481821Y-137580668D01*
X140392350Y-137839742D01*
X140341218Y-137788610D01*
X140339162Y-137777683D01*
X140200090Y-137561559D01*
X139987890Y-137416569D01*
X139736000Y-137365560D01*
X138313362Y-137365560D01*
X137920000Y-136972198D01*
X137920000Y-132388463D01*
X137952192Y-132356327D01*
X138094838Y-132012799D01*
X138095162Y-131640833D01*
X137953117Y-131297057D01*
X137690327Y-131033808D01*
X137435648Y-130928055D01*
X137459838Y-130869799D01*
X137460162Y-130497833D01*
X137381438Y-130307306D01*
X137918465Y-130844333D01*
X138017883Y-131084943D01*
X138280673Y-131348192D01*
X138624201Y-131490838D01*
X138996167Y-131491162D01*
X139339943Y-131349117D01*
X139603192Y-131086327D01*
X139745838Y-130742799D01*
X139746162Y-130370833D01*
X139604117Y-130027057D01*
X139341327Y-129763808D01*
X139099090Y-129663222D01*
X138258434Y-128822566D01*
X137987541Y-128641561D01*
X137668000Y-128578000D01*
X137079234Y-128578000D01*
X136838799Y-128478162D01*
X136466833Y-128477838D01*
X136224422Y-128578000D01*
X134745000Y-128578000D01*
X134745000Y-128259440D01*
X135180000Y-128259440D01*
X135415317Y-128215162D01*
X135631441Y-128076090D01*
X135776431Y-127863890D01*
X135827440Y-127612000D01*
X135827440Y-126142750D01*
X161365000Y-126142750D01*
X161365000Y-127738310D01*
X161461673Y-127971699D01*
X161640302Y-128150327D01*
X161873691Y-128247000D01*
X162984250Y-128247000D01*
X163143000Y-128088250D01*
X163143000Y-125984000D01*
X161523750Y-125984000D01*
X161365000Y-126142750D01*
X135827440Y-126142750D01*
X135827440Y-124102000D01*
X135803674Y-123975690D01*
X161365000Y-123975690D01*
X161365000Y-125571250D01*
X161523750Y-125730000D01*
X163143000Y-125730000D01*
X163143000Y-123625750D01*
X162984250Y-123467000D01*
X161873691Y-123467000D01*
X161640302Y-123563673D01*
X161461673Y-123742301D01*
X161365000Y-123975690D01*
X135803674Y-123975690D01*
X135783162Y-123866683D01*
X135644090Y-123650559D01*
X135431890Y-123505569D01*
X135180000Y-123454560D01*
X134745000Y-123454560D01*
X134745000Y-123369000D01*
X134681439Y-123049459D01*
X134500434Y-122778566D01*
X134007010Y-122285142D01*
X134018086Y-121094418D01*
X134350935Y-121094709D01*
X134794535Y-120911418D01*
X134931191Y-120775000D01*
X135194198Y-120775000D01*
X135589878Y-121170680D01*
X135589838Y-121216167D01*
X135731883Y-121559943D01*
X135994673Y-121823192D01*
X136338201Y-121965838D01*
X136710167Y-121966162D01*
X137053943Y-121824117D01*
X137317192Y-121561327D01*
X137412787Y-121331110D01*
X137472167Y-121331162D01*
X137815943Y-121189117D01*
X138079192Y-120926327D01*
X138221838Y-120582799D01*
X138222162Y-120210833D01*
X138080117Y-119867057D01*
X137817327Y-119603808D01*
X137473799Y-119461162D01*
X137426923Y-119461121D01*
X135318496Y-117352694D01*
X135318709Y-117109065D01*
X135135418Y-116665465D01*
X134796320Y-116325775D01*
X134353041Y-116141710D01*
X134064160Y-116141458D01*
X134071297Y-115374167D01*
X145241838Y-115374167D01*
X145383883Y-115717943D01*
X145646673Y-115981192D01*
X145990201Y-116123838D01*
X146362167Y-116124162D01*
X146705943Y-115982117D01*
X146969192Y-115719327D01*
X147111838Y-115375799D01*
X147111879Y-115328923D01*
X147126802Y-115314000D01*
X152021000Y-115314000D01*
X152021000Y-115642537D01*
X151988808Y-115674673D01*
X151846162Y-116018201D01*
X151845838Y-116390167D01*
X151987883Y-116733943D01*
X152250673Y-116997192D01*
X152594201Y-117139838D01*
X152966167Y-117140162D01*
X153309943Y-116998117D01*
X153573192Y-116735327D01*
X153715838Y-116391799D01*
X153716162Y-116019833D01*
X153574117Y-115676057D01*
X153541000Y-115642882D01*
X153541000Y-114592047D01*
X153638883Y-114828943D01*
X153881878Y-115072362D01*
X153894599Y-115091401D01*
X155037599Y-116234401D01*
X155284161Y-116399148D01*
X155575000Y-116457000D01*
X158568537Y-116457000D01*
X158600673Y-116489192D01*
X158944201Y-116631838D01*
X159316167Y-116632162D01*
X159659943Y-116490117D01*
X159923192Y-116227327D01*
X160065838Y-115883799D01*
X160066162Y-115511833D01*
X160036894Y-115441000D01*
X160473537Y-115441000D01*
X160505673Y-115473192D01*
X160849201Y-115615838D01*
X161221167Y-115616162D01*
X161564943Y-115474117D01*
X161828192Y-115211327D01*
X161970838Y-114867799D01*
X161971162Y-114495833D01*
X161829117Y-114152057D01*
X161684132Y-114006819D01*
X162030732Y-113660823D01*
X162268728Y-113087664D01*
X162269270Y-112467058D01*
X162032275Y-111893486D01*
X161593823Y-111454268D01*
X161020664Y-111216272D01*
X160400058Y-111215730D01*
X159826486Y-111452725D01*
X159458744Y-111819826D01*
X159093823Y-111454268D01*
X158520664Y-111216272D01*
X157900058Y-111215730D01*
X157326486Y-111452725D01*
X156958744Y-111819826D01*
X156593823Y-111454268D01*
X156020664Y-111216272D01*
X155400058Y-111215730D01*
X154826486Y-111452725D01*
X154458744Y-111819826D01*
X154093823Y-111454268D01*
X153520664Y-111216272D01*
X152900058Y-111215730D01*
X152326486Y-111452725D01*
X151891879Y-111886574D01*
X151807256Y-111857349D01*
X150888605Y-112776000D01*
X150902748Y-112790143D01*
X150723143Y-112969748D01*
X150709000Y-112955605D01*
X150694858Y-112969748D01*
X150515253Y-112790143D01*
X150529395Y-112776000D01*
X150515253Y-112761858D01*
X150694858Y-112582253D01*
X150709000Y-112596395D01*
X151627651Y-111677744D01*
X151538179Y-111418668D01*
X150955632Y-111204675D01*
X150335539Y-111229903D01*
X149879821Y-111418668D01*
X149790350Y-111677742D01*
X149739218Y-111626610D01*
X149737162Y-111615683D01*
X149598090Y-111399559D01*
X149385890Y-111254569D01*
X149134000Y-111203560D01*
X147284000Y-111203560D01*
X147048683Y-111247838D01*
X146832559Y-111386910D01*
X146687569Y-111599110D01*
X146636560Y-111851000D01*
X146636560Y-113701000D01*
X146659757Y-113824283D01*
X146521161Y-113851852D01*
X146274599Y-114016599D01*
X146037320Y-114253878D01*
X145991833Y-114253838D01*
X145648057Y-114395883D01*
X145384808Y-114658673D01*
X145242162Y-115002201D01*
X145241838Y-115374167D01*
X134071297Y-115374167D01*
X134073491Y-115138377D01*
X135183239Y-114028629D01*
X135262910Y-114152441D01*
X135475110Y-114297431D01*
X135727000Y-114348440D01*
X137577000Y-114348440D01*
X137812317Y-114304162D01*
X138028441Y-114165090D01*
X138173431Y-113952890D01*
X138178183Y-113929425D01*
X138233350Y-113874258D01*
X138322821Y-114133332D01*
X138905368Y-114347325D01*
X139525461Y-114322097D01*
X139981179Y-114133332D01*
X140070651Y-113874256D01*
X139152000Y-112955605D01*
X139137858Y-112969748D01*
X138958253Y-112790143D01*
X138972395Y-112776000D01*
X139331605Y-112776000D01*
X140250256Y-113694651D01*
X140335434Y-113665235D01*
X140767177Y-114097732D01*
X141340336Y-114335728D01*
X141960942Y-114336270D01*
X142534514Y-114099275D01*
X142973732Y-113660823D01*
X143211728Y-113087664D01*
X143212270Y-112467058D01*
X142975275Y-111893486D01*
X142536823Y-111454268D01*
X141963664Y-111216272D01*
X141343058Y-111215730D01*
X140769486Y-111452725D01*
X140334879Y-111886574D01*
X140250256Y-111857349D01*
X139331605Y-112776000D01*
X138972395Y-112776000D01*
X138958253Y-112761858D01*
X139137858Y-112582253D01*
X139152000Y-112596395D01*
X140070651Y-111677744D01*
X139981179Y-111418668D01*
X139398632Y-111204675D01*
X138778539Y-111229903D01*
X138322821Y-111418668D01*
X138233350Y-111677742D01*
X138182218Y-111626610D01*
X138180162Y-111615683D01*
X138041090Y-111399559D01*
X137828890Y-111254569D01*
X137577000Y-111203560D01*
X135727000Y-111203560D01*
X135491683Y-111247838D01*
X135275559Y-111386910D01*
X135130569Y-111599110D01*
X135079560Y-111851000D01*
X135079560Y-111975897D01*
X134935460Y-112004560D01*
X134664566Y-112185566D01*
X134095667Y-112754465D01*
X134110825Y-111125000D01*
X163322000Y-111125000D01*
X163322000Y-133667858D01*
G36*
X189565162Y-130242201D02*
X189565114Y-130297271D01*
X189416852Y-130519161D01*
X189359000Y-130810000D01*
X189359000Y-136144000D01*
X189416852Y-136434839D01*
X189437940Y-136466399D01*
X189437838Y-136583167D01*
X189579883Y-136926943D01*
X189842673Y-137190192D01*
X190186201Y-137332838D01*
X190439012Y-137333058D01*
X190597599Y-137570401D01*
X191213560Y-138186362D01*
X191213560Y-139609000D01*
X191257838Y-139844317D01*
X191396910Y-140060441D01*
X191609110Y-140205431D01*
X191621796Y-140208000D01*
X190044606Y-140208000D01*
X187833491Y-137996885D01*
X187855958Y-135581672D01*
X188276844Y-135554633D01*
X188576448Y-135430533D01*
X188622441Y-135208046D01*
X187960000Y-134545605D01*
X187945858Y-134559748D01*
X187866206Y-134480096D01*
X187867267Y-134366000D01*
X188139605Y-134366000D01*
X188802046Y-135028441D01*
X189024533Y-134982448D01*
X189179405Y-134528145D01*
X189148633Y-134049156D01*
X189024533Y-133749552D01*
X188802046Y-133703559D01*
X188139605Y-134366000D01*
X187867267Y-134366000D01*
X187868348Y-134249762D01*
X187945858Y-134172253D01*
X187960000Y-134186395D01*
X188622441Y-133523954D01*
X188576448Y-133301467D01*
X188122145Y-133146595D01*
X187878464Y-133162250D01*
X187879672Y-133032430D01*
X188198935Y-133032709D01*
X188642535Y-132849418D01*
X188982225Y-132510320D01*
X189166290Y-132067041D01*
X189166709Y-131587065D01*
X188983418Y-131143465D01*
X188720000Y-130879587D01*
X188720000Y-129994000D01*
X189668225Y-129994000D01*
X189565162Y-130242201D01*
X189565162Y-130242201D01*
G37*
X189565162Y-130242201D02*
X189565114Y-130297271D01*
X189416852Y-130519161D01*
X189359000Y-130810000D01*
X189359000Y-136144000D01*
X189416852Y-136434839D01*
X189437940Y-136466399D01*
X189437838Y-136583167D01*
X189579883Y-136926943D01*
X189842673Y-137190192D01*
X190186201Y-137332838D01*
X190439012Y-137333058D01*
X190597599Y-137570401D01*
X191213560Y-138186362D01*
X191213560Y-139609000D01*
X191257838Y-139844317D01*
X191396910Y-140060441D01*
X191609110Y-140205431D01*
X191621796Y-140208000D01*
X190044606Y-140208000D01*
X187833491Y-137996885D01*
X187855958Y-135581672D01*
X188276844Y-135554633D01*
X188576448Y-135430533D01*
X188622441Y-135208046D01*
X187960000Y-134545605D01*
X187945858Y-134559748D01*
X187866206Y-134480096D01*
X187867267Y-134366000D01*
X188139605Y-134366000D01*
X188802046Y-135028441D01*
X189024533Y-134982448D01*
X189179405Y-134528145D01*
X189148633Y-134049156D01*
X189024533Y-133749552D01*
X188802046Y-133703559D01*
X188139605Y-134366000D01*
X187867267Y-134366000D01*
X187868348Y-134249762D01*
X187945858Y-134172253D01*
X187960000Y-134186395D01*
X188622441Y-133523954D01*
X188576448Y-133301467D01*
X188122145Y-133146595D01*
X187878464Y-133162250D01*
X187879672Y-133032430D01*
X188198935Y-133032709D01*
X188642535Y-132849418D01*
X188982225Y-132510320D01*
X189166290Y-132067041D01*
X189166709Y-131587065D01*
X188983418Y-131143465D01*
X188720000Y-130879587D01*
X188720000Y-129994000D01*
X189668225Y-129994000D01*
X189565162Y-130242201D01*
G36*
X196903486Y-137360725D02*
X196468879Y-137794574D01*
X196384256Y-137765349D01*
X195465605Y-138684000D01*
X196384256Y-139602651D01*
X196469434Y-139573235D01*
X196901177Y-140005732D01*
X197388293Y-140208000D01*
X195712808Y-140208000D01*
X196115179Y-140041332D01*
X196204651Y-139782256D01*
X195286000Y-138863605D01*
X195271858Y-138877748D01*
X195092253Y-138698143D01*
X195106395Y-138684000D01*
X195092253Y-138669858D01*
X195271858Y-138490253D01*
X195286000Y-138504395D01*
X196204651Y-137585744D01*
X196115179Y-137326668D01*
X196072673Y-137311054D01*
X196135728Y-137285000D01*
X197086755Y-137285000D01*
X196903486Y-137360725D01*
X196903486Y-137360725D01*
G37*
X196903486Y-137360725D02*
X196468879Y-137794574D01*
X196384256Y-137765349D01*
X195465605Y-138684000D01*
X196384256Y-139602651D01*
X196469434Y-139573235D01*
X196901177Y-140005732D01*
X197388293Y-140208000D01*
X195712808Y-140208000D01*
X196115179Y-140041332D01*
X196204651Y-139782256D01*
X195286000Y-138863605D01*
X195271858Y-138877748D01*
X195092253Y-138698143D01*
X195106395Y-138684000D01*
X195092253Y-138669858D01*
X195271858Y-138490253D01*
X195286000Y-138504395D01*
X196204651Y-137585744D01*
X196115179Y-137326668D01*
X196072673Y-137311054D01*
X196135728Y-137285000D01*
X197086755Y-137285000D01*
X196903486Y-137360725D01*
G36*
X212409000Y-138693394D02*
X210894394Y-140208000D01*
X210063808Y-140208000D01*
X210466179Y-140041332D01*
X210555651Y-139782256D01*
X209637000Y-138863605D01*
X209622858Y-138877748D01*
X209443253Y-138698143D01*
X209457395Y-138684000D01*
X209816605Y-138684000D01*
X210735256Y-139602651D01*
X210994332Y-139513179D01*
X211208325Y-138930632D01*
X211183097Y-138310539D01*
X210994332Y-137854821D01*
X210735256Y-137765349D01*
X209816605Y-138684000D01*
X209457395Y-138684000D01*
X209443253Y-138669858D01*
X209622858Y-138490253D01*
X209637000Y-138504395D01*
X210555651Y-137585744D01*
X210466179Y-137326668D01*
X210352747Y-137285000D01*
X212409000Y-137285000D01*
X212409000Y-138693394D01*
X212409000Y-138693394D01*
G37*
X212409000Y-138693394D02*
X210894394Y-140208000D01*
X210063808Y-140208000D01*
X210466179Y-140041332D01*
X210555651Y-139782256D01*
X209637000Y-138863605D01*
X209622858Y-138877748D01*
X209443253Y-138698143D01*
X209457395Y-138684000D01*
X209816605Y-138684000D01*
X210735256Y-139602651D01*
X210994332Y-139513179D01*
X211208325Y-138930632D01*
X211183097Y-138310539D01*
X210994332Y-137854821D01*
X210735256Y-137765349D01*
X209816605Y-138684000D01*
X209457395Y-138684000D01*
X209443253Y-138669858D01*
X209622858Y-138490253D01*
X209637000Y-138504395D01*
X210555651Y-137585744D01*
X210466179Y-137326668D01*
X210352747Y-137285000D01*
X212409000Y-137285000D01*
X212409000Y-138693394D01*
G36*
X217297000Y-133413858D02*
X212409000Y-133413858D01*
X212409000Y-135765000D01*
X196523241Y-135765000D01*
X196364327Y-135605808D01*
X196020799Y-135463162D01*
X195648833Y-135462838D01*
X195305057Y-135604883D01*
X195041808Y-135867673D01*
X194899162Y-136211201D01*
X194898838Y-136583167D01*
X195040883Y-136926943D01*
X195238247Y-137124652D01*
X194912539Y-137137903D01*
X194456821Y-137326668D01*
X194367350Y-137585742D01*
X194316218Y-137534610D01*
X194314162Y-137523683D01*
X194175090Y-137307559D01*
X193962890Y-137162569D01*
X193711000Y-137111560D01*
X192288362Y-137111560D01*
X191895000Y-136718198D01*
X191895000Y-132134463D01*
X191927192Y-132102327D01*
X192069838Y-131758799D01*
X192070162Y-131386833D01*
X191928117Y-131043057D01*
X191665327Y-130779808D01*
X191410648Y-130674055D01*
X191434838Y-130615799D01*
X191435162Y-130243833D01*
X191356438Y-130053306D01*
X191893465Y-130590333D01*
X191992883Y-130830943D01*
X192255673Y-131094192D01*
X192599201Y-131236838D01*
X192971167Y-131237162D01*
X193314943Y-131095117D01*
X193578192Y-130832327D01*
X193720838Y-130488799D01*
X193721162Y-130116833D01*
X193579117Y-129773057D01*
X193316327Y-129509808D01*
X193074090Y-129409222D01*
X192233434Y-128568566D01*
X191962541Y-128387561D01*
X191643000Y-128324000D01*
X191054234Y-128324000D01*
X190813799Y-128224162D01*
X190441833Y-128223838D01*
X190199422Y-128324000D01*
X188720000Y-128324000D01*
X188720000Y-128005440D01*
X189155000Y-128005440D01*
X189390317Y-127961162D01*
X189606441Y-127822090D01*
X189751431Y-127609890D01*
X189802440Y-127358000D01*
X189802440Y-125888750D01*
X215340000Y-125888750D01*
X215340000Y-127484310D01*
X215436673Y-127717699D01*
X215615302Y-127896327D01*
X215848691Y-127993000D01*
X216959250Y-127993000D01*
X217118000Y-127834250D01*
X217118000Y-125730000D01*
X215498750Y-125730000D01*
X215340000Y-125888750D01*
X189802440Y-125888750D01*
X189802440Y-123848000D01*
X189778674Y-123721690D01*
X215340000Y-123721690D01*
X215340000Y-125317250D01*
X215498750Y-125476000D01*
X217118000Y-125476000D01*
X217118000Y-123371750D01*
X216959250Y-123213000D01*
X215848691Y-123213000D01*
X215615302Y-123309673D01*
X215436673Y-123488301D01*
X215340000Y-123721690D01*
X189778674Y-123721690D01*
X189758162Y-123612683D01*
X189619090Y-123396559D01*
X189406890Y-123251569D01*
X189155000Y-123200560D01*
X188720000Y-123200560D01*
X188720000Y-123115000D01*
X188656439Y-122795459D01*
X188475434Y-122524566D01*
X187982010Y-122031142D01*
X187993086Y-120840418D01*
X188325935Y-120840709D01*
X188769535Y-120657418D01*
X188906191Y-120521000D01*
X189169198Y-120521000D01*
X189564878Y-120916680D01*
X189564838Y-120962167D01*
X189706883Y-121305943D01*
X189969673Y-121569192D01*
X190313201Y-121711838D01*
X190685167Y-121712162D01*
X191028943Y-121570117D01*
X191292192Y-121307327D01*
X191387787Y-121077110D01*
X191447167Y-121077162D01*
X191790943Y-120935117D01*
X192054192Y-120672327D01*
X192196838Y-120328799D01*
X192197162Y-119956833D01*
X192055117Y-119613057D01*
X191792327Y-119349808D01*
X191448799Y-119207162D01*
X191401923Y-119207121D01*
X189293496Y-117098694D01*
X189293709Y-116855065D01*
X189110418Y-116411465D01*
X188771320Y-116071775D01*
X188328041Y-115887710D01*
X188039160Y-115887458D01*
X188046297Y-115120167D01*
X199216838Y-115120167D01*
X199358883Y-115463943D01*
X199621673Y-115727192D01*
X199965201Y-115869838D01*
X200337167Y-115870162D01*
X200680943Y-115728117D01*
X200944192Y-115465327D01*
X201086838Y-115121799D01*
X201086879Y-115074923D01*
X201101802Y-115060000D01*
X205996000Y-115060000D01*
X205996000Y-115388537D01*
X205963808Y-115420673D01*
X205821162Y-115764201D01*
X205820838Y-116136167D01*
X205962883Y-116479943D01*
X206225673Y-116743192D01*
X206569201Y-116885838D01*
X206941167Y-116886162D01*
X207284943Y-116744117D01*
X207548192Y-116481327D01*
X207690838Y-116137799D01*
X207691162Y-115765833D01*
X207549117Y-115422057D01*
X207516000Y-115388882D01*
X207516000Y-114338047D01*
X207613883Y-114574943D01*
X207856878Y-114818362D01*
X207869599Y-114837401D01*
X209012599Y-115980401D01*
X209259161Y-116145148D01*
X209550000Y-116203000D01*
X212543537Y-116203000D01*
X212575673Y-116235192D01*
X212919201Y-116377838D01*
X213291167Y-116378162D01*
X213634943Y-116236117D01*
X213898192Y-115973327D01*
X214040838Y-115629799D01*
X214041162Y-115257833D01*
X214011894Y-115187000D01*
X214448537Y-115187000D01*
X214480673Y-115219192D01*
X214824201Y-115361838D01*
X215196167Y-115362162D01*
X215539943Y-115220117D01*
X215803192Y-114957327D01*
X215945838Y-114613799D01*
X215946162Y-114241833D01*
X215804117Y-113898057D01*
X215659132Y-113752819D01*
X216005732Y-113406823D01*
X216243728Y-112833664D01*
X216244270Y-112213058D01*
X216007275Y-111639486D01*
X215568823Y-111200268D01*
X214995664Y-110962272D01*
X214375058Y-110961730D01*
X213801486Y-111198725D01*
X213433744Y-111565826D01*
X213068823Y-111200268D01*
X212495664Y-110962272D01*
X211875058Y-110961730D01*
X211301486Y-111198725D01*
X210933744Y-111565826D01*
X210568823Y-111200268D01*
X209995664Y-110962272D01*
X209375058Y-110961730D01*
X208801486Y-111198725D01*
X208433744Y-111565826D01*
X208068823Y-111200268D01*
X207495664Y-110962272D01*
X206875058Y-110961730D01*
X206301486Y-111198725D01*
X205866879Y-111632574D01*
X205782256Y-111603349D01*
X204863605Y-112522000D01*
X204877748Y-112536143D01*
X204698143Y-112715748D01*
X204684000Y-112701605D01*
X204669858Y-112715748D01*
X204490253Y-112536143D01*
X204504395Y-112522000D01*
X204490253Y-112507858D01*
X204669858Y-112328253D01*
X204684000Y-112342395D01*
X205602651Y-111423744D01*
X205513179Y-111164668D01*
X204930632Y-110950675D01*
X204310539Y-110975903D01*
X203854821Y-111164668D01*
X203765350Y-111423742D01*
X203714218Y-111372610D01*
X203712162Y-111361683D01*
X203573090Y-111145559D01*
X203360890Y-111000569D01*
X203109000Y-110949560D01*
X201259000Y-110949560D01*
X201023683Y-110993838D01*
X200807559Y-111132910D01*
X200662569Y-111345110D01*
X200611560Y-111597000D01*
X200611560Y-113447000D01*
X200634757Y-113570283D01*
X200496161Y-113597852D01*
X200249599Y-113762599D01*
X200012320Y-113999878D01*
X199966833Y-113999838D01*
X199623057Y-114141883D01*
X199359808Y-114404673D01*
X199217162Y-114748201D01*
X199216838Y-115120167D01*
X188046297Y-115120167D01*
X188048491Y-114884377D01*
X189158239Y-113774629D01*
X189237910Y-113898441D01*
X189450110Y-114043431D01*
X189702000Y-114094440D01*
X191552000Y-114094440D01*
X191787317Y-114050162D01*
X192003441Y-113911090D01*
X192148431Y-113698890D01*
X192153183Y-113675425D01*
X192208350Y-113620258D01*
X192297821Y-113879332D01*
X192880368Y-114093325D01*
X193500461Y-114068097D01*
X193956179Y-113879332D01*
X194045651Y-113620256D01*
X193127000Y-112701605D01*
X193112858Y-112715748D01*
X192933253Y-112536143D01*
X192947395Y-112522000D01*
X193306605Y-112522000D01*
X194225256Y-113440651D01*
X194310434Y-113411235D01*
X194742177Y-113843732D01*
X195315336Y-114081728D01*
X195935942Y-114082270D01*
X196509514Y-113845275D01*
X196948732Y-113406823D01*
X197186728Y-112833664D01*
X197187270Y-112213058D01*
X196950275Y-111639486D01*
X196511823Y-111200268D01*
X195938664Y-110962272D01*
X195318058Y-110961730D01*
X194744486Y-111198725D01*
X194309879Y-111632574D01*
X194225256Y-111603349D01*
X193306605Y-112522000D01*
X192947395Y-112522000D01*
X192933253Y-112507858D01*
X193112858Y-112328253D01*
X193127000Y-112342395D01*
X194045651Y-111423744D01*
X193956179Y-111164668D01*
X193373632Y-110950675D01*
X192753539Y-110975903D01*
X192297821Y-111164668D01*
X192208350Y-111423742D01*
X192157218Y-111372610D01*
X192155162Y-111361683D01*
X192016090Y-111145559D01*
X191803890Y-111000569D01*
X191552000Y-110949560D01*
X189702000Y-110949560D01*
X189466683Y-110993838D01*
X189250559Y-111132910D01*
X189105569Y-111345110D01*
X189054560Y-111597000D01*
X189054560Y-111721897D01*
X188910460Y-111750560D01*
X188639566Y-111931566D01*
X188070667Y-112500465D01*
X188085825Y-110871000D01*
X217297000Y-110871000D01*
X217297000Y-133413858D01*
X217297000Y-133413858D01*
G37*
X217297000Y-133413858D02*
X212409000Y-133413858D01*
X212409000Y-135765000D01*
X196523241Y-135765000D01*
X196364327Y-135605808D01*
X196020799Y-135463162D01*
X195648833Y-135462838D01*
X195305057Y-135604883D01*
X195041808Y-135867673D01*
X194899162Y-136211201D01*
X194898838Y-136583167D01*
X195040883Y-136926943D01*
X195238247Y-137124652D01*
X194912539Y-137137903D01*
X194456821Y-137326668D01*
X194367350Y-137585742D01*
X194316218Y-137534610D01*
X194314162Y-137523683D01*
X194175090Y-137307559D01*
X193962890Y-137162569D01*
X193711000Y-137111560D01*
X192288362Y-137111560D01*
X191895000Y-136718198D01*
X191895000Y-132134463D01*
X191927192Y-132102327D01*
X192069838Y-131758799D01*
X192070162Y-131386833D01*
X191928117Y-131043057D01*
X191665327Y-130779808D01*
X191410648Y-130674055D01*
X191434838Y-130615799D01*
X191435162Y-130243833D01*
X191356438Y-130053306D01*
X191893465Y-130590333D01*
X191992883Y-130830943D01*
X192255673Y-131094192D01*
X192599201Y-131236838D01*
X192971167Y-131237162D01*
X193314943Y-131095117D01*
X193578192Y-130832327D01*
X193720838Y-130488799D01*
X193721162Y-130116833D01*
X193579117Y-129773057D01*
X193316327Y-129509808D01*
X193074090Y-129409222D01*
X192233434Y-128568566D01*
X191962541Y-128387561D01*
X191643000Y-128324000D01*
X191054234Y-128324000D01*
X190813799Y-128224162D01*
X190441833Y-128223838D01*
X190199422Y-128324000D01*
X188720000Y-128324000D01*
X188720000Y-128005440D01*
X189155000Y-128005440D01*
X189390317Y-127961162D01*
X189606441Y-127822090D01*
X189751431Y-127609890D01*
X189802440Y-127358000D01*
X189802440Y-125888750D01*
X215340000Y-125888750D01*
X215340000Y-127484310D01*
X215436673Y-127717699D01*
X215615302Y-127896327D01*
X215848691Y-127993000D01*
X216959250Y-127993000D01*
X217118000Y-127834250D01*
X217118000Y-125730000D01*
X215498750Y-125730000D01*
X215340000Y-125888750D01*
X189802440Y-125888750D01*
X189802440Y-123848000D01*
X189778674Y-123721690D01*
X215340000Y-123721690D01*
X215340000Y-125317250D01*
X215498750Y-125476000D01*
X217118000Y-125476000D01*
X217118000Y-123371750D01*
X216959250Y-123213000D01*
X215848691Y-123213000D01*
X215615302Y-123309673D01*
X215436673Y-123488301D01*
X215340000Y-123721690D01*
X189778674Y-123721690D01*
X189758162Y-123612683D01*
X189619090Y-123396559D01*
X189406890Y-123251569D01*
X189155000Y-123200560D01*
X188720000Y-123200560D01*
X188720000Y-123115000D01*
X188656439Y-122795459D01*
X188475434Y-122524566D01*
X187982010Y-122031142D01*
X187993086Y-120840418D01*
X188325935Y-120840709D01*
X188769535Y-120657418D01*
X188906191Y-120521000D01*
X189169198Y-120521000D01*
X189564878Y-120916680D01*
X189564838Y-120962167D01*
X189706883Y-121305943D01*
X189969673Y-121569192D01*
X190313201Y-121711838D01*
X190685167Y-121712162D01*
X191028943Y-121570117D01*
X191292192Y-121307327D01*
X191387787Y-121077110D01*
X191447167Y-121077162D01*
X191790943Y-120935117D01*
X192054192Y-120672327D01*
X192196838Y-120328799D01*
X192197162Y-119956833D01*
X192055117Y-119613057D01*
X191792327Y-119349808D01*
X191448799Y-119207162D01*
X191401923Y-119207121D01*
X189293496Y-117098694D01*
X189293709Y-116855065D01*
X189110418Y-116411465D01*
X188771320Y-116071775D01*
X188328041Y-115887710D01*
X188039160Y-115887458D01*
X188046297Y-115120167D01*
X199216838Y-115120167D01*
X199358883Y-115463943D01*
X199621673Y-115727192D01*
X199965201Y-115869838D01*
X200337167Y-115870162D01*
X200680943Y-115728117D01*
X200944192Y-115465327D01*
X201086838Y-115121799D01*
X201086879Y-115074923D01*
X201101802Y-115060000D01*
X205996000Y-115060000D01*
X205996000Y-115388537D01*
X205963808Y-115420673D01*
X205821162Y-115764201D01*
X205820838Y-116136167D01*
X205962883Y-116479943D01*
X206225673Y-116743192D01*
X206569201Y-116885838D01*
X206941167Y-116886162D01*
X207284943Y-116744117D01*
X207548192Y-116481327D01*
X207690838Y-116137799D01*
X207691162Y-115765833D01*
X207549117Y-115422057D01*
X207516000Y-115388882D01*
X207516000Y-114338047D01*
X207613883Y-114574943D01*
X207856878Y-114818362D01*
X207869599Y-114837401D01*
X209012599Y-115980401D01*
X209259161Y-116145148D01*
X209550000Y-116203000D01*
X212543537Y-116203000D01*
X212575673Y-116235192D01*
X212919201Y-116377838D01*
X213291167Y-116378162D01*
X213634943Y-116236117D01*
X213898192Y-115973327D01*
X214040838Y-115629799D01*
X214041162Y-115257833D01*
X214011894Y-115187000D01*
X214448537Y-115187000D01*
X214480673Y-115219192D01*
X214824201Y-115361838D01*
X215196167Y-115362162D01*
X215539943Y-115220117D01*
X215803192Y-114957327D01*
X215945838Y-114613799D01*
X215946162Y-114241833D01*
X215804117Y-113898057D01*
X215659132Y-113752819D01*
X216005732Y-113406823D01*
X216243728Y-112833664D01*
X216244270Y-112213058D01*
X216007275Y-111639486D01*
X215568823Y-111200268D01*
X214995664Y-110962272D01*
X214375058Y-110961730D01*
X213801486Y-111198725D01*
X213433744Y-111565826D01*
X213068823Y-111200268D01*
X212495664Y-110962272D01*
X211875058Y-110961730D01*
X211301486Y-111198725D01*
X210933744Y-111565826D01*
X210568823Y-111200268D01*
X209995664Y-110962272D01*
X209375058Y-110961730D01*
X208801486Y-111198725D01*
X208433744Y-111565826D01*
X208068823Y-111200268D01*
X207495664Y-110962272D01*
X206875058Y-110961730D01*
X206301486Y-111198725D01*
X205866879Y-111632574D01*
X205782256Y-111603349D01*
X204863605Y-112522000D01*
X204877748Y-112536143D01*
X204698143Y-112715748D01*
X204684000Y-112701605D01*
X204669858Y-112715748D01*
X204490253Y-112536143D01*
X204504395Y-112522000D01*
X204490253Y-112507858D01*
X204669858Y-112328253D01*
X204684000Y-112342395D01*
X205602651Y-111423744D01*
X205513179Y-111164668D01*
X204930632Y-110950675D01*
X204310539Y-110975903D01*
X203854821Y-111164668D01*
X203765350Y-111423742D01*
X203714218Y-111372610D01*
X203712162Y-111361683D01*
X203573090Y-111145559D01*
X203360890Y-111000569D01*
X203109000Y-110949560D01*
X201259000Y-110949560D01*
X201023683Y-110993838D01*
X200807559Y-111132910D01*
X200662569Y-111345110D01*
X200611560Y-111597000D01*
X200611560Y-113447000D01*
X200634757Y-113570283D01*
X200496161Y-113597852D01*
X200249599Y-113762599D01*
X200012320Y-113999878D01*
X199966833Y-113999838D01*
X199623057Y-114141883D01*
X199359808Y-114404673D01*
X199217162Y-114748201D01*
X199216838Y-115120167D01*
X188046297Y-115120167D01*
X188048491Y-114884377D01*
X189158239Y-113774629D01*
X189237910Y-113898441D01*
X189450110Y-114043431D01*
X189702000Y-114094440D01*
X191552000Y-114094440D01*
X191787317Y-114050162D01*
X192003441Y-113911090D01*
X192148431Y-113698890D01*
X192153183Y-113675425D01*
X192208350Y-113620258D01*
X192297821Y-113879332D01*
X192880368Y-114093325D01*
X193500461Y-114068097D01*
X193956179Y-113879332D01*
X194045651Y-113620256D01*
X193127000Y-112701605D01*
X193112858Y-112715748D01*
X192933253Y-112536143D01*
X192947395Y-112522000D01*
X193306605Y-112522000D01*
X194225256Y-113440651D01*
X194310434Y-113411235D01*
X194742177Y-113843732D01*
X195315336Y-114081728D01*
X195935942Y-114082270D01*
X196509514Y-113845275D01*
X196948732Y-113406823D01*
X197186728Y-112833664D01*
X197187270Y-112213058D01*
X196950275Y-111639486D01*
X196511823Y-111200268D01*
X195938664Y-110962272D01*
X195318058Y-110961730D01*
X194744486Y-111198725D01*
X194309879Y-111632574D01*
X194225256Y-111603349D01*
X193306605Y-112522000D01*
X192947395Y-112522000D01*
X192933253Y-112507858D01*
X193112858Y-112328253D01*
X193127000Y-112342395D01*
X194045651Y-111423744D01*
X193956179Y-111164668D01*
X193373632Y-110950675D01*
X192753539Y-110975903D01*
X192297821Y-111164668D01*
X192208350Y-111423742D01*
X192157218Y-111372610D01*
X192155162Y-111361683D01*
X192016090Y-111145559D01*
X191803890Y-111000569D01*
X191552000Y-110949560D01*
X189702000Y-110949560D01*
X189466683Y-110993838D01*
X189250559Y-111132910D01*
X189105569Y-111345110D01*
X189054560Y-111597000D01*
X189054560Y-111721897D01*
X188910460Y-111750560D01*
X188639566Y-111931566D01*
X188070667Y-112500465D01*
X188085825Y-110871000D01*
X217297000Y-110871000D01*
X217297000Y-133413858D01*
G36*
X135971162Y-85157201D02*
X135971114Y-85212271D01*
X135822852Y-85434161D01*
X135765000Y-85725000D01*
X135765000Y-91059000D01*
X135822852Y-91349839D01*
X135843940Y-91381399D01*
X135843838Y-91498167D01*
X135985883Y-91841943D01*
X136248673Y-92105192D01*
X136592201Y-92247838D01*
X136845012Y-92248058D01*
X137003599Y-92485401D01*
X137619560Y-93101362D01*
X137619560Y-94524000D01*
X137663838Y-94759317D01*
X137802910Y-94975441D01*
X138015110Y-95120431D01*
X138027796Y-95123000D01*
X136450606Y-95123000D01*
X134239491Y-92911885D01*
X134261958Y-90496672D01*
X134682844Y-90469633D01*
X134982448Y-90345533D01*
X135028441Y-90123046D01*
X134366000Y-89460605D01*
X134351858Y-89474748D01*
X134272206Y-89395096D01*
X134273267Y-89281000D01*
X134545605Y-89281000D01*
X135208046Y-89943441D01*
X135430533Y-89897448D01*
X135585405Y-89443145D01*
X135554633Y-88964156D01*
X135430533Y-88664552D01*
X135208046Y-88618559D01*
X134545605Y-89281000D01*
X134273267Y-89281000D01*
X134274348Y-89164762D01*
X134351858Y-89087253D01*
X134366000Y-89101395D01*
X135028441Y-88438954D01*
X134982448Y-88216467D01*
X134528145Y-88061595D01*
X134284464Y-88077250D01*
X134285672Y-87947430D01*
X134604935Y-87947709D01*
X135048535Y-87764418D01*
X135388225Y-87425320D01*
X135572290Y-86982041D01*
X135572709Y-86502065D01*
X135389418Y-86058465D01*
X135126000Y-85794587D01*
X135126000Y-84909000D01*
X136074225Y-84909000D01*
X135971162Y-85157201D01*
X135971162Y-85157201D01*
G37*
X135971162Y-85157201D02*
X135971114Y-85212271D01*
X135822852Y-85434161D01*
X135765000Y-85725000D01*
X135765000Y-91059000D01*
X135822852Y-91349839D01*
X135843940Y-91381399D01*
X135843838Y-91498167D01*
X135985883Y-91841943D01*
X136248673Y-92105192D01*
X136592201Y-92247838D01*
X136845012Y-92248058D01*
X137003599Y-92485401D01*
X137619560Y-93101362D01*
X137619560Y-94524000D01*
X137663838Y-94759317D01*
X137802910Y-94975441D01*
X138015110Y-95120431D01*
X138027796Y-95123000D01*
X136450606Y-95123000D01*
X134239491Y-92911885D01*
X134261958Y-90496672D01*
X134682844Y-90469633D01*
X134982448Y-90345533D01*
X135028441Y-90123046D01*
X134366000Y-89460605D01*
X134351858Y-89474748D01*
X134272206Y-89395096D01*
X134273267Y-89281000D01*
X134545605Y-89281000D01*
X135208046Y-89943441D01*
X135430533Y-89897448D01*
X135585405Y-89443145D01*
X135554633Y-88964156D01*
X135430533Y-88664552D01*
X135208046Y-88618559D01*
X134545605Y-89281000D01*
X134273267Y-89281000D01*
X134274348Y-89164762D01*
X134351858Y-89087253D01*
X134366000Y-89101395D01*
X135028441Y-88438954D01*
X134982448Y-88216467D01*
X134528145Y-88061595D01*
X134284464Y-88077250D01*
X134285672Y-87947430D01*
X134604935Y-87947709D01*
X135048535Y-87764418D01*
X135388225Y-87425320D01*
X135572290Y-86982041D01*
X135572709Y-86502065D01*
X135389418Y-86058465D01*
X135126000Y-85794587D01*
X135126000Y-84909000D01*
X136074225Y-84909000D01*
X135971162Y-85157201D01*
G36*
X143309486Y-92275725D02*
X142874879Y-92709574D01*
X142790256Y-92680349D01*
X141871605Y-93599000D01*
X142790256Y-94517651D01*
X142875434Y-94488235D01*
X143307177Y-94920732D01*
X143794293Y-95123000D01*
X142118808Y-95123000D01*
X142521179Y-94956332D01*
X142610651Y-94697256D01*
X141692000Y-93778605D01*
X141677858Y-93792748D01*
X141498253Y-93613143D01*
X141512395Y-93599000D01*
X141498253Y-93584858D01*
X141677858Y-93405253D01*
X141692000Y-93419395D01*
X142610651Y-92500744D01*
X142521179Y-92241668D01*
X142478673Y-92226054D01*
X142541728Y-92200000D01*
X143492755Y-92200000D01*
X143309486Y-92275725D01*
X143309486Y-92275725D01*
G37*
X143309486Y-92275725D02*
X142874879Y-92709574D01*
X142790256Y-92680349D01*
X141871605Y-93599000D01*
X142790256Y-94517651D01*
X142875434Y-94488235D01*
X143307177Y-94920732D01*
X143794293Y-95123000D01*
X142118808Y-95123000D01*
X142521179Y-94956332D01*
X142610651Y-94697256D01*
X141692000Y-93778605D01*
X141677858Y-93792748D01*
X141498253Y-93613143D01*
X141512395Y-93599000D01*
X141498253Y-93584858D01*
X141677858Y-93405253D01*
X141692000Y-93419395D01*
X142610651Y-92500744D01*
X142521179Y-92241668D01*
X142478673Y-92226054D01*
X142541728Y-92200000D01*
X143492755Y-92200000D01*
X143309486Y-92275725D01*
G36*
X158815000Y-93608394D02*
X157300394Y-95123000D01*
X156469808Y-95123000D01*
X156872179Y-94956332D01*
X156961651Y-94697256D01*
X156043000Y-93778605D01*
X156028858Y-93792748D01*
X155849253Y-93613143D01*
X155863395Y-93599000D01*
X156222605Y-93599000D01*
X157141256Y-94517651D01*
X157400332Y-94428179D01*
X157614325Y-93845632D01*
X157589097Y-93225539D01*
X157400332Y-92769821D01*
X157141256Y-92680349D01*
X156222605Y-93599000D01*
X155863395Y-93599000D01*
X155849253Y-93584858D01*
X156028858Y-93405253D01*
X156043000Y-93419395D01*
X156961651Y-92500744D01*
X156872179Y-92241668D01*
X156758747Y-92200000D01*
X158815000Y-92200000D01*
X158815000Y-93608394D01*
X158815000Y-93608394D01*
G37*
X158815000Y-93608394D02*
X157300394Y-95123000D01*
X156469808Y-95123000D01*
X156872179Y-94956332D01*
X156961651Y-94697256D01*
X156043000Y-93778605D01*
X156028858Y-93792748D01*
X155849253Y-93613143D01*
X155863395Y-93599000D01*
X156222605Y-93599000D01*
X157141256Y-94517651D01*
X157400332Y-94428179D01*
X157614325Y-93845632D01*
X157589097Y-93225539D01*
X157400332Y-92769821D01*
X157141256Y-92680349D01*
X156222605Y-93599000D01*
X155863395Y-93599000D01*
X155849253Y-93584858D01*
X156028858Y-93405253D01*
X156043000Y-93419395D01*
X156961651Y-92500744D01*
X156872179Y-92241668D01*
X156758747Y-92200000D01*
X158815000Y-92200000D01*
X158815000Y-93608394D01*
G36*
X163703000Y-88328858D02*
X158815000Y-88328858D01*
X158815000Y-90680000D01*
X142929241Y-90680000D01*
X142770327Y-90520808D01*
X142426799Y-90378162D01*
X142054833Y-90377838D01*
X141711057Y-90519883D01*
X141447808Y-90782673D01*
X141305162Y-91126201D01*
X141304838Y-91498167D01*
X141446883Y-91841943D01*
X141644247Y-92039652D01*
X141318539Y-92052903D01*
X140862821Y-92241668D01*
X140773350Y-92500742D01*
X140722218Y-92449610D01*
X140720162Y-92438683D01*
X140581090Y-92222559D01*
X140368890Y-92077569D01*
X140117000Y-92026560D01*
X138694362Y-92026560D01*
X138301000Y-91633198D01*
X138301000Y-87049463D01*
X138333192Y-87017327D01*
X138475838Y-86673799D01*
X138476162Y-86301833D01*
X138334117Y-85958057D01*
X138071327Y-85694808D01*
X137816648Y-85589055D01*
X137840838Y-85530799D01*
X137841162Y-85158833D01*
X137762438Y-84968306D01*
X138299465Y-85505333D01*
X138398883Y-85745943D01*
X138661673Y-86009192D01*
X139005201Y-86151838D01*
X139377167Y-86152162D01*
X139720943Y-86010117D01*
X139984192Y-85747327D01*
X140126838Y-85403799D01*
X140127162Y-85031833D01*
X139985117Y-84688057D01*
X139722327Y-84424808D01*
X139480090Y-84324222D01*
X138639434Y-83483566D01*
X138368541Y-83302561D01*
X138049000Y-83239000D01*
X137460234Y-83239000D01*
X137219799Y-83139162D01*
X136847833Y-83138838D01*
X136605422Y-83239000D01*
X135126000Y-83239000D01*
X135126000Y-82920440D01*
X135561000Y-82920440D01*
X135796317Y-82876162D01*
X136012441Y-82737090D01*
X136157431Y-82524890D01*
X136208440Y-82273000D01*
X136208440Y-80803750D01*
X161746000Y-80803750D01*
X161746000Y-82399310D01*
X161842673Y-82632699D01*
X162021302Y-82811327D01*
X162254691Y-82908000D01*
X163365250Y-82908000D01*
X163524000Y-82749250D01*
X163524000Y-80645000D01*
X161904750Y-80645000D01*
X161746000Y-80803750D01*
X136208440Y-80803750D01*
X136208440Y-78763000D01*
X136184674Y-78636690D01*
X161746000Y-78636690D01*
X161746000Y-80232250D01*
X161904750Y-80391000D01*
X163524000Y-80391000D01*
X163524000Y-78286750D01*
X163365250Y-78128000D01*
X162254691Y-78128000D01*
X162021302Y-78224673D01*
X161842673Y-78403301D01*
X161746000Y-78636690D01*
X136184674Y-78636690D01*
X136164162Y-78527683D01*
X136025090Y-78311559D01*
X135812890Y-78166569D01*
X135561000Y-78115560D01*
X135126000Y-78115560D01*
X135126000Y-78030000D01*
X135062439Y-77710459D01*
X134881434Y-77439566D01*
X134388010Y-76946142D01*
X134399086Y-75755418D01*
X134731935Y-75755709D01*
X135175535Y-75572418D01*
X135312191Y-75436000D01*
X135575198Y-75436000D01*
X135970878Y-75831680D01*
X135970838Y-75877167D01*
X136112883Y-76220943D01*
X136375673Y-76484192D01*
X136719201Y-76626838D01*
X137091167Y-76627162D01*
X137434943Y-76485117D01*
X137698192Y-76222327D01*
X137793787Y-75992110D01*
X137853167Y-75992162D01*
X138196943Y-75850117D01*
X138460192Y-75587327D01*
X138602838Y-75243799D01*
X138603162Y-74871833D01*
X138461117Y-74528057D01*
X138198327Y-74264808D01*
X137854799Y-74122162D01*
X137807923Y-74122121D01*
X135699496Y-72013694D01*
X135699709Y-71770065D01*
X135516418Y-71326465D01*
X135177320Y-70986775D01*
X134734041Y-70802710D01*
X134445160Y-70802458D01*
X134452297Y-70035167D01*
X145622838Y-70035167D01*
X145764883Y-70378943D01*
X146027673Y-70642192D01*
X146371201Y-70784838D01*
X146743167Y-70785162D01*
X147086943Y-70643117D01*
X147350192Y-70380327D01*
X147492838Y-70036799D01*
X147492879Y-69989923D01*
X147507802Y-69975000D01*
X152402000Y-69975000D01*
X152402000Y-70303537D01*
X152369808Y-70335673D01*
X152227162Y-70679201D01*
X152226838Y-71051167D01*
X152368883Y-71394943D01*
X152631673Y-71658192D01*
X152975201Y-71800838D01*
X153347167Y-71801162D01*
X153690943Y-71659117D01*
X153954192Y-71396327D01*
X154096838Y-71052799D01*
X154097162Y-70680833D01*
X153955117Y-70337057D01*
X153922000Y-70303882D01*
X153922000Y-69253047D01*
X154019883Y-69489943D01*
X154262878Y-69733362D01*
X154275599Y-69752401D01*
X155418599Y-70895401D01*
X155665161Y-71060148D01*
X155956000Y-71118000D01*
X158949537Y-71118000D01*
X158981673Y-71150192D01*
X159325201Y-71292838D01*
X159697167Y-71293162D01*
X160040943Y-71151117D01*
X160304192Y-70888327D01*
X160446838Y-70544799D01*
X160447162Y-70172833D01*
X160417894Y-70102000D01*
X160854537Y-70102000D01*
X160886673Y-70134192D01*
X161230201Y-70276838D01*
X161602167Y-70277162D01*
X161945943Y-70135117D01*
X162209192Y-69872327D01*
X162351838Y-69528799D01*
X162352162Y-69156833D01*
X162210117Y-68813057D01*
X162065132Y-68667819D01*
X162411732Y-68321823D01*
X162649728Y-67748664D01*
X162650270Y-67128058D01*
X162413275Y-66554486D01*
X161974823Y-66115268D01*
X161401664Y-65877272D01*
X160781058Y-65876730D01*
X160207486Y-66113725D01*
X159839744Y-66480826D01*
X159474823Y-66115268D01*
X158901664Y-65877272D01*
X158281058Y-65876730D01*
X157707486Y-66113725D01*
X157339744Y-66480826D01*
X156974823Y-66115268D01*
X156401664Y-65877272D01*
X155781058Y-65876730D01*
X155207486Y-66113725D01*
X154839744Y-66480826D01*
X154474823Y-66115268D01*
X153901664Y-65877272D01*
X153281058Y-65876730D01*
X152707486Y-66113725D01*
X152272879Y-66547574D01*
X152188256Y-66518349D01*
X151269605Y-67437000D01*
X151283748Y-67451143D01*
X151104143Y-67630748D01*
X151090000Y-67616605D01*
X151075858Y-67630748D01*
X150896253Y-67451143D01*
X150910395Y-67437000D01*
X150896253Y-67422858D01*
X151075858Y-67243253D01*
X151090000Y-67257395D01*
X152008651Y-66338744D01*
X151919179Y-66079668D01*
X151336632Y-65865675D01*
X150716539Y-65890903D01*
X150260821Y-66079668D01*
X150171350Y-66338742D01*
X150120218Y-66287610D01*
X150118162Y-66276683D01*
X149979090Y-66060559D01*
X149766890Y-65915569D01*
X149515000Y-65864560D01*
X147665000Y-65864560D01*
X147429683Y-65908838D01*
X147213559Y-66047910D01*
X147068569Y-66260110D01*
X147017560Y-66512000D01*
X147017560Y-68362000D01*
X147040757Y-68485283D01*
X146902161Y-68512852D01*
X146655599Y-68677599D01*
X146418320Y-68914878D01*
X146372833Y-68914838D01*
X146029057Y-69056883D01*
X145765808Y-69319673D01*
X145623162Y-69663201D01*
X145622838Y-70035167D01*
X134452297Y-70035167D01*
X134454491Y-69799377D01*
X135564239Y-68689629D01*
X135643910Y-68813441D01*
X135856110Y-68958431D01*
X136108000Y-69009440D01*
X137958000Y-69009440D01*
X138193317Y-68965162D01*
X138409441Y-68826090D01*
X138554431Y-68613890D01*
X138559183Y-68590425D01*
X138614350Y-68535258D01*
X138703821Y-68794332D01*
X139286368Y-69008325D01*
X139906461Y-68983097D01*
X140362179Y-68794332D01*
X140451651Y-68535256D01*
X139533000Y-67616605D01*
X139518858Y-67630748D01*
X139339253Y-67451143D01*
X139353395Y-67437000D01*
X139712605Y-67437000D01*
X140631256Y-68355651D01*
X140716434Y-68326235D01*
X141148177Y-68758732D01*
X141721336Y-68996728D01*
X142341942Y-68997270D01*
X142915514Y-68760275D01*
X143354732Y-68321823D01*
X143592728Y-67748664D01*
X143593270Y-67128058D01*
X143356275Y-66554486D01*
X142917823Y-66115268D01*
X142344664Y-65877272D01*
X141724058Y-65876730D01*
X141150486Y-66113725D01*
X140715879Y-66547574D01*
X140631256Y-66518349D01*
X139712605Y-67437000D01*
X139353395Y-67437000D01*
X139339253Y-67422858D01*
X139518858Y-67243253D01*
X139533000Y-67257395D01*
X140451651Y-66338744D01*
X140362179Y-66079668D01*
X139779632Y-65865675D01*
X139159539Y-65890903D01*
X138703821Y-66079668D01*
X138614350Y-66338742D01*
X138563218Y-66287610D01*
X138561162Y-66276683D01*
X138422090Y-66060559D01*
X138209890Y-65915569D01*
X137958000Y-65864560D01*
X136108000Y-65864560D01*
X135872683Y-65908838D01*
X135656559Y-66047910D01*
X135511569Y-66260110D01*
X135460560Y-66512000D01*
X135460560Y-66636897D01*
X135316460Y-66665560D01*
X135045566Y-66846566D01*
X134476667Y-67415465D01*
X134491825Y-65786000D01*
X163703000Y-65786000D01*
X163703000Y-88328858D01*
X163703000Y-88328858D01*
G37*
X163703000Y-88328858D02*
X158815000Y-88328858D01*
X158815000Y-90680000D01*
X142929241Y-90680000D01*
X142770327Y-90520808D01*
X142426799Y-90378162D01*
X142054833Y-90377838D01*
X141711057Y-90519883D01*
X141447808Y-90782673D01*
X141305162Y-91126201D01*
X141304838Y-91498167D01*
X141446883Y-91841943D01*
X141644247Y-92039652D01*
X141318539Y-92052903D01*
X140862821Y-92241668D01*
X140773350Y-92500742D01*
X140722218Y-92449610D01*
X140720162Y-92438683D01*
X140581090Y-92222559D01*
X140368890Y-92077569D01*
X140117000Y-92026560D01*
X138694362Y-92026560D01*
X138301000Y-91633198D01*
X138301000Y-87049463D01*
X138333192Y-87017327D01*
X138475838Y-86673799D01*
X138476162Y-86301833D01*
X138334117Y-85958057D01*
X138071327Y-85694808D01*
X137816648Y-85589055D01*
X137840838Y-85530799D01*
X137841162Y-85158833D01*
X137762438Y-84968306D01*
X138299465Y-85505333D01*
X138398883Y-85745943D01*
X138661673Y-86009192D01*
X139005201Y-86151838D01*
X139377167Y-86152162D01*
X139720943Y-86010117D01*
X139984192Y-85747327D01*
X140126838Y-85403799D01*
X140127162Y-85031833D01*
X139985117Y-84688057D01*
X139722327Y-84424808D01*
X139480090Y-84324222D01*
X138639434Y-83483566D01*
X138368541Y-83302561D01*
X138049000Y-83239000D01*
X137460234Y-83239000D01*
X137219799Y-83139162D01*
X136847833Y-83138838D01*
X136605422Y-83239000D01*
X135126000Y-83239000D01*
X135126000Y-82920440D01*
X135561000Y-82920440D01*
X135796317Y-82876162D01*
X136012441Y-82737090D01*
X136157431Y-82524890D01*
X136208440Y-82273000D01*
X136208440Y-80803750D01*
X161746000Y-80803750D01*
X161746000Y-82399310D01*
X161842673Y-82632699D01*
X162021302Y-82811327D01*
X162254691Y-82908000D01*
X163365250Y-82908000D01*
X163524000Y-82749250D01*
X163524000Y-80645000D01*
X161904750Y-80645000D01*
X161746000Y-80803750D01*
X136208440Y-80803750D01*
X136208440Y-78763000D01*
X136184674Y-78636690D01*
X161746000Y-78636690D01*
X161746000Y-80232250D01*
X161904750Y-80391000D01*
X163524000Y-80391000D01*
X163524000Y-78286750D01*
X163365250Y-78128000D01*
X162254691Y-78128000D01*
X162021302Y-78224673D01*
X161842673Y-78403301D01*
X161746000Y-78636690D01*
X136184674Y-78636690D01*
X136164162Y-78527683D01*
X136025090Y-78311559D01*
X135812890Y-78166569D01*
X135561000Y-78115560D01*
X135126000Y-78115560D01*
X135126000Y-78030000D01*
X135062439Y-77710459D01*
X134881434Y-77439566D01*
X134388010Y-76946142D01*
X134399086Y-75755418D01*
X134731935Y-75755709D01*
X135175535Y-75572418D01*
X135312191Y-75436000D01*
X135575198Y-75436000D01*
X135970878Y-75831680D01*
X135970838Y-75877167D01*
X136112883Y-76220943D01*
X136375673Y-76484192D01*
X136719201Y-76626838D01*
X137091167Y-76627162D01*
X137434943Y-76485117D01*
X137698192Y-76222327D01*
X137793787Y-75992110D01*
X137853167Y-75992162D01*
X138196943Y-75850117D01*
X138460192Y-75587327D01*
X138602838Y-75243799D01*
X138603162Y-74871833D01*
X138461117Y-74528057D01*
X138198327Y-74264808D01*
X137854799Y-74122162D01*
X137807923Y-74122121D01*
X135699496Y-72013694D01*
X135699709Y-71770065D01*
X135516418Y-71326465D01*
X135177320Y-70986775D01*
X134734041Y-70802710D01*
X134445160Y-70802458D01*
X134452297Y-70035167D01*
X145622838Y-70035167D01*
X145764883Y-70378943D01*
X146027673Y-70642192D01*
X146371201Y-70784838D01*
X146743167Y-70785162D01*
X147086943Y-70643117D01*
X147350192Y-70380327D01*
X147492838Y-70036799D01*
X147492879Y-69989923D01*
X147507802Y-69975000D01*
X152402000Y-69975000D01*
X152402000Y-70303537D01*
X152369808Y-70335673D01*
X152227162Y-70679201D01*
X152226838Y-71051167D01*
X152368883Y-71394943D01*
X152631673Y-71658192D01*
X152975201Y-71800838D01*
X153347167Y-71801162D01*
X153690943Y-71659117D01*
X153954192Y-71396327D01*
X154096838Y-71052799D01*
X154097162Y-70680833D01*
X153955117Y-70337057D01*
X153922000Y-70303882D01*
X153922000Y-69253047D01*
X154019883Y-69489943D01*
X154262878Y-69733362D01*
X154275599Y-69752401D01*
X155418599Y-70895401D01*
X155665161Y-71060148D01*
X155956000Y-71118000D01*
X158949537Y-71118000D01*
X158981673Y-71150192D01*
X159325201Y-71292838D01*
X159697167Y-71293162D01*
X160040943Y-71151117D01*
X160304192Y-70888327D01*
X160446838Y-70544799D01*
X160447162Y-70172833D01*
X160417894Y-70102000D01*
X160854537Y-70102000D01*
X160886673Y-70134192D01*
X161230201Y-70276838D01*
X161602167Y-70277162D01*
X161945943Y-70135117D01*
X162209192Y-69872327D01*
X162351838Y-69528799D01*
X162352162Y-69156833D01*
X162210117Y-68813057D01*
X162065132Y-68667819D01*
X162411732Y-68321823D01*
X162649728Y-67748664D01*
X162650270Y-67128058D01*
X162413275Y-66554486D01*
X161974823Y-66115268D01*
X161401664Y-65877272D01*
X160781058Y-65876730D01*
X160207486Y-66113725D01*
X159839744Y-66480826D01*
X159474823Y-66115268D01*
X158901664Y-65877272D01*
X158281058Y-65876730D01*
X157707486Y-66113725D01*
X157339744Y-66480826D01*
X156974823Y-66115268D01*
X156401664Y-65877272D01*
X155781058Y-65876730D01*
X155207486Y-66113725D01*
X154839744Y-66480826D01*
X154474823Y-66115268D01*
X153901664Y-65877272D01*
X153281058Y-65876730D01*
X152707486Y-66113725D01*
X152272879Y-66547574D01*
X152188256Y-66518349D01*
X151269605Y-67437000D01*
X151283748Y-67451143D01*
X151104143Y-67630748D01*
X151090000Y-67616605D01*
X151075858Y-67630748D01*
X150896253Y-67451143D01*
X150910395Y-67437000D01*
X150896253Y-67422858D01*
X151075858Y-67243253D01*
X151090000Y-67257395D01*
X152008651Y-66338744D01*
X151919179Y-66079668D01*
X151336632Y-65865675D01*
X150716539Y-65890903D01*
X150260821Y-66079668D01*
X150171350Y-66338742D01*
X150120218Y-66287610D01*
X150118162Y-66276683D01*
X149979090Y-66060559D01*
X149766890Y-65915569D01*
X149515000Y-65864560D01*
X147665000Y-65864560D01*
X147429683Y-65908838D01*
X147213559Y-66047910D01*
X147068569Y-66260110D01*
X147017560Y-66512000D01*
X147017560Y-68362000D01*
X147040757Y-68485283D01*
X146902161Y-68512852D01*
X146655599Y-68677599D01*
X146418320Y-68914878D01*
X146372833Y-68914838D01*
X146029057Y-69056883D01*
X145765808Y-69319673D01*
X145623162Y-69663201D01*
X145622838Y-70035167D01*
X134452297Y-70035167D01*
X134454491Y-69799377D01*
X135564239Y-68689629D01*
X135643910Y-68813441D01*
X135856110Y-68958431D01*
X136108000Y-69009440D01*
X137958000Y-69009440D01*
X138193317Y-68965162D01*
X138409441Y-68826090D01*
X138554431Y-68613890D01*
X138559183Y-68590425D01*
X138614350Y-68535258D01*
X138703821Y-68794332D01*
X139286368Y-69008325D01*
X139906461Y-68983097D01*
X140362179Y-68794332D01*
X140451651Y-68535256D01*
X139533000Y-67616605D01*
X139518858Y-67630748D01*
X139339253Y-67451143D01*
X139353395Y-67437000D01*
X139712605Y-67437000D01*
X140631256Y-68355651D01*
X140716434Y-68326235D01*
X141148177Y-68758732D01*
X141721336Y-68996728D01*
X142341942Y-68997270D01*
X142915514Y-68760275D01*
X143354732Y-68321823D01*
X143592728Y-67748664D01*
X143593270Y-67128058D01*
X143356275Y-66554486D01*
X142917823Y-66115268D01*
X142344664Y-65877272D01*
X141724058Y-65876730D01*
X141150486Y-66113725D01*
X140715879Y-66547574D01*
X140631256Y-66518349D01*
X139712605Y-67437000D01*
X139353395Y-67437000D01*
X139339253Y-67422858D01*
X139518858Y-67243253D01*
X139533000Y-67257395D01*
X140451651Y-66338744D01*
X140362179Y-66079668D01*
X139779632Y-65865675D01*
X139159539Y-65890903D01*
X138703821Y-66079668D01*
X138614350Y-66338742D01*
X138563218Y-66287610D01*
X138561162Y-66276683D01*
X138422090Y-66060559D01*
X138209890Y-65915569D01*
X137958000Y-65864560D01*
X136108000Y-65864560D01*
X135872683Y-65908838D01*
X135656559Y-66047910D01*
X135511569Y-66260110D01*
X135460560Y-66512000D01*
X135460560Y-66636897D01*
X135316460Y-66665560D01*
X135045566Y-66846566D01*
X134476667Y-67415465D01*
X134491825Y-65786000D01*
X163703000Y-65786000D01*
X163703000Y-88328858D01*
G36*
X189946162Y-84903201D02*
X189946114Y-84958271D01*
X189797852Y-85180161D01*
X189740000Y-85471000D01*
X189740000Y-90805000D01*
X189797852Y-91095839D01*
X189818940Y-91127399D01*
X189818838Y-91244167D01*
X189960883Y-91587943D01*
X190223673Y-91851192D01*
X190567201Y-91993838D01*
X190820012Y-91994058D01*
X190978599Y-92231401D01*
X191594560Y-92847362D01*
X191594560Y-94270000D01*
X191638838Y-94505317D01*
X191777910Y-94721441D01*
X191990110Y-94866431D01*
X192002796Y-94869000D01*
X190425606Y-94869000D01*
X188214491Y-92657885D01*
X188236958Y-90242672D01*
X188657844Y-90215633D01*
X188957448Y-90091533D01*
X189003441Y-89869046D01*
X188341000Y-89206605D01*
X188326858Y-89220748D01*
X188247206Y-89141096D01*
X188248267Y-89027000D01*
X188520605Y-89027000D01*
X189183046Y-89689441D01*
X189405533Y-89643448D01*
X189560405Y-89189145D01*
X189529633Y-88710156D01*
X189405533Y-88410552D01*
X189183046Y-88364559D01*
X188520605Y-89027000D01*
X188248267Y-89027000D01*
X188249348Y-88910762D01*
X188326858Y-88833253D01*
X188341000Y-88847395D01*
X189003441Y-88184954D01*
X188957448Y-87962467D01*
X188503145Y-87807595D01*
X188259464Y-87823250D01*
X188260672Y-87693430D01*
X188579935Y-87693709D01*
X189023535Y-87510418D01*
X189363225Y-87171320D01*
X189547290Y-86728041D01*
X189547709Y-86248065D01*
X189364418Y-85804465D01*
X189101000Y-85540587D01*
X189101000Y-84655000D01*
X190049225Y-84655000D01*
X189946162Y-84903201D01*
X189946162Y-84903201D01*
G37*
X189946162Y-84903201D02*
X189946114Y-84958271D01*
X189797852Y-85180161D01*
X189740000Y-85471000D01*
X189740000Y-90805000D01*
X189797852Y-91095839D01*
X189818940Y-91127399D01*
X189818838Y-91244167D01*
X189960883Y-91587943D01*
X190223673Y-91851192D01*
X190567201Y-91993838D01*
X190820012Y-91994058D01*
X190978599Y-92231401D01*
X191594560Y-92847362D01*
X191594560Y-94270000D01*
X191638838Y-94505317D01*
X191777910Y-94721441D01*
X191990110Y-94866431D01*
X192002796Y-94869000D01*
X190425606Y-94869000D01*
X188214491Y-92657885D01*
X188236958Y-90242672D01*
X188657844Y-90215633D01*
X188957448Y-90091533D01*
X189003441Y-89869046D01*
X188341000Y-89206605D01*
X188326858Y-89220748D01*
X188247206Y-89141096D01*
X188248267Y-89027000D01*
X188520605Y-89027000D01*
X189183046Y-89689441D01*
X189405533Y-89643448D01*
X189560405Y-89189145D01*
X189529633Y-88710156D01*
X189405533Y-88410552D01*
X189183046Y-88364559D01*
X188520605Y-89027000D01*
X188248267Y-89027000D01*
X188249348Y-88910762D01*
X188326858Y-88833253D01*
X188341000Y-88847395D01*
X189003441Y-88184954D01*
X188957448Y-87962467D01*
X188503145Y-87807595D01*
X188259464Y-87823250D01*
X188260672Y-87693430D01*
X188579935Y-87693709D01*
X189023535Y-87510418D01*
X189363225Y-87171320D01*
X189547290Y-86728041D01*
X189547709Y-86248065D01*
X189364418Y-85804465D01*
X189101000Y-85540587D01*
X189101000Y-84655000D01*
X190049225Y-84655000D01*
X189946162Y-84903201D01*
G36*
X197284486Y-92021725D02*
X196849879Y-92455574D01*
X196765256Y-92426349D01*
X195846605Y-93345000D01*
X196765256Y-94263651D01*
X196850434Y-94234235D01*
X197282177Y-94666732D01*
X197769293Y-94869000D01*
X196093808Y-94869000D01*
X196496179Y-94702332D01*
X196585651Y-94443256D01*
X195667000Y-93524605D01*
X195652858Y-93538748D01*
X195473253Y-93359143D01*
X195487395Y-93345000D01*
X195473253Y-93330858D01*
X195652858Y-93151253D01*
X195667000Y-93165395D01*
X196585651Y-92246744D01*
X196496179Y-91987668D01*
X196453673Y-91972054D01*
X196516728Y-91946000D01*
X197467755Y-91946000D01*
X197284486Y-92021725D01*
X197284486Y-92021725D01*
G37*
X197284486Y-92021725D02*
X196849879Y-92455574D01*
X196765256Y-92426349D01*
X195846605Y-93345000D01*
X196765256Y-94263651D01*
X196850434Y-94234235D01*
X197282177Y-94666732D01*
X197769293Y-94869000D01*
X196093808Y-94869000D01*
X196496179Y-94702332D01*
X196585651Y-94443256D01*
X195667000Y-93524605D01*
X195652858Y-93538748D01*
X195473253Y-93359143D01*
X195487395Y-93345000D01*
X195473253Y-93330858D01*
X195652858Y-93151253D01*
X195667000Y-93165395D01*
X196585651Y-92246744D01*
X196496179Y-91987668D01*
X196453673Y-91972054D01*
X196516728Y-91946000D01*
X197467755Y-91946000D01*
X197284486Y-92021725D01*
G36*
X212790000Y-93354394D02*
X211275394Y-94869000D01*
X210444808Y-94869000D01*
X210847179Y-94702332D01*
X210936651Y-94443256D01*
X210018000Y-93524605D01*
X210003858Y-93538748D01*
X209824253Y-93359143D01*
X209838395Y-93345000D01*
X210197605Y-93345000D01*
X211116256Y-94263651D01*
X211375332Y-94174179D01*
X211589325Y-93591632D01*
X211564097Y-92971539D01*
X211375332Y-92515821D01*
X211116256Y-92426349D01*
X210197605Y-93345000D01*
X209838395Y-93345000D01*
X209824253Y-93330858D01*
X210003858Y-93151253D01*
X210018000Y-93165395D01*
X210936651Y-92246744D01*
X210847179Y-91987668D01*
X210733747Y-91946000D01*
X212790000Y-91946000D01*
X212790000Y-93354394D01*
X212790000Y-93354394D01*
G37*
X212790000Y-93354394D02*
X211275394Y-94869000D01*
X210444808Y-94869000D01*
X210847179Y-94702332D01*
X210936651Y-94443256D01*
X210018000Y-93524605D01*
X210003858Y-93538748D01*
X209824253Y-93359143D01*
X209838395Y-93345000D01*
X210197605Y-93345000D01*
X211116256Y-94263651D01*
X211375332Y-94174179D01*
X211589325Y-93591632D01*
X211564097Y-92971539D01*
X211375332Y-92515821D01*
X211116256Y-92426349D01*
X210197605Y-93345000D01*
X209838395Y-93345000D01*
X209824253Y-93330858D01*
X210003858Y-93151253D01*
X210018000Y-93165395D01*
X210936651Y-92246744D01*
X210847179Y-91987668D01*
X210733747Y-91946000D01*
X212790000Y-91946000D01*
X212790000Y-93354394D01*
G36*
X217678000Y-88074858D02*
X212790000Y-88074858D01*
X212790000Y-90426000D01*
X196904241Y-90426000D01*
X196745327Y-90266808D01*
X196401799Y-90124162D01*
X196029833Y-90123838D01*
X195686057Y-90265883D01*
X195422808Y-90528673D01*
X195280162Y-90872201D01*
X195279838Y-91244167D01*
X195421883Y-91587943D01*
X195619247Y-91785652D01*
X195293539Y-91798903D01*
X194837821Y-91987668D01*
X194748350Y-92246742D01*
X194697218Y-92195610D01*
X194695162Y-92184683D01*
X194556090Y-91968559D01*
X194343890Y-91823569D01*
X194092000Y-91772560D01*
X192669362Y-91772560D01*
X192276000Y-91379198D01*
X192276000Y-86795463D01*
X192308192Y-86763327D01*
X192450838Y-86419799D01*
X192451162Y-86047833D01*
X192309117Y-85704057D01*
X192046327Y-85440808D01*
X191791648Y-85335055D01*
X191815838Y-85276799D01*
X191816162Y-84904833D01*
X191737438Y-84714306D01*
X192274465Y-85251333D01*
X192373883Y-85491943D01*
X192636673Y-85755192D01*
X192980201Y-85897838D01*
X193352167Y-85898162D01*
X193695943Y-85756117D01*
X193959192Y-85493327D01*
X194101838Y-85149799D01*
X194102162Y-84777833D01*
X193960117Y-84434057D01*
X193697327Y-84170808D01*
X193455090Y-84070222D01*
X192614434Y-83229566D01*
X192343541Y-83048561D01*
X192024000Y-82985000D01*
X191435234Y-82985000D01*
X191194799Y-82885162D01*
X190822833Y-82884838D01*
X190580422Y-82985000D01*
X189101000Y-82985000D01*
X189101000Y-82666440D01*
X189536000Y-82666440D01*
X189771317Y-82622162D01*
X189987441Y-82483090D01*
X190132431Y-82270890D01*
X190183440Y-82019000D01*
X190183440Y-80549750D01*
X215721000Y-80549750D01*
X215721000Y-82145310D01*
X215817673Y-82378699D01*
X215996302Y-82557327D01*
X216229691Y-82654000D01*
X217340250Y-82654000D01*
X217499000Y-82495250D01*
X217499000Y-80391000D01*
X215879750Y-80391000D01*
X215721000Y-80549750D01*
X190183440Y-80549750D01*
X190183440Y-78509000D01*
X190159674Y-78382690D01*
X215721000Y-78382690D01*
X215721000Y-79978250D01*
X215879750Y-80137000D01*
X217499000Y-80137000D01*
X217499000Y-78032750D01*
X217340250Y-77874000D01*
X216229691Y-77874000D01*
X215996302Y-77970673D01*
X215817673Y-78149301D01*
X215721000Y-78382690D01*
X190159674Y-78382690D01*
X190139162Y-78273683D01*
X190000090Y-78057559D01*
X189787890Y-77912569D01*
X189536000Y-77861560D01*
X189101000Y-77861560D01*
X189101000Y-77776000D01*
X189037439Y-77456459D01*
X188856434Y-77185566D01*
X188363010Y-76692142D01*
X188374086Y-75501418D01*
X188706935Y-75501709D01*
X189150535Y-75318418D01*
X189287191Y-75182000D01*
X189550198Y-75182000D01*
X189945878Y-75577680D01*
X189945838Y-75623167D01*
X190087883Y-75966943D01*
X190350673Y-76230192D01*
X190694201Y-76372838D01*
X191066167Y-76373162D01*
X191409943Y-76231117D01*
X191673192Y-75968327D01*
X191768787Y-75738110D01*
X191828167Y-75738162D01*
X192171943Y-75596117D01*
X192435192Y-75333327D01*
X192577838Y-74989799D01*
X192578162Y-74617833D01*
X192436117Y-74274057D01*
X192173327Y-74010808D01*
X191829799Y-73868162D01*
X191782923Y-73868121D01*
X189674496Y-71759694D01*
X189674709Y-71516065D01*
X189491418Y-71072465D01*
X189152320Y-70732775D01*
X188709041Y-70548710D01*
X188420160Y-70548458D01*
X188427297Y-69781167D01*
X199597838Y-69781167D01*
X199739883Y-70124943D01*
X200002673Y-70388192D01*
X200346201Y-70530838D01*
X200718167Y-70531162D01*
X201061943Y-70389117D01*
X201325192Y-70126327D01*
X201467838Y-69782799D01*
X201467879Y-69735923D01*
X201482802Y-69721000D01*
X206377000Y-69721000D01*
X206377000Y-70049537D01*
X206344808Y-70081673D01*
X206202162Y-70425201D01*
X206201838Y-70797167D01*
X206343883Y-71140943D01*
X206606673Y-71404192D01*
X206950201Y-71546838D01*
X207322167Y-71547162D01*
X207665943Y-71405117D01*
X207929192Y-71142327D01*
X208071838Y-70798799D01*
X208072162Y-70426833D01*
X207930117Y-70083057D01*
X207897000Y-70049882D01*
X207897000Y-68999047D01*
X207994883Y-69235943D01*
X208237878Y-69479362D01*
X208250599Y-69498401D01*
X209393599Y-70641401D01*
X209640161Y-70806148D01*
X209931000Y-70864000D01*
X212924537Y-70864000D01*
X212956673Y-70896192D01*
X213300201Y-71038838D01*
X213672167Y-71039162D01*
X214015943Y-70897117D01*
X214279192Y-70634327D01*
X214421838Y-70290799D01*
X214422162Y-69918833D01*
X214392894Y-69848000D01*
X214829537Y-69848000D01*
X214861673Y-69880192D01*
X215205201Y-70022838D01*
X215577167Y-70023162D01*
X215920943Y-69881117D01*
X216184192Y-69618327D01*
X216326838Y-69274799D01*
X216327162Y-68902833D01*
X216185117Y-68559057D01*
X216040132Y-68413819D01*
X216386732Y-68067823D01*
X216624728Y-67494664D01*
X216625270Y-66874058D01*
X216388275Y-66300486D01*
X215949823Y-65861268D01*
X215376664Y-65623272D01*
X214756058Y-65622730D01*
X214182486Y-65859725D01*
X213814744Y-66226826D01*
X213449823Y-65861268D01*
X212876664Y-65623272D01*
X212256058Y-65622730D01*
X211682486Y-65859725D01*
X211314744Y-66226826D01*
X210949823Y-65861268D01*
X210376664Y-65623272D01*
X209756058Y-65622730D01*
X209182486Y-65859725D01*
X208814744Y-66226826D01*
X208449823Y-65861268D01*
X207876664Y-65623272D01*
X207256058Y-65622730D01*
X206682486Y-65859725D01*
X206247879Y-66293574D01*
X206163256Y-66264349D01*
X205244605Y-67183000D01*
X205258748Y-67197143D01*
X205079143Y-67376748D01*
X205065000Y-67362605D01*
X205050858Y-67376748D01*
X204871253Y-67197143D01*
X204885395Y-67183000D01*
X204871253Y-67168858D01*
X205050858Y-66989253D01*
X205065000Y-67003395D01*
X205983651Y-66084744D01*
X205894179Y-65825668D01*
X205311632Y-65611675D01*
X204691539Y-65636903D01*
X204235821Y-65825668D01*
X204146350Y-66084742D01*
X204095218Y-66033610D01*
X204093162Y-66022683D01*
X203954090Y-65806559D01*
X203741890Y-65661569D01*
X203490000Y-65610560D01*
X201640000Y-65610560D01*
X201404683Y-65654838D01*
X201188559Y-65793910D01*
X201043569Y-66006110D01*
X200992560Y-66258000D01*
X200992560Y-68108000D01*
X201015757Y-68231283D01*
X200877161Y-68258852D01*
X200630599Y-68423599D01*
X200393320Y-68660878D01*
X200347833Y-68660838D01*
X200004057Y-68802883D01*
X199740808Y-69065673D01*
X199598162Y-69409201D01*
X199597838Y-69781167D01*
X188427297Y-69781167D01*
X188429491Y-69545377D01*
X189539239Y-68435629D01*
X189618910Y-68559441D01*
X189831110Y-68704431D01*
X190083000Y-68755440D01*
X191933000Y-68755440D01*
X192168317Y-68711162D01*
X192384441Y-68572090D01*
X192529431Y-68359890D01*
X192534183Y-68336425D01*
X192589350Y-68281258D01*
X192678821Y-68540332D01*
X193261368Y-68754325D01*
X193881461Y-68729097D01*
X194337179Y-68540332D01*
X194426651Y-68281256D01*
X193508000Y-67362605D01*
X193493858Y-67376748D01*
X193314253Y-67197143D01*
X193328395Y-67183000D01*
X193687605Y-67183000D01*
X194606256Y-68101651D01*
X194691434Y-68072235D01*
X195123177Y-68504732D01*
X195696336Y-68742728D01*
X196316942Y-68743270D01*
X196890514Y-68506275D01*
X197329732Y-68067823D01*
X197567728Y-67494664D01*
X197568270Y-66874058D01*
X197331275Y-66300486D01*
X196892823Y-65861268D01*
X196319664Y-65623272D01*
X195699058Y-65622730D01*
X195125486Y-65859725D01*
X194690879Y-66293574D01*
X194606256Y-66264349D01*
X193687605Y-67183000D01*
X193328395Y-67183000D01*
X193314253Y-67168858D01*
X193493858Y-66989253D01*
X193508000Y-67003395D01*
X194426651Y-66084744D01*
X194337179Y-65825668D01*
X193754632Y-65611675D01*
X193134539Y-65636903D01*
X192678821Y-65825668D01*
X192589350Y-66084742D01*
X192538218Y-66033610D01*
X192536162Y-66022683D01*
X192397090Y-65806559D01*
X192184890Y-65661569D01*
X191933000Y-65610560D01*
X190083000Y-65610560D01*
X189847683Y-65654838D01*
X189631559Y-65793910D01*
X189486569Y-66006110D01*
X189435560Y-66258000D01*
X189435560Y-66382897D01*
X189291460Y-66411560D01*
X189020566Y-66592566D01*
X188451667Y-67161465D01*
X188466825Y-65532000D01*
X217678000Y-65532000D01*
X217678000Y-88074858D01*
X217678000Y-88074858D01*
G37*
X217678000Y-88074858D02*
X212790000Y-88074858D01*
X212790000Y-90426000D01*
X196904241Y-90426000D01*
X196745327Y-90266808D01*
X196401799Y-90124162D01*
X196029833Y-90123838D01*
X195686057Y-90265883D01*
X195422808Y-90528673D01*
X195280162Y-90872201D01*
X195279838Y-91244167D01*
X195421883Y-91587943D01*
X195619247Y-91785652D01*
X195293539Y-91798903D01*
X194837821Y-91987668D01*
X194748350Y-92246742D01*
X194697218Y-92195610D01*
X194695162Y-92184683D01*
X194556090Y-91968559D01*
X194343890Y-91823569D01*
X194092000Y-91772560D01*
X192669362Y-91772560D01*
X192276000Y-91379198D01*
X192276000Y-86795463D01*
X192308192Y-86763327D01*
X192450838Y-86419799D01*
X192451162Y-86047833D01*
X192309117Y-85704057D01*
X192046327Y-85440808D01*
X191791648Y-85335055D01*
X191815838Y-85276799D01*
X191816162Y-84904833D01*
X191737438Y-84714306D01*
X192274465Y-85251333D01*
X192373883Y-85491943D01*
X192636673Y-85755192D01*
X192980201Y-85897838D01*
X193352167Y-85898162D01*
X193695943Y-85756117D01*
X193959192Y-85493327D01*
X194101838Y-85149799D01*
X194102162Y-84777833D01*
X193960117Y-84434057D01*
X193697327Y-84170808D01*
X193455090Y-84070222D01*
X192614434Y-83229566D01*
X192343541Y-83048561D01*
X192024000Y-82985000D01*
X191435234Y-82985000D01*
X191194799Y-82885162D01*
X190822833Y-82884838D01*
X190580422Y-82985000D01*
X189101000Y-82985000D01*
X189101000Y-82666440D01*
X189536000Y-82666440D01*
X189771317Y-82622162D01*
X189987441Y-82483090D01*
X190132431Y-82270890D01*
X190183440Y-82019000D01*
X190183440Y-80549750D01*
X215721000Y-80549750D01*
X215721000Y-82145310D01*
X215817673Y-82378699D01*
X215996302Y-82557327D01*
X216229691Y-82654000D01*
X217340250Y-82654000D01*
X217499000Y-82495250D01*
X217499000Y-80391000D01*
X215879750Y-80391000D01*
X215721000Y-80549750D01*
X190183440Y-80549750D01*
X190183440Y-78509000D01*
X190159674Y-78382690D01*
X215721000Y-78382690D01*
X215721000Y-79978250D01*
X215879750Y-80137000D01*
X217499000Y-80137000D01*
X217499000Y-78032750D01*
X217340250Y-77874000D01*
X216229691Y-77874000D01*
X215996302Y-77970673D01*
X215817673Y-78149301D01*
X215721000Y-78382690D01*
X190159674Y-78382690D01*
X190139162Y-78273683D01*
X190000090Y-78057559D01*
X189787890Y-77912569D01*
X189536000Y-77861560D01*
X189101000Y-77861560D01*
X189101000Y-77776000D01*
X189037439Y-77456459D01*
X188856434Y-77185566D01*
X188363010Y-76692142D01*
X188374086Y-75501418D01*
X188706935Y-75501709D01*
X189150535Y-75318418D01*
X189287191Y-75182000D01*
X189550198Y-75182000D01*
X189945878Y-75577680D01*
X189945838Y-75623167D01*
X190087883Y-75966943D01*
X190350673Y-76230192D01*
X190694201Y-76372838D01*
X191066167Y-76373162D01*
X191409943Y-76231117D01*
X191673192Y-75968327D01*
X191768787Y-75738110D01*
X191828167Y-75738162D01*
X192171943Y-75596117D01*
X192435192Y-75333327D01*
X192577838Y-74989799D01*
X192578162Y-74617833D01*
X192436117Y-74274057D01*
X192173327Y-74010808D01*
X191829799Y-73868162D01*
X191782923Y-73868121D01*
X189674496Y-71759694D01*
X189674709Y-71516065D01*
X189491418Y-71072465D01*
X189152320Y-70732775D01*
X188709041Y-70548710D01*
X188420160Y-70548458D01*
X188427297Y-69781167D01*
X199597838Y-69781167D01*
X199739883Y-70124943D01*
X200002673Y-70388192D01*
X200346201Y-70530838D01*
X200718167Y-70531162D01*
X201061943Y-70389117D01*
X201325192Y-70126327D01*
X201467838Y-69782799D01*
X201467879Y-69735923D01*
X201482802Y-69721000D01*
X206377000Y-69721000D01*
X206377000Y-70049537D01*
X206344808Y-70081673D01*
X206202162Y-70425201D01*
X206201838Y-70797167D01*
X206343883Y-71140943D01*
X206606673Y-71404192D01*
X206950201Y-71546838D01*
X207322167Y-71547162D01*
X207665943Y-71405117D01*
X207929192Y-71142327D01*
X208071838Y-70798799D01*
X208072162Y-70426833D01*
X207930117Y-70083057D01*
X207897000Y-70049882D01*
X207897000Y-68999047D01*
X207994883Y-69235943D01*
X208237878Y-69479362D01*
X208250599Y-69498401D01*
X209393599Y-70641401D01*
X209640161Y-70806148D01*
X209931000Y-70864000D01*
X212924537Y-70864000D01*
X212956673Y-70896192D01*
X213300201Y-71038838D01*
X213672167Y-71039162D01*
X214015943Y-70897117D01*
X214279192Y-70634327D01*
X214421838Y-70290799D01*
X214422162Y-69918833D01*
X214392894Y-69848000D01*
X214829537Y-69848000D01*
X214861673Y-69880192D01*
X215205201Y-70022838D01*
X215577167Y-70023162D01*
X215920943Y-69881117D01*
X216184192Y-69618327D01*
X216326838Y-69274799D01*
X216327162Y-68902833D01*
X216185117Y-68559057D01*
X216040132Y-68413819D01*
X216386732Y-68067823D01*
X216624728Y-67494664D01*
X216625270Y-66874058D01*
X216388275Y-66300486D01*
X215949823Y-65861268D01*
X215376664Y-65623272D01*
X214756058Y-65622730D01*
X214182486Y-65859725D01*
X213814744Y-66226826D01*
X213449823Y-65861268D01*
X212876664Y-65623272D01*
X212256058Y-65622730D01*
X211682486Y-65859725D01*
X211314744Y-66226826D01*
X210949823Y-65861268D01*
X210376664Y-65623272D01*
X209756058Y-65622730D01*
X209182486Y-65859725D01*
X208814744Y-66226826D01*
X208449823Y-65861268D01*
X207876664Y-65623272D01*
X207256058Y-65622730D01*
X206682486Y-65859725D01*
X206247879Y-66293574D01*
X206163256Y-66264349D01*
X205244605Y-67183000D01*
X205258748Y-67197143D01*
X205079143Y-67376748D01*
X205065000Y-67362605D01*
X205050858Y-67376748D01*
X204871253Y-67197143D01*
X204885395Y-67183000D01*
X204871253Y-67168858D01*
X205050858Y-66989253D01*
X205065000Y-67003395D01*
X205983651Y-66084744D01*
X205894179Y-65825668D01*
X205311632Y-65611675D01*
X204691539Y-65636903D01*
X204235821Y-65825668D01*
X204146350Y-66084742D01*
X204095218Y-66033610D01*
X204093162Y-66022683D01*
X203954090Y-65806559D01*
X203741890Y-65661569D01*
X203490000Y-65610560D01*
X201640000Y-65610560D01*
X201404683Y-65654838D01*
X201188559Y-65793910D01*
X201043569Y-66006110D01*
X200992560Y-66258000D01*
X200992560Y-68108000D01*
X201015757Y-68231283D01*
X200877161Y-68258852D01*
X200630599Y-68423599D01*
X200393320Y-68660878D01*
X200347833Y-68660838D01*
X200004057Y-68802883D01*
X199740808Y-69065673D01*
X199598162Y-69409201D01*
X199597838Y-69781167D01*
X188427297Y-69781167D01*
X188429491Y-69545377D01*
X189539239Y-68435629D01*
X189618910Y-68559441D01*
X189831110Y-68704431D01*
X190083000Y-68755440D01*
X191933000Y-68755440D01*
X192168317Y-68711162D01*
X192384441Y-68572090D01*
X192529431Y-68359890D01*
X192534183Y-68336425D01*
X192589350Y-68281258D01*
X192678821Y-68540332D01*
X193261368Y-68754325D01*
X193881461Y-68729097D01*
X194337179Y-68540332D01*
X194426651Y-68281256D01*
X193508000Y-67362605D01*
X193493858Y-67376748D01*
X193314253Y-67197143D01*
X193328395Y-67183000D01*
X193687605Y-67183000D01*
X194606256Y-68101651D01*
X194691434Y-68072235D01*
X195123177Y-68504732D01*
X195696336Y-68742728D01*
X196316942Y-68743270D01*
X196890514Y-68506275D01*
X197329732Y-68067823D01*
X197567728Y-67494664D01*
X197568270Y-66874058D01*
X197331275Y-66300486D01*
X196892823Y-65861268D01*
X196319664Y-65623272D01*
X195699058Y-65622730D01*
X195125486Y-65859725D01*
X194690879Y-66293574D01*
X194606256Y-66264349D01*
X193687605Y-67183000D01*
X193328395Y-67183000D01*
X193314253Y-67168858D01*
X193493858Y-66989253D01*
X193508000Y-67003395D01*
X194426651Y-66084744D01*
X194337179Y-65825668D01*
X193754632Y-65611675D01*
X193134539Y-65636903D01*
X192678821Y-65825668D01*
X192589350Y-66084742D01*
X192538218Y-66033610D01*
X192536162Y-66022683D01*
X192397090Y-65806559D01*
X192184890Y-65661569D01*
X191933000Y-65610560D01*
X190083000Y-65610560D01*
X189847683Y-65654838D01*
X189631559Y-65793910D01*
X189486569Y-66006110D01*
X189435560Y-66258000D01*
X189435560Y-66382897D01*
X189291460Y-66411560D01*
X189020566Y-66592566D01*
X188451667Y-67161465D01*
X188466825Y-65532000D01*
X217678000Y-65532000D01*
X217678000Y-88074858D01*
M02*
