G04 #@! TF.FileFunction,Soldermask,Top*
%FSLAX46Y46*%
G04 Gerber Fmt 4.6, Leading zero omitted, Abs format (unit mm)*
G04 Created by KiCad (PCBNEW 4.0.7) date Wed Sep 16 00:54:05 2020*
%MOMM*%
%LPD*%
G01*
G04 APERTURE LIST*
%ADD10C,0.150000*%
%ADD11C,1.543000*%
%ADD12R,1.850000X0.850000*%
%ADD13R,1.700000X1.900000*%
%ADD14R,2.250000X2.250000*%
%ADD15C,2.250000*%
%ADD16R,1.650000X1.900000*%
%ADD17R,1.900000X1.650000*%
%ADD18R,1.400000X2.400000*%
G04 APERTURE END LIST*
D10*
D11*
X134366000Y-89281000D03*
X134493000Y-74549000D03*
X134493000Y-72009000D03*
X134366000Y-86741000D03*
D12*
X160557000Y-83316000D03*
X160557000Y-82666000D03*
X160557000Y-82016000D03*
X160557000Y-81366000D03*
X160557000Y-80716000D03*
X160557000Y-80066000D03*
X160557000Y-79416000D03*
X160557000Y-78766000D03*
X160557000Y-78116000D03*
X160557000Y-77466000D03*
X154657000Y-77466000D03*
X154657000Y-78116000D03*
X154657000Y-78766000D03*
X154657000Y-79416000D03*
X154657000Y-80066000D03*
X154657000Y-80716000D03*
X154657000Y-81366000D03*
X154657000Y-82016000D03*
X154657000Y-82666000D03*
X154657000Y-83316000D03*
D13*
X160401000Y-86153000D03*
X160401000Y-88853000D03*
X157607000Y-72183000D03*
X157607000Y-74883000D03*
D14*
X153543000Y-93599000D03*
D15*
X156043000Y-93599000D03*
D14*
X148590000Y-67437000D03*
D15*
X151090000Y-67437000D03*
X153590000Y-67437000D03*
X156090000Y-67437000D03*
X158590000Y-67437000D03*
X161090000Y-67437000D03*
D14*
X137033000Y-67437000D03*
D15*
X139533000Y-67437000D03*
X142033000Y-67437000D03*
D14*
X139192000Y-93599000D03*
D15*
X141692000Y-93599000D03*
X144192000Y-93599000D03*
X146692000Y-93599000D03*
D13*
X160528000Y-74883000D03*
X160528000Y-72183000D03*
D16*
X154686000Y-74910000D03*
X154686000Y-72410000D03*
D17*
X154706000Y-86106000D03*
X157206000Y-86106000D03*
D18*
X151399000Y-72772000D03*
X149399000Y-72772000D03*
X147399000Y-72772000D03*
X145399000Y-72772000D03*
X143399000Y-72772000D03*
X141399000Y-72772000D03*
X139399000Y-72772000D03*
X137399000Y-72772000D03*
X137399000Y-88772000D03*
X139399000Y-88772000D03*
X141399000Y-88772000D03*
X143399000Y-88772000D03*
X145399000Y-88772000D03*
X147399000Y-88772000D03*
X149399000Y-88772000D03*
X151399000Y-88772000D03*
X205374000Y-72518000D03*
X203374000Y-72518000D03*
X201374000Y-72518000D03*
X199374000Y-72518000D03*
X197374000Y-72518000D03*
X195374000Y-72518000D03*
X193374000Y-72518000D03*
X191374000Y-72518000D03*
X191374000Y-88518000D03*
X193374000Y-88518000D03*
X195374000Y-88518000D03*
X197374000Y-88518000D03*
X199374000Y-88518000D03*
X201374000Y-88518000D03*
X203374000Y-88518000D03*
X205374000Y-88518000D03*
D17*
X208681000Y-85852000D03*
X211181000Y-85852000D03*
D16*
X208661000Y-74656000D03*
X208661000Y-72156000D03*
D13*
X214503000Y-74629000D03*
X214503000Y-71929000D03*
D14*
X193167000Y-93345000D03*
D15*
X195667000Y-93345000D03*
X198167000Y-93345000D03*
X200667000Y-93345000D03*
D14*
X191008000Y-67183000D03*
D15*
X193508000Y-67183000D03*
X196008000Y-67183000D03*
D14*
X202565000Y-67183000D03*
D15*
X205065000Y-67183000D03*
X207565000Y-67183000D03*
X210065000Y-67183000D03*
X212565000Y-67183000D03*
X215065000Y-67183000D03*
D14*
X207518000Y-93345000D03*
D15*
X210018000Y-93345000D03*
D13*
X211582000Y-71929000D03*
X211582000Y-74629000D03*
X214376000Y-85899000D03*
X214376000Y-88599000D03*
D12*
X214532000Y-83062000D03*
X214532000Y-82412000D03*
X214532000Y-81762000D03*
X214532000Y-81112000D03*
X214532000Y-80462000D03*
X214532000Y-79812000D03*
X214532000Y-79162000D03*
X214532000Y-78512000D03*
X214532000Y-77862000D03*
X214532000Y-77212000D03*
X208632000Y-77212000D03*
X208632000Y-77862000D03*
X208632000Y-78512000D03*
X208632000Y-79162000D03*
X208632000Y-79812000D03*
X208632000Y-80462000D03*
X208632000Y-81112000D03*
X208632000Y-81762000D03*
X208632000Y-82412000D03*
X208632000Y-83062000D03*
D11*
X188341000Y-86487000D03*
X188468000Y-71755000D03*
X188468000Y-74295000D03*
X188341000Y-89027000D03*
X187960000Y-134366000D03*
X188087000Y-119634000D03*
X188087000Y-117094000D03*
X187960000Y-131826000D03*
D12*
X214151000Y-128401000D03*
X214151000Y-127751000D03*
X214151000Y-127101000D03*
X214151000Y-126451000D03*
X214151000Y-125801000D03*
X214151000Y-125151000D03*
X214151000Y-124501000D03*
X214151000Y-123851000D03*
X214151000Y-123201000D03*
X214151000Y-122551000D03*
X208251000Y-122551000D03*
X208251000Y-123201000D03*
X208251000Y-123851000D03*
X208251000Y-124501000D03*
X208251000Y-125151000D03*
X208251000Y-125801000D03*
X208251000Y-126451000D03*
X208251000Y-127101000D03*
X208251000Y-127751000D03*
X208251000Y-128401000D03*
D13*
X213995000Y-131238000D03*
X213995000Y-133938000D03*
X211201000Y-117268000D03*
X211201000Y-119968000D03*
D14*
X207137000Y-138684000D03*
D15*
X209637000Y-138684000D03*
D14*
X202184000Y-112522000D03*
D15*
X204684000Y-112522000D03*
X207184000Y-112522000D03*
X209684000Y-112522000D03*
X212184000Y-112522000D03*
X214684000Y-112522000D03*
D14*
X190627000Y-112522000D03*
D15*
X193127000Y-112522000D03*
X195627000Y-112522000D03*
D14*
X192786000Y-138684000D03*
D15*
X195286000Y-138684000D03*
X197786000Y-138684000D03*
X200286000Y-138684000D03*
D13*
X214122000Y-119968000D03*
X214122000Y-117268000D03*
D16*
X208280000Y-119995000D03*
X208280000Y-117495000D03*
D17*
X208300000Y-131191000D03*
X210800000Y-131191000D03*
D18*
X204993000Y-117857000D03*
X202993000Y-117857000D03*
X200993000Y-117857000D03*
X198993000Y-117857000D03*
X196993000Y-117857000D03*
X194993000Y-117857000D03*
X192993000Y-117857000D03*
X190993000Y-117857000D03*
X190993000Y-133857000D03*
X192993000Y-133857000D03*
X194993000Y-133857000D03*
X196993000Y-133857000D03*
X198993000Y-133857000D03*
X200993000Y-133857000D03*
X202993000Y-133857000D03*
X204993000Y-133857000D03*
X151018000Y-118111000D03*
X149018000Y-118111000D03*
X147018000Y-118111000D03*
X145018000Y-118111000D03*
X143018000Y-118111000D03*
X141018000Y-118111000D03*
X139018000Y-118111000D03*
X137018000Y-118111000D03*
X137018000Y-134111000D03*
X139018000Y-134111000D03*
X141018000Y-134111000D03*
X143018000Y-134111000D03*
X145018000Y-134111000D03*
X147018000Y-134111000D03*
X149018000Y-134111000D03*
X151018000Y-134111000D03*
D17*
X154325000Y-131445000D03*
X156825000Y-131445000D03*
D16*
X154305000Y-120249000D03*
X154305000Y-117749000D03*
D13*
X160147000Y-120222000D03*
X160147000Y-117522000D03*
D14*
X138811000Y-138938000D03*
D15*
X141311000Y-138938000D03*
X143811000Y-138938000D03*
X146311000Y-138938000D03*
D14*
X136652000Y-112776000D03*
D15*
X139152000Y-112776000D03*
X141652000Y-112776000D03*
D14*
X148209000Y-112776000D03*
D15*
X150709000Y-112776000D03*
X153209000Y-112776000D03*
X155709000Y-112776000D03*
X158209000Y-112776000D03*
X160709000Y-112776000D03*
D14*
X153162000Y-138938000D03*
D15*
X155662000Y-138938000D03*
D13*
X157226000Y-117522000D03*
X157226000Y-120222000D03*
X160020000Y-131492000D03*
X160020000Y-134192000D03*
D12*
X160176000Y-128655000D03*
X160176000Y-128005000D03*
X160176000Y-127355000D03*
X160176000Y-126705000D03*
X160176000Y-126055000D03*
X160176000Y-125405000D03*
X160176000Y-124755000D03*
X160176000Y-124105000D03*
X160176000Y-123455000D03*
X160176000Y-122805000D03*
X154276000Y-122805000D03*
X154276000Y-123455000D03*
X154276000Y-124105000D03*
X154276000Y-124755000D03*
X154276000Y-125405000D03*
X154276000Y-126055000D03*
X154276000Y-126705000D03*
X154276000Y-127355000D03*
X154276000Y-128005000D03*
X154276000Y-128655000D03*
D11*
X133985000Y-132080000D03*
X134112000Y-117348000D03*
X134112000Y-119888000D03*
X133985000Y-134620000D03*
M02*
