G04 #@! TF.FileFunction,Legend,Bot*
%FSLAX46Y46*%
G04 Gerber Fmt 4.6, Leading zero omitted, Abs format (unit mm)*
G04 Created by KiCad (PCBNEW 4.0.7) date Wed Sep 16 00:54:05 2020*
%MOMM*%
%LPD*%
G01*
G04 APERTURE LIST*
%ADD10C,0.150000*%
%ADD11C,0.300000*%
%ADD12C,0.120000*%
G04 APERTURE END LIST*
D10*
D11*
X164375712Y-83165143D02*
X163232855Y-83165143D01*
X133947144Y-83165143D02*
X132804287Y-83165143D01*
X133375716Y-83736571D02*
X133375716Y-82593714D01*
X218604712Y-82911143D02*
X217461855Y-82911143D01*
X188176144Y-82911143D02*
X187033287Y-82911143D01*
X187604716Y-83482571D02*
X187604716Y-82339714D01*
X164121712Y-128504143D02*
X162978855Y-128504143D01*
X133693144Y-128504143D02*
X132550287Y-128504143D01*
X133121716Y-129075571D02*
X133121716Y-127932714D01*
X218223712Y-128377143D02*
X217080855Y-128377143D01*
X187795144Y-128377143D02*
X186652287Y-128377143D01*
X187223716Y-128948571D02*
X187223716Y-127805714D01*
D12*
X141125630Y-72406211D02*
G75*
G03X138279000Y-76908000I7845370J-8111789D01*
G01*
X156816370Y-88629789D02*
G75*
G03X159663000Y-84128000I-7845370J8111789D01*
G01*
X156816370Y-72406211D02*
G75*
G02X159663000Y-76908000I-7845370J-8111789D01*
G01*
X141125630Y-88629789D02*
G75*
G02X138279000Y-84128000I7845370J8111789D01*
G01*
X134661000Y-78618000D02*
X134661000Y-76908000D01*
X138279000Y-76908000D02*
X134661000Y-76908000D01*
X145111000Y-72408000D02*
X141123700Y-72408000D01*
X147311000Y-74608000D02*
X145111000Y-72408000D01*
X150631000Y-74608000D02*
X147311000Y-74608000D01*
X150631000Y-74608000D02*
X152831000Y-72408000D01*
X156818300Y-72408000D02*
X152831000Y-72408000D01*
X163281000Y-78618000D02*
X163281000Y-76908000D01*
X163281000Y-76908000D02*
X159663000Y-76908000D01*
X159663000Y-84128000D02*
X163281000Y-84128000D01*
X163281000Y-82418000D02*
X163281000Y-84128000D01*
X141123700Y-88628000D02*
X156818300Y-88628000D01*
X134661000Y-82418000D02*
X134661000Y-84128000D01*
X134661000Y-84128000D02*
X138279000Y-84128000D01*
X195100630Y-72152211D02*
G75*
G03X192254000Y-76654000I7845370J-8111789D01*
G01*
X210791370Y-88375789D02*
G75*
G03X213638000Y-83874000I-7845370J8111789D01*
G01*
X210791370Y-72152211D02*
G75*
G02X213638000Y-76654000I-7845370J-8111789D01*
G01*
X195100630Y-88375789D02*
G75*
G02X192254000Y-83874000I7845370J8111789D01*
G01*
X188636000Y-78364000D02*
X188636000Y-76654000D01*
X192254000Y-76654000D02*
X188636000Y-76654000D01*
X199086000Y-72154000D02*
X195098700Y-72154000D01*
X201286000Y-74354000D02*
X199086000Y-72154000D01*
X204606000Y-74354000D02*
X201286000Y-74354000D01*
X204606000Y-74354000D02*
X206806000Y-72154000D01*
X210793300Y-72154000D02*
X206806000Y-72154000D01*
X217256000Y-78364000D02*
X217256000Y-76654000D01*
X217256000Y-76654000D02*
X213638000Y-76654000D01*
X213638000Y-83874000D02*
X217256000Y-83874000D01*
X217256000Y-82164000D02*
X217256000Y-83874000D01*
X195098700Y-88374000D02*
X210793300Y-88374000D01*
X188636000Y-82164000D02*
X188636000Y-83874000D01*
X188636000Y-83874000D02*
X192254000Y-83874000D01*
X194719630Y-117491211D02*
G75*
G03X191873000Y-121993000I7845370J-8111789D01*
G01*
X210410370Y-133714789D02*
G75*
G03X213257000Y-129213000I-7845370J8111789D01*
G01*
X210410370Y-117491211D02*
G75*
G02X213257000Y-121993000I-7845370J-8111789D01*
G01*
X194719630Y-133714789D02*
G75*
G02X191873000Y-129213000I7845370J8111789D01*
G01*
X188255000Y-123703000D02*
X188255000Y-121993000D01*
X191873000Y-121993000D02*
X188255000Y-121993000D01*
X198705000Y-117493000D02*
X194717700Y-117493000D01*
X200905000Y-119693000D02*
X198705000Y-117493000D01*
X204225000Y-119693000D02*
X200905000Y-119693000D01*
X204225000Y-119693000D02*
X206425000Y-117493000D01*
X210412300Y-117493000D02*
X206425000Y-117493000D01*
X216875000Y-123703000D02*
X216875000Y-121993000D01*
X216875000Y-121993000D02*
X213257000Y-121993000D01*
X213257000Y-129213000D02*
X216875000Y-129213000D01*
X216875000Y-127503000D02*
X216875000Y-129213000D01*
X194717700Y-133713000D02*
X210412300Y-133713000D01*
X188255000Y-127503000D02*
X188255000Y-129213000D01*
X188255000Y-129213000D02*
X191873000Y-129213000D01*
X140744630Y-117745211D02*
G75*
G03X137898000Y-122247000I7845370J-8111789D01*
G01*
X156435370Y-133968789D02*
G75*
G03X159282000Y-129467000I-7845370J8111789D01*
G01*
X156435370Y-117745211D02*
G75*
G02X159282000Y-122247000I-7845370J-8111789D01*
G01*
X140744630Y-133968789D02*
G75*
G02X137898000Y-129467000I7845370J8111789D01*
G01*
X134280000Y-123957000D02*
X134280000Y-122247000D01*
X137898000Y-122247000D02*
X134280000Y-122247000D01*
X144730000Y-117747000D02*
X140742700Y-117747000D01*
X146930000Y-119947000D02*
X144730000Y-117747000D01*
X150250000Y-119947000D02*
X146930000Y-119947000D01*
X150250000Y-119947000D02*
X152450000Y-117747000D01*
X156437300Y-117747000D02*
X152450000Y-117747000D01*
X162900000Y-123957000D02*
X162900000Y-122247000D01*
X162900000Y-122247000D02*
X159282000Y-122247000D01*
X159282000Y-129467000D02*
X162900000Y-129467000D01*
X162900000Y-127757000D02*
X162900000Y-129467000D01*
X140742700Y-133967000D02*
X156437300Y-133967000D01*
X134280000Y-127757000D02*
X134280000Y-129467000D01*
X134280000Y-129467000D02*
X137898000Y-129467000D01*
D10*
X149304333Y-72350381D02*
X149304333Y-73064667D01*
X149351953Y-73207524D01*
X149447191Y-73302762D01*
X149590048Y-73350381D01*
X149685286Y-73350381D01*
X148304333Y-73350381D02*
X148875762Y-73350381D01*
X148590048Y-73350381D02*
X148590048Y-72350381D01*
X148685286Y-72493238D01*
X148780524Y-72588476D01*
X148875762Y-72636095D01*
X203279333Y-72096381D02*
X203279333Y-72810667D01*
X203326953Y-72953524D01*
X203422191Y-73048762D01*
X203565048Y-73096381D01*
X203660286Y-73096381D01*
X202279333Y-73096381D02*
X202850762Y-73096381D01*
X202565048Y-73096381D02*
X202565048Y-72096381D01*
X202660286Y-72239238D01*
X202755524Y-72334476D01*
X202850762Y-72382095D01*
X202898333Y-117435381D02*
X202898333Y-118149667D01*
X202945953Y-118292524D01*
X203041191Y-118387762D01*
X203184048Y-118435381D01*
X203279286Y-118435381D01*
X201898333Y-118435381D02*
X202469762Y-118435381D01*
X202184048Y-118435381D02*
X202184048Y-117435381D01*
X202279286Y-117578238D01*
X202374524Y-117673476D01*
X202469762Y-117721095D01*
X148923333Y-117689381D02*
X148923333Y-118403667D01*
X148970953Y-118546524D01*
X149066191Y-118641762D01*
X149209048Y-118689381D01*
X149304286Y-118689381D01*
X147923333Y-118689381D02*
X148494762Y-118689381D01*
X148209048Y-118689381D02*
X148209048Y-117689381D01*
X148304286Y-117832238D01*
X148399524Y-117927476D01*
X148494762Y-117975095D01*
M02*
