G04 #@! TF.FileFunction,Profile,NP*
%FSLAX46Y46*%
G04 Gerber Fmt 4.6, Leading zero omitted, Abs format (unit mm)*
G04 Created by KiCad (PCBNEW 4.0.7) date Wed Sep 16 00:54:05 2020*
%MOMM*%
%LPD*%
G01*
G04 APERTURE LIST*
%ADD10C,0.150000*%
%ADD11C,0.050000*%
G04 APERTURE END LIST*
D10*
D11*
X165227000Y-65151000D02*
X134112000Y-65151000D01*
X167767000Y-67691000D02*
X165227000Y-65151000D01*
X167767000Y-93980000D02*
X167767000Y-67691000D01*
X184531000Y-93980000D02*
X167767000Y-93980000D01*
X184531000Y-68199000D02*
X184531000Y-93980000D01*
X187960000Y-64770000D02*
X184531000Y-68199000D01*
X220091000Y-64770000D02*
X187960000Y-64770000D01*
X221615000Y-66294000D02*
X220091000Y-64770000D01*
X221615000Y-94488000D02*
X221615000Y-66294000D01*
X218313000Y-97790000D02*
X221615000Y-94488000D01*
X187452000Y-97790000D02*
X218313000Y-97790000D01*
X187452000Y-110236000D02*
X187452000Y-97790000D01*
X219075000Y-110236000D02*
X187452000Y-110236000D01*
X221361000Y-112522000D02*
X219075000Y-110236000D01*
X221361000Y-139954000D02*
X221361000Y-112522000D01*
X217932000Y-143383000D02*
X221361000Y-139954000D01*
X187452000Y-143383000D02*
X217932000Y-143383000D01*
X183642000Y-139573000D02*
X187452000Y-143383000D01*
X183642000Y-112776000D02*
X183642000Y-139573000D01*
X167767000Y-112776000D02*
X183642000Y-112776000D01*
X167767000Y-139700000D02*
X167767000Y-112776000D01*
X164084000Y-143383000D02*
X167767000Y-139700000D01*
X133477000Y-143383000D02*
X164084000Y-143383000D01*
X129921000Y-139827000D02*
X133477000Y-143383000D01*
X129921000Y-114046000D02*
X129921000Y-139827000D01*
X133477000Y-110490000D02*
X129921000Y-114046000D01*
X165481000Y-110490000D02*
X133477000Y-110490000D01*
X165481000Y-98044000D02*
X165481000Y-110490000D01*
X133604000Y-98044000D02*
X165481000Y-98044000D01*
X130175000Y-94615000D02*
X133604000Y-98044000D01*
X130175000Y-69088000D02*
X130175000Y-94615000D01*
X134112000Y-65151000D02*
X130175000Y-69088000D01*
M02*
